<svg xmlns="http://www.w3.org/2000/svg" xmlns:xlink="http://www.w3.org/1999/xlink" xmlns:inkscape="http://www.inkscape.org/namespaces/inkscape" version="1.1" width="612" height="1008" viewBox="0 0 612 1008">
<defs>
<clipPath id="clip_34">
<path d="M0 957.4531H612V1008H0Z" clip-rule="evenodd"/>
</clipPath>
</defs>
<path transform="matrix(.75,0,0,.75,0,0)" d="M0 0H816V1344H0Z" fill="#ffffff"/>
<text xml:space="preserve" transform="matrix(.75 0 0 .75 36 36)" font-size="16" font-family="TimesNewRomanPSMT"><tspan y="14.9375" x="0"> </tspan></text>
<text xml:space="preserve" transform="matrix(.75 0 0 .75 36 51.86914)" font-size="16" font-family="TimesNewRomanPSMT"><tspan y="14.9375" x="0"> </tspan></text>
<text xml:space="preserve" transform="matrix(.75 0 0 .75 36 67.73828)" font-size="16" font-family="TimesNewRomanPSMT"><tspan y="14.9375" x="0"> </tspan></text>
<text xml:space="preserve" transform="matrix(.75 0 0 .75 36 83.60547)" font-size="16" font-family="TimesNewRomanPSMT"><tspan y="14.9375" x="0"> </tspan></text>
<text xml:space="preserve" transform="matrix(.75 0 0 .75 36 99.47461)" font-size="16" font-family="TimesNewRomanPSMT"><tspan y="14.9375" x="0"> </tspan></text>
<text xml:space="preserve" transform="matrix(.75 0 0 .75 36 115.34375)" font-size="29.333334" font-family="Cambria"><tspan y="27.872397" x="0"> </tspan></text>
<text xml:space="preserve" transform="matrix(.75 0 0 .75 36 145.0039)" font-size="29.333334" font-family="Cambria"><tspan y="27.872397" x="0"> </tspan></text>
<text xml:space="preserve" transform="matrix(.75 0 0 .75 36 174.66407)" font-size="29.333334" font-family="Cambria"><tspan y="27.872397" x="0"> </tspan></text>
<text xml:space="preserve" transform="matrix(.75 0 0 .75 36 204.32422)" font-size="29.333334" font-family="Cambria"><tspan y="27.872397" x="0"> </tspan></text>
<text xml:space="preserve" transform="matrix(.75 0 0 .75 36 233.98633)" font-size="34.666669" font-family="Cambria"><tspan y="32.940107" x="0 21.592469 41.27275 60.953035 80.887149 104.47641 127.405719 138.64192">APPENDIX</tspan></text>
<text fill="#ff0000" xml:space="preserve" transform="matrix(.75 0 0 .75 36 233.98633)" font-size="34.666669" font-family="Cambria"><tspan y="32.940107" x="158.44066"> </tspan></text>
<text xml:space="preserve" transform="matrix(.75 0 0 .75 36 269.04103)" font-size="16" font-family="Cambria"><tspan y="15.203125" x="0"> </tspan></text>
<text xml:space="preserve" transform="matrix(.75 0 0 .75 36 285.21876)" font-size="16" font-family="Cambria"><tspan y="15.203125" x="0"> </tspan></text>
<text xml:space="preserve" transform="matrix(.75 0 0 .75 36 301.39845)" font-size="16" font-family="Cambria"><tspan y="15.203125" x="0"> </tspan></text>
<text xml:space="preserve" transform="matrix(.75 0 0 .75 36 317.57423)" font-size="16" font-family="Cambria"><tspan y="15.203125" x="0"> </tspan></text>
<text xml:space="preserve" transform="matrix(.75 0 0 .75 36 333.7539)" font-size="16" font-family="Cambria"><tspan y="15.203125" x="0"> </tspan></text>
<text xml:space="preserve" transform="matrix(.75 0 0 .75 36 349.9336)" font-size="16" font-family="Cambria"><tspan y="15.203125" x="0"> </tspan></text>
<text xml:space="preserve" transform="matrix(.75 0 0 .75 36 366.11134)" font-size="16" font-family="Cambria"><tspan y="15.203125" x="0"> </tspan></text>
<text xml:space="preserve" transform="matrix(.75 0 0 .75 36 382.29103)" font-size="16" font-family="Cambria"><tspan y="15.203125" x="0"> </tspan></text>
<text xml:space="preserve" transform="matrix(.75 0 0 .75 36 398.46876)" font-size="16" font-family="Cambria"><tspan y="15.203125" x="0"> </tspan></text>
<text xml:space="preserve" transform="matrix(.75 0 0 .75 36 414.64845)" font-size="16" font-family="Cambria"><tspan y="15.203125" x="0"> </tspan></text>
<text xml:space="preserve" transform="matrix(.75 0 0 .75 36 430.82618)" font-size="16" font-family="Cambria"><tspan y="15.203125" x="0"> </tspan></text>
<text xml:space="preserve" transform="matrix(.75 0 0 .75 36 447.0039)" font-size="16" font-family="Cambria"><tspan y="15.203125" x="0"> </tspan></text>
<text xml:space="preserve" transform="matrix(.75 0 0 .75 36 463.1836)" font-size="16" font-family="Cambria"><tspan y="15.203125" x="0"> </tspan></text>
<text xml:space="preserve" transform="matrix(.75 0 0 .75 36 479.36134)" font-size="16" font-family="Cambria"><tspan y="15.203125" x="0"> </tspan></text>
<text xml:space="preserve" transform="matrix(.75 0 0 .75 36 495.54103)" font-size="16" font-family="Cambria"><tspan y="15.203125" x="0"> </tspan></text>
<text xml:space="preserve" transform="matrix(.75 0 0 .75 36 511.71876)" font-size="16" font-family="Cambria"><tspan y="15.203125" x="0"> </tspan></text>
<text xml:space="preserve" transform="matrix(.75 0 0 .75 36 527.89846)" font-size="16" font-family="Cambria"><tspan y="15.203125" x="0"> </tspan></text>
<text xml:space="preserve" transform="matrix(.75 0 0 .75 36 544.0762)" font-size="16" font-family="Cambria"><tspan y="15.203125" x="0"> </tspan></text>
<text xml:space="preserve" transform="matrix(.75 0 0 .75 36 560.25588)" font-size="16" font-family="Cambria"><tspan y="15.203125" x="0"> </tspan></text>
<text xml:space="preserve" transform="matrix(.75 0 0 .75 36 576.4336)" font-size="16" font-family="Cambria"><tspan y="15.203125" x="0"> </tspan></text>
<text xml:space="preserve" transform="matrix(.75 0 0 .75 36 592.6133)" font-size="16" font-family="Cambria"><tspan y="15.203125" x="0"> </tspan></text>
<text xml:space="preserve" transform="matrix(.75 0 0 .75 36 608.791)" font-size="16" font-family="Cambria"><tspan y="15.203125" x="0"> </tspan></text>
<text xml:space="preserve" transform="matrix(.75 0 0 .75 36 624.96878)" font-size="16" font-family="Cambria"><tspan y="15.203125" x="0"> </tspan></text>
<text xml:space="preserve" transform="matrix(.75 0 0 .75 36 641.14846)" font-size="16" font-family="Cambria"><tspan y="15.203125" x="0"> </tspan></text>
<text xml:space="preserve" transform="matrix(.75 0 0 .75 36 657.3262)" font-size="16" font-family="Cambria"><tspan y="15.203125" x="0"> </tspan></text>
<text xml:space="preserve" transform="matrix(.75 0 0 .75 36 673.50588)" font-size="16" font-family="Cambria"><tspan y="15.203125" x="0"> </tspan></text>
<text xml:space="preserve" transform="matrix(.75 0 0 .75 36 689.6836)" font-size="16" font-family="Cambria"><tspan y="15.203125" x="0"> </tspan></text>
<text xml:space="preserve" transform="matrix(.75 0 0 .75 36 705.8633)" font-size="16" font-family="Cambria"><tspan y="15.203125" x="0"> </tspan></text>
<text xml:space="preserve" transform="matrix(.75 0 0 .75 36 722.04299)" font-size="16" font-family="Cambria"><tspan y="15.203125" x="0"> </tspan></text>
<text xml:space="preserve" transform="matrix(.75 0 0 .75 36 738.21878)" font-size="16" font-family="Cambria"><tspan y="15.203125" x="0"> </tspan></text>
<text xml:space="preserve" transform="matrix(.75 0 0 .75 36 754.39846)" font-size="16" font-family="Cambria"><tspan y="15.203125" x="0"> </tspan></text>
<text xml:space="preserve" transform="matrix(.75 0 0 .75 36 770.5762)" font-size="16" font-family="Cambria"><tspan y="15.203125" x="0"> </tspan></text>
<text xml:space="preserve" transform="matrix(.75 0 0 .75 36 786.75588)" font-size="16" font-family="Cambria"><tspan y="15.203125" x="0"> </tspan></text>
<text xml:space="preserve" transform="matrix(.75 0 0 .75 36 802.9336)" font-size="16" font-family="Cambria"><tspan y="15.203125" x="0"> </tspan></text>
<text xml:space="preserve" transform="matrix(.75 0 0 .75 36 819.1133)" font-size="16" font-family="Cambria"><tspan y="15.203125" x="0"> </tspan></text>
<text xml:space="preserve" transform="matrix(.75 0 0 .75 36 835.29299)" font-size="16" font-family="Cambria"><tspan y="15.203125" x="0"> </tspan></text>
<text xml:space="preserve" transform="matrix(.75 0 0 .75 36 851.46878)" font-size="16" font-family="Cambria"><tspan y="15.203125" x="0"> </tspan></text>
<text xml:space="preserve" transform="matrix(.75 0 0 .75 36 867.64846)" font-size="16" font-family="Cambria"><tspan y="15.203125" x="0"> </tspan></text>
<text xml:space="preserve" transform="matrix(.75 0 0 .75 36 883.8281)" font-size="16" font-family="Cambria"><tspan y="15.203125" x="0"> </tspan></text>
<text xml:space="preserve" transform="matrix(.75 0 0 .75 36 900.00588)" font-size="16" font-family="Cambria"><tspan y="15.203125" x="0"> </tspan></text>
<text xml:space="preserve" transform="matrix(.75 0 0 .75 36 916.18557)" font-size="16" font-family="Cambria"><tspan y="15.203125" x="0"> </tspan></text>
<text xml:space="preserve" transform="matrix(.75 0 0 .75 36 932.3633)" font-size="16" font-family="Cambria"><tspan y="15.203125" x="0"> </tspan></text>
<g clip-path="url(#clip_34)">
<text xml:space="preserve" transform="matrix(.75 0 0 .75 36 957.4531)" font-size="14.666667" font-family="ArialMT"><tspan y="13.757161" x="351.84889 360">18</tspan></text>
<text xml:space="preserve" transform="matrix(.75 0 0 .75 36 957.4531)" font-size="14.666667" font-family="ArialMT"><tspan y="13.757161" x="368.1511"> </tspan></text>
</g>
</svg>
