<svg xmlns="http://www.w3.org/2000/svg" xmlns:xlink="http://www.w3.org/1999/xlink" version="1.1" width="596" height="842" viewBox="0 0 596 842">
<defs>
<clipPath id="clip_6">
<path d="M0 770.25H595.5V842.25H0Z" fill-rule="evenodd"/>
</clipPath>
</defs>
<path transform="matrix(.75,0,0,.75,0,0)" d="M0 0H794V1123H0Z" fill="#ffffff"/>
<path transform="matrix(.75,0,0,.75,0,72)" stroke-width="1" stroke-linecap="butt" stroke-miterlimit="10" stroke-linejoin="miter" fill="none" stroke="#000000" d="M96 892.5H288"/>
<text xml:space="preserve" transform="matrix(.75 0 0 .75 72 72)" font-size="16" font-family="TimesNewRomanPSMT"><tspan y="14.9375" x="0 14.4609379 18.908938 23.356938">With</tspan></text>
<text xml:space="preserve" transform="matrix(.75 0 0 .75 72 72)" font-size="16" font-family="TimesNewRomanPSMT"><tspan y="14.9375" x="38.351564 42.799566 50.799566">the</tspan></text>
<text xml:space="preserve" transform="matrix(.75 0 0 .75 72 72)" font-size="16" font-family="TimesNewRomanPSMT"><tspan y="14.9375" x="64.89844 70.22644 78.22644 82.67444 87.12244 95.12244 106.67444 111.12244 119.12244">following</tspan></text>
<text xml:space="preserve" transform="matrix(.75 0 0 .75 72 72)" font-size="16" font-family="TimesNewRomanPSMT"><tspan y="14.9375" x="134.11719 141.22119 149.22119 157.22119 165.22119 169.66919 174.11719 178.56519 186.56519 194.56519 200.78919 205.23719 212.34119 218.56519 224.78919 232.78919 245.23719 253.23719 257.68519 262.13319 270.13319 278.13319">conditions/assumptions</tspan></text>
<text xml:space="preserve" transform="matrix(.75 0 0 .75 72 72)" font-size="16" font-family="TimesNewRomanPSMT"><tspan y="14.9375" x="291.34376 295.79176">it</tspan></text>
<text xml:space="preserve" transform="matrix(.75 0 0 .75 72 72)" font-size="16" font-family="TimesNewRomanPSMT"><tspan y="14.9375" x="307.23439 311.68238">is</tspan></text>
<text xml:space="preserve" transform="matrix(.75 0 0 .75 72 72)" font-size="16" font-family="TimesNewRomanPSMT"><tspan y="14.9375" x="324.90626 330.23426 337.33827 344.44227 350.66627 358.66627 366.66627 373.77027 381.77027 386.21827">reasonable</tspan></text>
<text xml:space="preserve" transform="matrix(.75 0 0 .75 72 72)" font-size="16" font-family="TimesNewRomanPSMT"><tspan y="14.9375" x="400.3125 404.7605 412.7605 419.8645">that</tspan></text>
<text xml:space="preserve" transform="matrix(.75 0 0 .75 72 72)" font-size="16" font-family="TimesNewRomanPSMT"><tspan y="14.9375" x="431.3047 435.7527 443.7527">the</tspan></text>
<text xml:space="preserve" transform="matrix(.75 0 0 .75 72 72)" font-size="16" font-family="TimesNewRomanPSMT"><tspan y="14.9375" x="457.85157 465.85157 472.95558 485.40357 493.40357 497.85157 505.85157">damping</tspan></text>
<text xml:space="preserve" transform="matrix(.75 0 0 .75 72 72)" font-size="16" font-family="TimesNewRomanPSMT"><tspan y="14.9375" x="519.84378 526.94778 534.94778 540.27578 548.27578">curve</tspan></text>
<text xml:space="preserve" transform="matrix(.75 0 0 .75 72 72)" font-size="16" font-family="TimesNewRomanPSMT"><tspan y="14.9375" x="561.375 572.927 580.927 588.927 593.375">would</tspan></text>
<text xml:space="preserve" transform="matrix(.75 0 0 .75 72 87.86865)" font-size="16" font-family="TimesNewRomanPSMT"><tspan y="14.9375" x="0 4.4480006 12.448 20.448">look</tspan></text>
<text xml:space="preserve" transform="matrix(.75 0 0 .75 72 87.86865)" font-size="16" font-family="TimesNewRomanPSMT"><tspan y="14.9375" x="32.445314 36.893316 41.341318 49.341318">like</tspan></text>
<text xml:space="preserve" transform="matrix(.75 0 0 .75 72 87.86865)" font-size="16" font-family="TimesNewRomanPSMT"><tspan y="14.9375" x="60.4375 65.7655 73.7655">(1)</tspan></text>
<text xml:space="preserve" transform="matrix(.75 0 0 .75 72 87.86865)" font-size="16" font-family="TimesNewRomanPSMT"><tspan y="14.9375" x="83.09375 88.42175 95.52576 100.85376 107.95776 113.28577 118.61377 123.06177 131.06177">referring</tspan></text>
<text xml:space="preserve" transform="matrix(.75 0 0 .75 72 87.86865)" font-size="16" font-family="TimesNewRomanPSMT"><tspan y="14.9375" x="143.05469 147.50269">to</tspan></text>
<text xml:space="preserve" transform="matrix(.75 0 0 .75 72 87.86865)" font-size="16" font-family="TimesNewRomanPSMT"><tspan y="14.9375" x="159.5 163.948 171.948">the</tspan></text>
<text xml:space="preserve" transform="matrix(.75 0 0 .75 72 87.86865)" font-size="16" font-family="TimesNewRomanPSMT"><tspan y="14.9375" x="183.04688 191.04688 196.37488 203.47888 211.47888 215.92688 223.92688 231.92688">previous</tspan></text>
<text xml:space="preserve" transform="matrix(.75 0 0 .75 72 87.86865)" font-size="16" font-family="TimesNewRomanPSMT"><tspan y="14.9375" x="242.14844 247.47644 251.92444 259.92445 267.92445 273.25245 280.35646">figure:</tspan></text>
<text xml:space="preserve" transform="matrix(.75 0 0 .75 72 119.60596)" font-size="16" font-family="TimesNewRomanPSMT"><tspan y="14.9375" x="24 32">1.</tspan></text>
<text xml:space="preserve" transform="matrix(.75 0 0 .75 72 119.60596)" font-size="16" font-family="TimesNewRomanPSMT"><tspan y="14.9375" x="48 57.776 65.776">The</tspan></text>
<text xml:space="preserve" transform="matrix(.75 0 0 .75 72 119.60596)" font-size="16" font-family="TimesNewRomanPSMT"><tspan y="14.9375" x="76.875 82.203 90.203 95.531009 102.63501">force</tspan></text>
<text xml:space="preserve" transform="matrix(.75 0 0 .75 72 119.60596)" font-size="16" font-family="TimesNewRomanPSMT"><tspan y="14.9375" x="113.734378 121.734378">of</tspan></text>
<text xml:space="preserve" transform="matrix(.75 0 0 .75 72 119.60596)" font-size="16" font-family="TimesNewRomanPSMT"><tspan y="14.9375" x="131.0625 135.5105 143.5105">the</tspan></text>
<text xml:space="preserve" transform="matrix(.75 0 0 .75 72 119.60596)" font-size="16" font-family="TimesNewRomanPSMT"><tspan y="14.9375" x="154.60938 160.83338 168.83338 174.16138 178.60938 186.60938">spring</tspan></text>
<text xml:space="preserve" transform="matrix(.75 0 0 .75 72 119.60596)" font-size="16" font-family="TimesNewRomanPSMT"><tspan y="14.9375" x="198.60938 203.05738">is</tspan></text>
<text xml:space="preserve" transform="matrix(.75 0 0 .75 72 119.60596)" font-size="16" font-family="TimesNewRomanPSMT"><tspan y="14.9375" x="213.28125 221.28125 225.72925 231.05725 238.16126 245.26526 249.71326 254.16126">directly</tspan></text>
<text xml:space="preserve" transform="matrix(.75 0 0 .75 72 119.60596)" font-size="16" font-family="TimesNewRomanPSMT"><tspan y="14.9375" x="266.14845 274.14845 279.47645 287.47645 295.47645 303.47645 308.80445 313.25245 317.70045 325.70045 333.70045 340.80445">proportional</tspan></text>
<text xml:space="preserve" transform="matrix(.75 0 0 .75 72 119.60596)" font-size="16" font-family="TimesNewRomanPSMT"><tspan y="14.9375" x="349.2422 353.6902">to</tspan></text>
<text xml:space="preserve" transform="matrix(.75 0 0 .75 72 119.60596)" font-size="16" font-family="TimesNewRomanPSMT"><tspan y="14.9375" x="365.6875 370.1355 374.5835">its</tspan></text>
<text xml:space="preserve" transform="matrix(.75 0 0 .75 72 119.60596)" font-size="16" font-family="TimesNewRomanPSMT"><tspan y="14.9375" x="384.8047 391.9087 404.3567 412.3567 420.3567 428.3567">amount</tspan></text>
<text xml:space="preserve" transform="matrix(.75 0 0 .75 72 119.60596)" font-size="16" font-family="TimesNewRomanPSMT"><tspan y="14.9375" x="436.79689 444.79689">of</tspan></text>
<text xml:space="preserve" transform="matrix(.75 0 0 .75 72 119.60596)" font-size="16" font-family="TimesNewRomanPSMT"><tspan y="14.9375" x="454.125 461.229 469.229 481.677 489.677 495.005 502.109 508.333 514.557 519.005 527.005">compression</tspan></text>
<text xml:space="preserve" transform="matrix(.75 0 0 .75 72 119.60596)" font-size="16" font-family="TimesNewRomanPSMT"><tspan y="14.9375" x="539 543.448">in</tspan></text>
<text xml:space="preserve" transform="matrix(.75 0 0 .75 72 119.60596)" font-size="16" font-family="TimesNewRomanPSMT"><tspan y="14.9375" x="555.4453 559.8933 566.9973 574.9973 582.9973 587.4453 595.4453">length.</tspan></text>
<text xml:space="preserve" transform="matrix(.75 0 0 .75 72 151.34326)" font-size="16" font-family="TimesNewRomanPSMT"><tspan y="14.9375" x="24 32">2.</tspan></text>
<text xml:space="preserve" transform="matrix(.75 0 0 .75 72 151.34326)" font-size="16" font-family="TimesNewRomanPSMT"><tspan y="14.9375" x="48 57.776 65.776">The</tspan></text>
<text xml:space="preserve" transform="matrix(.75 0 0 .75 72 151.34326)" font-size="16" font-family="TimesNewRomanPSMT"><tspan y="14.9375" x="77.875 85.875 92.979007 105.427 113.427 117.875 125.875">damping</tspan></text>
<text xml:space="preserve" transform="matrix(.75 0 0 .75 72 151.34326)" font-size="16" font-family="TimesNewRomanPSMT"><tspan y="14.9375" x="138.86719 144.19519 152.19519 157.5232 164.6272">force</tspan></text>
<text xml:space="preserve" transform="matrix(.75 0 0 .75 72 151.34326)" font-size="16" font-family="TimesNewRomanPSMT"><tspan y="14.9375" x="175.72657 181.05457 189.05457 193.50257 199.72657 206.83057 214.83057 222.83057">(viscous</tspan></text>
<text xml:space="preserve" transform="matrix(.75 0 0 .75 72 151.34326)" font-size="16" font-family="TimesNewRomanPSMT"><tspan y="14.9375" x="233.05469 239.27869 243.72669 249.05469 256.1587 262.3827 268.6067 275.7107">stresses</tspan></text>
<text xml:space="preserve" transform="matrix(.75 0 0 .75 72 151.34326)" font-size="16" font-family="TimesNewRomanPSMT"><tspan y="14.9375" x="285.9375 293.0415">at</tspan></text>
<text xml:space="preserve" transform="matrix(.75 0 0 .75 72 151.34326)" font-size="16" font-family="TimesNewRomanPSMT"><tspan y="14.9375" x="301.48439 305.93238 313.93238">the</tspan></text>
<text xml:space="preserve" transform="matrix(.75 0 0 .75 72 151.34326)" font-size="16" font-family="TimesNewRomanPSMT"><tspan y="14.9375" x="325.03126 330.35926 334.80726 342.80726">flow</tspan></text>
<text xml:space="preserve" transform="matrix(.75 0 0 .75 72 151.34326)" font-size="16" font-family="TimesNewRomanPSMT"><tspan y="14.9375" x="358.35939 363.68739 370.79139 377.01539 381.46339 386.79139 391.23939 398.34339 402.79139 407.23939 415.23939 423.23939">restriction)</tspan></text>
<text xml:space="preserve" transform="matrix(.75 0 0 .75 72 151.34326)" font-size="16" font-family="TimesNewRomanPSMT"><tspan y="14.9375" x="432.5547 437.0027 445.0027 452.1067">that</tspan></text>
<text xml:space="preserve" transform="matrix(.75 0 0 .75 72 151.34326)" font-size="16" font-family="TimesNewRomanPSMT"><tspan y="14.9375" x="460.54689 467.65089 474.75489 479.20289">acts</tspan></text>
<text xml:space="preserve" transform="matrix(.75 0 0 .75 72 151.34326)" font-size="16" font-family="TimesNewRomanPSMT"><tspan y="14.9375" x="489.42189 496.52589 504.52589 511.62989 516.0779 524.0779 530.3019">against</tspan></text>
<text xml:space="preserve" transform="matrix(.75 0 0 .75 72 151.34326)" font-size="16" font-family="TimesNewRomanPSMT"><tspan y="14.9375" x="538.7422 543.1902 551.1902">the</tspan></text>
<text xml:space="preserve" transform="matrix(.75 0 0 .75 72 151.34326)" font-size="16" font-family="TimesNewRomanPSMT"><tspan y="14.9375" x="562.28909 570.28909 574.73709 580.96109 585.40908 593.40908">piston</tspan></text>
<text xml:space="preserve" transform="matrix(.75 0 0 .75 72 167.21192)" font-size="16" font-family="TimesNewRomanPSMT"><tspan y="14.9375" x="48 52.448">is</tspan></text>
<text xml:space="preserve" transform="matrix(.75 0 0 .75 72 167.21192)" font-size="16" font-family="TimesNewRomanPSMT"><tspan y="14.9375" x="62.671876 70.671878 75.11987 80.447879 87.55188 94.65588 99.10388 103.55188">directly</tspan></text>
<text xml:space="preserve" transform="matrix(.75 0 0 .75 72 167.21192)" font-size="16" font-family="TimesNewRomanPSMT"><tspan y="14.9375" x="115.53906 123.53906 128.86707 136.86707 144.86707 152.86707 158.19507 162.64307 167.09107 175.09107 183.09107 190.19507">proportional</tspan></text>
<text xml:space="preserve" transform="matrix(.75 0 0 .75 72 167.21192)" font-size="16" font-family="TimesNewRomanPSMT"><tspan y="14.9375" x="198.63282 203.08081">to</tspan></text>
<text xml:space="preserve" transform="matrix(.75 0 0 .75 72 167.21192)" font-size="16" font-family="TimesNewRomanPSMT"><tspan y="14.9375" x="215.07813 219.52613 227.52613">the</tspan></text>
<text xml:space="preserve" transform="matrix(.75 0 0 .75 72 167.21192)" font-size="16" font-family="TimesNewRomanPSMT"><tspan y="14.9375" x="238.625 243.953 251.953 257.281 264.385">force</tspan></text>
<text xml:space="preserve" transform="matrix(.75 0 0 .75 72 167.21192)" font-size="16" font-family="TimesNewRomanPSMT"><tspan y="14.9375" x="275.48439 279.93238 287.93238 295.03639">that</tspan></text>
<text xml:space="preserve" transform="matrix(.75 0 0 .75 72 167.21192)" font-size="16" font-family="TimesNewRomanPSMT"><tspan y="14.9375" x="303.47657 311.47657 316.80458 321.25257 329.25257 336.35658">drives</tspan></text>
<text xml:space="preserve" transform="matrix(.75 0 0 .75 72 167.21192)" font-size="16" font-family="TimesNewRomanPSMT"><tspan y="14.9375" x="346.57814 351.02613 355.47413">it,</tspan></text>
<text xml:space="preserve" transform="matrix(.75 0 0 .75 72 167.21192)" font-size="16" font-family="TimesNewRomanPSMT"><tspan y="14.9375" x="363.46876 367.91676 371.91676 379.02076 383.02076">i.e.,</tspan></text>
<text xml:space="preserve" transform="matrix(.75 0 0 .75 72 167.21192)" font-size="16" font-family="TimesNewRomanPSMT"><tspan y="14.9375" x="391.01564 395.46363 403.46363">the</tspan></text>
<text xml:space="preserve" transform="matrix(.75 0 0 .75 72 167.21192)" font-size="16" font-family="TimesNewRomanPSMT"><tspan y="14.9375" x="418.5625 423.8905 431.8905 437.2185 444.3225">force</tspan></text>
<text xml:space="preserve" transform="matrix(.75 0 0 .75 72 167.21192)" font-size="16" font-family="TimesNewRomanPSMT"><tspan y="14.9375" x="455.42189 463.42189">of</tspan></text>
<text xml:space="preserve" transform="matrix(.75 0 0 .75 72 167.21192)" font-size="16" font-family="TimesNewRomanPSMT"><tspan y="14.9375" x="472.75 477.198 485.198">the</tspan></text>
<text xml:space="preserve" transform="matrix(.75 0 0 .75 72 167.21192)" font-size="16" font-family="TimesNewRomanPSMT"><tspan y="14.9375" x="496.29689 502.52088 510.52088 515.8489 520.2969 528.2969 536.2969">spring.</tspan></text>
<text xml:space="preserve" transform="matrix(.75 0 0 .75 72 198.94922)" font-size="16" font-family="TimesNewRomanPSMT"><tspan y="14.9375" x="0 14.224001 22.224 28.448002">Most</tspan></text>
<text xml:space="preserve" transform="matrix(.75 0 0 .75 72 198.94922)" font-size="16" font-family="TimesNewRomanPSMT"><tspan y="14.9375" x="39.898439 47.898439 55.898439 63.898439 69.22644 76.330448 84.330448 88.77844 93.22644">hydraulic</tspan></text>
<text xml:space="preserve" transform="matrix(.75 0 0 .75 72 198.94922)" font-size="16" font-family="TimesNewRomanPSMT"><tspan y="14.9375" x="107.32031 113.54431 121.54431 127.76831 135.76831 142.87232 150.87232 157.09632 161.54431 169.54431">suspension</tspan></text>
<text xml:space="preserve" transform="matrix(.75 0 0 .75 72 198.94922)" font-size="16" font-family="TimesNewRomanPSMT"><tspan y="14.9375" x="184.54688 192.54688 199.65088 212.09888 220.09888 227.20288 232.53089">dampers</tspan></text>
<text xml:space="preserve" transform="matrix(.75 0 0 .75 72 198.94922)" font-size="16" font-family="TimesNewRomanPSMT"><tspan y="14.9375" x="245.75 253.75 260.854 268.854">have</tspan></text>
<text xml:space="preserve" transform="matrix(.75 0 0 .75 72 198.94922)" font-size="16" font-family="TimesNewRomanPSMT"><tspan y="14.9375" x="282.95314 290.95314 296.28114 303.38514 309.60914 315.83314 323.83314 329.16114">pressure</tspan></text>
<text xml:space="preserve" transform="matrix(.75 0 0 .75 72 198.94922)" font-size="16" font-family="TimesNewRomanPSMT"><tspan y="14.9375" x="343.26564 348.59364 355.69764 360.14564 364.59364 371.69764">relief</tspan></text>
<text xml:space="preserve" transform="matrix(.75 0 0 .75 72 198.94922)" font-size="16" font-family="TimesNewRomanPSMT"><tspan y="14.9375" x="383.01564 391.01564 398.11964 402.56764 410.56764 417.67164">valves</tspan></text>
<text xml:space="preserve" transform="matrix(.75 0 0 .75 72 198.94922)" font-size="16" font-family="TimesNewRomanPSMT"><tspan y="14.9375" x="429.89064 434.33863 442.33863 449.44264">that</tspan></text>
<text xml:space="preserve" transform="matrix(.75 0 0 .75 72 198.94922)" font-size="16" font-family="TimesNewRomanPSMT"><tspan y="14.9375" x="459.8828 466.98683 471.4348 475.8828 483.8828">allow</tspan></text>
<text xml:space="preserve" transform="matrix(.75 0 0 .75 72 198.94922)" font-size="16" font-family="TimesNewRomanPSMT"><tspan y="14.9375" x="501.4297 508.5337 516.5337 524.5337 528.9817 533.4297 537.8777 545.8777 553.8777 560.9817">additional</tspan></text>
<text xml:space="preserve" transform="matrix(.75 0 0 .75 72 198.94922)" font-size="16" font-family="TimesNewRomanPSMT"><tspan y="14.9375" x="571.41409 576.74209 581.19009 589.19009 593.63809">fluid</tspan></text>
<text xml:space="preserve" transform="matrix(.75 0 0 .75 72 214.81787)" font-size="16" font-family="TimesNewRomanPSMT"><tspan y="14.9375" x="0 4.4480006 12.448 17.776001 25.776001 33.776 41.776">through</tspan></text>
<text xml:space="preserve" transform="matrix(.75 0 0 .75 72 214.81787)" font-size="16" font-family="TimesNewRomanPSMT"><tspan y="14.9375" x="57.773439 65.77344">by</tspan></text>
<text xml:space="preserve" transform="matrix(.75 0 0 .75 72 214.81787)" font-size="16" font-family="TimesNewRomanPSMT"><tspan y="14.9375" x="81.77344 88.87744 96.87744 104.87744 109.32544 117.32544">adding</tspan></text>
<text xml:space="preserve" transform="matrix(.75 0 0 .75 72 214.81787)" font-size="16" font-family="TimesNewRomanPSMT"><tspan y="14.9375" x="133.32032 137.76831">to</tspan></text>
<text xml:space="preserve" transform="matrix(.75 0 0 .75 72 214.81787)" font-size="16" font-family="TimesNewRomanPSMT"><tspan y="14.9375" x="153.76563 158.21363 166.21363">the</tspan></text>
<text xml:space="preserve" transform="matrix(.75 0 0 .75 72 214.81787)" font-size="16" font-family="TimesNewRomanPSMT"><tspan y="14.9375" x="180.3125 185.6405 192.7445 198.9685 203.4165 208.7445 213.1925 220.29651 224.7445 229.1925 237.1925">restrictive</tspan></text>
<text xml:space="preserve" transform="matrix(.75 0 0 .75 72 214.81787)" font-size="16" font-family="TimesNewRomanPSMT"><tspan y="14.9375" x="251.28125 258.38526 263.71327 270.81727">area</tspan></text>
<text xml:space="preserve" transform="matrix(.75 0 0 .75 72 214.81787)" font-size="16" font-family="TimesNewRomanPSMT"><tspan y="14.9375" x="284.91407 296.46607 304.46607 311.57008">when</tspan></text>
<text xml:space="preserve" transform="matrix(.75 0 0 .75 72 214.81787)" font-size="16" font-family="TimesNewRomanPSMT"><tspan y="14.9375" x="326.5703 331.0183 339.0183">the</tspan></text>
<text xml:space="preserve" transform="matrix(.75 0 0 .75 72 214.81787)" font-size="16" font-family="TimesNewRomanPSMT"><tspan y="14.9375" x="353.1172 361.1172 366.4452 373.5492 379.7732 385.9972 393.9972 399.3252">pressure</tspan></text>
<text xml:space="preserve" transform="matrix(.75 0 0 .75 72 214.81787)" font-size="16" font-family="TimesNewRomanPSMT"><tspan y="14.9375" x="413.4297 417.8777">in</tspan></text>
<text xml:space="preserve" transform="matrix(.75 0 0 .75 72 214.81787)" font-size="16" font-family="TimesNewRomanPSMT"><tspan y="14.9375" x="432.875 437.323 445.323">the</tspan></text>
<text xml:space="preserve" transform="matrix(.75 0 0 .75 72 214.81787)" font-size="16" font-family="TimesNewRomanPSMT"><tspan y="14.9375" x="459.42189 464.74989 469.19789 477.19789 481.64588">fluid</tspan></text>
<text xml:space="preserve" transform="matrix(.75 0 0 .75 72 214.81787)" font-size="16" font-family="TimesNewRomanPSMT"><tspan y="14.9375" x="496.64064 501.08863">is</tspan></text>
<text xml:space="preserve" transform="matrix(.75 0 0 .75 72 214.81787)" font-size="16" font-family="TimesNewRomanPSMT"><tspan y="14.9375" x="514.3125 522.3125 526.7605 534.7605">high</tspan></text>
<text xml:space="preserve" transform="matrix(.75 0 0 .75 72 214.81787)" font-size="16" font-family="TimesNewRomanPSMT"><tspan y="14.9375" x="549.7578 556.8618 564.8618 572.8618 580.8618 588.8618 596.8618">enough.</tspan></text>
<text xml:space="preserve" transform="matrix(.75 0 0 .75 72 230.68653)" font-size="16" font-family="TimesNewRomanPSMT"><tspan y="14.9375" x="0 10.672001 18.672 31.120003 43.568006 51.568006 59.568006 64.01601 70.96875">Commonly,</tspan></text>
<text xml:space="preserve" transform="matrix(.75 0 0 .75 72 230.68653)" font-size="16" font-family="TimesNewRomanPSMT"><tspan y="14.9375" x="80.96875 88.96875 93.41675 98.453128 103.78113 110.88513 116.213138 123.31714 131.31714">different</tspan></text>
<text xml:space="preserve" transform="matrix(.75 0 0 .75 72 230.68653)" font-size="16" font-family="TimesNewRomanPSMT"><tspan y="14.9375" x="141.75782 149.75782 155.08582 162.18982 168.41382 174.63782 182.63782 187.96582">pressure</tspan></text>
<text xml:space="preserve" transform="matrix(.75 0 0 .75 72 230.68653)" font-size="16" font-family="TimesNewRomanPSMT"><tspan y="14.9375" x="201.07032 206.39832 213.50232 217.95032 222.39832 229.50232">relief</tspan></text>
<text xml:space="preserve" transform="matrix(.75 0 0 .75 72 230.68653)" font-size="16" font-family="TimesNewRomanPSMT"><tspan y="14.9375" x="240.82032 248.82032 255.92432 260.3723 268.3723 275.47633">valves</tspan></text>
<text xml:space="preserve" transform="matrix(.75 0 0 .75 72 230.68653)" font-size="16" font-family="TimesNewRomanPSMT"><tspan y="14.9375" x="287.6953 294.79933 300.12733">are</tspan></text>
<text xml:space="preserve" transform="matrix(.75 0 0 .75 72 230.68653)" font-size="16" font-family="TimesNewRomanPSMT"><tspan y="14.9375" x="313.22657 320.33058 326.55458 332.77857 339.88258 352.33058 360.33058 364.77857 371.88258">assembled</tspan></text>
<text xml:space="preserve" transform="matrix(.75 0 0 .75 72 230.68653)" font-size="16" font-family="TimesNewRomanPSMT"><tspan y="14.9375" x="385.875 391.203 399.203">for</tspan></text>
<text xml:space="preserve" transform="matrix(.75 0 0 .75 72 230.68653)" font-size="16" font-family="TimesNewRomanPSMT"><tspan y="14.9375" x="410.53126 414.97926 422.97926">the</tspan></text>
<text xml:space="preserve" transform="matrix(.75 0 0 .75 72 230.68653)" font-size="16" font-family="TimesNewRomanPSMT"><tspan y="14.9375" x="435.07814 442.18214 450.18214 462.63014 470.63014 475.95814 483.06214 489.28614 495.51014 499.95814 507.95814">compression</tspan></text>
<text xml:space="preserve" transform="matrix(.75 0 0 .75 72 230.68653)" font-size="16" font-family="TimesNewRomanPSMT"><tspan y="14.9375" x="520.9531 528.0571 536.0571">and</tspan></text>
<text xml:space="preserve" transform="matrix(.75 0 0 .75 72 230.68653)" font-size="16" font-family="TimesNewRomanPSMT"><tspan y="14.9375" x="549.0547 554.3827 561.4867 569.4867 577.4867 585.4867 593.4867">rebound</tspan></text>
<text xml:space="preserve" transform="matrix(.75 0 0 .75 72 246.55518)" font-size="16" font-family="TimesNewRomanPSMT"><tspan y="14.9375" x="0 6.2240006 10.672001 16 24 32 39.104">stroke,</tspan></text>
<text xml:space="preserve" transform="matrix(.75 0 0 .75 72 246.55518)" font-size="16" font-family="TimesNewRomanPSMT"><tspan y="14.9375" x="51.101564 59.101564 66.20557 70.653568 78.653568">being</tspan></text>
<text xml:space="preserve" transform="matrix(.75 0 0 .75 72 246.55518)" font-size="16" font-family="TimesNewRomanPSMT"><tspan y="14.9375" x="94.64844 99.096439 107.096439 115.096439 122.20044 130.20044 137.30445 145.30445 153.30445 160.40845 168.40845 172.85645 177.30445">independently</tspan></text>
<text xml:space="preserve" transform="matrix(.75 0 0 .75 72 246.55518)" font-size="16" font-family="TimesNewRomanPSMT"><tspan y="14.9375" x="193.28907 197.73706 205.73706 213.73706 220.84107 228.84107 233.28907">tunable</tspan></text>
<text xml:space="preserve" transform="matrix(.75 0 0 .75 72 246.55518)" font-size="16" font-family="TimesNewRomanPSMT"><tspan y="14.9375" x="248.38282 252.83081">in</tspan></text>
<text xml:space="preserve" transform="matrix(.75 0 0 .75 72 246.55518)" font-size="16" font-family="TimesNewRomanPSMT"><tspan y="14.9375" x="268.82814 275.05213 283.05213 295.50013">some</tspan></text>
<text xml:space="preserve" transform="matrix(.75 0 0 .75 72 246.55518)" font-size="16" font-family="TimesNewRomanPSMT"><tspan y="14.9375" x="310.60157 317.70558 324.80958 331.03358 338.13758 344.36158">cases.</tspan></text>
<text xml:space="preserve" transform="matrix(.75 0 0 .75 72 246.55518)" font-size="16" font-family="TimesNewRomanPSMT"><tspan y="14.9375" x="355.35939 364.25538 372.25538">For</tspan></text>
<text xml:space="preserve" transform="matrix(.75 0 0 .75 72 246.55518)" font-size="16" font-family="TimesNewRomanPSMT"><tspan y="14.9375" x="384.58595 389.03395 397.03395">the</tspan></text>
<text xml:space="preserve" transform="matrix(.75 0 0 .75 72 246.55518)" font-size="16" font-family="TimesNewRomanPSMT"><tspan y="14.9375" x="411.1328 416.46083 423.56483 431.56483 439.56483 447.56483 455.56483 463.56483">rebound,</tspan></text>
<text xml:space="preserve" transform="matrix(.75 0 0 .75 72 246.55518)" font-size="16" font-family="TimesNewRomanPSMT"><tspan y="14.9375" x="474.5625 479.0105 487.0105 494.1145">that</tspan></text>
<text xml:space="preserve" transform="matrix(.75 0 0 .75 72 246.55518)" font-size="16" font-family="TimesNewRomanPSMT"><tspan y="14.9375" x="505.5547 517.1067 525.1067 533.1067 537.5547">would</tspan></text>
<text xml:space="preserve" transform="matrix(.75 0 0 .75 72 246.55518)" font-size="16" font-family="TimesNewRomanPSMT"><tspan y="14.9375" x="552.5547 565.0027 572.1067 580.1067">make</tspan></text>
<text xml:space="preserve" transform="matrix(.75 0 0 .75 72 246.55518)" font-size="16" font-family="TimesNewRomanPSMT"><tspan y="14.9375" x="594.2031">a</tspan></text>
<text xml:space="preserve" transform="matrix(.75 0 0 .75 72 262.42384)" font-size="16" font-family="TimesNewRomanPSMT"><tspan y="14.9375" x="0 5.328 12.432001 20.432002 28.432002 36.432 44.432">rebound</tspan></text>
<text xml:space="preserve" transform="matrix(.75 0 0 .75 72 262.42384)" font-size="16" font-family="TimesNewRomanPSMT"><tspan y="14.9375" x="58.429689 67.32569 72.653697">S-F</tspan></text>
<text xml:space="preserve" transform="matrix(.75 0 0 .75 72 262.42384)" font-size="16" font-family="TimesNewRomanPSMT"><tspan y="14.9375" x="87.55469 94.65869 102.65869 107.986698 115.986698">curve</tspan></text>
<text xml:space="preserve" transform="matrix(.75 0 0 .75 72 262.42384)" font-size="16" font-family="TimesNewRomanPSMT"><tspan y="14.9375" x="129.08594 135.30994 143.30994 150.41394">such</tspan></text>
<text xml:space="preserve" transform="matrix(.75 0 0 .75 72 262.42384)" font-size="16" font-family="TimesNewRomanPSMT"><tspan y="14.9375" x="164.41407 171.51807">as</tspan></text>
<text xml:space="preserve" transform="matrix(.75 0 0 .75 72 262.42384)" font-size="16" font-family="TimesNewRomanPSMT"><tspan y="14.9375" x="183.74219 189.07019 197.07019">(2)</tspan></text>
<text xml:space="preserve" transform="matrix(.75 0 0 .75 72 262.42384)" font-size="16" font-family="TimesNewRomanPSMT"><tspan y="14.9375" x="208.39844 212.84644">in</tspan></text>
<text xml:space="preserve" transform="matrix(.75 0 0 .75 72 262.42384)" font-size="16" font-family="TimesNewRomanPSMT"><tspan y="14.9375" x="226.84375 235.73975 240.18775 248.18775 256.18775 261.51576">Figure</tspan></text>
<text xml:space="preserve" transform="matrix(.75 0 0 .75 72 262.42384)" font-size="16" font-family="TimesNewRomanPSMT"><tspan y="14.9375" x="273.6172 281.6172">1;</tspan></text>
<text xml:space="preserve" transform="matrix(.75 0 0 .75 72 262.42384)" font-size="16" font-family="TimesNewRomanPSMT"><tspan y="14.9375" x="291.0625">a</tspan></text>
<text xml:space="preserve" transform="matrix(.75 0 0 .75 72 262.42384)" font-size="16" font-family="TimesNewRomanPSMT"><tspan y="14.9375" x="303.16407 310.26808 318.26808 326.26808 333.37208 340.47608 348.47608">concave</tspan></text>
<text xml:space="preserve" transform="matrix(.75 0 0 .75 72 262.42384)" font-size="16" font-family="TimesNewRomanPS" font-style="italic"><tspan y="14.9375" x="360.5703 372.1223 380.1223 391.67433 399.67433 404.1223 412.1223">Damping</tspan></text>
<text xml:space="preserve" transform="matrix(.75 0 0 .75 72 262.42384)" font-size="16" font-family="TimesNewRomanPS" font-style="italic"><tspan y="14.9375" x="425.125 434.901 442.901 448.53126 455.63526">Force</tspan></text>
<text xml:space="preserve" transform="matrix(.75 0 0 .75 72 262.42384)" font-size="16" font-family="TimesNewRomanPSMT"><tspan y="14.9375" x="467.73439 475.73439">vs</tspan></text>
<text xml:space="preserve" transform="matrix(.75 0 0 .75 72 262.42384)" font-size="16" font-family="TimesNewRomanPS" font-style="italic"><tspan y="14.9375" x="486.96095 494.96095 499.40895 505.03907 513.03909 520.14309">Stroke</tspan></text>
<text xml:space="preserve" transform="matrix(.75 0 0 .75 72 262.42384)" font-size="16" font-family="TimesNewRomanPSMT"><tspan y="14.9375" x="532.2422 539.3462 547.3462 552.6742 560.6742 567.7782">curve.</tspan></text>
<text xml:space="preserve" transform="matrix(.75 0 0 .75 72 262.42384)" font-size="16" font-family="TimesNewRomanPSMT"><tspan y="14.9375" x="576.77346 586.54946 594.54946">The</tspan></text>
<text xml:space="preserve" transform="matrix(.75 0 0 .75 72 278.29249)" font-size="16" font-family="TimesNewRomanPSMT"><tspan y="14.9375" x="0 12.448001 19.552002 24.000002">main</tspan></text>
<text xml:space="preserve" transform="matrix(.75 0 0 .75 72 278.29249)" font-size="16" font-family="TimesNewRomanPSMT"><tspan y="14.9375" x="39.992189 47.992189 52.44019 58.66419 65.76819 73.76819 81.76819 88.87219 96.87219 101.32019 108.424198 116.424198">disadvantage</tspan></text>
<text xml:space="preserve" transform="matrix(.75 0 0 .75 72 278.29249)" font-size="16" font-family="TimesNewRomanPSMT"><tspan y="14.9375" x="131.51563 139.51563">of</tspan></text>
<text xml:space="preserve" transform="matrix(.75 0 0 .75 72 278.29249)" font-size="16" font-family="TimesNewRomanPSMT"><tspan y="14.9375" x="152.84375">a</tspan></text>
<text xml:space="preserve" transform="matrix(.75 0 0 .75 72 278.29249)" font-size="16" font-family="TimesNewRomanPSMT"><tspan y="14.9375" x="167.94532 175.04932 183.04932 191.04932 198.15332 205.25733 213.25733">concave</tspan></text>
<text xml:space="preserve" transform="matrix(.75 0 0 .75 72 278.29249)" font-size="16" font-family="TimesNewRomanPSMT"><tspan y="14.9375" x="228.35157 233.67957 240.78357 248.78357 256.78358 264.78358 272.78358">rebound</tspan></text>
<text xml:space="preserve" transform="matrix(.75 0 0 .75 72 278.29249)" font-size="16" font-family="TimesNewRomanPSMT"><tspan y="14.9375" x="287.78126 296.67726 302.00526">S-F</tspan></text>
<text xml:space="preserve" transform="matrix(.75 0 0 .75 72 278.29249)" font-size="16" font-family="TimesNewRomanPSMT"><tspan y="14.9375" x="317.90626 325.01026 333.01026 338.33827 346.33827">curve</tspan></text>
<text xml:space="preserve" transform="matrix(.75 0 0 .75 72 278.29249)" font-size="16" font-family="TimesNewRomanPSMT"><tspan y="14.9375" x="360.4375 367.5415 375.5415">and</tspan></text>
<text xml:space="preserve" transform="matrix(.75 0 0 .75 72 278.29249)" font-size="16" font-family="TimesNewRomanPSMT"><tspan y="14.9375" x="390.53907 397.64308 405.64308 412.74708">even</tspan></text>
<text xml:space="preserve" transform="matrix(.75 0 0 .75 72 278.29249)" font-size="16" font-family="TimesNewRomanPSMT"><tspan y="14.9375" x="427.7422">a</tspan></text>
<text xml:space="preserve" transform="matrix(.75 0 0 .75 72 278.29249)" font-size="16" font-family="TimesNewRomanPSMT"><tspan y="14.9375" x="441.84376 446.29176 450.73976 458.73976 465.84376 472.94776">linear</tspan></text>
<text xml:space="preserve" transform="matrix(.75 0 0 .75 72 278.29249)" font-size="16" font-family="TimesNewRomanPSMT"><tspan y="14.9375" x="485.26564 492.36964 500.36964 505.69764 513.69766 520.80166">curve,</tspan></text>
<text xml:space="preserve" transform="matrix(.75 0 0 .75 72 278.29249)" font-size="16" font-family="TimesNewRomanPSMT"><tspan y="14.9375" x="531.7969 539.7969 547.7969">due</tspan></text>
<text xml:space="preserve" transform="matrix(.75 0 0 .75 72 278.29249)" font-size="16" font-family="TimesNewRomanPSMT"><tspan y="14.9375" x="561.89846 566.34646">to</tspan></text>
<text xml:space="preserve" transform="matrix(.75 0 0 .75 72 278.29249)" font-size="16" font-family="TimesNewRomanPSMT"><tspan y="14.9375" x="581.34378 585.79177 593.79177">the</tspan></text>
<text xml:space="preserve" transform="matrix(.75 0 0 .75 72 294.16114)" font-size="16" font-family="TimesNewRomanPSMT"><tspan y="14.9375" x="0 8 15.104 19.552 27.552 34.656003 39.104005 43.552007">velocity</tspan></text>
<text xml:space="preserve" transform="matrix(.75 0 0 .75 72 294.16114)" font-size="16" font-family="TimesNewRomanPSMT"><tspan y="14.9375" x="56.539064 64.53906">of</tspan></text>
<text xml:space="preserve" transform="matrix(.75 0 0 .75 72 294.16114)" font-size="16" font-family="TimesNewRomanPSMT"><tspan y="14.9375" x="74.86719 79.315189 87.315189">the</tspan></text>
<text xml:space="preserve" transform="matrix(.75 0 0 .75 72 294.16114)" font-size="16" font-family="TimesNewRomanPSMT"><tspan y="14.9375" x="99.41406 104.742069 111.84607 119.84607 127.84607 135.84607 143.84607">rebound</tspan></text>
<text xml:space="preserve" transform="matrix(.75 0 0 .75 72 294.16114)" font-size="16" font-family="TimesNewRomanPSMT"><tspan y="14.9375" x="156.84375 164.84375 171.94776 176.39575 184.39575">being</tspan></text>
<text xml:space="preserve" transform="matrix(.75 0 0 .75 72 294.16114)" font-size="16" font-family="TimesNewRomanPSMT"><tspan y="14.9375" x="197.39063 201.83863 209.83863 214.28662 218.73462 223.18262 230.28662 234.73462 239.18262">initially</tspan></text>
<text xml:space="preserve" transform="matrix(.75 0 0 .75 72 294.16114)" font-size="16" font-family="TimesNewRomanPSMT"><tspan y="14.9375" x="252.16407 260.16407 264.61207 272.61207 280.61207 287.71607">higher</tspan></text>
<text xml:space="preserve" transform="matrix(.75 0 0 .75 72 294.16114)" font-size="16" font-family="TimesNewRomanPSMT"><tspan y="14.9375" x="298.03907 309.59107 314.03907 318.48707">with</tspan></text>
<text xml:space="preserve" transform="matrix(.75 0 0 .75 72 294.16114)" font-size="16" font-family="TimesNewRomanPSMT"><tspan y="14.9375" x="331.48439 335.93238 343.03639 348.0703 356.0703 363.17433">larger</tspan></text>
<text xml:space="preserve" transform="matrix(.75 0 0 .75 72 294.16114)" font-size="16" font-family="TimesNewRomanPSMT"><tspan y="14.9375" x="373.5 379.724 384.172 389.5 397.5 405.5 412.604 418.828">strokes,</tspan></text>
<text xml:space="preserve" transform="matrix(.75 0 0 .75 72 294.16114)" font-size="16" font-family="TimesNewRomanPSMT"><tspan y="14.9375" x="427.82814 440.27613 447.38014 455.38014 459.82814 465.15614 472.26014 478.48414 482.93214">manifests</tspan></text>
<text xml:space="preserve" transform="matrix(.75 0 0 .75 72 294.16114)" font-size="16" font-family="TimesNewRomanPSMT"><tspan y="14.9375" x="494.14845 506.59645 513.70046 518.14846 526.14846 530.59646">mainly</tspan></text>
<text xml:space="preserve" transform="matrix(.75 0 0 .75 72 294.16114)" font-size="16" font-family="TimesNewRomanPSMT"><tspan y="14.9375" x="543.58596 550.68997">as</tspan></text>
<text xml:space="preserve" transform="matrix(.75 0 0 .75 72 294.16114)" font-size="16" font-family="TimesNewRomanPSMT"><tspan y="14.9375" x="560.91409 568.91409 576.91409">one</tspan></text>
<text xml:space="preserve" transform="matrix(.75 0 0 .75 72 294.16114)" font-size="16" font-family="TimesNewRomanPSMT"><tspan y="14.9375" x="588.0156 596.0156">of</tspan></text>
<text xml:space="preserve" transform="matrix(.75 0 0 .75 72 310.0298)" font-size="16" font-family="TimesNewRomanPSMT"><tspan y="14.9375" x="0 4.4480006 12.448">the</tspan></text>
<text xml:space="preserve" transform="matrix(.75 0 0 .75 72 310.0298)" font-size="16" font-family="TimesNewRomanPSMT"><tspan y="14.9375" x="23.546875 28.874875 36.874876 41.322877 45.770879 53.770879 65.322879 69.770877 77.770877">following</tspan></text>
<text xml:space="preserve" transform="matrix(.75 0 0 .75 72 310.0298)" font-size="16" font-family="TimesNewRomanPSMT"><tspan y="14.9375" x="89.765628 96.86963 103.97363 110.19763 117.301639 123.525638">cases:</tspan></text>
<text xml:space="preserve" transform="matrix(.75 0 0 .75 72 341.7671)" font-size="16" font-family="ArialMT"><tspan y="15.0078129" x="24">&#x25cf;</tspan></text>
<text xml:space="preserve" transform="matrix(.75 0 0 .75 72 341.7671)" font-size="16" font-family="TimesNewRomanPSMT"><tspan y="15.0078129" x="48 57.776 65.776">The</tspan></text>
<text xml:space="preserve" transform="matrix(.75 0 0 .75 72 341.7671)" font-size="16" font-family="TimesNewRomanPSMT"><tspan y="15.0078129" x="77.875 83.203 90.30701 98.30701 106.30701 114.30701 122.30701">rebound</tspan></text>
<text xml:space="preserve" transform="matrix(.75 0 0 .75 72 341.7671)" font-size="16" font-family="TimesNewRomanPSMT"><tspan y="15.0078129" x="134.30469 142.30469 149.40869 161.85669 169.85669 174.30469 182.30469">damping</tspan></text>
<text xml:space="preserve" transform="matrix(.75 0 0 .75 72 341.7671)" font-size="16" font-family="TimesNewRomanPSMT"><tspan y="15.0078129" x="194.29688 198.74488">is</tspan></text>
<text xml:space="preserve" transform="matrix(.75 0 0 .75 72 341.7671)" font-size="16" font-family="TimesNewRomanPSMT"><tspan y="15.0078129" x="208.96875 215.19275 222.29676">set</tspan></text>
<text xml:space="preserve" transform="matrix(.75 0 0 .75 72 341.7671)" font-size="16" font-family="TimesNewRomanPSMT"><tspan y="15.0078129" x="230.74219 235.19019 243.19019">low</tspan></text>
<text xml:space="preserve" transform="matrix(.75 0 0 .75 72 341.7671)" font-size="16" font-family="TimesNewRomanPSMT"><tspan y="15.0078129" x="258.7422 264.0702 269.3982 276.5022 282.7262">(fast</tspan></text>
<text xml:space="preserve" transform="matrix(.75 0 0 .75 72 341.7671)" font-size="16" font-family="TimesNewRomanPSMT"><tspan y="15.0078129" x="291.17189 296.49989 303.60389 311.60389 319.60389 327.60389 335.60389 343.60389">rebound)</tspan></text>
<text xml:space="preserve" transform="matrix(.75 0 0 .75 72 341.7671)" font-size="16" font-family="TimesNewRomanPSMT"><tspan y="15.0078129" x="352.9297 359.1537">so</tspan></text>
<text xml:space="preserve" transform="matrix(.75 0 0 .75 72 341.7671)" font-size="16" font-family="TimesNewRomanPSMT"><tspan y="15.0078129" x="371.15626 375.60426 383.60426 390.70826">that</tspan></text>
<text xml:space="preserve" transform="matrix(.75 0 0 .75 72 341.7671)" font-size="16" font-family="TimesNewRomanPSMT"><tspan y="15.0078129" x="399.14845 403.59645 411.59645">the</tspan></text>
<text xml:space="preserve" transform="matrix(.75 0 0 .75 72 341.7671)" font-size="16" font-family="TimesNewRomanPSMT"><tspan y="15.0078129" x="422.6953 428.9193 436.9193 443.1433 451.1433 458.2473 466.2473 472.4713 476.9193 484.9193">suspension</tspan></text>
<text xml:space="preserve" transform="matrix(.75 0 0 .75 72 341.7671)" font-size="16" font-family="TimesNewRomanPSMT"><tspan y="15.0078129" x="496.92189 504.02589 512.0259 516.4739 523.5779 531.5779 539.5779">extends</tspan></text>
<text xml:space="preserve" transform="matrix(.75 0 0 .75 72 341.7671)" font-size="16" font-family="TimesNewRomanPSMT"><tspan y="15.0078129" x="549.7969 557.7969 565.7969 570.2449 577.3489 585.3489 589.7969 596.75">quickly,</tspan></text>
<text xml:space="preserve" transform="matrix(.75 0 0 .75 72 357.6963)" font-size="16" font-family="TimesNewRomanPSMT"><tspan y="14.9375" x="48 55.104 63.104 71.104007 75.552 80.880008 85.328 93.328 101.328 105.776 110.224 118.224">contributing</tspan></text>
<text xml:space="preserve" transform="matrix(.75 0 0 .75 72 357.6963)" font-size="16" font-family="TimesNewRomanPSMT"><tspan y="14.9375" x="132.21094 136.65894">to</tspan></text>
<text xml:space="preserve" transform="matrix(.75 0 0 .75 72 357.6963)" font-size="16" font-family="TimesNewRomanPSMT"><tspan y="14.9375" x="150.65625 155.10425 159.55225">its</tspan></text>
<text xml:space="preserve" transform="matrix(.75 0 0 .75 72 357.6963)" font-size="16" font-family="TimesNewRomanPSMT"><tspan y="14.9375" x="171.77344 177.10144 184.20545 190.42945 198.42945 206.42945 214.42945 220.65345 225.10144 233.10144 240.20545 248.20545 255.30945 261.53346">responsiveness</tspan></text>
<text xml:space="preserve" transform="matrix(.75 0 0 .75 72 357.6963)" font-size="16" font-family="TimesNewRomanPSMT"><tspan y="14.9375" x="272.7578 277.2058">to</tspan></text>
<text xml:space="preserve" transform="matrix(.75 0 0 .75 72 357.6963)" font-size="16" font-family="TimesNewRomanPSMT"><tspan y="14.9375" x="290.20314 298.20314 302.65113 310.65113 318.65113 323.09913 331.09913 336.42713 341.75514 347.08314 354.18714 362.18714 370.18714 377.29115 385.29115 389.73915">highly-frequent,</tspan></text>
<text xml:space="preserve" transform="matrix(.75 0 0 .75 72 357.6963)" font-size="16" font-family="TimesNewRomanPSMT"><tspan y="14.9375" x="398.72657 404.95057 417.39857 424.50257 428.95057">small</tspan></text>
<text xml:space="preserve" transform="matrix(.75 0 0 .75 72 357.6963)" font-size="16" font-family="TimesNewRomanPSMT"><tspan y="14.9375" x="438.39064 442.83863 455.28663 463.28663 470.39064 477.49464 481.94264 488.16664">impacts.</tspan></text>
<text xml:space="preserve" transform="matrix(.75 0 0 .75 72 357.6963)" font-size="16" font-family="TimesNewRomanPSMT"><tspan y="14.9375" x="497.15626 507.82826 514.93228 522.03628 529.14028 537.14028 543.36428">Because</tspan></text>
<text xml:space="preserve" transform="matrix(.75 0 0 .75 72 357.6963)" font-size="16" font-family="TimesNewRomanPSMT"><tspan y="14.9375" x="555.46096 563.46096">of</tspan></text>
<text xml:space="preserve" transform="matrix(.75 0 0 .75 72 357.6963)" font-size="16" font-family="TimesNewRomanPSMT"><tspan y="14.9375" x="573.78909 578.23709 586.23709 590.68508 596.90908">this,</tspan></text>
<text xml:space="preserve" transform="matrix(.75 0 0 .75 72 373.56544)" font-size="16" font-family="TimesNewRomanPSMT"><tspan y="14.9375" x="48 52.448 60.448">the</tspan></text>
<text xml:space="preserve" transform="matrix(.75 0 0 .75 72 373.56544)" font-size="16" font-family="TimesNewRomanPSMT"><tspan y="14.9375" x="71.546878 77.770877 85.770877 91.99487 99.99487 107.09888 115.09888 121.322879 125.770877 133.77088">suspension</tspan></text>
<text xml:space="preserve" transform="matrix(.75 0 0 .75 72 373.56544)" font-size="16" font-family="TimesNewRomanPSMT"><tspan y="14.9375" x="145.77344 152.87744 160.87744 165.32544 172.42945 180.42945 188.42945">extends</tspan></text>
<text xml:space="preserve" transform="matrix(.75 0 0 .75 72 373.56544)" font-size="16" font-family="TimesNewRomanPSMT"><tspan y="14.9375" x="198.64844 203.09644 211.09644">too</tspan></text>
<text xml:space="preserve" transform="matrix(.75 0 0 .75 72 373.56544)" font-size="16" font-family="TimesNewRomanPSMT"><tspan y="14.9375" x="223.09375 231.09375 239.09375 243.54175 250.64575 258.64576 263.09376">quickly</tspan></text>
<text xml:space="preserve" transform="matrix(.75 0 0 .75 72 373.56544)" font-size="16" font-family="TimesNewRomanPSMT"><tspan y="14.9375" x="275.08595 282.18995 287.51795 291.96595 299.06996">after</tspan></text>
<text xml:space="preserve" transform="matrix(.75 0 0 .75 72 373.56544)" font-size="16" font-family="TimesNewRomanPSMT"><tspan y="14.9375" x="308.39064">a</tspan></text>
<text xml:space="preserve" transform="matrix(.75 0 0 .75 72 373.56544)" font-size="16" font-family="TimesNewRomanPSMT"><tspan y="14.9375" x="319.4922 323.9402 331.0442 336.07814 344.07814">large</tspan></text>
<text xml:space="preserve" transform="matrix(.75 0 0 .75 72 373.56544)" font-size="16" font-family="TimesNewRomanPSMT"><tspan y="14.9375" x="355.1797 359.6277 372.07569 380.07569 387.1797 394.2837 398.7317">impact.</tspan></text>
<text xml:space="preserve" transform="matrix(.75 0 0 .75 72 405.30274)" font-size="16" font-family="ArialMT"><tspan y="15.0078129" x="24">&#x25cf;</tspan></text>
<text xml:space="preserve" transform="matrix(.75 0 0 .75 72 405.30274)" font-size="16" font-family="TimesNewRomanPSMT"><tspan y="15.0078129" x="48 57.776 65.776">The</tspan></text>
<text xml:space="preserve" transform="matrix(.75 0 0 .75 72 405.30274)" font-size="16" font-family="TimesNewRomanPSMT"><tspan y="15.0078129" x="80.875 86.203 93.30701 101.30701 109.30701 117.30701 125.30701">rebound</tspan></text>
<text xml:space="preserve" transform="matrix(.75 0 0 .75 72 405.30274)" font-size="16" font-family="TimesNewRomanPSMT"><tspan y="15.0078129" x="141.30469 149.30469 156.40869 168.85669 176.85669 181.30469 189.30469">damping</tspan></text>
<text xml:space="preserve" transform="matrix(.75 0 0 .75 72 405.30274)" font-size="16" font-family="TimesNewRomanPSMT"><tspan y="15.0078129" x="205.29688 209.74488">is</tspan></text>
<text xml:space="preserve" transform="matrix(.75 0 0 .75 72 405.30274)" font-size="16" font-family="TimesNewRomanPSMT"><tspan y="15.0078129" x="223.96875 230.19275 237.29676">set</tspan></text>
<text xml:space="preserve" transform="matrix(.75 0 0 .75 72 405.30274)" font-size="16" font-family="TimesNewRomanPSMT"><tspan y="15.0078129" x="249.74219 257.7422 262.1902 270.1902">high</tspan></text>
<text xml:space="preserve" transform="matrix(.75 0 0 .75 72 405.30274)" font-size="16" font-family="TimesNewRomanPSMT"><tspan y="15.0078129" x="286.1875 291.5155 297.7395 302.1875 310.1875">(slow</tspan></text>
<text xml:space="preserve" transform="matrix(.75 0 0 .75 72 405.30274)" font-size="16" font-family="TimesNewRomanPSMT"><tspan y="15.0078129" x="329.7422 335.0702 342.1742 350.1742 358.1742 366.1742 374.1742 382.1742">rebound)</tspan></text>
<text xml:space="preserve" transform="matrix(.75 0 0 .75 72 405.30274)" font-size="16" font-family="TimesNewRomanPSMT"><tspan y="15.0078129" x="395.5 401.724">so</tspan></text>
<text xml:space="preserve" transform="matrix(.75 0 0 .75 72 405.30274)" font-size="16" font-family="TimesNewRomanPSMT"><tspan y="15.0078129" x="417.72657 422.17457 430.17457 437.27857">that</tspan></text>
<text xml:space="preserve" transform="matrix(.75 0 0 .75 72 405.30274)" font-size="16" font-family="TimesNewRomanPSMT"><tspan y="15.0078129" x="448.71876 453.16676 461.16676">the</tspan></text>
<text xml:space="preserve" transform="matrix(.75 0 0 .75 72 405.30274)" font-size="16" font-family="TimesNewRomanPSMT"><tspan y="15.0078129" x="475.26564 481.48963 489.48963 495.71363 503.71363 510.81764 518.8176 525.0416 529.4896 537.4896">suspension</tspan></text>
<text xml:space="preserve" transform="matrix(.75 0 0 .75 72 405.30274)" font-size="16" font-family="TimesNewRomanPSMT"><tspan y="15.0078129" x="552.4922 559.5962 567.5962 572.0442 579.1482 587.1482 595.1482">extends</tspan></text>
<text xml:space="preserve" transform="matrix(.75 0 0 .75 72 421.23146)" font-size="16" font-family="TimesNewRomanPSMT"><tspan y="14.9375" x="48 54.224 58.672 66.672 78.224 82.672 89.63281">slowly,</tspan></text>
<text xml:space="preserve" transform="matrix(.75 0 0 .75 72 421.23146)" font-size="16" font-family="TimesNewRomanPSMT"><tspan y="14.9375" x="103.63281 110.73682 118.73682 126.73682 131.18482 139.18482 143.63282 151.63282">avoiding</tspan></text>
<text xml:space="preserve" transform="matrix(.75 0 0 .75 72 421.23146)" font-size="16" font-family="TimesNewRomanPSMT"><tspan y="14.9375" x="169.625 174.073 182.073">too</tspan></text>
<text xml:space="preserve" transform="matrix(.75 0 0 .75 72 421.23146)" font-size="16" font-family="TimesNewRomanPSMT"><tspan y="14.9375" x="200.07032 212.51831 220.51831 227.62232">much</tspan></text>
<text xml:space="preserve" transform="matrix(.75 0 0 .75 72 421.23146)" font-size="16" font-family="TimesNewRomanPSMT"><tspan y="14.9375" x="245.61719 250.94519 258.0492 266.0492 274.0492 282.0492 290.0492">rebound</tspan></text>
<text xml:space="preserve" transform="matrix(.75 0 0 .75 72 421.23146)" font-size="16" font-family="TimesNewRomanPSMT"><tspan y="14.9375" x="308.04689 315.15089 320.47889 324.92689 332.03089">after</tspan></text>
<text xml:space="preserve" transform="matrix(.75 0 0 .75 72 421.23146)" font-size="16" font-family="TimesNewRomanPSMT"><tspan y="14.9375" x="347.35157">a</tspan></text>
<text xml:space="preserve" transform="matrix(.75 0 0 .75 72 421.23146)" font-size="16" font-family="TimesNewRomanPSMT"><tspan y="14.9375" x="363.45314 367.90113 375.00514 380.03907 388.03907">large</tspan></text>
<text xml:space="preserve" transform="matrix(.75 0 0 .75 72 421.23146)" font-size="16" font-family="TimesNewRomanPSMT"><tspan y="14.9375" x="404.14064 408.58863 421.03663 429.03663 436.14064 443.24464 447.69264">impact.</tspan></text>
<text xml:space="preserve" transform="matrix(.75 0 0 .75 72 421.23146)" font-size="16" font-family="TimesNewRomanPSMT"><tspan y="14.9375" x="460.6797 471.35169 478.4557 485.5597 492.6637 500.6637 506.8877">Because</tspan></text>
<text xml:space="preserve" transform="matrix(.75 0 0 .75 72 421.23146)" font-size="16" font-family="TimesNewRomanPSMT"><tspan y="14.9375" x="522.9844 530.9844">of</tspan></text>
<text xml:space="preserve" transform="matrix(.75 0 0 .75 72 421.23146)" font-size="16" font-family="TimesNewRomanPSMT"><tspan y="14.9375" x="545.3125 549.7605 557.7605 562.2085 568.4325">this,</tspan></text>
<text xml:space="preserve" transform="matrix(.75 0 0 .75 72 421.23146)" font-size="16" font-family="TimesNewRomanPSMT"><tspan y="14.9375" x="581.4297 585.8777 593.8777">the</tspan></text>
<text xml:space="preserve" transform="matrix(.75 0 0 .75 72 437.1001)" font-size="16" font-family="TimesNewRomanPSMT"><tspan y="14.9375" x="48 54.224 62.224 68.448 76.448 83.552 91.552 97.776 102.224 110.224">suspension</tspan></text>
<text xml:space="preserve" transform="matrix(.75 0 0 .75 72 437.1001)" font-size="16" font-family="TimesNewRomanPSMT"><tspan y="14.9375" x="122.22656 126.67456 133.77857 140.88257 148.88257">lacks</tspan></text>
<text xml:space="preserve" transform="matrix(.75 0 0 .75 72 437.1001)" font-size="16" font-family="TimesNewRomanPSMT"><tspan y="14.9375" x="159.10157 164.42957 171.53357 177.75757 185.75757 193.75757 201.75757 207.98157 212.42957 220.42957 227.53357 235.53357 242.63758 248.86157">responsiveness</tspan></text>
<text xml:space="preserve" transform="matrix(.75 0 0 .75 72 437.1001)" font-size="16" font-family="TimesNewRomanPSMT"><tspan y="14.9375" x="259.08595 263.53395">to</tspan></text>
<text xml:space="preserve" transform="matrix(.75 0 0 .75 72 437.1001)" font-size="16" font-family="TimesNewRomanPSMT"><tspan y="14.9375" x="275.53126 283.53126 287.97926 295.97926 303.97926 308.42726 316.42726 321.75526 327.08326 332.41127 339.51527 347.51527 355.51527 362.61927 370.61927 375.06727">highly-frequent,</tspan></text>
<text xml:space="preserve" transform="matrix(.75 0 0 .75 72 437.1001)" font-size="16" font-family="TimesNewRomanPSMT"><tspan y="14.9375" x="383.0547 389.2787 401.72669 408.8307 413.2787 417.72669 424.8307">smaller</tspan></text>
<text xml:space="preserve" transform="matrix(.75 0 0 .75 72 437.1001)" font-size="16" font-family="TimesNewRomanPSMT"><tspan y="14.9375" x="434.14845 438.59645 451.04444 459.04444 466.14845 473.25245 477.70045 483.92445">impacts.</tspan></text>
<text xml:space="preserve" transform="matrix(.75 0 0 .75 72 468.8374)" font-size="16" font-family="TimesNewRomanPSMT"><tspan y="14.9375" x="0 9.776 17.776001 25.776001">Thus</tspan></text>
<text xml:space="preserve" transform="matrix(.75 0 0 .75 72 468.8374)" font-size="16" font-family="TimesNewRomanPSMT"><tspan y="14.9375" x="36 43.104 51.104 58.208">even</tspan></text>
<text xml:space="preserve" transform="matrix(.75 0 0 .75 72 468.8374)" font-size="16" font-family="TimesNewRomanPSMT"><tspan y="14.9375" x="70.203128 81.75513 89.75513 96.85913">when</tspan></text>
<text xml:space="preserve" transform="matrix(.75 0 0 .75 72 468.8374)" font-size="16" font-family="TimesNewRomanPSMT"><tspan y="14.9375" x="108.859378 114.18738 118.635379 126.635379 133.73938 139.06739 145.29138 149.73938 157.73938 163.06739 167.51538 175.51538 182.61939 187.94739">riders/drivers</tspan></text>
<text xml:space="preserve" transform="matrix(.75 0 0 .75 72 468.8374)" font-size="16" font-family="TimesNewRomanPSMT"><tspan y="14.9375" x="198.16407 203.49207 207.94007 215.94007">find</tspan></text>
<text xml:space="preserve" transform="matrix(.75 0 0 .75 72 468.8374)" font-size="16" font-family="TimesNewRomanPSMT"><tspan y="14.9375" x="227.9375 232.3855 240.3855 247.4895 251.9375">their</tspan></text>
<text xml:space="preserve" transform="matrix(.75 0 0 .75 72 468.8374)" font-size="16" font-family="TimesNewRomanPSMT"><tspan y="14.9375" x="261.2578 269.2578 277.2578 281.7058 286.1538 298.6018 305.7058">optimal</tspan></text>
<text xml:space="preserve" transform="matrix(.75 0 0 .75 72 468.8374)" font-size="16" font-family="TimesNewRomanPSMT"><tspan y="14.9375" x="314.14064 319.46864 326.57264 334.57264 342.57264 350.57264 358.57264">rebound</tspan></text>
<text xml:space="preserve" transform="matrix(.75 0 0 .75 72 468.8374)" font-size="16" font-family="TimesNewRomanPSMT"><tspan y="14.9375" x="370.5703 378.5703 385.67433 398.1223 406.1223 410.5703 418.5703">damping</tspan></text>
<text xml:space="preserve" transform="matrix(.75 0 0 .75 72 468.8374)" font-size="16" font-family="TimesNewRomanPSMT"><tspan y="14.9375" x="430.5625 436.7865 443.8905 448.3385 452.7865 457.2345 465.2345 473.2345">setting,</tspan></text>
<text xml:space="preserve" transform="matrix(.75 0 0 .75 72 468.8374)" font-size="16" font-family="TimesNewRomanPSMT"><tspan y="14.9375" x="481.22657 485.67457 493.67457">the</tspan></text>
<text xml:space="preserve" transform="matrix(.75 0 0 .75 72 468.8374)" font-size="16" font-family="TimesNewRomanPSMT"><tspan y="14.9375" x="504.77345 510.99745 518.99746 525.22146 533.22146 540.32546 548.32546 554.54946 558.99746 566.99746">suspension</tspan></text>
<text xml:space="preserve" transform="matrix(.75 0 0 .75 72 468.8374)" font-size="16" font-family="TimesNewRomanPSMT"><tspan y="14.9375" x="579 586.104 593.208">can</tspan></text>
<text xml:space="preserve" transform="matrix(.75 0 0 .75 72 484.70606)" font-size="16" font-family="TimesNewRomanPSMT"><tspan y="14.9375" x="0 8 15.104 23.104 30.208">never</tspan></text>
<text xml:space="preserve" transform="matrix(.75 0 0 .75 72 484.70606)" font-size="16" font-family="TimesNewRomanPSMT"><tspan y="14.9375" x="39.53125 44.85925 51.96325 58.18725 66.18725 74.18725 82.18725">respond</tspan></text>
<text xml:space="preserve" transform="matrix(.75 0 0 .75 72 484.70606)" font-size="16" font-family="TimesNewRomanPSMT"><tspan y="14.9375" x="94.1875 102.1875 110.1875 114.6355 119.083499 131.5315 138.6355 143.0835 147.5315">optimally</tspan></text>
<text xml:space="preserve" transform="matrix(.75 0 0 .75 72 484.70606)" font-size="16" font-family="TimesNewRomanPSMT"><tspan y="14.9375" x="159.51563 163.96363">to</tspan></text>
<text xml:space="preserve" transform="matrix(.75 0 0 .75 72 484.70606)" font-size="16" font-family="TimesNewRomanPSMT"><tspan y="14.9375" x="175.96094">a</tspan></text>
<text xml:space="preserve" transform="matrix(.75 0 0 .75 72 484.70606)" font-size="16" font-family="TimesNewRomanPSMT"><tspan y="14.9375" x="187.0625 195.0625 200.3905 208.3905 215.4945">broad</tspan></text>
<text xml:space="preserve" transform="matrix(.75 0 0 .75 72 484.70606)" font-size="16" font-family="TimesNewRomanPSMT"><tspan y="14.9375" x="227.49219 235.49219 242.59619 247.9242 252.3722 259.4762 263.9242">variety</tspan></text>
<text xml:space="preserve" transform="matrix(.75 0 0 .75 72 484.70606)" font-size="16" font-family="TimesNewRomanPSMT"><tspan y="14.9375" x="275.91407 283.91407">of</tspan></text>
<text xml:space="preserve" transform="matrix(.75 0 0 .75 72 484.70606)" font-size="16" font-family="TimesNewRomanPSMT"><tspan y="14.9375" x="293.2422 297.6902 305.6902 313.6902 320.7942">types</tspan></text>
<text xml:space="preserve" transform="matrix(.75 0 0 .75 72 484.70606)" font-size="16" font-family="TimesNewRomanPSMT"><tspan y="14.9375" x="331.01564 339.01564">of</tspan></text>
<text xml:space="preserve" transform="matrix(.75 0 0 .75 72 484.70606)" font-size="16" font-family="TimesNewRomanPSMT"><tspan y="14.9375" x="348.34376 352.79176 365.23976 373.23976 380.34376 387.44776 391.89576">impacts</tspan></text>
<text xml:space="preserve" transform="matrix(.75 0 0 .75 72 484.70606)" font-size="16" font-family="TimesNewRomanPSMT"><tspan y="14.9375" x="402.10939 410.10939 418.10939 423.43739 427.88539 435.88539">during</tspan></text>
<text xml:space="preserve" transform="matrix(.75 0 0 .75 72 484.70606)" font-size="16" font-family="TimesNewRomanPSMT"><tspan y="14.9375" x="447.8828">a</tspan></text>
<text xml:space="preserve" transform="matrix(.75 0 0 .75 72 484.70606)" font-size="16" font-family="TimesNewRomanPSMT"><tspan y="14.9375" x="458.98439 465.20838 469.65638 477.65638 485.65638 490.10438">single</tspan></text>
<text xml:space="preserve" transform="matrix(.75 0 0 .75 72 484.70606)" font-size="16" font-family="TimesNewRomanPSMT"><tspan y="14.9375" x="501.20314 506.53114 510.97914 518.9791 526.0831">ride.</tspan></text>
<text xml:space="preserve" transform="matrix(.75 0 0 .75 72 516.44338)" font-size="16" font-family="TimesNewRomanPS" font-style="italic"><tspan y="14.9375" x="0 9.776 14.224001 22.224 30.224 35.851564">Figure</tspan></text>
<text xml:space="preserve" transform="matrix(.75 0 0 .75 72 516.44338)" font-size="16" font-family="TimesNewRomanPS" font-style="italic"><tspan y="14.9375" x="49.953126">2</tspan></text>
<text xml:space="preserve" transform="matrix(.75 0 0 .75 72 516.44338)" font-size="16" font-family="TimesNewRomanPSMT"><tspan y="14.9375" x="64.953128 71.177127 79.177127 87.177127 98.729129">shows</tspan></text>
<text xml:space="preserve" transform="matrix(.75 0 0 .75 72 516.44338)" font-size="16" font-family="TimesNewRomanPSMT"><tspan y="14.9375" x="111.96094 116.408939 124.408939">the</tspan></text>
<text xml:space="preserve" transform="matrix(.75 0 0 .75 72 516.44338)" font-size="16" font-family="TimesNewRomanPSMT"><tspan y="14.9375" x="138.50782 146.50782 151.83582 159.83582 167.83582 174.93982 180.26782 184.71582">property</tspan></text>
<text xml:space="preserve" transform="matrix(.75 0 0 .75 72 516.44338)" font-size="16" font-family="TimesNewRomanPSMT"><tspan y="14.9375" x="199.71094 204.15894 212.15894 219.26294">that</tspan></text>
<text xml:space="preserve" transform="matrix(.75 0 0 .75 72 516.44338)" font-size="16" font-family="TimesNewRomanPSMT"><tspan y="14.9375" x="230.70313 235.15113 243.15113">the</tspan></text>
<text xml:space="preserve" transform="matrix(.75 0 0 .75 72 516.44338)" font-size="16" font-family="TimesNewRomanPSMT"><tspan y="14.9375" x="257.25 261.698 269.698 277.698 284.802 292.802 297.25 301.698 309.698">invention</tspan></text>
<text xml:space="preserve" transform="matrix(.75 0 0 .75 72 516.44338)" font-size="16" font-family="TimesNewRomanPSMT"><tspan y="14.9375" x="324.6875 332.6875 338.0155 345.1195 351.3435 358.4475 366.4475 370.8955 377.9995">presented</tspan></text>
<text xml:space="preserve" transform="matrix(.75 0 0 .75 72 516.44338)" font-size="16" font-family="TimesNewRomanPSMT"><tspan y="14.9375" x="392.9922 397.4402">in</tspan></text>
<text xml:space="preserve" transform="matrix(.75 0 0 .75 72 516.44338)" font-size="16" font-family="TimesNewRomanPSMT"><tspan y="14.9375" x="412.4375 416.8855 424.8855 429.3335">this</tspan></text>
<text xml:space="preserve" transform="matrix(.75 0 0 .75 72 516.44338)" font-size="16" font-family="TimesNewRomanPSMT"><tspan y="14.9375" x="441.5547 449.5547 457.5547 464.6587 472.6587 485.1067 492.2107 500.2107">document</tspan></text>
<text xml:space="preserve" transform="matrix(.75 0 0 .75 72 516.44338)" font-size="16" font-family="TimesNewRomanPSMT"><tspan y="14.9375" x="510.64845 515.09646">is</tspan></text>
<text xml:space="preserve" transform="matrix(.75 0 0 .75 72 516.44338)" font-size="16" font-family="TimesNewRomanPSMT"><tspan y="14.9375" x="527.3203 531.7683 539.7683 544.2163 551.3203 559.3203 567.3203 574.4243">intended</tspan></text>
<text xml:space="preserve" transform="matrix(.75 0 0 .75 72 516.44338)" font-size="16" font-family="TimesNewRomanPSMT"><tspan y="14.9375" x="588.41409 592.86209">to</tspan></text>
<text xml:space="preserve" transform="matrix(.75 0 0 .75 72 532.312)" font-size="16" font-family="TimesNewRomanPSMT"><tspan y="14.9375" x="0 8 13.328 21.328 29.328 33.776 41.776 48.88">provide:</tspan></text>
<text xml:space="preserve" transform="matrix(.75 0 0 .75 72 532.312)" font-size="16" font-family="TimesNewRomanPSMT"><tspan y="14.9375" x="59.320314">a</tspan></text>
<text xml:space="preserve" transform="matrix(.75 0 0 .75 72 532.312)" font-size="16" font-family="TimesNewRomanPSMT"><tspan y="14.9375" x="72.421878 79.52588 87.52588 95.52588 103.52588 110.62988">convex</tspan></text>
<text xml:space="preserve" transform="matrix(.75 0 0 .75 72 532.312)" font-size="16" font-family="TimesNewRomanPSMT"><tspan y="14.9375" x="124.625 133.521 138.849">S-F</tspan></text>
<text xml:space="preserve" transform="matrix(.75 0 0 .75 72 532.312)" font-size="16" font-family="TimesNewRomanPSMT"><tspan y="14.9375" x="153.75 160.854 168.854 174.182 182.182">curve</tspan></text>
<text xml:space="preserve" transform="matrix(.75 0 0 .75 72 532.312)" font-size="16" font-family="TimesNewRomanPSMT"><tspan y="14.9375" x="195.28125 206.83325 214.83325 222.83325 229.05725">whose</tspan></text>
<text xml:space="preserve" transform="matrix(.75 0 0 .75 72 532.312)" font-size="16" font-family="TimesNewRomanPSMT"><tspan y="14.9375" x="241.16407 248.26807 256.26808 264.26808 272.26808 279.37208 287.37208 291.82008 296.26808">convexity</tspan></text>
<text xml:space="preserve" transform="matrix(.75 0 0 .75 72 532.312)" font-size="16" font-family="TimesNewRomanPSMT"><tspan y="14.9375" x="309.2578 316.36183 323.46583">can</tspan></text>
<text xml:space="preserve" transform="matrix(.75 0 0 .75 72 532.312)" font-size="16" font-family="TimesNewRomanPSMT"><tspan y="14.9375" x="336.46095 344.46095">be</tspan></text>
<text xml:space="preserve" transform="matrix(.75 0 0 .75 72 532.312)" font-size="16" font-family="TimesNewRomanPSMT"><tspan y="14.9375" x="356.5625 369.0105 377.0105 385.0105 389.4585 394.7865 399.2345 406.3385">modified</tspan></text>
<text xml:space="preserve" transform="matrix(.75 0 0 .75 72 532.312)" font-size="16" font-family="TimesNewRomanPSMT"><tspan y="14.9375" x="419.32814 424.65614 437.10414 444.20814 448.65614 456.65614 461.10414">(mainly</tspan></text>
<text xml:space="preserve" transform="matrix(.75 0 0 .75 72 532.312)" font-size="16" font-family="TimesNewRomanPSMT"><tspan y="14.9375" x="474.09376 479.42176 487.42176">for</tspan></text>
<text xml:space="preserve" transform="matrix(.75 0 0 .75 72 532.312)" font-size="16" font-family="TimesNewRomanPSMT"><tspan y="14.9375" x="497.75 503.078 510.182 518.182 526.182 534.182 542.182">rebound</tspan></text>
<text xml:space="preserve" transform="matrix(.75 0 0 .75 72 532.312)" font-size="16" font-family="TimesNewRomanPSMT"><tspan y="14.9375" x="555.1797 563.1797 571.1797">but</tspan></text>
<text xml:space="preserve" transform="matrix(.75 0 0 .75 72 532.312)" font-size="16" font-family="TimesNewRomanPSMT"><tspan y="14.9375" x="580.625 588.625 596.625">not</tspan></text>
<text xml:space="preserve" transform="matrix(.75 0 0 .75 72 548.18069)" font-size="16" font-family="TimesNewRomanPSMT"><tspan y="14.9375" x="0 4.4480006 8.896001 21.344002 25.792002 30.240002 37.344">limited</tspan></text>
<text xml:space="preserve" transform="matrix(.75 0 0 .75 72 548.18069)" font-size="16" font-family="TimesNewRomanPSMT"><tspan y="14.9375" x="50.328126 54.776128">to</tspan></text>
<text xml:space="preserve" transform="matrix(.75 0 0 .75 72 548.18069)" font-size="16" font-family="TimesNewRomanPSMT"><tspan y="14.9375" x="67.77344 72.221439 76.66943">it)</tspan></text>
<text xml:space="preserve" transform="matrix(.75 0 0 .75 72 548.18069)" font-size="16" font-family="TimesNewRomanPSMT"><tspan y="14.9375" x="86.99219 94.09619 101.200199 109.200199 113.64819 120.7522 128.7522 135.8562">achieved</tspan></text>
<text xml:space="preserve" transform="matrix(.75 0 0 .75 72 548.18069)" font-size="16" font-family="TimesNewRomanPSMT"><tspan y="14.9375" x="148.84375 156.84375">by</tspan></text>
<text xml:space="preserve" transform="matrix(.75 0 0 .75 72 548.18069)" font-size="16" font-family="TimesNewRomanPSMT"><tspan y="14.9375" x="169.84375">a</tspan></text>
<text xml:space="preserve" transform="matrix(.75 0 0 .75 72 548.18069)" font-size="16" font-family="TimesNewRomanPSMT"><tspan y="14.9375" x="181.94532 194.39331 201.49732 208.60132 216.60132 223.70532 231.70532 236.15332 242.37732">mechanism</tspan></text>
<text xml:space="preserve" transform="matrix(.75 0 0 .75 72 548.18069)" font-size="16" font-family="TimesNewRomanPSMT"><tspan y="14.9375" x="259.8125 264.2605 272.2605 279.3645">that</tspan></text>
<text xml:space="preserve" transform="matrix(.75 0 0 .75 72 548.18069)" font-size="16" font-family="TimesNewRomanPSMT"><tspan y="14.9375" x="288.8047 295.9087 300.3567 304.8047 312.8047 324.3567">allows</tspan></text>
<text xml:space="preserve" transform="matrix(.75 0 0 .75 72 548.18069)" font-size="16" font-family="TimesNewRomanPSMT"><tspan y="14.9375" x="334.57814 347.02613 355.02613 360.35414">more</tspan></text>
<text xml:space="preserve" transform="matrix(.75 0 0 .75 72 548.18069)" font-size="16" font-family="TimesNewRomanPSMT"><tspan y="14.9375" x="371.45314 376.78114 381.22914 389.22914 393.67713">fluid</tspan></text>
<text xml:space="preserve" transform="matrix(.75 0 0 .75 72 548.18069)" font-size="16" font-family="TimesNewRomanPSMT"><tspan y="14.9375" x="405.67189 410.11988 418.11988 423.44789 431.44789 439.44789 447.44789">through</tspan></text>
<text xml:space="preserve" transform="matrix(.75 0 0 .75 72 548.18069)" font-size="16" font-family="TimesNewRomanPSMT"><tspan y="14.9375" x="459.4453 466.54933">as</tspan></text>
<text xml:space="preserve" transform="matrix(.75 0 0 .75 72 548.18069)" font-size="16" font-family="TimesNewRomanPSMT"><tspan y="14.9375" x="476.77345 481.22145 489.22145">the</tspan></text>
<text xml:space="preserve" transform="matrix(.75 0 0 .75 72 548.18069)" font-size="16" font-family="TimesNewRomanPSMT"><tspan y="14.9375" x="500.3203 508.3203 512.7683 518.9923 523.4403 531.4403">piston</tspan></text>
<text xml:space="preserve" transform="matrix(.75 0 0 .75 72 548.18069)" font-size="16" font-family="TimesNewRomanPSMT"><tspan y="14.9375" x="543.4375 550.5415 558.5415 562.9895 570.0935 578.0935 586.0935 592.3175">extends.</tspan></text>
<text xml:space="preserve" transform="matrix(.75 0 0 .75 72 548.18069)" font-size="9.6" font-family="TimesNewRomanPSMT"><tspan y="8.866015" x="596.3125">1</tspan></text>
<text xml:space="preserve" transform="matrix(.75 0 0 .75 72 564.0493)" font-size="16" font-family="TimesNewRomanPSMT"><tspan y="14.9375" x="0 9.776 17.776001 22.224">This</tspan></text>
<text xml:space="preserve" transform="matrix(.75 0 0 .75 72 564.0493)" font-size="16" font-family="TimesNewRomanPSMT"><tspan y="14.9375" x="38.445314 50.893316 57.997316 62.445318 70.44531 74.89331">mainly</tspan></text>
<text xml:space="preserve" transform="matrix(.75 0 0 .75 72 564.0493)" font-size="16" font-family="TimesNewRomanPSMT"><tspan y="14.9375" x="92.88281 105.33081 112.434818 120.434818 127.53882">makes</tspan></text>
<text xml:space="preserve" transform="matrix(.75 0 0 .75 72 564.0493)" font-size="16" font-family="TimesNewRomanPSMT"><tspan y="14.9375" x="142.75782 150.75782 155.20581 160.24219 165.57019 172.6742 178.0022 185.1062 193.1062">different</tspan></text>
<text xml:space="preserve" transform="matrix(.75 0 0 .75 72 564.0493)" font-size="16" font-family="TimesNewRomanPSMT"><tspan y="14.9375" x="206.54688 211.87488 216.32288 224.32288">ride</tspan></text>
<text xml:space="preserve" transform="matrix(.75 0 0 .75 72 564.0493)" font-size="16" font-family="TimesNewRomanPSMT"><tspan y="14.9375" x="240.42188 247.52588 255.52588 263.52589 270.62989">zones</tspan></text>
<text xml:space="preserve" transform="matrix(.75 0 0 .75 72 564.0493)" font-size="16" font-family="TimesNewRomanPSMT"><tspan y="14.9375" x="285.85157 291.17958 299.17958">for</tspan></text>
<text xml:space="preserve" transform="matrix(.75 0 0 .75 72 564.0493)" font-size="16" font-family="TimesNewRomanPSMT"><tspan y="14.9375" x="313.5078 321.5078 325.9558 330.9922 336.3202 343.4242 348.7522 355.8562 363.8562">different</tspan></text>
<text xml:space="preserve" transform="matrix(.75 0 0 .75 72 564.0493)" font-size="16" font-family="TimesNewRomanPSMT"><tspan y="14.9375" x="377.29689 381.74488 389.74488 397.74488 404.84889">types</tspan></text>
<text xml:space="preserve" transform="matrix(.75 0 0 .75 72 564.0493)" font-size="16" font-family="TimesNewRomanPSMT"><tspan y="14.9375" x="420.0703 428.0703">of</tspan></text>
<text xml:space="preserve" transform="matrix(.75 0 0 .75 72 564.0493)" font-size="16" font-family="TimesNewRomanPSMT"><tspan y="14.9375" x="442.39845 446.84645 459.29444 467.29444 474.39845 481.50245 485.95045">impacts</tspan></text>
<text xml:space="preserve" transform="matrix(.75 0 0 .75 72 564.0493)" font-size="16" font-family="TimesNewRomanPSMT"><tspan y="14.9375" x="501.16407 505.61207">in</tspan></text>
<text xml:space="preserve" transform="matrix(.75 0 0 .75 72 564.0493)" font-size="16" font-family="TimesNewRomanPSMT"><tspan y="14.9375" x="522.6094 530.6094 538.6094">one</tspan></text>
<text xml:space="preserve" transform="matrix(.75 0 0 .75 72 564.0493)" font-size="16" font-family="TimesNewRomanPSMT"><tspan y="14.9375" x="554.71096 560.93496 568.03897 572.48696 576.93496 581.38296 589.38296 597.38296">setting,</tspan></text>
<text xml:space="preserve" transform="matrix(.75 0 0 .75 72 579.91799)" font-size="16" font-family="TimesNewRomanPSMT"><tspan y="14.9375" x="0 5.328 12.432001 18.656002 26.656002 34.656003 42.656003 50.656003 55.104005 63.104005">responding</tspan></text>
<text xml:space="preserve" transform="matrix(.75 0 0 .75 72 579.91799)" font-size="16" font-family="TimesNewRomanPSMT"><tspan y="14.9375" x="80.10156 87.20557 95.20557 102.30957 110.30957 118.30957 125.413578 129.86157 136.96558 141.41358">adequately</tspan></text>
<text xml:space="preserve" transform="matrix(.75 0 0 .75 72 579.91799)" font-size="16" font-family="TimesNewRomanPSMT"><tspan y="14.9375" x="158.39844 162.84644">to</tspan></text>
<text xml:space="preserve" transform="matrix(.75 0 0 .75 72 579.91799)" font-size="16" font-family="TimesNewRomanPSMT"><tspan y="14.9375" x="179.84375 187.84375 192.29175 200.29175 208.29175 213.61975 218.94776 224.27576 231.37976 239.37976 247.37976 254.48377 262.48377 269.58778">high-frequency</tspan></text>
<text xml:space="preserve" transform="matrix(.75 0 0 .75 72 579.91799)" font-size="16" font-family="TimesNewRomanPSMT"><tspan y="14.9375" x="286.57814 292.80213 305.25013 312.35414 316.80213">small</tspan></text>
<text xml:space="preserve" transform="matrix(.75 0 0 .75 72 579.91799)" font-size="16" font-family="TimesNewRomanPSMT"><tspan y="14.9375" x="330.2422 334.6902 347.13819 355.13819 362.2422 369.3462 373.7942">impacts</tspan></text>
<text xml:space="preserve" transform="matrix(.75 0 0 .75 72 579.91799)" font-size="16" font-family="TimesNewRomanPSMT"><tspan y="14.9375" x="389.0078 396.11183">as</tspan></text>
<text xml:space="preserve" transform="matrix(.75 0 0 .75 72 579.91799)" font-size="16" font-family="TimesNewRomanPSMT"><tspan y="14.9375" x="411.33595 422.88795 429.99195 434.43995">well</tspan></text>
<text xml:space="preserve" transform="matrix(.75 0 0 .75 72 579.91799)" font-size="16" font-family="TimesNewRomanPSMT"><tspan y="14.9375" x="446.8828 453.98683">as</tspan></text>
<text xml:space="preserve" transform="matrix(.75 0 0 .75 72 579.91799)" font-size="16" font-family="TimesNewRomanPSMT"><tspan y="14.9375" x="468.21095 472.65895 480.65895 492.21095 497.53895 502.86695 508.19496 515.29898 523.29898 531.29898 538.40298 546.40298 553.50698">low-frequency</tspan></text>
<text xml:space="preserve" transform="matrix(.75 0 0 .75 72 579.91799)" font-size="16" font-family="TimesNewRomanPSMT"><tspan y="14.9375" x="569.5 573.948 581.052 586.08596 594.08596">large</tspan></text>
<text xml:space="preserve" transform="matrix(.75 0 0 .75 72 595.7866)" font-size="16" font-family="TimesNewRomanPSMT"><tspan y="14.9375" x="0 4.4480006 16.896002 24.896002 32.000005 39.104005 43.552007 49.776006">impacts.</tspan></text>
<text xml:space="preserve" transform="matrix(.75 0 0 .75 72 746.8916)" font-size="8" font-family="ArialMT"><tspan y="7.44694" x="48">1</tspan></text>
<text xml:space="preserve" transform="matrix(.75 0 0 .75 72 746.8916)" font-size="13.333333" font-family="ArialMT"><tspan y="12.506511" x="57.152208 66.04196 73.45444 77.157428">Both</tspan></text>
<text xml:space="preserve" transform="matrix(.75 0 0 .75 72 746.8916)" font-size="13.333333" font-family="ArialMT"><tspan y="12.506511" x="89.27289 92.975879 100.38835">the</tspan></text>
<text xml:space="preserve" transform="matrix(.75 0 0 .75 72 746.8916)" font-size="13.333333" font-family="ArialMT"><tspan y="12.506511" x="112.503818 119.16788 126.58035 133.99283 140.65689 144.35988 151.77236 159.18483">constant</tspan></text>
<text xml:space="preserve" transform="matrix(.75 0 0 .75 72 746.8916)" font-size="13.333333" font-family="ArialMT"><tspan y="12.506511" x="167.5908 175.00328 179.44165 182.40274 186.10573 189.06682 195.73088">orifice</tspan></text>
<text xml:space="preserve" transform="matrix(.75 0 0 .75 72 746.8916)" font-size="13.333333" font-family="ArialMT"><tspan y="12.506511" x="207.84635 215.25882 219.69719 227.10967">area</tspan></text>
<text xml:space="preserve" transform="matrix(.75 0 0 .75 72 746.8916)" font-size="13.333333" font-family="ArialMT"><tspan y="12.506511" x="239.22513 243.6635 248.10187 255.51435 262.1784 265.8814 270.31977 273.28086 279.94493 283.6479 291.06037">(restricted</tspan></text>
<text xml:space="preserve" transform="matrix(.75 0 0 .75 72 746.8916)" font-size="13.333333" font-family="ArialMT"><tspan y="12.506511" x="303.17585 310.58833">by</tspan></text>
<text xml:space="preserve" transform="matrix(.75 0 0 .75 72 746.8916)" font-size="13.333333" font-family="ArialMT"><tspan y="12.506511" x="320.95539">a</tspan></text>
<text xml:space="preserve" transform="matrix(.75 0 0 .75 72 746.8916)" font-size="13.333333" font-family="ArialMT"><tspan y="12.506511" x="332.07084 339.4833 346.89579 354.30827 361.72074 364.68183 372.0943">needle)</tspan></text>
<text xml:space="preserve" transform="matrix(.75 0 0 .75 72 746.8916)" font-size="13.333333" font-family="ArialMT"><tspan y="12.506511" x="380.23567 387.64814 395.0606">and</tspan></text>
<text xml:space="preserve" transform="matrix(.75 0 0 .75 72 746.8916)" font-size="13.333333" font-family="ArialMT"><tspan y="12.506511" x="406.1761 409.8791 417.29158">the</tspan></text>
<text xml:space="preserve" transform="matrix(.75 0 0 .75 72 746.8916)" font-size="13.333333" font-family="ArialMT"><tspan y="12.506511" x="428.40699 435.07106 438.77406 443.2124 450.62489 457.28895">stroke</tspan></text>
<text xml:space="preserve" transform="matrix(.75 0 0 .75 72 746.8916)" font-size="13.333333" font-family="ArialMT"><tspan y="12.506511" x="468.40443 475.8169 483.22938 490.64186 498.05433 505.4668 512.8793 520.29177 527.7042">dependent</tspan></text>
<text xml:space="preserve" transform="matrix(.75 0 0 .75 72 746.8916)" font-size="13.333333" font-family="ArialMT"><tspan y="12.506511" x="535.1102 542.5227 546.96109 549.9221 553.6251 556.5862 563.25027">orifice</tspan></text>
<text xml:space="preserve" transform="matrix(.75 0 0 .75 72 746.8916)" font-size="13.333333" font-family="ArialMT"><tspan y="12.506511" x="574.3657 581.7782 586.21658 593.629">area</tspan></text>
<text xml:space="preserve" transform="matrix(.75 0 0 .75 72 758.3906)" font-size="13.333333" font-family="ArialMT"><tspan y="12.506511" x="0 6.6640627 14.076538 21.489014 28.90149 31.86258">should</tspan></text>
<text xml:space="preserve" transform="matrix(.75 0 0 .75 72 758.3906)" font-size="13.333333" font-family="ArialMT"><tspan y="12.506511" x="42.978044 50.39052">be</tspan></text>
<text xml:space="preserve" transform="matrix(.75 0 0 .75 72 758.3906)" font-size="13.333333" font-family="ArialMT"><tspan y="12.506511" x="61.50598 68.91846 76.33093 79.29202 86.7045 93.36856 97.07155 104.484027">adjusted</tspan></text>
<text xml:space="preserve" transform="matrix(.75 0 0 .75 72 758.3906)" font-size="13.333333" font-family="ArialMT"><tspan y="12.506511" x="115.59949 123.01196">at</tspan></text>
<text xml:space="preserve" transform="matrix(.75 0 0 .75 72 758.3906)" font-size="13.333333" font-family="ArialMT"><tspan y="12.506511" x="130.41794 133.37903 140.7915 148.20398 154.86804">least</tspan></text>
<text xml:space="preserve" transform="matrix(.75 0 0 .75 72 758.3906)" font-size="13.333333" font-family="ArialMT"><tspan y="12.506511" x="162.27402 169.6865 176.35056 183.01462 190.4271 194.86547 202.27794 205.23903 212.6515">according</tspan></text>
<text xml:space="preserve" transform="matrix(.75 0 0 .75 72 758.3906)" font-size="13.333333" font-family="ArialMT"><tspan y="12.506511" x="223.76697 227.46996">to</tspan></text>
<text xml:space="preserve" transform="matrix(.75 0 0 .75 72 758.3906)" font-size="13.333333" font-family="ArialMT"><tspan y="12.506511" x="238.58542 245.24948 252.66196 260.07444 263.03553 269.6996 272.66069 280.07316 283.77613 288.21449 291.17558 298.58805 306.00053">vehicle/rider</tspan></text>
<text xml:space="preserve" transform="matrix(.75 0 0 .75 72 758.3906)" font-size="13.333333" font-family="ArialMT"><tspan y="12.506511" x="314.1419 323.76707 331.17955 334.14064 341.5531 348.96559 352.66859">weight.</tspan></text>
<g clip-path="url(#clip_6)">
<text xml:space="preserve" transform="matrix(.75 0 0 .75 72 791.7036)" font-size="14.666667" font-family="ArialMT"><tspan y="13.757161" x="296.77485">6</tspan></text>
</g>
</svg>
