<svg xmlns="http://www.w3.org/2000/svg" xmlns:xlink="http://www.w3.org/1999/xlink" version="1.1" width="596" height="842" viewBox="0 0 596 842">
<defs>
<clipPath id="clip_1">
<path d="M0 770.25H595.5V842.25H0Z" fill-rule="evenodd"/>
</clipPath>
</defs>
<path transform="matrix(.75,0,0,.75,0,0)" d="M0 0H794V1123H0Z" fill="#ffffff"/>
<text xml:space="preserve" transform="matrix(.75 0 0 .75 72 72)" font-size="22.666666" font-family="Cambria"><tspan y="21.53776" x="0 14.989853 26.041413 32.900239 39.19487 51.839448 58.13408 65.800479 72.09511 84.12018 96.764759">Definitions</tspan></text>
<text xml:space="preserve" transform="matrix(.75 0 0 .75 72 117.839359)" font-size="16" font-family="TimesNewRomanPS" font-weight="bold"><tspan y="14.9375" x="0 8.896001 14.224001 21.039063 29.039063 37.935064">Stroke</tspan></text>
<text xml:space="preserve" transform="matrix(.75 0 0 .75 72 117.839359)" font-size="16" font-family="TimesNewRomanPSMT"><tspan y="14.9375" x="53.039064 60.143064 67.24706">can</tspan></text>
<text xml:space="preserve" transform="matrix(.75 0 0 .75 72 117.839359)" font-size="16" font-family="TimesNewRomanPSMT"><tspan y="14.9375" x="83.24219 91.24219">be</tspan></text>
<text xml:space="preserve" transform="matrix(.75 0 0 .75 72 117.839359)" font-size="16" font-family="TimesNewRomanPSMT"><tspan y="14.9375" x="106.34375 111.67175 118.77576 124.10376 131.20777 136.53577 141.86377 148.96778">referred</tspan></text>
<text xml:space="preserve" transform="matrix(.75 0 0 .75 72 117.839359)" font-size="16" font-family="TimesNewRomanPSMT"><tspan y="14.9375" x="164.96094 169.40894">to</tspan></text>
<text xml:space="preserve" transform="matrix(.75 0 0 .75 72 117.839359)" font-size="16" font-family="TimesNewRomanPSMT"><tspan y="14.9375" x="185.40625 192.51026">as</tspan></text>
<text xml:space="preserve" transform="matrix(.75 0 0 .75 72 117.839359)" font-size="16" font-family="TimesNewRomanPSMT"><tspan y="14.9375" x="206.73438 211.18238 219.18238">the</tspan></text>
<text xml:space="preserve" transform="matrix(.75 0 0 .75 72 117.839359)" font-size="16" font-family="TimesNewRomanPSMT"><tspan y="14.9375" x="234.28125 241.38526 253.83325 261.83326 269.83326 277.83326">amount</tspan></text>
<text xml:space="preserve" transform="matrix(.75 0 0 .75 72 117.839359)" font-size="16" font-family="TimesNewRomanPSMT"><tspan y="14.9375" x="290.27345 298.27345">of</tspan></text>
<text xml:space="preserve" transform="matrix(.75 0 0 .75 72 117.839359)" font-size="16" font-family="TimesNewRomanPSMT"><tspan y="14.9375" x="311.60157 318.70558 326.70558 339.15357 347.15357 352.48158 359.58558 365.80958 372.03358 376.48158 384.48158 392.48158">compression,</tspan></text>
<text xml:space="preserve" transform="matrix(.75 0 0 .75 72 117.839359)" font-size="16" font-family="TimesNewRomanPSMT"><tspan y="14.9375" x="404.47657 408.92457">in</tspan></text>
<text xml:space="preserve" transform="matrix(.75 0 0 .75 72 117.839359)" font-size="16" font-family="TimesNewRomanPSMT"><tspan y="14.9375" x="423.92189 428.36988 435.47389 443.47389 451.47389 455.92189 463.92189">length,</tspan></text>
<text xml:space="preserve" transform="matrix(.75 0 0 .75 72 117.839359)" font-size="16" font-family="TimesNewRomanPSMT"><tspan y="14.9375" x="474.91407 479.36207 487.36207">the</tspan></text>
<text xml:space="preserve" transform="matrix(.75 0 0 .75 72 117.839359)" font-size="16" font-family="TimesNewRomanPSMT"><tspan y="14.9375" x="501.46095 507.68495 515.68496 523.68496 530.78897">shock</tspan></text>
<text xml:space="preserve" transform="matrix(.75 0 0 .75 72 117.839359)" font-size="16" font-family="TimesNewRomanPSMT"><tspan y="14.9375" x="545.78909 552.89309 560.89309 567.11709 575.11709 580.44509 588.44509 595.5491">absorber</tspan></text>
<text xml:space="preserve" transform="matrix(.75 0 0 .75 72 133.70801)" font-size="16" font-family="TimesNewRomanPSMT"><tspan y="14.9375" x="0 7.1040008 15.104 23.104 30.208 35.536 39.984 47.088 55.088 62.192 69.296009 75.520008">experiences,</tspan></text>
<text xml:space="preserve" transform="matrix(.75 0 0 .75 72 133.70801)" font-size="16" font-family="TimesNewRomanPSMT"><tspan y="14.9375" x="83.50781 91.50781">or</tspan></text>
<text xml:space="preserve" transform="matrix(.75 0 0 .75 72 133.70801)" font-size="16" font-family="TimesNewRomanPSMT"><tspan y="14.9375" x="100.83594 107.93994">as</tspan></text>
<text xml:space="preserve" transform="matrix(.75 0 0 .75 72 133.70801)" font-size="16" font-family="TimesNewRomanPSMT"><tspan y="14.9375" x="118.16406">a</tspan></text>
<text xml:space="preserve" transform="matrix(.75 0 0 .75 72 133.70801)" font-size="16" font-family="TimesNewRomanPSMT"><tspan y="14.9375" x="129.26563 135.48963 139.93762 147.04163 155.04163">stage</tspan></text>
<text xml:space="preserve" transform="matrix(.75 0 0 .75 72 133.70801)" font-size="16" font-family="TimesNewRomanPSMT"><tspan y="14.9375" x="166.14063 170.58863">in</tspan></text>
<text xml:space="preserve" transform="matrix(.75 0 0 .75 72 133.70801)" font-size="16" font-family="TimesNewRomanPSMT"><tspan y="14.9375" x="182.58594">a</tspan></text>
<text xml:space="preserve" transform="matrix(.75 0 0 .75 72 133.70801)" font-size="16" font-family="TimesNewRomanPSMT"><tspan y="14.9375" x="193.6875 200.7915 208.7915 221.2395 229.2395 234.5675 241.67151 247.89551 254.1195 258.5675 266.5675 274.5675 279.0155 284.3435 291.4475 299.4475 307.4475 315.4475 323.4475">compression/rebound</tspan></text>
<text xml:space="preserve" transform="matrix(.75 0 0 .75 72 133.70801)" font-size="16" font-family="TimesNewRomanPSMT"><tspan y="14.9375" x="335.4375 342.5415 350.5415 357.6455 362.0935 369.1975">cycle.</tspan></text>
<text xml:space="preserve" transform="matrix(.75 0 0 .75 72 165.44532)" font-size="16" font-family="TimesNewRomanPS" font-weight="bold"><tspan y="14.9375" x="0 11.552001 16.000002 24.896004">Ride</tspan></text>
<text xml:space="preserve" transform="matrix(.75 0 0 .75 72 165.44532)" font-size="16" font-family="TimesNewRomanPS" font-weight="bold"><tspan y="14.9375" x="38 48.672 56.672 65.568">Zone</tspan></text>
<text xml:space="preserve" transform="matrix(.75 0 0 .75 72 165.44532)" font-size="16" font-family="TimesNewRomanPSMT"><tspan y="14.9375" x="78.671878 83.11987">is</tspan></text>
<text xml:space="preserve" transform="matrix(.75 0 0 .75 72 165.44532)" font-size="16" font-family="TimesNewRomanPSMT"><tspan y="14.9375" x="95.34375 99.79175 107.79175">the</tspan></text>
<text xml:space="preserve" transform="matrix(.75 0 0 .75 72 165.44532)" font-size="16" font-family="TimesNewRomanPSMT"><tspan y="14.9375" x="120.890628 125.33862 132.44263 137.77063">term</tspan></text>
<text xml:space="preserve" transform="matrix(.75 0 0 .75 72 165.44532)" font-size="16" font-family="TimesNewRomanPSMT"><tspan y="14.9375" x="156.21094 164.21094 170.43494 177.53894">used</tspan></text>
<text xml:space="preserve" transform="matrix(.75 0 0 .75 72 165.44532)" font-size="16" font-family="TimesNewRomanPSMT"><tspan y="14.9375" x="191.53907 195.98706">to</tspan></text>
<text xml:space="preserve" transform="matrix(.75 0 0 .75 72 165.44532)" font-size="16" font-family="TimesNewRomanPSMT"><tspan y="14.9375" x="209.98438 217.98438 225.08838 231.31238 238.41638 243.74439 248.19239 256.19239">describe</tspan></text>
<text xml:space="preserve" transform="matrix(.75 0 0 .75 72 165.44532)" font-size="16" font-family="TimesNewRomanPSMT"><tspan y="14.9375" x="269.28907">a</tspan></text>
<text xml:space="preserve" transform="matrix(.75 0 0 .75 72 165.44532)" font-size="16" font-family="TimesNewRomanPSMT"><tspan y="14.9375" x="282.39064 288.61463 293.06263 298.39064 306.39064 314.39064">stroke</tspan></text>
<text xml:space="preserve" transform="matrix(.75 0 0 .75 72 165.44532)" font-size="16" font-family="TimesNewRomanPSMT"><tspan y="14.9375" x="327.4922 332.8202 339.9242 347.9242 355.9242">range</tspan></text>
<text xml:space="preserve" transform="matrix(.75 0 0 .75 72 165.44532)" font-size="16" font-family="TimesNewRomanPSMT"><tspan y="14.9375" x="369.02345 373.47145">in</tspan></text>
<text xml:space="preserve" transform="matrix(.75 0 0 .75 72 165.44532)" font-size="16" font-family="TimesNewRomanPSMT"><tspan y="14.9375" x="387.46876 399.02076 407.02076 411.46876 418.57276">which</tspan></text>
<text xml:space="preserve" transform="matrix(.75 0 0 .75 72 165.44532)" font-size="16" font-family="TimesNewRomanPSMT"><tspan y="14.9375" x="432.5703 437.0183 445.0183">the</tspan></text>
<text xml:space="preserve" transform="matrix(.75 0 0 .75 72 165.44532)" font-size="16" font-family="TimesNewRomanPSMT"><tspan y="14.9375" x="458.1172 466.1172 473.2212 485.6692 493.6692 498.1172 506.1172">damping</tspan></text>
<text xml:space="preserve" transform="matrix(.75 0 0 .75 72 165.44532)" font-size="16" font-family="TimesNewRomanPSMT"><tspan y="14.9375" x="519.1094 524.4374 532.4374 537.7654 544.8694">force</tspan></text>
<text xml:space="preserve" transform="matrix(.75 0 0 .75 72 165.44532)" font-size="16" font-family="TimesNewRomanPSMT"><tspan y="14.9375" x="556.96878 564.96878 572.96878 580.07278 586.29678 594.29678 597.17678">doesn't</tspan></text>
<text xml:space="preserve" transform="matrix(.75 0 0 .75 72 181.31397)" font-size="16" font-family="TimesNewRomanPSMT"><tspan y="14.9375" x="0 8 15.104 20.432">vary</tspan></text>
<text xml:space="preserve" transform="matrix(.75 0 0 .75 72 181.31397)" font-size="16" font-family="TimesNewRomanPSMT"><tspan y="14.9375" x="32.429689 38.653688 43.10169 51.10169 59.10169 63.54969 68.87769 73.32569 80.429698 87.5337 95.5337 99.9817 104.429698 111.375">significantly.</tspan></text>
<text xml:space="preserve" transform="matrix(.75 0 0 .75 72 213.05127)" font-size="16" font-family="TimesNewRomanPS" font-weight="bold"><tspan y="14.9375" x="0 8.896001 14.224001">S-F</tspan></text>
<text xml:space="preserve" transform="matrix(.75 0 0 .75 72 213.05127)" font-size="16" font-family="TimesNewRomanPS" font-weight="bold"><tspan y="14.9375" x="31 42.552003 51.448 58.552003 66.552">Curve</tspan></text>
<text xml:space="preserve" transform="matrix(.75 0 0 .75 72 213.05127)" font-size="16" font-family="TimesNewRomanPSMT"><tspan y="14.9375" x="80.65625 85.10425">is</tspan></text>
<text xml:space="preserve" transform="matrix(.75 0 0 .75 72 213.05127)" font-size="16" font-family="TimesNewRomanPSMT"><tspan y="14.9375" x="98.328128 102.77612 110.77612">the</tspan></text>
<text xml:space="preserve" transform="matrix(.75 0 0 .75 72 213.05127)" font-size="16" font-family="TimesNewRomanPSMT"><tspan y="14.9375" x="124.875 129.323 136.427 141.755 154.203 158.651 166.651 174.651 179.099 187.099 195.099">terminology</tspan></text>
<text xml:space="preserve" transform="matrix(.75 0 0 .75 72 213.05127)" font-size="16" font-family="TimesNewRomanPSMT"><tspan y="14.9375" x="210.08594 218.08594 224.30994 231.41394">used</tspan></text>
<text xml:space="preserve" transform="matrix(.75 0 0 .75 72 213.05127)" font-size="16" font-family="TimesNewRomanPSMT"><tspan y="14.9375" x="246.41407 250.86206">in</tspan></text>
<text xml:space="preserve" transform="matrix(.75 0 0 .75 72 213.05127)" font-size="16" font-family="TimesNewRomanPSMT"><tspan y="14.9375" x="265.85939 270.30738 278.30738 282.75538">this</tspan></text>
<text xml:space="preserve" transform="matrix(.75 0 0 .75 72 213.05127)" font-size="16" font-family="TimesNewRomanPSMT"><tspan y="14.9375" x="295.97657 303.97657 311.97657 319.08058 327.08058 339.52857 346.63258 354.63258">document</tspan></text>
<text xml:space="preserve" transform="matrix(.75 0 0 .75 72 213.05127)" font-size="16" font-family="TimesNewRomanPSMT"><tspan y="14.9375" x="366.0703 370.5183">to</tspan></text>
<text xml:space="preserve" transform="matrix(.75 0 0 .75 72 213.05127)" font-size="16" font-family="TimesNewRomanPSMT"><tspan y="14.9375" x="385.51564 392.61964 400.61964 408.61964 413.06764 420.17164 424.61964">explain</tspan></text>
<text xml:space="preserve" transform="matrix(.75 0 0 .75 72 213.05127)" font-size="16" font-family="TimesNewRomanPSMT"><tspan y="14.9375" x="439.60939 444.05738 452.05738">the</tspan></text>
<text xml:space="preserve" transform="matrix(.75 0 0 .75 72 213.05127)" font-size="16" font-family="TimesNewRomanPSMT"><tspan y="14.9375" x="466.15626 471.48426 478.58827 483.03627 490.14027 494.58827 499.03627 507.03627">relation</tspan></text>
<text xml:space="preserve" transform="matrix(.75 0 0 .75 72 213.05127)" font-size="16" font-family="TimesNewRomanPSMT"><tspan y="14.9375" x="522.02346 530.02346 537.12747 541.57546 553.12747 560.23147 567.33547">between</tspan></text>
<text xml:space="preserve" transform="matrix(.75 0 0 .75 72 213.05127)" font-size="16" font-family="TimesNewRomanPSMT"><tspan y="14.9375" x="581.3281 585.7761 593.7761">the</tspan></text>
<text xml:space="preserve" transform="matrix(.75 0 0 .75 72 228.91992)" font-size="16" font-family="TimesNewRomanPS" font-style="italic"><tspan y="14.9375" x="0 6.2240006 10.672001 16.304688 24.304688 31.408688">stroke</tspan></text>
<text xml:space="preserve" transform="matrix(.75 0 0 .75 72 228.91992)" font-size="16" font-family="TimesNewRomanPSMT"><tspan y="14.9375" x="43.507814 51.507814">of</tspan></text>
<text xml:space="preserve" transform="matrix(.75 0 0 .75 72 228.91992)" font-size="16" font-family="TimesNewRomanPSMT"><tspan y="14.9375" x="60.835939 65.283939 73.283939">the</tspan></text>
<text xml:space="preserve" transform="matrix(.75 0 0 .75 72 228.91992)" font-size="16" font-family="TimesNewRomanPSMT"><tspan y="14.9375" x="84.38281 92.38281 96.83081 103.05481 107.50281 115.50281">piston</tspan></text>
<text xml:space="preserve" transform="matrix(.75 0 0 .75 72 228.91992)" font-size="16" font-family="TimesNewRomanPSMT"><tspan y="14.9375" x="127.5 134.604 142.604">and</tspan></text>
<text xml:space="preserve" transform="matrix(.75 0 0 .75 72 228.91992)" font-size="16" font-family="TimesNewRomanPSMT"><tspan y="14.9375" x="154.60157 159.04956 167.04956">the</tspan></text>
<text xml:space="preserve" transform="matrix(.75 0 0 .75 72 228.91992)" font-size="16" font-family="TimesNewRomanPS" font-style="italic"><tspan y="14.9375" x="178.14844 186.14844 194.14844 205.70044 213.70044 218.14844 226.14844">damping</tspan></text>
<text xml:space="preserve" transform="matrix(.75 0 0 .75 72 228.91992)" font-size="16" font-family="TimesNewRomanPS" font-style="italic"><tspan y="14.9375" x="238.14844 242.59644 250.59644 256.22657 263.33058">force</tspan></text>
<text xml:space="preserve" transform="matrix(.75 0 0 .75 72 228.91992)" font-size="16" font-family="TimesNewRomanPSMT"><tspan y="14.9375" x="274.4297 281.5337">at</tspan></text>
<text xml:space="preserve" transform="matrix(.75 0 0 .75 72 228.91992)" font-size="16" font-family="TimesNewRomanPSMT"><tspan y="14.9375" x="289.97657 294.42457 302.42457 309.52857">that</tspan></text>
<text xml:space="preserve" transform="matrix(.75 0 0 .75 72 228.91992)" font-size="16" font-family="TimesNewRomanPSMT"><tspan y="14.9375" x="317.96876 325.96876 333.96876 340.19276 344.64076 349.08876 353.53675 361.53675">position</tspan></text>
<text xml:space="preserve" transform="matrix(.75 0 0 .75 72 228.91992)" font-size="16" font-family="TimesNewRomanPSMT"><tspan y="14.9375" x="373.53126 378.85926 383.30726 391.30726">(the</tspan></text>
<text xml:space="preserve" transform="matrix(.75 0 0 .75 72 228.91992)" font-size="16" font-family="TimesNewRomanPSMT"><tspan y="14.9375" x="402.40626 410.40626 417.51026 429.95826 437.95826 442.40626 450.40626">damping</tspan></text>
<text xml:space="preserve" transform="matrix(.75 0 0 .75 72 228.91992)" font-size="16" font-family="TimesNewRomanPSMT"><tspan y="14.9375" x="462.39845 467.72645 475.72645 481.05445 488.15846">force</tspan></text>
<text xml:space="preserve" transform="matrix(.75 0 0 .75 72 228.91992)" font-size="16" font-family="TimesNewRomanPSMT"><tspan y="14.9375" x="499.2578 506.36183 512.5858 518.8098 526.8098 539.2578 546.3618">assumed</tspan></text>
<text xml:space="preserve" transform="matrix(.75 0 0 .75 72 228.91992)" font-size="16" font-family="TimesNewRomanPSMT"><tspan y="14.9375" x="558.3594 562.8074">to</tspan></text>
<text xml:space="preserve" transform="matrix(.75 0 0 .75 72 228.91992)" font-size="16" font-family="TimesNewRomanPSMT"><tspan y="14.9375" x="574.8047 582.8047">be</tspan></text>
<text xml:space="preserve" transform="matrix(.75 0 0 .75 72 228.91992)" font-size="16" font-family="TimesNewRomanPSMT"><tspan y="14.9375" x="593.90628">a</tspan></text>
<text xml:space="preserve" transform="matrix(.75 0 0 .75 72 244.78858)" font-size="16" font-family="TimesNewRomanPSMT"><tspan y="14.9375" x="0 7.1040008 14.208001 22.208 28.432002">cause</tspan></text>
<text xml:space="preserve" transform="matrix(.75 0 0 .75 72 244.78858)" font-size="16" font-family="TimesNewRomanPSMT"><tspan y="14.9375" x="43.53125 50.63525 58.63525">and</tspan></text>
<text xml:space="preserve" transform="matrix(.75 0 0 .75 72 244.78858)" font-size="16" font-family="TimesNewRomanPSMT"><tspan y="14.9375" x="74.63281 82.63281 87.960819 95.960819 103.960819 111.960819 117.28882 121.73682 126.184818 134.18482 142.18482 149.28882">proportional</tspan></text>
<text xml:space="preserve" transform="matrix(.75 0 0 .75 72 244.78858)" font-size="16" font-family="TimesNewRomanPSMT"><tspan y="14.9375" x="161.72657 166.17456">to</tspan></text>
<text xml:space="preserve" transform="matrix(.75 0 0 .75 72 244.78858)" font-size="16" font-family="TimesNewRomanPSMT"><tspan y="14.9375" x="182.17188 186.61988 194.61988">the</tspan></text>
<text xml:space="preserve" transform="matrix(.75 0 0 .75 72 244.78858)" font-size="16" font-family="TimesNewRomanPSMT"><tspan y="14.9375" x="209.71875 215.04676 222.15076 228.37476 232.82276 238.15076 242.59876 249.70276 254.15076 258.59877 266.59877">restrictive</tspan></text>
<text xml:space="preserve" transform="matrix(.75 0 0 .75 72 244.78858)" font-size="16" font-family="TimesNewRomanPSMT"><tspan y="14.9375" x="281.6875 289.6875 295.0155 299.4635 304.7915 309.2395 316.3435">orifice</tspan></text>
<text xml:space="preserve" transform="matrix(.75 0 0 .75 72 244.78858)" font-size="16" font-family="TimesNewRomanPSMT"><tspan y="14.9375" x="331.4375 338.5415 343.8695 350.9735 358.0775 363.40553">area).</tspan></text>
<text xml:space="preserve" transform="matrix(.75 0 0 .75 72 244.78858)" font-size="16" font-family="TimesNewRomanPSMT"><tspan y="14.9375" x="375.39845 390.50245 398.50245 402.95045 407.39845">While</tspan></text>
<text xml:space="preserve" transform="matrix(.75 0 0 .75 72 244.78858)" font-size="16" font-family="TimesNewRomanPSMT"><tspan y="14.9375" x="422.4922 430.4922 434.9402 442.9402 450.0442">other</tspan></text>
<text xml:space="preserve" transform="matrix(.75 0 0 .75 72 244.78858)" font-size="16" font-family="TimesNewRomanPSMT"><tspan y="14.9375" x="462.3672 466.8152 471.26319 475.71119 482.8152 488.1432 495.2472 499.6952 507.6952 513.0232">literature</tspan></text>
<text xml:space="preserve" transform="matrix(.75 0 0 .75 72 244.78858)" font-size="16" font-family="TimesNewRomanPSMT"><tspan y="14.9375" x="527.1094 539.5574 544.0054 552.0054 560.0054">might</tspan></text>
<text xml:space="preserve" transform="matrix(.75 0 0 .75 72 244.78858)" font-size="16" font-family="TimesNewRomanPSMT"><tspan y="14.9375" x="571.4453 579.4453 586.5493 594.5493">have</tspan></text>
<text xml:space="preserve" transform="matrix(.75 0 0 .75 72 260.65724)" font-size="16" font-family="TimesNewRomanPSMT"><tspan y="14.9375" x="0 8 15.104 21.328001 28.432002 33.760004 38.208005 46.208005 53.312005">described</tspan></text>
<text xml:space="preserve" transform="matrix(.75 0 0 .75 72 260.65724)" font-size="16" font-family="TimesNewRomanPSMT"><tspan y="14.9375" x="69.30469 77.30469 84.40869 96.85669 104.85669 109.30469 117.30469">damping</tspan></text>
<text xml:space="preserve" transform="matrix(.75 0 0 .75 72 260.65724)" font-size="16" font-family="TimesNewRomanPSMT"><tspan y="14.9375" x="133.29688 140.40088 148.40088 153.72888 161.72888 168.83289">curves</tspan></text>
<text xml:space="preserve" transform="matrix(.75 0 0 .75 72 260.65724)" font-size="16" font-family="TimesNewRomanPSMT"><tspan y="14.9375" x="183.05469 190.15869">as</tspan></text>
<text xml:space="preserve" transform="matrix(.75 0 0 .75 72 260.65724)" font-size="16" font-family="TimesNewRomanPSMT"><tspan y="14.9375" x="204.38282 208.83081 213.27881 221.27881 228.38282 235.48682 240.16407">linear,</tspan></text>
<text xml:space="preserve" transform="matrix(.75 0 0 .75 72 260.65724)" font-size="16" font-family="TimesNewRomanPSMT"><tspan y="14.9375" x="252.16407 260.16407 265.49208 273.49208 281.49208 286.82008 293.92408 300.14808 306.37208 310.82008 318.82008">progressive</tspan></text>
<text xml:space="preserve" transform="matrix(.75 0 0 .75 72 260.65724)" font-size="16" font-family="TimesNewRomanPSMT"><tspan y="14.9375" x="333.92189 341.02589 349.02589">and</tspan></text>
<text xml:space="preserve" transform="matrix(.75 0 0 .75 72 260.65724)" font-size="16" font-family="TimesNewRomanPSMT"><tspan y="14.9375" x="365.02345 373.02345 377.47145 385.47145 390.79945 397.90345 404.12745 410.35145 414.79945 422.79945 429.90345">digressive,</tspan></text>
<text xml:space="preserve" transform="matrix(.75 0 0 .75 72 260.65724)" font-size="16" font-family="TimesNewRomanPSMT"><tspan y="14.9375" x="440.89845 445.34645 453.34645">the</tspan></text>
<text xml:space="preserve" transform="matrix(.75 0 0 .75 72 260.65724)" font-size="16" font-family="TimesNewRomanPSMT"><tspan y="14.9375" x="467.4453 471.8933 478.9973 484.32533 496.77333">terms</tspan></text>
<text xml:space="preserve" transform="matrix(.75 0 0 .75 72 260.65724)" font-size="16" font-family="TimesNewRomanPS" font-style="italic"><tspan y="14.9375" x="509.9922 517.0962 525.0962 533.0962 540.2002 548.2002 555.3042 559.7522 564.2002">concavity</tspan></text>
<text xml:space="preserve" transform="matrix(.75 0 0 .75 72 260.65724)" font-size="16" font-family="TimesNewRomanPSMT"><tspan y="14.9375" x="578.28909 585.39309 593.39309">and</tspan></text>
<text xml:space="preserve" transform="matrix(.75 0 0 .75 72 276.52589)" font-size="16" font-family="TimesNewRomanPS" font-style="italic"><tspan y="14.9375" x="0 7.1040008 15.104 23.104 30.208 37.312 44.416 48.864004 53.312005">convexity</tspan></text>
<text xml:space="preserve" transform="matrix(.75 0 0 .75 72 276.52589)" font-size="16" font-family="TimesNewRomanPSMT"><tspan y="14.9375" x="64.39844 72.39844">of</tspan></text>
<text xml:space="preserve" transform="matrix(.75 0 0 .75 72 276.52589)" font-size="16" font-family="TimesNewRomanPSMT"><tspan y="14.9375" x="81.72656 86.17456 94.17456">the</tspan></text>
<text xml:space="preserve" transform="matrix(.75 0 0 .75 72 276.52589)" font-size="16" font-family="TimesNewRomanPSMT"><tspan y="14.9375" x="105.27344 114.16944 119.497447">S-F</tspan></text>
<text xml:space="preserve" transform="matrix(.75 0 0 .75 72 276.52589)" font-size="16" font-family="TimesNewRomanPSMT"><tspan y="14.9375" x="132.39844 139.50244 147.50244 152.83045 160.83045 167.93445">curves</tspan></text>
<text xml:space="preserve" transform="matrix(.75 0 0 .75 72 276.52589)" font-size="16" font-family="TimesNewRomanPSMT"><tspan y="14.9375" x="178.15625 183.48426 190.58826 195.625 200.953 208.057 215.16101 219.60901 224.057 232.057 239.16101 243.60901">(effectively</tspan></text>
<text xml:space="preserve" transform="matrix(.75 0 0 .75 72 276.52589)" font-size="16" font-family="TimesNewRomanPSMT"><tspan y="14.9375" x="255.59375 260.04176 268.04176">the</tspan></text>
<text xml:space="preserve" transform="matrix(.75 0 0 .75 72 276.52589)" font-size="16" font-family="TimesNewRomanPSMT"><tspan y="14.9375" x="279.14064 287.14064 294.24464 306.69264 314.69264 319.14064 327.14064">damping</tspan></text>
<text xml:space="preserve" transform="matrix(.75 0 0 .75 72 276.52589)" font-size="16" font-family="TimesNewRomanPSMT"><tspan y="14.9375" x="339.1328 346.23683 354.23683 359.56483 367.56483 374.66883 380.89283">curves)</tspan></text>
<text xml:space="preserve" transform="matrix(.75 0 0 .75 72 276.52589)" font-size="16" font-family="TimesNewRomanPSMT"><tspan y="14.9375" x="390.21876 401.77076 408.87477 414.20277">were</tspan></text>
<text xml:space="preserve" transform="matrix(.75 0 0 .75 72 276.52589)" font-size="16" font-family="TimesNewRomanPSMT"><tspan y="14.9375" x="425.3047 433.3047 439.5287 446.6327">used</tspan></text>
<text xml:space="preserve" transform="matrix(.75 0 0 .75 72 276.52589)" font-size="16" font-family="TimesNewRomanPSMT"><tspan y="14.9375" x="458.6328 463.0808">in</tspan></text>
<text xml:space="preserve" transform="matrix(.75 0 0 .75 72 276.52589)" font-size="16" font-family="TimesNewRomanPSMT"><tspan y="14.9375" x="475.07814 479.52613 487.52613 491.97413">this</tspan></text>
<text xml:space="preserve" transform="matrix(.75 0 0 .75 72 276.52589)" font-size="16" font-family="TimesNewRomanPSMT"><tspan y="14.9375" x="502.1953 510.1953 518.1953 525.2993 533.2993 545.7473 552.8513 560.8513 565.2993">document.</tspan></text>
<text xml:space="preserve" transform="matrix(.75 0 0 .75 72 308.26319)" font-size="16" font-family="TimesNewRomanPS" font-weight="bold"><tspan y="14.9375" x="0 9.203125 17.203125">Top</tspan></text>
<text xml:space="preserve" transform="matrix(.75 0 0 .75 72 308.26319)" font-size="16" font-family="TimesNewRomanPS" font-weight="bold"><tspan y="14.9375" x="34.101564">/</tspan></text>
<text xml:space="preserve" transform="matrix(.75 0 0 .75 72 308.26319)" font-size="16" font-family="TimesNewRomanPS" font-weight="bold"><tspan y="14.9375" x="46.546876 58.098878 66.99488 74.99488 82.99488">Above</tspan></text>
<text xml:space="preserve" transform="matrix(.75 0 0 .75 72 308.26319)" font-size="16" font-family="TimesNewRomanPS" font-weight="bold"><tspan y="14.9375" x="98.10156 103.429569 112.32557">the</tspan></text>
<text xml:space="preserve" transform="matrix(.75 0 0 .75 72 308.26319)" font-size="16" font-family="TimesNewRomanPS" font-weight="bold"><tspan y="14.9375" x="127.42969 136.32569 140.77368 146.99768 152.32569 160.32569">piston</tspan></text>
<text xml:space="preserve" transform="matrix(.75 0 0 .75 72 308.26319)" font-size="16" font-family="TimesNewRomanPSMT"><tspan y="14.9375" x="177.22657 182.55457 189.65857 194.98657 202.09058 207.41858">refers</tspan></text>
<text xml:space="preserve" transform="matrix(.75 0 0 .75 72 308.26319)" font-size="16" font-family="TimesNewRomanPSMT"><tspan y="14.9375" x="221.64063 226.08863">to</tspan></text>
<text xml:space="preserve" transform="matrix(.75 0 0 .75 72 308.26319)" font-size="16" font-family="TimesNewRomanPSMT"><tspan y="14.9375" x="242.08594 246.53394 254.53394">the</tspan></text>
<text xml:space="preserve" transform="matrix(.75 0 0 .75 72 308.26319)" font-size="16" font-family="TimesNewRomanPSMT"><tspan y="14.9375" x="269.6328 275.8568 280.3048 288.3048">side</tspan></text>
<text xml:space="preserve" transform="matrix(.75 0 0 .75 72 308.26319)" font-size="16" font-family="TimesNewRomanPSMT"><tspan y="14.9375" x="302.40626 310.40626">of</tspan></text>
<text xml:space="preserve" transform="matrix(.75 0 0 .75 72 308.26319)" font-size="16" font-family="TimesNewRomanPSMT"><tspan y="14.9375" x="322.73439 327.18238 335.18238">the</tspan></text>
<text xml:space="preserve" transform="matrix(.75 0 0 .75 72 308.26319)" font-size="16" font-family="TimesNewRomanPSMT"><tspan y="14.9375" x="349.28126 357.28126 364.38526 376.83326 384.83326 391.93727">damper</tspan></text>
<text xml:space="preserve" transform="matrix(.75 0 0 .75 72 308.26319)" font-size="16" font-family="TimesNewRomanPSMT"><tspan y="14.9375" x="404.2578 408.7058 416.7058 423.8098">that</tspan></text>
<text xml:space="preserve" transform="matrix(.75 0 0 .75 72 308.26319)" font-size="16" font-family="TimesNewRomanPSMT"><tspan y="14.9375" x="435.25 439.698">is</tspan></text>
<text xml:space="preserve" transform="matrix(.75 0 0 .75 72 308.26319)" font-size="16" font-family="TimesNewRomanPSMT"><tspan y="14.9375" x="452.92189 460.02589 468.02589 476.02589 484.02589">above</tspan></text>
<text xml:space="preserve" transform="matrix(.75 0 0 .75 72 308.26319)" font-size="16" font-family="TimesNewRomanPSMT"><tspan y="14.9375" x="498.125 502.573 510.573">the</tspan></text>
<text xml:space="preserve" transform="matrix(.75 0 0 .75 72 308.26319)" font-size="16" font-family="TimesNewRomanPSMT"><tspan y="14.9375" x="524.6719 532.6719 537.1199 543.3439 547.7919 555.7919">piston</tspan></text>
<text xml:space="preserve" transform="matrix(.75 0 0 .75 72 308.26319)" font-size="16" font-family="TimesNewRomanPSMT"><tspan y="14.9375" x="570.78909 578.78909 585.89309 592.9971">head</tspan></text>
<text xml:space="preserve" transform="matrix(.75 0 0 .75 72 324.13185)" font-size="16" font-family="TimesNewRomanPSMT"><tspan y="14.9375" x="0 7.1040008 14.208001 21.312003 29.312003 34.640005 42.640005 47.088006 55.088006">according</tspan></text>
<text xml:space="preserve" transform="matrix(.75 0 0 .75 72 324.13185)" font-size="16" font-family="TimesNewRomanPSMT"><tspan y="14.9375" x="67.078128 71.52612">to</tspan></text>
<text xml:space="preserve" transform="matrix(.75 0 0 .75 72 324.13185)" font-size="16" font-family="TimesNewRomanPSMT"><tspan y="14.9375" x="83.52344 87.971439 95.971439">the</tspan></text>
<text xml:space="preserve" transform="matrix(.75 0 0 .75 72 324.13185)" font-size="16" font-family="TimesNewRomanPSMT"><tspan y="14.9375" x="107.07031 115.07031 120.398319 124.84631 131.95032 139.95032 144.39832 151.50232 155.95032 160.39832 168.39832">orientation</tspan></text>
<text xml:space="preserve" transform="matrix(.75 0 0 .75 72 324.13185)" font-size="16" font-family="TimesNewRomanPSMT"><tspan y="14.9375" x="180.38282 188.38282">of</tspan></text>
<text xml:space="preserve" transform="matrix(.75 0 0 .75 72 324.13185)" font-size="16" font-family="TimesNewRomanPSMT"><tspan y="14.9375" x="197.71094 202.15894 210.15894">the</tspan></text>
<text xml:space="preserve" transform="matrix(.75 0 0 .75 72 324.13185)" font-size="16" font-family="TimesNewRomanPSMT"><tspan y="14.9375" x="221.25782 226.58582 231.03382 239.03382 247.03382 252.36182 259.46583">figures</tspan></text>
<text xml:space="preserve" transform="matrix(.75 0 0 .75 72 324.13185)" font-size="16" font-family="TimesNewRomanPSMT"><tspan y="14.9375" x="269.6875 274.1355">in</tspan></text>
<text xml:space="preserve" transform="matrix(.75 0 0 .75 72 324.13185)" font-size="16" font-family="TimesNewRomanPSMT"><tspan y="14.9375" x="286.1328 290.5808 298.5808 303.0288">this</tspan></text>
<text xml:space="preserve" transform="matrix(.75 0 0 .75 72 324.13185)" font-size="16" font-family="TimesNewRomanPSMT"><tspan y="14.9375" x="313.25 321.25 329.25 336.354 344.354 356.802 363.906 371.906 376.354">document.</tspan></text>
<text xml:space="preserve" transform="matrix(.75 0 0 .75 72 355.86915)" font-size="16" font-family="TimesNewRomanPS" font-weight="bold"><tspan y="14.9375" x="0 10.672001 18.672 24 29.328 37.328">Bottom</tspan></text>
<text xml:space="preserve" transform="matrix(.75 0 0 .75 72 355.86915)" font-size="16" font-family="TimesNewRomanPS" font-weight="bold"><tspan y="14.9375" x="57.65625">/</tspan></text>
<text xml:space="preserve" transform="matrix(.75 0 0 .75 72 355.86915)" font-size="16" font-family="TimesNewRomanPS" font-weight="bold"><tspan y="14.9375" x="69.10156 79.77356 86.87756 91.32556 99.32556">Below</tspan></text>
<text xml:space="preserve" transform="matrix(.75 0 0 .75 72 355.86915)" font-size="16" font-family="TimesNewRomanPS" font-weight="bold"><tspan y="14.9375" x="116.875 122.203 131.099">the</tspan></text>
<text xml:space="preserve" transform="matrix(.75 0 0 .75 72 355.86915)" font-size="16" font-family="TimesNewRomanPS" font-weight="bold"><tspan y="14.9375" x="144.20313 153.09912 157.54712 163.77112 169.09912 177.09912">piston</tspan></text>
<text xml:space="preserve" transform="matrix(.75 0 0 .75 72 355.86915)" font-size="16" font-family="TimesNewRomanPSMT"><tspan y="14.9375" x="192 197.328 204.432 209.76001 216.86402 222.19202">refers</tspan></text>
<text xml:space="preserve" transform="matrix(.75 0 0 .75 72 355.86915)" font-size="16" font-family="TimesNewRomanPSMT"><tspan y="14.9375" x="234.41407 238.86206">to</tspan></text>
<text xml:space="preserve" transform="matrix(.75 0 0 .75 72 355.86915)" font-size="16" font-family="TimesNewRomanPSMT"><tspan y="14.9375" x="252.85938 257.30738 265.30738">the</tspan></text>
<text xml:space="preserve" transform="matrix(.75 0 0 .75 72 355.86915)" font-size="16" font-family="TimesNewRomanPSMT"><tspan y="14.9375" x="278.40626 284.63026 289.07826 297.07826">side</tspan></text>
<text xml:space="preserve" transform="matrix(.75 0 0 .75 72 355.86915)" font-size="16" font-family="TimesNewRomanPSMT"><tspan y="14.9375" x="310.1797 318.1797">of</tspan></text>
<text xml:space="preserve" transform="matrix(.75 0 0 .75 72 355.86915)" font-size="16" font-family="TimesNewRomanPSMT"><tspan y="14.9375" x="329.5078 333.9558 341.9558">the</tspan></text>
<text xml:space="preserve" transform="matrix(.75 0 0 .75 72 355.86915)" font-size="16" font-family="TimesNewRomanPSMT"><tspan y="14.9375" x="355.0547 363.0547 370.1587 382.6067 390.6067 397.7107">damper</tspan></text>
<text xml:space="preserve" transform="matrix(.75 0 0 .75 72 355.86915)" font-size="16" font-family="TimesNewRomanPSMT"><tspan y="14.9375" x="409.03126 413.47926 421.47926 428.58326">that</tspan></text>
<text xml:space="preserve" transform="matrix(.75 0 0 .75 72 355.86915)" font-size="16" font-family="TimesNewRomanPSMT"><tspan y="14.9375" x="439.02345 443.47145">is</tspan></text>
<text xml:space="preserve" transform="matrix(.75 0 0 .75 72 355.86915)" font-size="16" font-family="TimesNewRomanPSMT"><tspan y="14.9375" x="455.6953 463.6953 470.79933 475.2473 483.2473">below</tspan></text>
<text xml:space="preserve" transform="matrix(.75 0 0 .75 72 355.86915)" font-size="16" font-family="TimesNewRomanPSMT"><tspan y="14.9375" x="500.79689 505.24488 513.2449">the</tspan></text>
<text xml:space="preserve" transform="matrix(.75 0 0 .75 72 355.86915)" font-size="16" font-family="TimesNewRomanPSMT"><tspan y="14.9375" x="526.34378 534.34378 538.79177 545.01577 549.46377 557.46377">piston</tspan></text>
<text xml:space="preserve" transform="matrix(.75 0 0 .75 72 355.86915)" font-size="16" font-family="TimesNewRomanPSMT"><tspan y="14.9375" x="571.46096 579.46096 586.56497 593.66897">head</tspan></text>
<text xml:space="preserve" transform="matrix(.75 0 0 .75 72 371.7378)" font-size="16" font-family="TimesNewRomanPSMT"><tspan y="14.9375" x="0 7.1040008 14.208001 21.312003 29.312003 34.640005 42.640005 47.088006 55.088006">according</tspan></text>
<text xml:space="preserve" transform="matrix(.75 0 0 .75 72 371.7378)" font-size="16" font-family="TimesNewRomanPSMT"><tspan y="14.9375" x="67.078128 71.52612">to</tspan></text>
<text xml:space="preserve" transform="matrix(.75 0 0 .75 72 371.7378)" font-size="16" font-family="TimesNewRomanPSMT"><tspan y="14.9375" x="83.52344 87.971439 95.971439">the</tspan></text>
<text xml:space="preserve" transform="matrix(.75 0 0 .75 72 371.7378)" font-size="16" font-family="TimesNewRomanPSMT"><tspan y="14.9375" x="107.07031 115.07031 120.398319 124.84631 131.95032 139.95032 144.39832 151.50232 155.95032 160.39832 168.39832">orientation</tspan></text>
<text xml:space="preserve" transform="matrix(.75 0 0 .75 72 371.7378)" font-size="16" font-family="TimesNewRomanPSMT"><tspan y="14.9375" x="180.38282 188.38282">of</tspan></text>
<text xml:space="preserve" transform="matrix(.75 0 0 .75 72 371.7378)" font-size="16" font-family="TimesNewRomanPSMT"><tspan y="14.9375" x="197.71094 202.15894 210.15894">the</tspan></text>
<text xml:space="preserve" transform="matrix(.75 0 0 .75 72 371.7378)" font-size="16" font-family="TimesNewRomanPSMT"><tspan y="14.9375" x="221.25782 226.58582 231.03382 239.03382 247.03382 252.36182 259.46583">figures</tspan></text>
<text xml:space="preserve" transform="matrix(.75 0 0 .75 72 371.7378)" font-size="16" font-family="TimesNewRomanPSMT"><tspan y="14.9375" x="269.6875 274.1355">in</tspan></text>
<text xml:space="preserve" transform="matrix(.75 0 0 .75 72 371.7378)" font-size="16" font-family="TimesNewRomanPSMT"><tspan y="14.9375" x="286.1328 290.5808 298.5808 303.0288">this</tspan></text>
<text xml:space="preserve" transform="matrix(.75 0 0 .75 72 371.7378)" font-size="16" font-family="TimesNewRomanPSMT"><tspan y="14.9375" x="313.25 321.25 329.25 336.354 344.354 356.802 363.906 371.906 376.354">document.</tspan></text>
<text xml:space="preserve" transform="matrix(.75 0 0 .75 72 403.4751)" font-size="16" font-family="TimesNewRomanPS" font-weight="bold"><tspan y="14.9375" x="0 8.896001 17.792002 26.688004 32.016004 39.120004 43.568006 50.382814 57.486814 66.38281 70.83081">Sub-circuit</tspan></text>
<text xml:space="preserve" transform="matrix(.75 0 0 .75 72 403.4751)" font-size="16" font-family="TimesNewRomanPSMT"><tspan y="14.9375" x="84.15625 88.60425 101.052249 109.052249 113.500247 117.94824 125.052249">implies</tspan></text>
<text xml:space="preserve" transform="matrix(.75 0 0 .75 72 403.4751)" font-size="16" font-family="TimesNewRomanPSMT"><tspan y="14.9375" x="138.26563 142.71363 150.71363 157.81763">that</tspan></text>
<text xml:space="preserve" transform="matrix(.75 0 0 .75 72 403.4751)" font-size="16" font-family="TimesNewRomanPSMT"><tspan y="14.9375" x="169.25782 173.70581 181.70581 188.80982 194.13782">there</tspan></text>
<text xml:space="preserve" transform="matrix(.75 0 0 .75 72 403.4751)" font-size="16" font-family="TimesNewRomanPSMT"><tspan y="14.9375" x="208.23438 212.68238">is</tspan></text>
<text xml:space="preserve" transform="matrix(.75 0 0 .75 72 403.4751)" font-size="16" font-family="TimesNewRomanPSMT"><tspan y="14.9375" x="225.90625">a</tspan></text>
<text xml:space="preserve" transform="matrix(.75 0 0 .75 72 403.4751)" font-size="16" font-family="TimesNewRomanPSMT"><tspan y="14.9375" x="240.00782 252.45581 259.5598 264.0078">main</tspan></text>
<text xml:space="preserve" transform="matrix(.75 0 0 .75 72 403.4751)" font-size="16" font-family="TimesNewRomanPSMT"><tspan y="14.9375" x="279 286.104 290.552 295.88 302.984 310.984 315.432 319.88">circuit.</tspan></text>
<text xml:space="preserve" transform="matrix(.75 0 0 .75 72 403.4751)" font-size="16" font-family="TimesNewRomanPSMT"><tspan y="14.9375" x="330.8672 340.6432 348.6432">The</tspan></text>
<text xml:space="preserve" transform="matrix(.75 0 0 .75 72 403.4751)" font-size="16" font-family="TimesNewRomanPSMT"><tspan y="14.9375" x="362.7422 369.8462 377.8462 385.8462 392.9502 400.0542 408.0542">concept</tspan></text>
<text xml:space="preserve" transform="matrix(.75 0 0 .75 72 403.4751)" font-size="16" font-family="TimesNewRomanPSMT"><tspan y="14.9375" x="419.4922 427.4922 432.8202 439.9242 446.1482 453.2522 461.2522 465.7002 472.8042">presented</tspan></text>
<text xml:space="preserve" transform="matrix(.75 0 0 .75 72 403.4751)" font-size="16" font-family="TimesNewRomanPSMT"><tspan y="14.9375" x="487.79689 495.79689 502.90089 508.22889">here</tspan></text>
<text xml:space="preserve" transform="matrix(.75 0 0 .75 72 403.4751)" font-size="16" font-family="TimesNewRomanPSMT"><tspan y="14.9375" x="522.3281 529.4321 537.4321 549.8801 557.8801 563.2081 567.6561 573.8801 580.98416">comprises</tspan></text>
<text xml:space="preserve" transform="matrix(.75 0 0 .75 72 403.4751)" font-size="16" font-family="TimesNewRomanPSMT"><tspan y="14.9375" x="594.2031">a</tspan></text>
<text xml:space="preserve" transform="matrix(.75 0 0 .75 72 419.34376)" font-size="16" font-family="TimesNewRomanPSMT"><tspan y="14.9375" x="0 8 16 24 29.328 36.432 44.432 48.88 53.328004">hydraulic</tspan></text>
<text xml:space="preserve" transform="matrix(.75 0 0 .75 72 419.34376)" font-size="16" font-family="TimesNewRomanPSMT"><tspan y="14.9375" x="64.421878 71.52588 75.97388 81.30188 88.40588 96.40588 100.85388">circuit</tspan></text>
<text xml:space="preserve" transform="matrix(.75 0 0 .75 72 419.34376)" font-size="16" font-family="TimesNewRomanPSMT"><tspan y="14.9375" x="109.28906 114.617069 122.617069">for</tspan></text>
<text xml:space="preserve" transform="matrix(.75 0 0 .75 72 419.34376)" font-size="16" font-family="TimesNewRomanPSMT"><tspan y="14.9375" x="131.94532 136.39331 144.39331">the</tspan></text>
<text xml:space="preserve" transform="matrix(.75 0 0 .75 72 419.34376)" font-size="16" font-family="TimesNewRomanPSMT"><tspan y="14.9375" x="155.49219 163.49219 170.59619 183.04419 191.04419 198.1482">damper</tspan></text>
<text xml:space="preserve" transform="matrix(.75 0 0 .75 72 419.34376)" font-size="16" font-family="TimesNewRomanPSMT"><tspan y="14.9375" x="207.46875 219.02075 223.46875 227.91675">with</tspan></text>
<text xml:space="preserve" transform="matrix(.75 0 0 .75 72 419.34376)" font-size="16" font-family="TimesNewRomanPSMT"><tspan y="14.9375" x="239.91407">a</tspan></text>
<text xml:space="preserve" transform="matrix(.75 0 0 .75 72 419.34376)" font-size="16" font-family="TimesNewRomanPSMT"><tspan y="14.9375" x="251.01563 259.01564 267.01564 275.01564 282.11964 288.34364">bypass</tspan></text>
<text xml:space="preserve" transform="matrix(.75 0 0 .75 72 419.34376)" font-size="16" font-family="TimesNewRomanPSMT"><tspan y="14.9375" x="298.5703 304.7943 312.7943 320.7943 326.1223 333.22633 337.67433 343.00233 350.10633 358.10633 362.55433 367.00233">sub-circuit.</tspan></text>
<g clip-path="url(#clip_1)">
<text xml:space="preserve" transform="matrix(.75 0 0 .75 72 791.7036)" font-size="14.666667" font-family="ArialMT"><tspan y="13.757161" x="296.77485">3</tspan></text>
</g>
</svg>
