<svg xmlns="http://www.w3.org/2000/svg" xmlns:xlink="http://www.w3.org/1999/xlink" version="1.1" width="596" height="842" viewBox="0 0 596 842">
<defs>
<clipPath id="clip_2">
<path d="M0 770.25H595.5V842.25H0Z" fill-rule="evenodd"/>
</clipPath>
</defs>
<path transform="matrix(.75,0,0,.75,0,0)" d="M0 0H794V1123H0Z" fill="#ffffff"/>
<text xml:space="preserve" transform="matrix(.75 0 0 .75 72 72)" font-size="22.666666" font-family="Cambria"><tspan y="21.53776" x="0 7.345581 22.766877 36.1969 49.814775 64.61656 79.606418 94.286518 107.030658 120.46068 127.80626 142.60805">INTRODUCTION</tspan></text>
<text xml:space="preserve" transform="matrix(.75 0 0 .75 72 117.40039)" font-size="16" font-family="TimesNewRomanPSMT"><tspan y="14.9375" x="0 9.776 17.776001 24.880002 30.208">There</tspan></text>
<text xml:space="preserve" transform="matrix(.75 0 0 .75 72 117.40039)" font-size="16" font-family="TimesNewRomanPSMT"><tspan y="14.9375" x="42.304689 49.408689 54.736688">are</tspan></text>
<text xml:space="preserve" transform="matrix(.75 0 0 .75 72 117.40039)" font-size="16" font-family="TimesNewRomanPSMT"><tspan y="14.9375" x="66.83594 71.283939 82.83594">two</tspan></text>
<text xml:space="preserve" transform="matrix(.75 0 0 .75 72 117.40039)" font-size="16" font-family="TimesNewRomanPSMT"><tspan y="14.9375" x="95.83594 108.283939 115.38794 119.83594">main</tspan></text>
<text xml:space="preserve" transform="matrix(.75 0 0 .75 72 117.40039)" font-size="16" font-family="TimesNewRomanPSMT"><tspan y="14.9375" x="132.82813 139.93213 147.93213 160.38013 168.38013 176.38013 184.38013 191.48413 199.48413 203.93213">components</tspan></text>
<text xml:space="preserve" transform="matrix(.75 0 0 .75 72 117.40039)" font-size="16" font-family="TimesNewRomanPSMT"><tspan y="14.9375" x="215.14844 223.14844">of</tspan></text>
<text xml:space="preserve" transform="matrix(.75 0 0 .75 72 117.40039)" font-size="16" font-family="TimesNewRomanPSMT"><tspan y="14.9375" x="233.47657">a</tspan></text>
<text xml:space="preserve" transform="matrix(.75 0 0 .75 72 117.40039)" font-size="16" font-family="TimesNewRomanPSMT"><tspan y="14.9375" x="245.57813 251.80213 259.80213 267.80213 274.90614">shock</tspan></text>
<text xml:space="preserve" transform="matrix(.75 0 0 .75 72 117.40039)" font-size="16" font-family="TimesNewRomanPSMT"><tspan y="14.9375" x="287.90626 295.01026 303.01026 309.23426 317.23426 322.56227 330.56227 337.66627">absorber</tspan></text>
<text xml:space="preserve" transform="matrix(.75 0 0 .75 72 117.40039)" font-size="16" font-family="TimesNewRomanPSMT"><tspan y="14.9375" x="347.9922 353.3202 361.3202">for</tspan></text>
<text xml:space="preserve" transform="matrix(.75 0 0 .75 72 117.40039)" font-size="16" font-family="TimesNewRomanPSMT"><tspan y="14.9375" x="370.64845 378.64845 385.75245 393.75245 398.20045 405.30445 409.75245 416.85646">vehicles</tspan></text>
<text xml:space="preserve" transform="matrix(.75 0 0 .75 72 117.40039)" font-size="16" font-family="TimesNewRomanPSMT"><tspan y="14.9375" x="427.0703 438.6223 443.0703 447.5183">with</tspan></text>
<text xml:space="preserve" transform="matrix(.75 0 0 .75 72 117.40039)" font-size="16" font-family="TimesNewRomanPSMT"><tspan y="14.9375" x="459.51564 471.06764 479.06764 486.17164 493.27565 497.72364 503.94764">wheels:</tspan></text>
<text xml:space="preserve" transform="matrix(.75 0 0 .75 72 117.40039)" font-size="16" font-family="TimesNewRomanPSMT"><tspan y="14.9375" x="512.3906">a</tspan></text>
<text xml:space="preserve" transform="matrix(.75 0 0 .75 72 117.40039)" font-size="16" font-family="TimesNewRomanPSMT"><tspan y="14.9375" x="523.4922 529.7162 537.7162 543.0442 547.4922 555.4922">spring</tspan></text>
<text xml:space="preserve" transform="matrix(.75 0 0 .75 72 117.40039)" font-size="16" font-family="TimesNewRomanPSMT"><tspan y="14.9375" x="567.4922 574.5962 582.5962">and</tspan></text>
<text xml:space="preserve" transform="matrix(.75 0 0 .75 72 117.40039)" font-size="16" font-family="TimesNewRomanPSMT"><tspan y="14.9375" x="594.59378">a</tspan></text>
<text xml:space="preserve" transform="matrix(.75 0 0 .75 72 133.26905)" font-size="16" font-family="TimesNewRomanPSMT"><tspan y="14.9375" x="0 8 15.104 27.552002 35.552003 42.656003 47.09375">damper.</tspan></text>
<text xml:space="preserve" transform="matrix(.75 0 0 .75 72 133.26905)" font-size="16" font-family="TimesNewRomanPSMT"><tspan y="14.9375" x="57.09375 65.98975 73.98975 79.31776 83.765758 91.765758 99.765758">Springs</tspan></text>
<text xml:space="preserve" transform="matrix(.75 0 0 .75 72 133.26905)" font-size="16" font-family="TimesNewRomanPSMT"><tspan y="14.9375" x="111.99219 119.09619 124.424198">are</tspan></text>
<text xml:space="preserve" transform="matrix(.75 0 0 .75 72 133.26905)" font-size="16" font-family="TimesNewRomanPSMT"><tspan y="14.9375" x="137.52344 149.07544 157.07544 164.17945">what</tspan></text>
<text xml:space="preserve" transform="matrix(.75 0 0 .75 72 133.26905)" font-size="16" font-family="TimesNewRomanPSMT"><tspan y="14.9375" x="174.625 182.625 189.729 196.83301 204.83301">keeps</tspan></text>
<text xml:space="preserve" transform="matrix(.75 0 0 .75 72 133.26905)" font-size="16" font-family="TimesNewRomanPSMT"><tspan y="14.9375" x="217.05469 221.50269 229.50269">the</tspan></text>
<text xml:space="preserve" transform="matrix(.75 0 0 .75 72 133.26905)" font-size="16" font-family="TimesNewRomanPSMT"><tspan y="14.9375" x="242.60157 250.60157 257.70558 265.70558 270.15357 277.25758 281.70558">vehicle</tspan></text>
<text xml:space="preserve" transform="matrix(.75 0 0 .75 72 133.26905)" font-size="16" font-family="TimesNewRomanPSMT"><tspan y="14.9375" x="294.79689 302.79689">up</tspan></text>
<text xml:space="preserve" transform="matrix(.75 0 0 .75 72 133.26905)" font-size="16" font-family="TimesNewRomanPSMT"><tspan y="14.9375" x="316.79689 323.90089 331.90089">and</tspan></text>
<text xml:space="preserve" transform="matrix(.75 0 0 .75 72 133.26905)" font-size="16" font-family="TimesNewRomanPSMT"><tspan y="14.9375" x="345.89845 353.89845 361.89845 368.12245 376.12245 383.22645">pushes</tspan></text>
<text xml:space="preserve" transform="matrix(.75 0 0 .75 72 133.26905)" font-size="16" font-family="TimesNewRomanPSMT"><tspan y="14.9375" x="395.45314 399.90113">it</tspan></text>
<text xml:space="preserve" transform="matrix(.75 0 0 .75 72 133.26905)" font-size="16" font-family="TimesNewRomanPSMT"><tspan y="14.9375" x="410.34376 418.34376 425.44776 432.55177">back</tspan></text>
<text xml:space="preserve" transform="matrix(.75 0 0 .75 72 133.26905)" font-size="16" font-family="TimesNewRomanPSMT"><tspan y="14.9375" x="445.54689 453.54689">up</tspan></text>
<text xml:space="preserve" transform="matrix(.75 0 0 .75 72 133.26905)" font-size="16" font-family="TimesNewRomanPSMT"><tspan y="14.9375" x="466.54689 473.65089 478.97889 483.42689 490.53089">after</tspan></text>
<text xml:space="preserve" transform="matrix(.75 0 0 .75 72 133.26905)" font-size="16" font-family="TimesNewRomanPSMT"><tspan y="14.9375" x="500.85157 507.95558">an</tspan></text>
<text xml:space="preserve" transform="matrix(.75 0 0 .75 72 133.26905)" font-size="16" font-family="TimesNewRomanPSMT"><tspan y="14.9375" x="520.9531 525.4011 537.8491 545.8491 552.9531 560.0571 564.5051">impact,</tspan></text>
<text xml:space="preserve" transform="matrix(.75 0 0 .75 72 133.26905)" font-size="16" font-family="TimesNewRomanPSMT"><tspan y="14.9375" x="573.4922 577.9402 585.9402 593.0442">they</tspan></text>
<text xml:space="preserve" transform="matrix(.75 0 0 .75 72 149.1377)" font-size="16" font-family="TimesNewRomanPSMT"><tspan y="14.9375" x="0 8 14.224001 22.224 29.328001 33.776 38.224004">usually</tspan></text>
<text xml:space="preserve" transform="matrix(.75 0 0 .75 72 149.1377)" font-size="16" font-family="TimesNewRomanPSMT"><tspan y="14.9375" x="52.21875 59.32275 67.322757 79.77075 87.77075 93.098758 97.54675 103.77075">comprise</tspan></text>
<text xml:space="preserve" transform="matrix(.75 0 0 .75 72 149.1377)" font-size="16" font-family="TimesNewRomanPSMT"><tspan y="14.9375" x="116.86719 123.97119 131.97119 136.41919 140.86719">coils</tspan></text>
<text xml:space="preserve" transform="matrix(.75 0 0 .75 72 149.1377)" font-size="16" font-family="TimesNewRomanPSMT"><tspan y="14.9375" x="153.08594 161.08594">or</tspan></text>
<text xml:space="preserve" transform="matrix(.75 0 0 .75 72 149.1377)" font-size="16" font-family="TimesNewRomanPSMT"><tspan y="14.9375" x="172.41407 179.51807 183.96607">air</tspan></text>
<text xml:space="preserve" transform="matrix(.75 0 0 .75 72 149.1377)" font-size="16" font-family="TimesNewRomanPSMT"><tspan y="14.9375" x="195.28907 202.39307 210.39307 217.49707 229.94507 237.94507 245.04907 250.37708">chambers</tspan></text>
<text xml:space="preserve" transform="matrix(.75 0 0 .75 72 149.1377)" font-size="16" font-family="TimesNewRomanPSMT"><tspan y="14.9375" x="262.59376 267.04176 275.04176 282.14576">that</tspan></text>
<text xml:space="preserve" transform="matrix(.75 0 0 .75 72 149.1377)" font-size="16" font-family="TimesNewRomanPSMT"><tspan y="14.9375" x="291.58595 296.91395 304.01795 310.24195 314.68995 320.91395">resist</tspan></text>
<text xml:space="preserve" transform="matrix(.75 0 0 .75 72 149.1377)" font-size="16" font-family="TimesNewRomanPSMT"><tspan y="14.9375" x="330.35939 337.46339 345.46339 357.91139 365.91139 371.23939 378.34339 384.56739 390.79139 395.23939 403.23939 411.23939">compression.</tspan></text>
<text xml:space="preserve" transform="matrix(.75 0 0 .75 72 149.1377)" font-size="16" font-family="TimesNewRomanPSMT"><tspan y="14.9375" x="420.23439 430.90638 438.90638 443.35438">Both</tspan></text>
<text xml:space="preserve" transform="matrix(.75 0 0 .75 72 149.1377)" font-size="16" font-family="TimesNewRomanPSMT"><tspan y="14.9375" x="456.35157 460.79957 468.79957 476.79957 483.90357">types</tspan></text>
<text xml:space="preserve" transform="matrix(.75 0 0 .75 72 149.1377)" font-size="16" font-family="TimesNewRomanPSMT"><tspan y="14.9375" x="495.125 503.125 510.229 518.229">have</tspan></text>
<text xml:space="preserve" transform="matrix(.75 0 0 .75 72 149.1377)" font-size="16" font-family="TimesNewRomanPSMT"><tspan y="14.9375" x="530.3281 537.4321 545.4321 553.4321 560.53616 568.53616 572.98416 580.08816 588.08816 595.19216">advantages</tspan></text>
<text xml:space="preserve" transform="matrix(.75 0 0 .75 72 165.00635)" font-size="16" font-family="TimesNewRomanPSMT"><tspan y="14.9375" x="0 7.1040008 15.104">and</tspan></text>
<text xml:space="preserve" transform="matrix(.75 0 0 .75 72 165.00635)" font-size="16" font-family="TimesNewRomanPSMT"><tspan y="14.9375" x="31.101563 39.101564 43.549566 48.585939 53.913938 61.017938 66.34594 73.44994 81.44994">different</tspan></text>
<text xml:space="preserve" transform="matrix(.75 0 0 .75 72 165.00635)" font-size="16" font-family="TimesNewRomanPSMT"><tspan y="14.9375" x="92.890628 100.890628 106.21863 114.21863 122.21863 129.32263 134.65064 139.09864 143.54663 150.65064">properties</tspan></text>
<text xml:space="preserve" transform="matrix(.75 0 0 .75 72 165.00635)" font-size="16" font-family="TimesNewRomanPSMT"><tspan y="14.9375" x="163.86719 168.31519 176.31519 183.41919">that</tspan></text>
<text xml:space="preserve" transform="matrix(.75 0 0 .75 72 165.00635)" font-size="16" font-family="TimesNewRomanPSMT"><tspan y="14.9375" x="194.85938 201.96338 209.06739">can</tspan></text>
<text xml:space="preserve" transform="matrix(.75 0 0 .75 72 165.00635)" font-size="16" font-family="TimesNewRomanPSMT"><tspan y="14.9375" x="224.0625 232.0625">be</tspan></text>
<text xml:space="preserve" transform="matrix(.75 0 0 .75 72 165.00635)" font-size="16" font-family="TimesNewRomanPSMT"><tspan y="14.9375" x="246.16407 250.61206 258.61207 266.61207 273.71607 281.71607">tuned.</tspan></text>
<text xml:space="preserve" transform="matrix(.75 0 0 .75 72 165.00635)" font-size="16" font-family="TimesNewRomanPSMT"><tspan y="14.9375" x="292.71095 302.48695 310.48695 318.48695 322.93495 330.93495 338.03895 345.14295 350.47096">Engineers</tspan></text>
<text xml:space="preserve" transform="matrix(.75 0 0 .75 72 165.00635)" font-size="16" font-family="TimesNewRomanPSMT"><tspan y="14.9375" x="363.6875 371.6875 378.7915 386.7915">have</tspan></text>
<text xml:space="preserve" transform="matrix(.75 0 0 .75 72 165.00635)" font-size="16" font-family="TimesNewRomanPSMT"><tspan y="14.9375" x="400.89064 406.21864 414.21864 422.21864 430.21864">found</tspan></text>
<text xml:space="preserve" transform="matrix(.75 0 0 .75 72 165.00635)" font-size="16" font-family="TimesNewRomanPSMT"><tspan y="14.9375" x="445.21876 456.77076 463.87477 471.87477">ways</tspan></text>
<text xml:space="preserve" transform="matrix(.75 0 0 .75 72 165.00635)" font-size="16" font-family="TimesNewRomanPSMT"><tspan y="14.9375" x="485.10157 489.54957">to</tspan></text>
<text xml:space="preserve" transform="matrix(.75 0 0 .75 72 165.00635)" font-size="16" font-family="TimesNewRomanPSMT"><tspan y="14.9375" x="504.54689 511.65089 519.6509">add</tspan></text>
<text xml:space="preserve" transform="matrix(.75 0 0 .75 72 165.00635)" font-size="16" font-family="TimesNewRomanPSMT"><tspan y="14.9375" x="534.64846 542.64846">or</tspan></text>
<text xml:space="preserve" transform="matrix(.75 0 0 .75 72 165.00635)" font-size="16" font-family="TimesNewRomanPSMT"><tspan y="14.9375" x="554.97659 567.42459 575.42459 583.42459 587.87258 593.20059">modify</tspan></text>
<text xml:space="preserve" transform="matrix(.75 0 0 .75 72 180.875)" font-size="16" font-family="TimesNewRomanPSMT"><tspan y="14.9375" x="0 8 13.328 21.328 29.328 36.432 41.76 46.208 50.656003 57.760004">properties</tspan></text>
<text xml:space="preserve" transform="matrix(.75 0 0 .75 72 180.875)" font-size="16" font-family="TimesNewRomanPSMT"><tspan y="14.9375" x="72.97656 80.97656">of</tspan></text>
<text xml:space="preserve" transform="matrix(.75 0 0 .75 72 180.875)" font-size="16" font-family="TimesNewRomanPSMT"><tspan y="14.9375" x="95.30469 101.52869 109.52869 114.85669 119.30469 127.30469 135.30469">springs</tspan></text>
<text xml:space="preserve" transform="matrix(.75 0 0 .75 72 180.875)" font-size="16" font-family="TimesNewRomanPSMT"><tspan y="14.9375" x="150.53125 156.75525">so</tspan></text>
<text xml:space="preserve" transform="matrix(.75 0 0 .75 72 180.875)" font-size="16" font-family="TimesNewRomanPSMT"><tspan y="14.9375" x="173.75782 178.20581 186.20581 193.30982">that</tspan></text>
<text xml:space="preserve" transform="matrix(.75 0 0 .75 72 180.875)" font-size="16" font-family="TimesNewRomanPSMT"><tspan y="14.9375" x="206.75 211.198 219.198 226.302">they</tspan></text>
<text xml:space="preserve" transform="matrix(.75 0 0 .75 72 180.875)" font-size="16" font-family="TimesNewRomanPSMT"><tspan y="14.9375" x="243.29688 248.62488 255.72888 261.95289 269.95289 277.95289 285.95289">respond</tspan></text>
<text xml:space="preserve" transform="matrix(.75 0 0 .75 72 180.875)" font-size="16" font-family="TimesNewRomanPSMT"><tspan y="14.9375" x="302.95314 307.40113">in</tspan></text>
<text xml:space="preserve" transform="matrix(.75 0 0 .75 72 180.875)" font-size="16" font-family="TimesNewRomanPSMT"><tspan y="14.9375" x="323.39845">a</tspan></text>
<text xml:space="preserve" transform="matrix(.75 0 0 .75 72 180.875)" font-size="16" font-family="TimesNewRomanPSMT"><tspan y="14.9375" x="338.5 350.948 358.948 364.276">more</tspan></text>
<text xml:space="preserve" transform="matrix(.75 0 0 .75 72 180.875)" font-size="16" font-family="TimesNewRomanPSMT"><tspan y="14.9375" x="379.375 387.375 394.479 400.703 405.151 410.479 417.583 425.583 430.031">desirable</tspan></text>
<text xml:space="preserve" transform="matrix(.75 0 0 .75 72 180.875)" font-size="16" font-family="TimesNewRomanPSMT"><tspan y="14.9375" x="445.125 456.677 463.781">way</tspan></text>
<text xml:space="preserve" transform="matrix(.75 0 0 .75 72 180.875)" font-size="16" font-family="TimesNewRomanPSMT"><tspan y="14.9375" x="479.78126 487.78126 495.78126 501.10926 505.55726 513.55728">during</tspan></text>
<text xml:space="preserve" transform="matrix(.75 0 0 .75 72 180.875)" font-size="16" font-family="TimesNewRomanPSMT"><tspan y="14.9375" x="529.5547">a</tspan></text>
<text xml:space="preserve" transform="matrix(.75 0 0 .75 72 180.875)" font-size="16" font-family="TimesNewRomanPSMT"><tspan y="14.9375" x="544.65628 549.98428 554.43228 562.43228">ride</tspan></text>
<text xml:space="preserve" transform="matrix(.75 0 0 .75 72 180.875)" font-size="16" font-family="TimesNewRomanPSMT"><tspan y="14.9375" x="577.53128 581.97927 589.97927 597.08328">that</tspan></text>
<text xml:space="preserve" transform="matrix(.75 0 0 .75 72 196.74365)" font-size="16" font-family="TimesNewRomanPSMT"><tspan y="14.9375" x="0 7.1040008 15.104 22.208 30.208 38.208 46.208 50.656003 57.760004 63.088">encounters</tspan></text>
<text xml:space="preserve" transform="matrix(.75 0 0 .75 72 196.74365)" font-size="16" font-family="TimesNewRomanPSMT"><tspan y="14.9375" x="74.30469 82.30469 86.752689 91.78906 97.117069 104.22107 109.54907 116.653079 124.653079">different</tspan></text>
<text xml:space="preserve" transform="matrix(.75 0 0 .75 72 196.74365)" font-size="16" font-family="TimesNewRomanPSMT"><tspan y="14.9375" x="134.09375 138.54175 146.54175 154.54175 161.64575">types</tspan></text>
<text xml:space="preserve" transform="matrix(.75 0 0 .75 72 196.74365)" font-size="16" font-family="TimesNewRomanPSMT"><tspan y="14.9375" x="172.86719 180.86719">of</tspan></text>
<text xml:space="preserve" transform="matrix(.75 0 0 .75 72 196.74365)" font-size="16" font-family="TimesNewRomanPSMT"><tspan y="14.9375" x="191.19532 195.64331 208.09131 216.09131 223.19532 230.29932 234.74732 240.97132">impacts.</tspan></text>
<text xml:space="preserve" transform="matrix(.75 0 0 .75 72 196.74365)" font-size="16" font-family="TimesNewRomanPSMT"><tspan y="14.9375" x="249.96094 261.51295 268.61695 281.06495 289.06495 296.16896 301.49696 307.72096">Dampers,</tspan></text>
<text xml:space="preserve" transform="matrix(.75 0 0 .75 72 196.74365)" font-size="16" font-family="TimesNewRomanPSMT"><tspan y="14.9375" x="316.71876 324.71876">on</tspan></text>
<text xml:space="preserve" transform="matrix(.75 0 0 .75 72 196.74365)" font-size="16" font-family="TimesNewRomanPSMT"><tspan y="14.9375" x="337.71876 342.16676 350.16676">the</tspan></text>
<text xml:space="preserve" transform="matrix(.75 0 0 .75 72 196.74365)" font-size="16" font-family="TimesNewRomanPSMT"><tspan y="14.9375" x="362.26564 370.26564 374.71363 382.71363 389.81764">other</tspan></text>
<text xml:space="preserve" transform="matrix(.75 0 0 .75 72 196.74365)" font-size="16" font-family="TimesNewRomanPSMT"><tspan y="14.9375" x="400.14064 408.14064 415.24464 423.24464 431.24464">hand,</tspan></text>
<text xml:space="preserve" transform="matrix(.75 0 0 .75 72 196.74365)" font-size="16" font-family="TimesNewRomanPSMT"><tspan y="14.9375" x="440.2422 444.6902 451.7942 459.7942">tend</tspan></text>
<text xml:space="preserve" transform="matrix(.75 0 0 .75 72 196.74365)" font-size="16" font-family="TimesNewRomanPSMT"><tspan y="14.9375" x="472.78907 477.23707">to</tspan></text>
<text xml:space="preserve" transform="matrix(.75 0 0 .75 72 196.74365)" font-size="16" font-family="TimesNewRomanPSMT"><tspan y="14.9375" x="489.23439 497.23439">be</tspan></text>
<text xml:space="preserve" transform="matrix(.75 0 0 .75 72 196.74365)" font-size="16" font-family="TimesNewRomanPSMT"><tspan y="14.9375" x="508.33595 516.33596 524.33596 532.33596 537.66397 544.76797 552.76797 557.21597 561.66397 568.76797">hydraulic.</tspan></text>
<text xml:space="preserve" transform="matrix(.75 0 0 .75 72 196.74365)" font-size="16" font-family="TimesNewRomanPSMT"><tspan y="14.9375" x="576.7578 582.0858 586.0858 593.1898 597.1898">I.e.,</tspan></text>
<text xml:space="preserve" transform="matrix(.75 0 0 .75 72 212.6123)" font-size="16" font-family="TimesNewRomanPSMT"><tspan y="14.9375" x="0 4.4480006 12.448 19.552">they</tspan></text>
<text xml:space="preserve" transform="matrix(.75 0 0 .75 72 212.6123)" font-size="16" font-family="TimesNewRomanPSMT"><tspan y="14.9375" x="33.546876 38.874876 45.978876 50.426877">rely</tspan></text>
<text xml:space="preserve" transform="matrix(.75 0 0 .75 72 212.6123)" font-size="16" font-family="TimesNewRomanPSMT"><tspan y="14.9375" x="64.421878 72.421878">on</tspan></text>
<text xml:space="preserve" transform="matrix(.75 0 0 .75 72 212.6123)" font-size="16" font-family="TimesNewRomanPSMT"><tspan y="14.9375" x="86.421878 93.52588">an</tspan></text>
<text xml:space="preserve" transform="matrix(.75 0 0 .75 72 212.6123)" font-size="16" font-family="TimesNewRomanPSMT"><tspan y="14.9375" x="107.52344 111.971439 119.971439 127.07544 135.07544 147.52344 155.52344 160.85144 167.95545 174.17945 180.40345 184.85144 192.85144 197.29944">incompressible</tspan></text>
<text xml:space="preserve" transform="matrix(.75 0 0 .75 72 212.6123)" font-size="16" font-family="TimesNewRomanPSMT"><tspan y="14.9375" x="209.39063 214.71863 219.16663 227.16663 231.61463">fluid</tspan></text>
<text xml:space="preserve" transform="matrix(.75 0 0 .75 72 212.6123)" font-size="16" font-family="TimesNewRomanPSMT"><tspan y="14.9375" x="244.60938 249.05738 257.05738 264.16139">that</tspan></text>
<text xml:space="preserve" transform="matrix(.75 0 0 .75 72 212.6123)" font-size="16" font-family="TimesNewRomanPSMT"><tspan y="14.9375" x="273.60157 278.04957">is</tspan></text>
<text xml:space="preserve" transform="matrix(.75 0 0 .75 72 212.6123)" font-size="16" font-family="TimesNewRomanPSMT"><tspan y="14.9375" x="289.27345 294.60145 302.60145 307.92945 315.03346 322.13746">forced</tspan></text>
<text xml:space="preserve" transform="matrix(.75 0 0 .75 72 212.6123)" font-size="16" font-family="TimesNewRomanPSMT"><tspan y="14.9375" x="335.1328 339.5808 347.5808 352.9088 360.9088 368.9088 376.9088">through</tspan></text>
<text xml:space="preserve" transform="matrix(.75 0 0 .75 72 212.6123)" font-size="16" font-family="TimesNewRomanPSMT"><tspan y="14.9375" x="389.90626 397.90626 403.23426 407.68226 413.01026 417.45826 424.56227 431.66627">orifices</tspan></text>
<text xml:space="preserve" transform="matrix(.75 0 0 .75 72 212.6123)" font-size="16" font-family="TimesNewRomanPSMT"><tspan y="14.9375" x="442.8828 449.98683">as</tspan></text>
<text xml:space="preserve" transform="matrix(.75 0 0 .75 72 212.6123)" font-size="16" font-family="TimesNewRomanPSMT"><tspan y="14.9375" x="461.21095 465.65895 478.10694 486.10694 493.21095 500.31495 504.76295">impacts</tspan></text>
<text xml:space="preserve" transform="matrix(.75 0 0 .75 72 212.6123)" font-size="16" font-family="TimesNewRomanPSMT"><tspan y="14.9375" x="515.97659 523.08059 531.08059 543.52859 551.52859 556.85659 563.9606 570.1846">compress</tspan></text>
<text xml:space="preserve" transform="matrix(.75 0 0 .75 72 212.6123)" font-size="16" font-family="TimesNewRomanPSMT"><tspan y="14.9375" x="581.40628 585.85427 593.85427">the</tspan></text>
<text xml:space="preserve" transform="matrix(.75 0 0 .75 72 228.48096)" font-size="16" font-family="TimesNewRomanPSMT"><tspan y="14.9375" x="0 6.2240006 14.224001 22.224 29.328001">shock</tspan></text>
<text xml:space="preserve" transform="matrix(.75 0 0 .75 72 228.48096)" font-size="16" font-family="TimesNewRomanPSMT"><tspan y="14.9375" x="42.328126 49.432126 57.432126 63.656126 71.65613 76.98413 84.98413 92.088138">absorber</tspan></text>
<text xml:space="preserve" transform="matrix(.75 0 0 .75 72 228.48096)" font-size="16" font-family="TimesNewRomanPSMT"><tspan y="14.9375" x="102.41406 109.51807 117.51807">and</tspan></text>
<text xml:space="preserve" transform="matrix(.75 0 0 .75 72 228.48096)" font-size="16" font-family="TimesNewRomanPSMT"><tspan y="14.9375" x="130.51563 134.96363 142.96363 148.29163 156.29163 164.29163 172.29163">through</tspan></text>
<text xml:space="preserve" transform="matrix(.75 0 0 .75 72 228.48096)" font-size="16" font-family="TimesNewRomanPSMT"><tspan y="14.9375" x="185.28907 189.73706 197.73706">the</tspan></text>
<text xml:space="preserve" transform="matrix(.75 0 0 .75 72 228.48096)" font-size="16" font-family="TimesNewRomanPSMT"><tspan y="14.9375" x="209.83594 216.05994 223.16394 235.61194">same</tspan></text>
<text xml:space="preserve" transform="matrix(.75 0 0 .75 72 228.48096)" font-size="16" font-family="TimesNewRomanPSMT"><tspan y="14.9375" x="247.71094 255.71094">or</tspan></text>
<text xml:space="preserve" transform="matrix(.75 0 0 .75 72 228.48096)" font-size="16" font-family="TimesNewRomanPSMT"><tspan y="14.9375" x="266.03907 274.03907 278.48707 283.52345 288.85145 295.95545 301.28346 308.38746 316.38746">different</tspan></text>
<text xml:space="preserve" transform="matrix(.75 0 0 .75 72 228.48096)" font-size="16" font-family="TimesNewRomanPSMT"><tspan y="14.9375" x="325.82814 333.82814 339.15614 343.60414 348.93214 353.38014 360.48414 367.58815">orifices</tspan></text>
<text xml:space="preserve" transform="matrix(.75 0 0 .75 72 228.48096)" font-size="16" font-family="TimesNewRomanPSMT"><tspan y="14.9375" x="378.8047 385.9087">as</tspan></text>
<text xml:space="preserve" transform="matrix(.75 0 0 .75 72 228.48096)" font-size="16" font-family="TimesNewRomanPSMT"><tspan y="14.9375" x="397.1328 401.5808 409.5808">the</tspan></text>
<text xml:space="preserve" transform="matrix(.75 0 0 .75 72 228.48096)" font-size="16" font-family="TimesNewRomanPSMT"><tspan y="14.9375" x="420.6797 426.9037 434.9037 440.2317 444.6797 452.6797">spring</tspan></text>
<text xml:space="preserve" transform="matrix(.75 0 0 .75 72 228.48096)" font-size="16" font-family="TimesNewRomanPSMT"><tspan y="14.9375" x="464.6797 471.7837 479.7837 484.2317 491.3357 499.3357 507.3357">extends</tspan></text>
<text xml:space="preserve" transform="matrix(.75 0 0 .75 72 228.48096)" font-size="16" font-family="TimesNewRomanPSMT"><tspan y="14.9375" x="517.5547 522.0027">it</tspan></text>
<text xml:space="preserve" transform="matrix(.75 0 0 .75 72 228.48096)" font-size="16" font-family="TimesNewRomanPSMT"><tspan y="14.9375" x="530.4453 538.4453 545.5493 552.6533 560.6533">back.</tspan></text>
<text xml:space="preserve" transform="matrix(.75 0 0 .75 72 228.48096)" font-size="16" font-family="TimesNewRomanPSMT"><tspan y="14.9375" x="568.64846 582.87246 590.87246 597.09646">Most</tspan></text>
<text xml:space="preserve" transform="matrix(.75 0 0 .75 72 244.34961)" font-size="16" font-family="TimesNewRomanPSMT"><tspan y="14.9375" x="0 12.448001 20.448002 28.448002 35.552003 40.88">modern</tspan></text>
<text xml:space="preserve" transform="matrix(.75 0 0 .75 72 244.34961)" font-size="16" font-family="TimesNewRomanPSMT"><tspan y="14.9375" x="54.875 61.099 69.099 77.099 84.203">shock</tspan></text>
<text xml:space="preserve" transform="matrix(.75 0 0 .75 72 244.34961)" font-size="16" font-family="TimesNewRomanPSMT"><tspan y="14.9375" x="98.203128 105.30713 113.30713 119.53113 127.53113 132.85913 140.85913 147.96314 153.29114">absorbers</tspan></text>
<text xml:space="preserve" transform="matrix(.75 0 0 .75 72 244.34961)" font-size="16" font-family="TimesNewRomanPSMT"><tspan y="14.9375" x="165.51563 172.61963 177.94763">are</tspan></text>
<text xml:space="preserve" transform="matrix(.75 0 0 .75 72 244.34961)" font-size="16" font-family="TimesNewRomanPSMT"><tspan y="14.9375" x="191.04688 199.04688 206.15088 212.37488 216.82288 224.82288 232.82288 239.92688">designed</tspan></text>
<text xml:space="preserve" transform="matrix(.75 0 0 .75 72 244.34961)" font-size="16" font-family="TimesNewRomanPSMT"><tspan y="14.9375" x="253.92188 261.02589 266.35389 274.35389 282.35389 290.35389">around</tspan></text>
<text xml:space="preserve" transform="matrix(.75 0 0 .75 72 244.34961)" font-size="16" font-family="TimesNewRomanPSMT"><tspan y="14.9375" x="304.35157">a</tspan></text>
<text xml:space="preserve" transform="matrix(.75 0 0 .75 72 244.34961)" font-size="16" font-family="TimesNewRomanPSMT"><tspan y="14.9375" x="317.45314 329.90113 337.00514 341.45314">main</tspan></text>
<text xml:space="preserve" transform="matrix(.75 0 0 .75 72 244.34961)" font-size="16" font-family="TimesNewRomanPSMT"><tspan y="14.9375" x="355.4453 363.4453 367.8933 374.1173 378.5653 386.5653">piston</tspan></text>
<text xml:space="preserve" transform="matrix(.75 0 0 .75 72 244.34961)" font-size="16" font-family="TimesNewRomanPSMT"><tspan y="14.9375" x="400.5625 405.0105 413.0105 420.1145">that</tspan></text>
<text xml:space="preserve" transform="matrix(.75 0 0 .75 72 244.34961)" font-size="16" font-family="TimesNewRomanPSMT"><tspan y="14.9375" x="430.5547 435.0027 440.3307 447.4347 455.4347 462.5387 466.9867">travels</tspan></text>
<text xml:space="preserve" transform="matrix(.75 0 0 .75 72 244.34961)" font-size="16" font-family="TimesNewRomanPSMT"><tspan y="14.9375" x="478.20314 482.65113 490.65113 495.97914 503.97914 511.97914 519.9791">through</tspan></text>
<text xml:space="preserve" transform="matrix(.75 0 0 .75 72 244.34961)" font-size="16" font-family="TimesNewRomanPSMT"><tspan y="14.9375" x="532.97659">a</tspan></text>
<text xml:space="preserve" transform="matrix(.75 0 0 .75 72 244.34961)" font-size="16" font-family="TimesNewRomanPSMT"><tspan y="14.9375" x="545.0781 552.1821 560.1821 564.6301 569.0781 577.0781 585.0781 592.1821 596.8594">cylinder,</tspan></text>
<text xml:space="preserve" transform="matrix(.75 0 0 .75 72 260.21827)" font-size="16" font-family="TimesNewRomanPSMT"><tspan y="14.9375" x="0 6.2240006 14.224001 22.224 27.552002 32.000005 39.104005 47.104005 51.552007 59.552007">shortening</tspan></text>
<text xml:space="preserve" transform="matrix(.75 0 0 .75 72 260.21827)" font-size="16" font-family="TimesNewRomanPSMT"><tspan y="14.9375" x="72.546878 76.99487 84.99487">the</tspan></text>
<text xml:space="preserve" transform="matrix(.75 0 0 .75 72 260.21827)" font-size="16" font-family="TimesNewRomanPSMT"><tspan y="14.9375" x="97.09375 108.64575 116.64575 124.64575 129.09375">whole</tspan></text>
<text xml:space="preserve" transform="matrix(.75 0 0 .75 72 260.21827)" font-size="16" font-family="TimesNewRomanPSMT"><tspan y="14.9375" x="141.19532 148.29932 154.52332 160.74732 167.85132 180.29932 188.29932 192.74732">assembly</tspan></text>
<text xml:space="preserve" transform="matrix(.75 0 0 .75 72 260.21827)" font-size="16" font-family="TimesNewRomanPSMT"><tspan y="14.9375" x="205.74219 213.74219 221.74219 227.07019 231.51819 239.51819">during</tspan></text>
<text xml:space="preserve" transform="matrix(.75 0 0 .75 72 260.21827)" font-size="16" font-family="TimesNewRomanPSMT"><tspan y="14.9375" x="252.51563 256.96363 264.96363">the</tspan></text>
<text xml:space="preserve" transform="matrix(.75 0 0 .75 72 260.21827)" font-size="16" font-family="TimesNewRomanPSMT"><tspan y="14.9375" x="277.0625 283.2865 291.2865 296.6145 303.7185 310.8225 315.2705 319.7185 326.8225">so-called</tspan></text>
<text xml:space="preserve" transform="matrix(.75 0 0 .75 72 260.21827)" font-size="16" font-family="TimesNewRomanPSMT"><tspan y="14.9375" x="338.8125 345.9165 353.9165 366.3645 374.3645 379.6925 386.7965 393.0205 399.2445 403.6925 411.6925">compression</tspan></text>
<text xml:space="preserve" transform="matrix(.75 0 0 .75 72 260.21827)" font-size="16" font-family="TimesNewRomanPSMT"><tspan y="14.9375" x="423.6875 429.9115 434.3595 439.6875 447.6875 455.6875">stroke</tspan></text>
<text xml:space="preserve" transform="matrix(.75 0 0 .75 72 260.21827)" font-size="16" font-family="TimesNewRomanPSMT"><tspan y="14.9375" x="466.78907 473.89308 480.99708 488.99708 495.22108 502.32508">caused</tspan></text>
<text xml:space="preserve" transform="matrix(.75 0 0 .75 72 260.21827)" font-size="16" font-family="TimesNewRomanPSMT"><tspan y="14.9375" x="514.3203 522.3203">by</tspan></text>
<text xml:space="preserve" transform="matrix(.75 0 0 .75 72 260.21827)" font-size="16" font-family="TimesNewRomanPSMT"><tspan y="14.9375" x="534.3203 541.4243">an</tspan></text>
<text xml:space="preserve" transform="matrix(.75 0 0 .75 72 260.21827)" font-size="16" font-family="TimesNewRomanPSMT"><tspan y="14.9375" x="553.4219 557.8699 570.3179 578.3179 585.4219 592.5259 596.9739">impact,</tspan></text>
<text xml:space="preserve" transform="matrix(.75 0 0 .75 72 276.0869)" font-size="16" font-family="TimesNewRomanPSMT"><tspan y="14.9375" x="0 7.1040008 15.104">and</tspan></text>
<text xml:space="preserve" transform="matrix(.75 0 0 .75 72 276.0869)" font-size="16" font-family="TimesNewRomanPSMT"><tspan y="14.9375" x="31.101563 38.205564 46.205564 50.653566 57.757566 65.75757 73.75757 78.20557 86.20557">extending</tspan></text>
<text xml:space="preserve" transform="matrix(.75 0 0 .75 72 276.0869)" font-size="16" font-family="TimesNewRomanPSMT"><tspan y="14.9375" x="102.19531 106.64331">it</tspan></text>
<text xml:space="preserve" transform="matrix(.75 0 0 .75 72 276.0869)" font-size="16" font-family="TimesNewRomanPSMT"><tspan y="14.9375" x="119.08594 127.08594 134.18994 141.29395">back</tspan></text>
<text xml:space="preserve" transform="matrix(.75 0 0 .75 72 276.0869)" font-size="16" font-family="TimesNewRomanPSMT"><tspan y="14.9375" x="157.28907 165.28907 173.28907 178.61707 183.06507 191.06507">during</tspan></text>
<text xml:space="preserve" transform="matrix(.75 0 0 .75 72 276.0869)" font-size="16" font-family="TimesNewRomanPSMT"><tspan y="14.9375" x="207.0625 211.5105 219.5105">the</tspan></text>
<text xml:space="preserve" transform="matrix(.75 0 0 .75 72 276.0869)" font-size="16" font-family="TimesNewRomanPSMT"><tspan y="14.9375" x="234.60938 239.93738 247.04138 255.04138 263.04139 271.04139 279.04139">rebound</tspan></text>
<text xml:space="preserve" transform="matrix(.75 0 0 .75 72 276.0869)" font-size="16" font-family="TimesNewRomanPSMT"><tspan y="14.9375" x="295.03907 301.26307 305.71107 311.03907 319.03907 327.03907 334.14308">stroke:</tspan></text>
<text xml:space="preserve" transform="matrix(.75 0 0 .75 72 276.0869)" font-size="16" font-family="TimesNewRomanPSMT"><tspan y="14.9375" x="345.58595">a</tspan></text>
<text xml:space="preserve" transform="matrix(.75 0 0 .75 72 276.0869)" font-size="16" font-family="TimesNewRomanPSMT"><tspan y="14.9375" x="359.6875 365.9115 373.9115 379.2395 383.6875 391.6875">spring</tspan></text>
<text xml:space="preserve" transform="matrix(.75 0 0 .75 72 276.0869)" font-size="16" font-family="TimesNewRomanPSMT"><tspan y="14.9375" x="406.6875 418.2395 426.2395 434.2395 438.6875">would</tspan></text>
<text xml:space="preserve" transform="matrix(.75 0 0 .75 72 276.0869)" font-size="16" font-family="TimesNewRomanPSMT"><tspan y="14.9375" x="453.6875 458.1355 463.4635">try</tspan></text>
<text xml:space="preserve" transform="matrix(.75 0 0 .75 72 276.0869)" font-size="16" font-family="TimesNewRomanPSMT"><tspan y="14.9375" x="478.46095 482.90895">to</tspan></text>
<text xml:space="preserve" transform="matrix(.75 0 0 .75 72 276.0869)" font-size="16" font-family="TimesNewRomanPSMT"><tspan y="14.9375" x="497.90626 505.90626 513.01028 520.11428">keep</tspan></text>
<text xml:space="preserve" transform="matrix(.75 0 0 .75 72 276.0869)" font-size="16" font-family="TimesNewRomanPSMT"><tspan y="14.9375" x="535.1094 539.5574 547.5574">the</tspan></text>
<text xml:space="preserve" transform="matrix(.75 0 0 .75 72 276.0869)" font-size="16" font-family="TimesNewRomanPSMT"><tspan y="14.9375" x="561.65628 569.65628 574.10427 580.32827 584.77627 592.77627">piston</tspan></text>
<text xml:space="preserve" transform="matrix(.75 0 0 .75 72 291.95558)" font-size="16" font-family="TimesNewRomanPSMT"><tspan y="14.9375" x="0 7.1040008 15.104 19.552 26.656 34.656 42.656 49.76">extended</tspan></text>
<text xml:space="preserve" transform="matrix(.75 0 0 .75 72 291.95558)" font-size="16" font-family="TimesNewRomanPSMT"><tspan y="14.9375" x="63.75 75.302 83.302 87.75 92.198">while</tspan></text>
<text xml:space="preserve" transform="matrix(.75 0 0 .75 72 291.95558)" font-size="16" font-family="TimesNewRomanPSMT"><tspan y="14.9375" x="105.296878 109.74487 117.74487">the</tspan></text>
<text xml:space="preserve" transform="matrix(.75 0 0 .75 72 291.95558)" font-size="16" font-family="TimesNewRomanPSMT"><tspan y="14.9375" x="130.84375 138.84375 145.94776 158.39575 166.39575 173.49976">damper</tspan></text>
<text xml:space="preserve" transform="matrix(.75 0 0 .75 72 291.95558)" font-size="16" font-family="TimesNewRomanPSMT"><tspan y="14.9375" x="184.82032 191.04431 195.49231 203.49231 215.04431">slows</tspan></text>
<text xml:space="preserve" transform="matrix(.75 0 0 .75 72 291.95558)" font-size="16" font-family="TimesNewRomanPSMT"><tspan y="14.9375" x="227.27344 235.27344 243.27344 254.82544">down</tspan></text>
<text xml:space="preserve" transform="matrix(.75 0 0 .75 72 291.95558)" font-size="16" font-family="TimesNewRomanPSMT"><tspan y="14.9375" x="268.82814 276.82814 284.82814 289.27613">both</tspan></text>
<text xml:space="preserve" transform="matrix(.75 0 0 .75 72 291.95558)" font-size="16" font-family="TimesNewRomanPSMT"><tspan y="14.9375" x="303.27345 307.72145 315.72145">the</tspan></text>
<text xml:space="preserve" transform="matrix(.75 0 0 .75 72 291.95558)" font-size="16" font-family="TimesNewRomanPSMT"><tspan y="14.9375" x="328.8203 335.92433 343.92433 356.3723 364.3723 369.70033 376.80433 383.02833 389.25233 393.70033 401.70033">compression</tspan></text>
<text xml:space="preserve" transform="matrix(.75 0 0 .75 72 291.95558)" font-size="16" font-family="TimesNewRomanPSMT"><tspan y="14.9375" x="414.6953 421.79933 429.79933">and</tspan></text>
<text xml:space="preserve" transform="matrix(.75 0 0 .75 72 291.95558)" font-size="16" font-family="TimesNewRomanPSMT"><tspan y="14.9375" x="442.79689 447.24488 455.24488">the</tspan></text>
<text xml:space="preserve" transform="matrix(.75 0 0 .75 72 291.95558)" font-size="16" font-family="TimesNewRomanPSMT"><tspan y="14.9375" x="467.34376 472.67176 479.77577 487.77577 495.77577 503.77577 511.77577 519.77578">rebound,</tspan></text>
<text xml:space="preserve" transform="matrix(.75 0 0 .75 72 291.95558)" font-size="16" font-family="TimesNewRomanPSMT"><tspan y="14.9375" x="528.77346 541.22146 548.32546 556.32546 560.77346 568.77346">making</tspan></text>
<text xml:space="preserve" transform="matrix(.75 0 0 .75 72 291.95558)" font-size="16" font-family="TimesNewRomanPSMT"><tspan y="14.9375" x="581.7656 586.2136 594.2136">the</tspan></text>
<text xml:space="preserve" transform="matrix(.75 0 0 .75 72 307.82423)" font-size="16" font-family="TimesNewRomanPSMT"><tspan y="14.9375" x="0 6.2240006 14.224001 20.448002 24.896002 32.000005">system</tspan></text>
<text xml:space="preserve" transform="matrix(.75 0 0 .75 72 307.82423)" font-size="16" font-family="TimesNewRomanPSMT"><tspan y="14.9375" x="50.445314 57.549314 65.54932 69.997318">able</tspan></text>
<text xml:space="preserve" transform="matrix(.75 0 0 .75 72 307.82423)" font-size="16" font-family="TimesNewRomanPSMT"><tspan y="14.9375" x="82.09375 86.54175">to</tspan></text>
<text xml:space="preserve" transform="matrix(.75 0 0 .75 72 307.82423)" font-size="16" font-family="TimesNewRomanPSMT"><tspan y="14.9375" x="99.53906 107.53906 114.64307 120.867069 127.091068 131.53907 139.53907 146.64307 151.09107">passively</tspan></text>
<text xml:space="preserve" transform="matrix(.75 0 0 .75 72 307.82423)" font-size="16" font-family="TimesNewRomanPSMT"><tspan y="14.9375" x="164.08594 172.08594 179.18994 186.29395 191.62195 198.72595 205.82996 212.05396">decrease</tspan></text>
<text xml:space="preserve" transform="matrix(.75 0 0 .75 72 307.82423)" font-size="16" font-family="TimesNewRomanPSMT"><tspan y="14.9375" x="224.14844 232.14844 240.14844 251.70044 258.80445 266.80445 271.25245 278.35646">unwanted</tspan></text>
<text xml:space="preserve" transform="matrix(.75 0 0 .75 72 307.82423)" font-size="16" font-family="TimesNewRomanPSMT"><tspan y="14.9375" x="291.35157 296.67958 304.67958 310.00758 317.11158 324.21559">forces</tspan></text>
<text xml:space="preserve" transform="matrix(.75 0 0 .75 72 307.82423)" font-size="16" font-family="TimesNewRomanPSMT"><tspan y="14.9375" x="335.4375 343.4375">or</tspan></text>
<text xml:space="preserve" transform="matrix(.75 0 0 .75 72 307.82423)" font-size="16" font-family="TimesNewRomanPSMT"><tspan y="14.9375" x="353.76564 360.86964 367.97364 375.07765 382.18165 386.62965 393.73365 399.06166 406.16566 410.61366 415.06166 423.06166 431.06166">accelerations</tspan></text>
<text xml:space="preserve" transform="matrix(.75 0 0 .75 72 307.82423)" font-size="16" font-family="TimesNewRomanPSMT"><tspan y="14.9375" x="442.26564 446.71363 454.71363 461.81764">that</tspan></text>
<text xml:space="preserve" transform="matrix(.75 0 0 .75 72 307.82423)" font-size="16" font-family="TimesNewRomanPSMT"><tspan y="14.9375" x="471.2578 476.58583 481.0338 489.0338 496.13783 501.46583 507.68983 512.1378 520.1378 525.4658 529.9138 537.9138 545.0178 550.3458">riders/drivers</tspan></text>
<text xml:space="preserve" transform="matrix(.75 0 0 .75 72 307.82423)" font-size="16" font-family="TimesNewRomanPSMT"><tspan y="14.9375" x="561.5625 573.1145 581.1145 589.1145 593.5625">would</tspan></text>
<text xml:space="preserve" transform="matrix(.75 0 0 .75 72 323.69288)" font-size="16" font-family="TimesNewRomanPSMT"><tspan y="14.9375" x="0 8 12.448 20.448 27.552 32.88 44.432004 48.880006 55.104005">otherwise</tspan></text>
<text xml:space="preserve" transform="matrix(.75 0 0 .75 72 323.69288)" font-size="16" font-family="TimesNewRomanPSMT"><tspan y="14.9375" x="66.203128 73.30713 81.30713 89.30713 96.41113 101.739139 106.18713 113.29114 121.29114 128.39514 135.49915">experience.</tspan></text>
<text xml:space="preserve" transform="matrix(.75 0 0 .75 72 355.43019)" font-size="16" font-family="TimesNewRomanPSMT"><tspan y="14.9375" x="0 9.776 17.776001">The</tspan></text>
<text xml:space="preserve" transform="matrix(.75 0 0 .75 72 355.43019)" font-size="16" font-family="TimesNewRomanPSMT"><tspan y="14.9375" x="31.875 39.875 47.875 53.203 61.203 69.203 75.427">purpose</tspan></text>
<text xml:space="preserve" transform="matrix(.75 0 0 .75 72 355.43019)" font-size="16" font-family="TimesNewRomanPSMT"><tspan y="14.9375" x="89.53125 97.53125">of</tspan></text>
<text xml:space="preserve" transform="matrix(.75 0 0 .75 72 355.43019)" font-size="16" font-family="TimesNewRomanPSMT"><tspan y="14.9375" x="108.859378 115.083377 123.083377 131.08338 138.18738">shock</tspan></text>
<text xml:space="preserve" transform="matrix(.75 0 0 .75 72 355.43019)" font-size="16" font-family="TimesNewRomanPSMT"><tspan y="14.9375" x="152.1875 159.2915 167.2915 173.5155 181.5155 186.8435 194.8435 201.94751 207.27552">absorbers</tspan></text>
<text xml:space="preserve" transform="matrix(.75 0 0 .75 72 355.43019)" font-size="16" font-family="TimesNewRomanPSMT"><tspan y="14.9375" x="219.5 225.724 233.724 241.724 249.724 254.172">should</tspan></text>
<text xml:space="preserve" transform="matrix(.75 0 0 .75 72 355.43019)" font-size="16" font-family="TimesNewRomanPSMT"><tspan y="14.9375" x="268.17189 276.17189">be</tspan></text>
<text xml:space="preserve" transform="matrix(.75 0 0 .75 72 355.43019)" font-size="16" font-family="TimesNewRomanPSMT"><tspan y="14.9375" x="289.27345 293.72145">to</tspan></text>
<text xml:space="preserve" transform="matrix(.75 0 0 .75 72 355.43019)" font-size="16" font-family="TimesNewRomanPSMT"><tspan y="14.9375" x="307.71876 315.71876 322.82276 329.92677 335.25477 342.35877 349.46278 355.68678">decrease</tspan></text>
<text xml:space="preserve" transform="matrix(.75 0 0 .75 72 355.43019)" font-size="16" font-family="TimesNewRomanPSMT"><tspan y="14.9375" x="368.78126 375.88526 383.88526 396.33326 404.33326 409.66127 416.76527 422.98927 429.21327 433.66127 441.66127">compression</tspan></text>
<text xml:space="preserve" transform="matrix(.75 0 0 .75 72 355.43019)" font-size="16" font-family="TimesNewRomanPSMT"><tspan y="14.9375" x="455.65626 460.98426 468.98426 474.31227 481.41627 488.52027">forces</tspan></text>
<text xml:space="preserve" transform="matrix(.75 0 0 .75 72 355.43019)" font-size="16" font-family="TimesNewRomanPSMT"><tspan y="14.9375" x="500.7422 507.8462 515.8462">and</tspan></text>
<text xml:space="preserve" transform="matrix(.75 0 0 .75 72 355.43019)" font-size="16" font-family="TimesNewRomanPSMT"><tspan y="14.9375" x="529.84378 536.94778 544.94778 552.94778 557.39578 562.72378 570.72378">control</tspan></text>
<text xml:space="preserve" transform="matrix(.75 0 0 .75 72 355.43019)" font-size="16" font-family="TimesNewRomanPSMT"><tspan y="14.9375" x="581.16409 585.61209 593.61209">the</tspan></text>
<text xml:space="preserve" transform="matrix(.75 0 0 .75 72 371.29884)" font-size="16" font-family="TimesNewRomanPSMT"><tspan y="14.9375" x="0 5.328 12.432001 20.432002 28.432002 36.432 44.432">rebound</tspan></text>
<text xml:space="preserve" transform="matrix(.75 0 0 .75 72 371.29884)" font-size="16" font-family="TimesNewRomanPSMT"><tspan y="14.9375" x="59.429689 64.75769 72.75769 78.08569 85.1897 92.2937 98.5177">forces,</tspan></text>
<text xml:space="preserve" transform="matrix(.75 0 0 .75 72 371.29884)" font-size="16" font-family="TimesNewRomanPSMT"><tspan y="14.9375" x="109.515628 113.96362 121.96362 129.06763 134.39563 141.49964 149.49964">thereby</tspan></text>
<text xml:space="preserve" transform="matrix(.75 0 0 .75 72 371.29884)" font-size="16" font-family="TimesNewRomanPSMT"><tspan y="14.9375" x="164.49219 170.71619 178.71619 186.71619 192.94019 197.38819 204.49219 212.49219 216.94019 221.38819 228.49219 232.94019 237.38819">substantially</tspan></text>
<text xml:space="preserve" transform="matrix(.75 0 0 .75 72 371.29884)" font-size="16" font-family="TimesNewRomanPSMT"><tspan y="14.9375" x="252.375 259.479 267.479 275.479 279.927 285.255 289.703 297.703 305.703 310.151 314.599 322.599">contributing</tspan></text>
<text xml:space="preserve" transform="matrix(.75 0 0 .75 72 371.29884)" font-size="16" font-family="TimesNewRomanPSMT"><tspan y="14.9375" x="337.58595 342.03395">to</tspan></text>
<text xml:space="preserve" transform="matrix(.75 0 0 .75 72 371.29884)" font-size="16" font-family="TimesNewRomanPSMT"><tspan y="14.9375" x="357.03126 369.47926 377.47926 382.80726">more</tspan></text>
<text xml:space="preserve" transform="matrix(.75 0 0 .75 72 371.29884)" font-size="16" font-family="TimesNewRomanPSMT"><tspan y="14.9375" x="395.90626 403.01026 411.01026 423.45826 428.78627 436.78627 442.11427 446.56227 453.66627 461.66627 466.11427 473.21827">comfortable,</tspan></text>
<text xml:space="preserve" transform="matrix(.75 0 0 .75 72 371.29884)" font-size="16" font-family="TimesNewRomanPSMT"><tspan y="14.9375" x="483.20314 490.30714 498.30714 506.30714 510.75514 516.0831 524.0831 528.5311 532.9791 540.0831 548.0831 552.5311 559.63516">controllable,</tspan></text>
<text xml:space="preserve" transform="matrix(.75 0 0 .75 72 371.29884)" font-size="16" font-family="TimesNewRomanPSMT"><tspan y="14.9375" x="569.6172 575.8412 582.9452 588.2732 595.3772">safer</tspan></text>
<text xml:space="preserve" transform="matrix(.75 0 0 .75 72 387.16749)" font-size="16" font-family="TimesNewRomanPSMT"><tspan y="14.9375" x="0 7.1040008 15.104">and</tspan></text>
<text xml:space="preserve" transform="matrix(.75 0 0 .75 72 387.16749)" font-size="16" font-family="TimesNewRomanPSMT"><tspan y="14.9375" x="27.101563 32.42956 39.53356 45.75756 50.205564 57.309564">faster</tspan></text>
<text xml:space="preserve" transform="matrix(.75 0 0 .75 72 387.16749)" font-size="16" font-family="TimesNewRomanPSMT"><tspan y="14.9375" x="66.63281 71.960819 76.40881 84.40881 91.51282 97.73682">rides.</tspan></text>
<text xml:space="preserve" transform="matrix(.75 0 0 .75 72 418.9048)" font-size="16" font-family="TimesNewRomanPSMT"><tspan y="14.9375" x="0 9.776 17.776001">The</tspan></text>
<text xml:space="preserve" transform="matrix(.75 0 0 .75 72 418.9048)" font-size="16" font-family="TimesNewRomanPSMT"><tspan y="14.9375" x="29.875 42.323 50.323 54.771005 59.219007 67.21901 74.32301 78.77101 83.21901 91.21901">motivation</tspan></text>
<text xml:space="preserve" transform="matrix(.75 0 0 .75 72 418.9048)" font-size="16" font-family="TimesNewRomanPSMT"><tspan y="14.9375" x="104.203128 108.65112">to</tspan></text>
<text xml:space="preserve" transform="matrix(.75 0 0 .75 72 418.9048)" font-size="16" font-family="TimesNewRomanPSMT"><tspan y="14.9375" x="121.64844 129.64844 136.75244 144.75244 151.85645 156.30445 164.30445">develop</tspan></text>
<text xml:space="preserve" transform="matrix(.75 0 0 .75 72 418.9048)" font-size="16" font-family="TimesNewRomanPSMT"><tspan y="14.9375" x="177.29688 181.74488 189.74488">the</tspan></text>
<text xml:space="preserve" transform="matrix(.75 0 0 .75 72 418.9048)" font-size="16" font-family="TimesNewRomanPSMT"><tspan y="14.9375" x="201.84375 209.84375 215.17176 222.27576 228.49976 235.60376 243.60376 248.05176 255.15576">presented</tspan></text>
<text xml:space="preserve" transform="matrix(.75 0 0 .75 72 418.9048)" font-size="16" font-family="TimesNewRomanPSMT"><tspan y="14.9375" x="268.14845 274.37245 282.37245 288.59645 293.04444 300.14845">system</tspan></text>
<text xml:space="preserve" transform="matrix(.75 0 0 .75 72 418.9048)" font-size="16" font-family="TimesNewRomanPSMT"><tspan y="14.9375" x="317.59376 324.69776 332.69776 345.14576 352.24977">comes</tspan></text>
<text xml:space="preserve" transform="matrix(.75 0 0 .75 72 418.9048)" font-size="16" font-family="TimesNewRomanPSMT"><tspan y="14.9375" x="363.46876 368.79676 374.12477 382.12477">from</tspan></text>
<text xml:space="preserve" transform="matrix(.75 0 0 .75 72 418.9048)" font-size="16" font-family="TimesNewRomanPSMT"><tspan y="14.9375" x="399.5703 404.0183 412.0183">the</tspan></text>
<text xml:space="preserve" transform="matrix(.75 0 0 .75 72 418.9048)" font-size="16" font-family="TimesNewRomanPSMT"><tspan y="14.9375" x="424.1172 430.3412 437.4452 444.5492 456.9972 461.4452 469.4452 477.4452 481.8932">seemingly</tspan></text>
<text xml:space="preserve" transform="matrix(.75 0 0 .75 72 418.9048)" font-size="16" font-family="TimesNewRomanPSMT"><tspan y="14.9375" x="494.8828 499.3308 507.3308 515.3308 522.4348 527.7628 534.8668 542.8668">inherent</tspan></text>
<text xml:space="preserve" transform="matrix(.75 0 0 .75 72 418.9048)" font-size="16" font-family="TimesNewRomanPSMT"><tspan y="14.9375" x="552.3047 560.3047 567.4087 574.5127">need</tspan></text>
<text xml:space="preserve" transform="matrix(.75 0 0 .75 72 418.9048)" font-size="16" font-family="TimesNewRomanPSMT"><tspan y="14.9375" x="587.5078 595.5078">of</tspan></text>
<text xml:space="preserve" transform="matrix(.75 0 0 .75 72 434.77345)" font-size="16" font-family="TimesNewRomanPSMT"><tspan y="14.9375" x="0 8 15.104 23.104 27.552 35.552003">having</tspan></text>
<text xml:space="preserve" transform="matrix(.75 0 0 .75 72 434.77345)" font-size="16" font-family="TimesNewRomanPSMT"><tspan y="14.9375" x="49.546876">a</tspan></text>
<text xml:space="preserve" transform="matrix(.75 0 0 .75 72 434.77345)" font-size="16" font-family="TimesNewRomanPSMT"><tspan y="14.9375" x="62.648439 68.87244 76.87244 84.87244 91.97644">shock</tspan></text>
<text xml:space="preserve" transform="matrix(.75 0 0 .75 72 434.77345)" font-size="16" font-family="TimesNewRomanPSMT"><tspan y="14.9375" x="105.97656 113.08057 121.08057 127.304569 135.30457 140.63257 148.63257 155.73657">absorber</tspan></text>
<text xml:space="preserve" transform="matrix(.75 0 0 .75 72 434.77345)" font-size="16" font-family="TimesNewRomanPSMT"><tspan y="14.9375" x="167.0625 171.5105 179.5105 186.6145">that</tspan></text>
<text xml:space="preserve" transform="matrix(.75 0 0 .75 72 434.77345)" font-size="16" font-family="TimesNewRomanPSMT"><tspan y="14.9375" x="197.05469 204.15869 212.15869 216.60669 223.7107 231.7107 239.7107">extends</tspan></text>
<text xml:space="preserve" transform="matrix(.75 0 0 .75 72 434.77345)" font-size="16" font-family="TimesNewRomanPSMT"><tspan y="14.9375" x="251.92969 259.9297 267.9297 272.3777 279.4817 287.4817 291.9297">quickly</tspan></text>
<text xml:space="preserve" transform="matrix(.75 0 0 .75 72 434.77345)" font-size="16" font-family="TimesNewRomanPSMT"><tspan y="14.9375" x="305.92189 313.02589 321.02589 329.02589 337.02589 345.02589">enough</tspan></text>
<text xml:space="preserve" transform="matrix(.75 0 0 .75 72 434.77345)" font-size="16" font-family="TimesNewRomanPSMT"><tspan y="14.9375" x="359.02345 367.02345 375.02345 380.35145 384.79945 392.79945">during</tspan></text>
<text xml:space="preserve" transform="matrix(.75 0 0 .75 72 434.77345)" font-size="16" font-family="TimesNewRomanPSMT"><tspan y="14.9375" x="406.79689 413.02088 425.46888 432.57289 437.02088 441.46888 448.57289">smaller</tspan></text>
<text xml:space="preserve" transform="matrix(.75 0 0 .75 72 434.77345)" font-size="16" font-family="TimesNewRomanPSMT"><tspan y="14.9375" x="459.89064 464.33863 476.78663 484.78663 491.89064 498.99464 503.44264">impacts</tspan></text>
<text xml:space="preserve" transform="matrix(.75 0 0 .75 72 434.77345)" font-size="16" font-family="TimesNewRomanPSMT"><tspan y="14.9375" x="515.65628 520.98428 528.08828 532.53628 536.98428 544.98428 556.53628 560.98428 568.98428">-allowing</tspan></text>
<text xml:space="preserve" transform="matrix(.75 0 0 .75 72 434.77345)" font-size="16" font-family="TimesNewRomanPSMT"><tspan y="14.9375" x="582.97659 588.30459 596.30459">for</tspan></text>
<text xml:space="preserve" transform="matrix(.75 0 0 .75 72 450.6421)" font-size="16" font-family="TimesNewRomanPSMT"><tspan y="14.9375" x="0 12.448001 20.448002 25.776001">more</tspan></text>
<text xml:space="preserve" transform="matrix(.75 0 0 .75 72 450.6421)" font-size="16" font-family="TimesNewRomanPSMT"><tspan y="14.9375" x="37.875 43.203 50.307 56.531 64.531 72.531 80.531 86.755 91.202999 99.202999 106.307 114.307 121.411 127.635 133.85901">responsiveness-</tspan></text>
<text xml:space="preserve" transform="matrix(.75 0 0 .75 72 450.6421)" font-size="16" font-family="TimesNewRomanPSMT"><tspan y="14.9375" x="144.1875 151.2915 159.2915">and</tspan></text>
<text xml:space="preserve" transform="matrix(.75 0 0 .75 72 450.6421)" font-size="16" font-family="TimesNewRomanPSMT"><tspan y="14.9375" x="172.28907 176.73706 184.73706 191.84107">that</tspan></text>
<text xml:space="preserve" transform="matrix(.75 0 0 .75 72 450.6421)" font-size="16" font-family="TimesNewRomanPSMT"><tspan y="14.9375" x="201.28125 205.72925">is</tspan></text>
<text xml:space="preserve" transform="matrix(.75 0 0 .75 72 450.6421)" font-size="16" font-family="TimesNewRomanPSMT"><tspan y="14.9375" x="216.95313 224.05713 228.50513 234.72913">also</tspan></text>
<text xml:space="preserve" transform="matrix(.75 0 0 .75 72 450.6421)" font-size="16" font-family="TimesNewRomanPSMT"><tspan y="14.9375" x="247.72657 254.83057 261.93458 269.93458 277.03858 285.03858 289.48658">capable</tspan></text>
<text xml:space="preserve" transform="matrix(.75 0 0 .75 72 450.6421)" font-size="16" font-family="TimesNewRomanPSMT"><tspan y="14.9375" x="301.57814 309.57814">of</tspan></text>
<text xml:space="preserve" transform="matrix(.75 0 0 .75 72 450.6421)" font-size="16" font-family="TimesNewRomanPSMT"><tspan y="14.9375" x="319.90626 327.90626 335.01026 339.45826 346.56227 354.56227 359.01026 367.01026">delaying</tspan></text>
<text xml:space="preserve" transform="matrix(.75 0 0 .75 72 450.6421)" font-size="16" font-family="TimesNewRomanPSMT"><tspan y="14.9375" x="380 384.448 392.448">the</tspan></text>
<text xml:space="preserve" transform="matrix(.75 0 0 .75 72 450.6421)" font-size="16" font-family="TimesNewRomanPSMT"><tspan y="14.9375" x="404.54689 409.87489 416.97889 421.42689">rate</tspan></text>
<text xml:space="preserve" transform="matrix(.75 0 0 .75 72 450.6421)" font-size="16" font-family="TimesNewRomanPSMT"><tspan y="14.9375" x="433.52345 441.52345">of</tspan></text>
<text xml:space="preserve" transform="matrix(.75 0 0 .75 72 450.6421)" font-size="16" font-family="TimesNewRomanPSMT"><tspan y="14.9375" x="451.85157 458.07557 466.07557 473.17958">such</tspan></text>
<text xml:space="preserve" transform="matrix(.75 0 0 .75 72 450.6421)" font-size="16" font-family="TimesNewRomanPSMT"><tspan y="14.9375" x="486.1797 493.2837 501.2837 505.7317 512.8357 520.8357 527.0597 531.5077 539.5077">extension</tspan></text>
<text xml:space="preserve" transform="matrix(.75 0 0 .75 72 450.6421)" font-size="16" font-family="TimesNewRomanPSMT"><tspan y="14.9375" x="552.5 564.052 572.052 579.156">when</tspan></text>
<text xml:space="preserve" transform="matrix(.75 0 0 .75 72 450.6421)" font-size="16" font-family="TimesNewRomanPSMT"><tspan y="14.9375" x="592.15628 596.60427">it</tspan></text>
<text xml:space="preserve" transform="matrix(.75 0 0 .75 72 466.51075)" font-size="16" font-family="TimesNewRomanPSMT"><tspan y="14.9375" x="0 7.1040008 15.104 22.208 30.208 38.208 46.208 50.656003 57.760004 63.088">encounters</tspan></text>
<text xml:space="preserve" transform="matrix(.75 0 0 .75 72 466.51075)" font-size="16" font-family="TimesNewRomanPSMT"><tspan y="14.9375" x="75.30469">a</tspan></text>
<text xml:space="preserve" transform="matrix(.75 0 0 .75 72 466.51075)" font-size="16" font-family="TimesNewRomanPSMT"><tspan y="14.9375" x="88.40625 92.85425 99.95825 104.99219 112.99219 120.09619">larger</tspan></text>
<text xml:space="preserve" transform="matrix(.75 0 0 .75 72 466.51075)" font-size="16" font-family="TimesNewRomanPSMT"><tspan y="14.9375" x="131.42188 135.86988 148.31787 156.31787 163.42188 170.52588 174.97388">impact,</tspan></text>
<text xml:space="preserve" transform="matrix(.75 0 0 .75 72 466.51075)" font-size="16" font-family="TimesNewRomanPSMT"><tspan y="14.9375" x="184.96094 192.96094 198.28894 205.39295 213.39295 220.49695 228.49695 232.94495 237.39295 245.39295">preventing</tspan></text>
<text xml:space="preserve" transform="matrix(.75 0 0 .75 72 466.51075)" font-size="16" font-family="TimesNewRomanPSMT"><tspan y="14.9375" x="259.3828 267.3828 275.3828 283.3828 291.3828 298.48683 302.9348 310.9348 318.9348">bouncing.</tspan></text>
<text xml:space="preserve" transform="matrix(.75 0 0 .75 72 466.51075)" font-size="16" font-family="TimesNewRomanPSMT"><tspan y="14.9375" x="328.9297 337.82569 343.1537 350.2577 358.2577 362.7057 370.7057 378.7057">Previous</tspan></text>
<text xml:space="preserve" transform="matrix(.75 0 0 .75 72 466.51075)" font-size="16" font-family="TimesNewRomanPSMT"><tspan y="14.9375" x="390.9297 403.3777 410.4817 414.9297 422.9297 430.9297 438.9297">methods</tspan></text>
<text xml:space="preserve" transform="matrix(.75 0 0 .75 72 466.51075)" font-size="16" font-family="TimesNewRomanPSMT"><tspan y="14.9375" x="450.14845 454.59645">to</tspan></text>
<text xml:space="preserve" transform="matrix(.75 0 0 .75 72 466.51075)" font-size="16" font-family="TimesNewRomanPSMT"><tspan y="14.9375" x="467.59376 474.69776 481.80177 489.80177 494.24977 501.35377 509.35377">achieve</tspan></text>
<text xml:space="preserve" transform="matrix(.75 0 0 .75 72 466.51075)" font-size="16" font-family="TimesNewRomanPSMT"><tspan y="14.9375" x="521.4453 525.8933 533.8933 540.9973 547.2213">these</tspan></text>
<text xml:space="preserve" transform="matrix(.75 0 0 .75 72 466.51075)" font-size="16" font-family="TimesNewRomanPSMT"><tspan y="14.9375" x="559.3203 564.6483 571.7523 577.9763 585.9763 590.4243 594.8723">results</tspan></text>
<text xml:space="preserve" transform="matrix(.75 0 0 .75 72 482.3794)" font-size="16" font-family="TimesNewRomanPSMT"><tspan y="14.9375" x="0 7.1040008 15.104 19.552 25.776001 30.224">exist,</tspan></text>
<text xml:space="preserve" transform="matrix(.75 0 0 .75 72 482.3794)" font-size="16" font-family="TimesNewRomanPSMT"><tspan y="14.9375" x="42.21875 50.21875 58.21875">but</tspan></text>
<text xml:space="preserve" transform="matrix(.75 0 0 .75 72 482.3794)" font-size="16" font-family="TimesNewRomanPSMT"><tspan y="14.9375" x="70.66406 75.11206 83.11206 90.216068">they</tspan></text>
<text xml:space="preserve" transform="matrix(.75 0 0 .75 72 482.3794)" font-size="16" font-family="TimesNewRomanPSMT"><tspan y="14.9375" x="106.21094 118.658939 123.10693 131.10694 139.10694">might</tspan></text>
<text xml:space="preserve" transform="matrix(.75 0 0 .75 72 482.3794)" font-size="16" font-family="TimesNewRomanPSMT"><tspan y="14.9375" x="151.54688 159.54688 166.65088 174.65088">have</tspan></text>
<text xml:space="preserve" transform="matrix(.75 0 0 .75 72 482.3794)" font-size="16" font-family="TimesNewRomanPSMT"><tspan y="14.9375" x="189.75 197.75 202.198 208.422 215.526 223.526 231.526 238.63 246.63 251.078 258.182 266.182 273.286">disadvantages</tspan></text>
<text xml:space="preserve" transform="matrix(.75 0 0 .75 72 482.3794)" font-size="16" font-family="TimesNewRomanPSMT"><tspan y="14.9375" x="287.5 291.948 299.948 307.052">that</tspan></text>
<text xml:space="preserve" transform="matrix(.75 0 0 .75 72 482.3794)" font-size="16" font-family="TimesNewRomanPSMT"><tspan y="14.9375" x="319.4922 327.4922 332.8202 339.9242 347.9242 355.0282 363.0282">prevent</tspan></text>
<text xml:space="preserve" transform="matrix(.75 0 0 .75 72 482.3794)" font-size="16" font-family="TimesNewRomanPSMT"><tspan y="14.9375" x="375.46876 379.91676 387.91676 395.02076">them</tspan></text>
<text xml:space="preserve" transform="matrix(.75 0 0 .75 72 482.3794)" font-size="16" font-family="TimesNewRomanPSMT"><tspan y="14.9375" x="414.46095 419.78895 425.11695 433.11695">from</tspan></text>
<text xml:space="preserve" transform="matrix(.75 0 0 .75 72 482.3794)" font-size="16" font-family="TimesNewRomanPSMT"><tspan y="14.9375" x="452.5625 460.5625 467.6665 472.1145 480.1145">being</tspan></text>
<text xml:space="preserve" transform="matrix(.75 0 0 .75 72 482.3794)" font-size="16" font-family="TimesNewRomanPSMT"><tspan y="14.9375" x="495.10939 503.10939 509.33338 516.4374">used</tspan></text>
<text xml:space="preserve" transform="matrix(.75 0 0 .75 72 482.3794)" font-size="16" font-family="TimesNewRomanPSMT"><tspan y="14.9375" x="531.4375 535.8855">in</tspan></text>
<text xml:space="preserve" transform="matrix(.75 0 0 .75 72 482.3794)" font-size="16" font-family="TimesNewRomanPSMT"><tspan y="14.9375" x="550.8828">a</tspan></text>
<text xml:space="preserve" transform="matrix(.75 0 0 .75 72 482.3794)" font-size="16" font-family="TimesNewRomanPSMT"><tspan y="14.9375" x="564.9844 572.9844 578.3124 586.3124 593.4164">broad</tspan></text>
<text xml:space="preserve" transform="matrix(.75 0 0 .75 72 498.24806)" font-size="16" font-family="TimesNewRomanPSMT"><tspan y="14.9375" x="0 6.2240006 14.224001 21.328001 28.432002 32.88 38.208 46.208">spectrum</tspan></text>
<text xml:space="preserve" transform="matrix(.75 0 0 .75 72 498.24806)" font-size="16" font-family="TimesNewRomanPSMT"><tspan y="14.9375" x="63.648439 71.64844">of</tspan></text>
<text xml:space="preserve" transform="matrix(.75 0 0 .75 72 498.24806)" font-size="16" font-family="TimesNewRomanPSMT"><tspan y="14.9375" x="81.97656 89.08057 97.08057 105.08057 109.528568 113.97656 121.08057 128.18457 132.63257 137.08057 145.08057 153.08057 159.30457">applications.</tspan></text>
<text xml:space="preserve" transform="matrix(.75 0 0 .75 72 498.24806)" font-size="16" font-family="TimesNewRomanPSMT"><tspan y="14.9375" x="168.28907 178.06507 186.06507 190.51306">This</tspan></text>
<text xml:space="preserve" transform="matrix(.75 0 0 .75 72 498.24806)" font-size="16" font-family="TimesNewRomanPSMT"><tspan y="14.9375" x="201.73438 208.83838 216.83838 224.83838 231.94239 239.04639 247.04639">concept</tspan></text>
<text xml:space="preserve" transform="matrix(.75 0 0 .75 72 498.24806)" font-size="16" font-family="TimesNewRomanPSMT"><tspan y="14.9375" x="256.48439 263.58839 268.03639 280.48439">aims</tspan></text>
<text xml:space="preserve" transform="matrix(.75 0 0 .75 72 498.24806)" font-size="16" font-family="TimesNewRomanPSMT"><tspan y="14.9375" x="291.70314 296.15113">to</tspan></text>
<text xml:space="preserve" transform="matrix(.75 0 0 .75 72 498.24806)" font-size="16" font-family="TimesNewRomanPSMT"><tspan y="14.9375" x="308.14845 313.47645 320.58045 333.02845 341.02845 349.02845">remove</tspan></text>
<text xml:space="preserve" transform="matrix(.75 0 0 .75 72 498.24806)" font-size="16" font-family="TimesNewRomanPSMT"><tspan y="14.9375" x="360.125 367.229 371.677">all</tspan></text>
<text xml:space="preserve" transform="matrix(.75 0 0 .75 72 498.24806)" font-size="16" font-family="TimesNewRomanPSMT"><tspan y="14.9375" x="380.1172 388.1172 396.1172 402.3412 408.5652 413.01319 421.01319 425.46119">possible</tspan></text>
<text xml:space="preserve" transform="matrix(.75 0 0 .75 72 498.24806)" font-size="16" font-family="TimesNewRomanPSMT"><tspan y="14.9375" x="436.5625 444.5625 449.0105 455.2345 462.3385 470.3385 478.3385 485.4425 493.4425 497.8905 504.9945 512.9945 520.0985">disadvantages</tspan></text>
<text xml:space="preserve" transform="matrix(.75 0 0 .75 72 498.24806)" font-size="16" font-family="TimesNewRomanPSMT"><tspan y="14.9375" x="530.3125 538.3125">by</tspan></text>
<text xml:space="preserve" transform="matrix(.75 0 0 .75 72 498.24806)" font-size="16" font-family="TimesNewRomanPSMT"><tspan y="14.9375" x="550.3125 558.3125 565.4165 572.5205 580.5205 584.9685 592.9685">keeping</tspan></text>
<text xml:space="preserve" transform="matrix(.75 0 0 .75 72 514.1167)" font-size="16" font-family="TimesNewRomanPSMT"><tspan y="14.9375" x="0 4.4480006 12.448">the</tspan></text>
<text xml:space="preserve" transform="matrix(.75 0 0 .75 72 514.1167)" font-size="16" font-family="TimesNewRomanPSMT"><tspan y="14.9375" x="25.546875 31.770876 39.770875 45.994874 50.442876 57.546876">system</tspan></text>
<text xml:space="preserve" transform="matrix(.75 0 0 .75 72 514.1167)" font-size="16" font-family="TimesNewRomanPSMT"><tspan y="14.9375" x="74.99219 81.21619 89.21619 93.664188 100.76819 105.21619">solely</tspan></text>
<text xml:space="preserve" transform="matrix(.75 0 0 .75 72 514.1167)" font-size="16" font-family="TimesNewRomanPSMT"><tspan y="14.9375" x="118.21094 126.21094 134.21094 142.21094 147.53894 154.64295 162.64295 167.09095 171.53894 178.64295 183.09095 195.53894 202.64295 209.74695 217.74695 224.85095 232.85095 237.29895 244.40296 251.50696 255.95496">hydraulic/mechanical,</tspan></text>
<text xml:space="preserve" transform="matrix(.75 0 0 .75 72 514.1167)" font-size="16" font-family="TimesNewRomanPSMT"><tspan y="14.9375" x="264.92189 272.92189">by</tspan></text>
<text xml:space="preserve" transform="matrix(.75 0 0 .75 72 514.1167)" font-size="16" font-family="TimesNewRomanPSMT"><tspan y="14.9375" x="285.92189 293.02589 297.47389 301.92189 309.92189 321.47389 325.92189 333.92189">allowing</tspan></text>
<text xml:space="preserve" transform="matrix(.75 0 0 .75 72 514.1167)" font-size="16" font-family="TimesNewRomanPSMT"><tspan y="14.9375" x="346.91407 351.36207 359.36207">the</tspan></text>
<text xml:space="preserve" transform="matrix(.75 0 0 .75 72 514.1167)" font-size="16" font-family="TimesNewRomanPSMT"><tspan y="14.9375" x="371.46095 379.46095 386.56495">new</tspan></text>
<text xml:space="preserve" transform="matrix(.75 0 0 .75 72 514.1167)" font-size="16" font-family="TimesNewRomanPSMT"><tspan y="14.9375" x="403.1172 410.2212 418.2212 430.6692 438.6692 446.6692 454.6692 461.7732 469.7732 474.2212">components</tspan></text>
<text xml:space="preserve" transform="matrix(.75 0 0 .75 72 514.1167)" font-size="16" font-family="TimesNewRomanPSMT"><tspan y="14.9375" x="485.4375 489.8855">to</tspan></text>
<text xml:space="preserve" transform="matrix(.75 0 0 .75 72 514.1167)" font-size="16" font-family="TimesNewRomanPSMT"><tspan y="14.9375" x="502.8828 508.21083 515.3148 527.7628 534.8668 539.3148">remain</tspan></text>
<text xml:space="preserve" transform="matrix(.75 0 0 .75 72 514.1167)" font-size="16" font-family="TimesNewRomanPSMT"><tspan y="14.9375" x="552.3047 556.7527 564.7527 569.2007 576.3047 581.6327 589.6327 596.7367">internal</tspan></text>
<text xml:space="preserve" transform="matrix(.75 0 0 .75 72 529.98538)" font-size="16" font-family="TimesNewRomanPSMT"><tspan y="14.9375" x="0 5.328 12.432001 16.432002 24.432002 28.432002">(e.g.,</tspan></text>
<text xml:space="preserve" transform="matrix(.75 0 0 .75 72 529.98538)" font-size="16" font-family="TimesNewRomanPSMT"><tspan y="14.9375" x="39.429689 43.87769 51.87769 58.10169 62.54969 70.54969">inside</tspan></text>
<text xml:space="preserve" transform="matrix(.75 0 0 .75 72 529.98538)" font-size="16" font-family="TimesNewRomanPSMT"><tspan y="14.9375" x="84.64844">a</tspan></text>
<text xml:space="preserve" transform="matrix(.75 0 0 .75 72 529.98538)" font-size="16" font-family="TimesNewRomanPSMT"><tspan y="14.9375" x="98.75 105.854007 113.854007 118.302 122.75 130.75 138.75 145.854 151.182 156.51001">cylinder),</tspan></text>
<text xml:space="preserve" transform="matrix(.75 0 0 .75 72 529.98538)" font-size="16" font-family="TimesNewRomanPSMT"><tspan y="14.9375" x="167.5 174.604 182.604">and</tspan></text>
<text xml:space="preserve" transform="matrix(.75 0 0 .75 72 529.98538)" font-size="16" font-family="TimesNewRomanPSMT"><tspan y="14.9375" x="197.60157 205.60157">by</tspan></text>
<text xml:space="preserve" transform="matrix(.75 0 0 .75 72 529.98538)" font-size="16" font-family="TimesNewRomanPSMT"><tspan y="14.9375" x="220.60157 227.70557 232.15357 236.60157 244.60157 256.15357 260.60157 268.60157">allowing</tspan></text>
<text xml:space="preserve" transform="matrix(.75 0 0 .75 72 529.98538)" font-size="16" font-family="TimesNewRomanPSMT"><tspan y="14.9375" x="283.59376 290.69776 298.69776 303.14576 311.14576 317.36976 321.81776 328.92176 336.92176 341.36976 345.81776 350.26576 354.71376">adjustability</tspan></text>
<text xml:space="preserve" transform="matrix(.75 0 0 .75 72 529.98538)" font-size="16" font-family="TimesNewRomanPSMT"><tspan y="14.9375" x="369.6953 377.6953">of</tspan></text>
<text xml:space="preserve" transform="matrix(.75 0 0 .75 72 529.98538)" font-size="16" font-family="TimesNewRomanPSMT"><tspan y="14.9375" x="390.02345 394.47145 402.47145">the</tspan></text>
<text xml:space="preserve" transform="matrix(.75 0 0 .75 72 529.98538)" font-size="16" font-family="TimesNewRomanPSMT"><tspan y="14.9375" x="416.5703 423.67433 436.1223 444.1223 452.1223 460.1223">amount</tspan></text>
<text xml:space="preserve" transform="matrix(.75 0 0 .75 72 529.98538)" font-size="16" font-family="TimesNewRomanPSMT"><tspan y="14.9375" x="470.5625 478.5625">of</tspan></text>
<text xml:space="preserve" transform="matrix(.75 0 0 .75 72 529.98538)" font-size="16" font-family="TimesNewRomanPSMT"><tspan y="14.9375" x="489.89064 496.11463 500.56263 505.89064 513.8906 521.8906">stroke</tspan></text>
<text xml:space="preserve" transform="matrix(.75 0 0 .75 72 529.98538)" font-size="16" font-family="TimesNewRomanPSMT"><tspan y="14.9375" x="534.9922 542.9922 550.0962 558.0962 565.2002 573.2002 581.2002 588.3042 596.3042">dependent</tspan></text>
<text xml:space="preserve" transform="matrix(.75 0 0 .75 72 545.854)" font-size="16" font-family="TimesNewRomanPSMT"><tspan y="14.9375" x="0 8 15.104 27.552002 35.552003 40.000005 48.000005">damping</tspan></text>
<text xml:space="preserve" transform="matrix(.75 0 0 .75 72 545.854)" font-size="16" font-family="TimesNewRomanPSMT"><tspan y="14.9375" x="59.992189 71.54419 75.99219 80.440189 88.440189 96.440189 104.440189">without</tspan></text>
<text xml:space="preserve" transform="matrix(.75 0 0 .75 72 545.854)" font-size="16" font-family="TimesNewRomanPSMT"><tspan y="14.9375" x="112.88281 120.88281 125.33081 131.55481 138.65882 144.88282 151.10681 158.21082 170.65882 178.65882 183.10681 190.0625">disassembly.</tspan></text>
<g clip-path="url(#clip_2)">
<text xml:space="preserve" transform="matrix(.75 0 0 .75 72 791.7036)" font-size="14.666667" font-family="ArialMT"><tspan y="13.757161" x="296.77485">4</tspan></text>
</g>
</svg>
