<svg xmlns="http://www.w3.org/2000/svg" xmlns:xlink="http://www.w3.org/1999/xlink" version="1.1" width="596" height="842" viewBox="0 0 596 842">
<defs>
<clipPath id="clip_13">
<path d="M0 770.25H595.5V842.25H0Z" fill-rule="evenodd"/>
</clipPath>
</defs>
<path transform="matrix(.75,0,0,.75,0,0)" d="M0 0H794V1123H0Z" fill="#ffffff"/>
<text xml:space="preserve" transform="matrix(.75 0 0 .75 72 72)" font-size="16" font-family="TimesNewRomanPSMT"><tspan y="14.9375" x="0 9.776 17.776001">The</tspan></text>
<text xml:space="preserve" transform="matrix(.75 0 0 .75 72 72)" font-size="16" font-family="TimesNewRomanPSMT"><tspan y="14.9375" x="30.875 36.203 40.651 48.651 56.651 61.979 69.083">figures</tspan></text>
<text xml:space="preserve" transform="matrix(.75 0 0 .75 72 72)" font-size="16" font-family="TimesNewRomanPSMT"><tspan y="14.9375" x="81.30469 85.752689">in</tspan></text>
<text xml:space="preserve" transform="matrix(.75 0 0 .75 72 72)" font-size="16" font-family="TimesNewRomanPSMT"><tspan y="14.9375" x="99.75 104.198 112.198 116.645999">this</tspan></text>
<text xml:space="preserve" transform="matrix(.75 0 0 .75 72 72)" font-size="16" font-family="TimesNewRomanPSMT"><tspan y="14.9375" x="128.86719 136.86719 144.86719 151.97119 159.97119 172.41919 179.5232 187.5232">document</tspan></text>
<text xml:space="preserve" transform="matrix(.75 0 0 .75 72 72)" font-size="16" font-family="TimesNewRomanPSMT"><tspan y="14.9375" x="197.96094 204.18494 212.18494 220.18494">show</tspan></text>
<text xml:space="preserve" transform="matrix(.75 0 0 .75 72 72)" font-size="16" font-family="TimesNewRomanPSMT"><tspan y="14.9375" x="237.74219 244.84619">an</tspan></text>
<text xml:space="preserve" transform="matrix(.75 0 0 .75 72 72)" font-size="16" font-family="TimesNewRomanPSMT"><tspan y="14.9375" x="258.84376 265.94776 273.94776 281.05177 293.49977 301.49977 305.94776">example</tspan></text>
<text xml:space="preserve" transform="matrix(.75 0 0 .75 72 72)" font-size="16" font-family="TimesNewRomanPSMT"><tspan y="14.9375" x="319.03907 327.03907">of</tspan></text>
<text xml:space="preserve" transform="matrix(.75 0 0 .75 72 72)" font-size="16" font-family="TimesNewRomanPSMT"><tspan y="14.9375" x="338.3672 342.8152 355.26319 363.26319 367.71119 374.8152 387.26319 394.3672 402.3672 406.8152 413.9192 418.3672 422.8152 430.8152">implementation</tspan></text>
<text xml:space="preserve" transform="matrix(.75 0 0 .75 72 72)" font-size="16" font-family="TimesNewRomanPSMT"><tspan y="14.9375" x="444.78907 452.78907">of</tspan></text>
<text xml:space="preserve" transform="matrix(.75 0 0 .75 72 72)" font-size="16" font-family="TimesNewRomanPSMT"><tspan y="14.9375" x="464.1172 468.5652 476.5652">the</tspan></text>
<text xml:space="preserve" transform="matrix(.75 0 0 .75 72 72)" font-size="16" font-family="TimesNewRomanPSMT"><tspan y="14.9375" x="489.66407 496.76808 504.76808 512.76809 519.8721 526.9761 534.9761">concept</tspan></text>
<text xml:space="preserve" transform="matrix(.75 0 0 .75 72 72)" font-size="16" font-family="TimesNewRomanPSMT"><tspan y="14.9375" x="545.41409 549.86209">in</tspan></text>
<text xml:space="preserve" transform="matrix(.75 0 0 .75 72 72)" font-size="16" font-family="TimesNewRomanPSMT"><tspan y="14.9375" x="563.8594">a</tspan></text>
<text xml:space="preserve" transform="matrix(.75 0 0 .75 72 72)" font-size="16" font-family="TimesNewRomanPSMT"><tspan y="14.9375" x="575.96096 581.28897 588.39297 595.49697">rear</tspan></text>
<text xml:space="preserve" transform="matrix(.75 0 0 .75 72 87.86865)" font-size="16" font-family="TimesNewRomanPSMT"><tspan y="14.9375" x="0 6.2240006 14.224001 22.224 29.328001">shock</tspan></text>
<text xml:space="preserve" transform="matrix(.75 0 0 .75 72 87.86865)" font-size="16" font-family="TimesNewRomanPSMT"><tspan y="14.9375" x="42.328126 47.656126 55.656126">for</tspan></text>
<text xml:space="preserve" transform="matrix(.75 0 0 .75 72 87.86865)" font-size="16" font-family="TimesNewRomanPSMT"><tspan y="14.9375" x="65.984378">a</tspan></text>
<text xml:space="preserve" transform="matrix(.75 0 0 .75 72 87.86865)" font-size="16" font-family="TimesNewRomanPSMT"><tspan y="14.9375" x="78.08594 90.533939 98.533939 106.533939 114.533939 118.98193 126.08594 130.53394">mountain</tspan></text>
<text xml:space="preserve" transform="matrix(.75 0 0 .75 72 87.86865)" font-size="16" font-family="TimesNewRomanPSMT"><tspan y="14.9375" x="143.52344 151.52344 155.97144 163.97144 171.07544">bike.</tspan></text>
<text xml:space="preserve" transform="matrix(.75 0 0 .75 72 87.86865)" font-size="16" font-family="TimesNewRomanPSMT"><tspan y="14.9375" x="180.07032 191.62232 199.62232">One</tspan></text>
<text xml:space="preserve" transform="matrix(.75 0 0 .75 72 87.86865)" font-size="16" font-family="TimesNewRomanPSMT"><tspan y="14.9375" x="211.72657 219.72657">of</tspan></text>
<text xml:space="preserve" transform="matrix(.75 0 0 .75 72 87.86865)" font-size="16" font-family="TimesNewRomanPSMT"><tspan y="14.9375" x="230.05469 234.50269 242.50269">the</tspan></text>
<text xml:space="preserve" transform="matrix(.75 0 0 .75 72 87.86865)" font-size="16" font-family="TimesNewRomanPSMT"><tspan y="14.9375" x="254.60157 267.04957 274.15357 278.60157">main</tspan></text>
<text xml:space="preserve" transform="matrix(.75 0 0 .75 72 87.86865)" font-size="16" font-family="TimesNewRomanPSMT"><tspan y="14.9375" x="291.59376 298.69776 303.14576 315.59376">aims</tspan></text>
<text xml:space="preserve" transform="matrix(.75 0 0 .75 72 87.86865)" font-size="16" font-family="TimesNewRomanPSMT"><tspan y="14.9375" x="326.8125 334.8125">of</tspan></text>
<text xml:space="preserve" transform="matrix(.75 0 0 .75 72 87.86865)" font-size="16" font-family="TimesNewRomanPSMT"><tspan y="14.9375" x="345.14064 349.58863 357.58863 362.03663">this</tspan></text>
<text xml:space="preserve" transform="matrix(.75 0 0 .75 72 87.86865)" font-size="16" font-family="TimesNewRomanPSMT"><tspan y="14.9375" x="373.2578 381.2578 386.58583 394.58583 402.58583">proof</tspan></text>
<text xml:space="preserve" transform="matrix(.75 0 0 .75 72 87.86865)" font-size="16" font-family="TimesNewRomanPSMT"><tspan y="14.9375" x="412.91407 420.91407">of</tspan></text>
<text xml:space="preserve" transform="matrix(.75 0 0 .75 72 87.86865)" font-size="16" font-family="TimesNewRomanPSMT"><tspan y="14.9375" x="431.2422 438.3462 446.3462 454.3462 461.4502 468.5542 476.5542">concept</tspan></text>
<text xml:space="preserve" transform="matrix(.75 0 0 .75 72 87.86865)" font-size="16" font-family="TimesNewRomanPSMT"><tspan y="14.9375" x="484.9922 489.4402">is</tspan></text>
<text xml:space="preserve" transform="matrix(.75 0 0 .75 72 87.86865)" font-size="16" font-family="TimesNewRomanPSMT"><tspan y="14.9375" x="499.66407 504.11207">to</tspan></text>
<text xml:space="preserve" transform="matrix(.75 0 0 .75 72 87.86865)" font-size="16" font-family="TimesNewRomanPSMT"><tspan y="14.9375" x="516.1094 522.3334 530.3334 538.3334">show</tspan></text>
<text xml:space="preserve" transform="matrix(.75 0 0 .75 72 87.86865)" font-size="16" font-family="TimesNewRomanPSMT"><tspan y="14.9375" x="553.8906 558.3386 566.3386 573.4426">that</tspan></text>
<text xml:space="preserve" transform="matrix(.75 0 0 .75 72 87.86865)" font-size="16" font-family="TimesNewRomanPSMT"><tspan y="14.9375" x="581.8828 586.3308 594.3308">the</tspan></text>
<text xml:space="preserve" transform="matrix(.75 0 0 .75 72 103.737308)" font-size="16" font-family="TimesNewRomanPSMT"><tspan y="14.9375" x="0 7.1040008 15.104 27.552002 35.552003 43.552003 51.552003 58.656003 66.656009 71.104007">components</tspan></text>
<text xml:space="preserve" transform="matrix(.75 0 0 .75 72 103.737308)" font-size="16" font-family="TimesNewRomanPSMT"><tspan y="14.9375" x="85.32031 92.42432 99.52832">can</tspan></text>
<text xml:space="preserve" transform="matrix(.75 0 0 .75 72 103.737308)" font-size="16" font-family="TimesNewRomanPSMT"><tspan y="14.9375" x="115.52344 123.52344">be</tspan></text>
<text xml:space="preserve" transform="matrix(.75 0 0 .75 72 103.737308)" font-size="16" font-family="TimesNewRomanPSMT"><tspan y="14.9375" x="138.625 145.729 151.057 156.38501 163.48902 171.48902 179.48902 186.59302">arranged</tspan></text>
<text xml:space="preserve" transform="matrix(.75 0 0 .75 72 103.737308)" font-size="16" font-family="TimesNewRomanPSMT"><tspan y="14.9375" x="202.58594 209.68994 217.68994 224.79395">even</tspan></text>
<text xml:space="preserve" transform="matrix(.75 0 0 .75 72 103.737308)" font-size="16" font-family="TimesNewRomanPSMT"><tspan y="14.9375" x="239.78907 247.78907 255.78907 263.78907 270.89308">under</tspan></text>
<text xml:space="preserve" transform="matrix(.75 0 0 .75 72 103.737308)" font-size="16" font-family="TimesNewRomanPSMT"><tspan y="14.9375" x="283.21876 287.66676 295.66676">the</tspan></text>
<text xml:space="preserve" transform="matrix(.75 0 0 .75 72 103.737308)" font-size="16" font-family="TimesNewRomanPSMT"><tspan y="14.9375" x="309.76564 317.76564 322.21363 334.66163 341.76564 349.76564 355.98963 360.43763 368.43763 376.43763 383.54164">dimensional</tspan></text>
<text xml:space="preserve" transform="matrix(.75 0 0 .75 72 103.737308)" font-size="16" font-family="TimesNewRomanPSMT"><tspan y="14.9375" x="394.97657 402.08058 410.08058 418.08058 424.30458 428.75257 434.08058 441.18458 445.63258 453.63258 458.08058">constraints</tspan></text>
<text xml:space="preserve" transform="matrix(.75 0 0 .75 72 103.737308)" font-size="16" font-family="TimesNewRomanPSMT"><tspan y="14.9375" x="471.29689 479.29689">of</tspan></text>
<text xml:space="preserve" transform="matrix(.75 0 0 .75 72 103.737308)" font-size="16" font-family="TimesNewRomanPSMT"><tspan y="14.9375" x="491.625 496.073 504.073">the</tspan></text>
<text xml:space="preserve" transform="matrix(.75 0 0 .75 72 103.737308)" font-size="16" font-family="TimesNewRomanPSMT"><tspan y="14.9375" x="518.1719 525.2759 533.2759 541.2759 549.2759 556.3799 564.3799 568.8279 573.2759 581.2759 589.2759 596.3799">conventional</tspan></text>
<text xml:space="preserve" transform="matrix(.75 0 0 .75 72 119.60596)" font-size="16" font-family="TimesNewRomanPSMT"><tspan y="14.9375" x="0 4.4480006 12.448 20.448 28.448 34.672 39.120004 44.448">industry</tspan></text>
<text xml:space="preserve" transform="matrix(.75 0 0 .75 72 119.60596)" font-size="16" font-family="TimesNewRomanPSMT"><tspan y="14.9375" x="58.445314 64.66931 69.11731 76.22131 84.22131 92.22131 99.32532 104.65332 112.65332 118.87732">standards.</tspan></text>
<text xml:space="preserve" transform="matrix(.75 0 0 .75 72 119.60596)" font-size="16" font-family="TimesNewRomanPSMT"><tspan y="14.9375" x="128.875 137.771 145.771">For</tspan></text>
<text xml:space="preserve" transform="matrix(.75 0 0 .75 72 119.60596)" font-size="16" font-family="TimesNewRomanPSMT"><tspan y="14.9375" x="157.10157 161.54956 169.54956 173.99756">this</tspan></text>
<text xml:space="preserve" transform="matrix(.75 0 0 .75 72 119.60596)" font-size="16" font-family="TimesNewRomanPSMT"><tspan y="14.9375" x="186.21875 193.32276 201.32276 208.42676 220.87476 228.87476 233.32276 240.42676">example,</tspan></text>
<text xml:space="preserve" transform="matrix(.75 0 0 .75 72 119.60596)" font-size="16" font-family="TimesNewRomanPSMT"><tspan y="14.9375" x="250.41407 254.86206 262.86207">the</tspan></text>
<text xml:space="preserve" transform="matrix(.75 0 0 .75 72 119.60596)" font-size="16" font-family="TimesNewRomanPSMT"><tspan y="14.9375" x="275.96095 280.40895 287.51295 295.51295 303.51295 307.96095">length</tspan></text>
<text xml:space="preserve" transform="matrix(.75 0 0 .75 72 119.60596)" font-size="16" font-family="TimesNewRomanPSMT"><tspan y="14.9375" x="321.95314 327.28114 332.60914 340.60914">from</tspan></text>
<text xml:space="preserve" transform="matrix(.75 0 0 .75 72 119.60596)" font-size="16" font-family="TimesNewRomanPSMT"><tspan y="14.9375" x="359.0547 366.1587 374.1587 381.2627 385.7107 392.8147">eyelet</tspan></text>
<text xml:space="preserve" transform="matrix(.75 0 0 .75 72 119.60596)" font-size="16" font-family="TimesNewRomanPSMT"><tspan y="14.9375" x="402.25 406.698">to</tspan></text>
<text xml:space="preserve" transform="matrix(.75 0 0 .75 72 119.60596)" font-size="16" font-family="TimesNewRomanPSMT"><tspan y="14.9375" x="419.6953 426.79933 434.79933 441.90333 446.35133 453.45533">eyelet</tspan></text>
<text xml:space="preserve" transform="matrix(.75 0 0 .75 72 119.60596)" font-size="16" font-family="TimesNewRomanPSMT"><tspan y="14.9375" x="462.89064 467.33863">is</tspan></text>
<text xml:space="preserve" transform="matrix(.75 0 0 .75 72 119.60596)" font-size="16" font-family="TimesNewRomanPSMT"><tspan y="14.9375" x="478.5625 486.5625 494.5625 502.5625 506.5625">215.9</tspan></text>
<text xml:space="preserve" transform="matrix(.75 0 0 .75 72 119.60596)" font-size="16" font-family="TimesNewRomanPSMT"><tspan y="14.9375" x="519.5625 532.0105">mm</tspan></text>
<text xml:space="preserve" transform="matrix(.75 0 0 .75 72 119.60596)" font-size="16" font-family="TimesNewRomanPSMT"><tspan y="14.9375" x="549.4531 554.7811 562.7811 566.7811">(8.5</tspan></text>
<text xml:space="preserve" transform="matrix(.75 0 0 .75 72 119.60596)" font-size="16" font-family="TimesNewRomanPSMT"><tspan y="14.9375" x="579.78128 584.22927 592.22927 597.55728">in),</tspan></text>
<text xml:space="preserve" transform="matrix(.75 0 0 .75 72 135.47461)" font-size="16" font-family="TimesNewRomanPSMT"><tspan y="14.9375" x="0 4.4480006 12.448">the</tspan></text>
<text xml:space="preserve" transform="matrix(.75 0 0 .75 72 135.47461)" font-size="16" font-family="TimesNewRomanPSMT"><tspan y="14.9375" x="25.546875 33.546876 41.546876 45.994878 53.098878">outer</tspan></text>
<text xml:space="preserve" transform="matrix(.75 0 0 .75 72 135.47461)" font-size="16" font-family="TimesNewRomanPSMT"><tspan y="14.9375" x="64.421878 72.421878 76.86987 83.97388 96.421878 103.52588 107.97388 115.07788">diameter</tspan></text>
<text xml:space="preserve" transform="matrix(.75 0 0 .75 72 135.47461)" font-size="16" font-family="TimesNewRomanPSMT"><tspan y="14.9375" x="126.390628 134.39063">of</tspan></text>
<text xml:space="preserve" transform="matrix(.75 0 0 .75 72 135.47461)" font-size="16" font-family="TimesNewRomanPSMT"><tspan y="14.9375" x="145.71875 150.16675 158.16675">the</tspan></text>
<text xml:space="preserve" transform="matrix(.75 0 0 .75 72 135.47461)" font-size="16" font-family="TimesNewRomanPSMT"><tspan y="14.9375" x="171.26563 178.36963 182.81763">air</tspan></text>
<text xml:space="preserve" transform="matrix(.75 0 0 .75 72 135.47461)" font-size="16" font-family="TimesNewRomanPSMT"><tspan y="14.9375" x="194.14063 201.24463 208.34864">can</tspan></text>
<text xml:space="preserve" transform="matrix(.75 0 0 .75 72 135.47461)" font-size="16" font-family="TimesNewRomanPSMT"><tspan y="14.9375" x="222.34375 226.79175">is</tspan></text>
<text xml:space="preserve" transform="matrix(.75 0 0 .75 72 135.47461)" font-size="16" font-family="TimesNewRomanPSMT"><tspan y="14.9375" x="239.01563 247.01563">49</tspan></text>
<text xml:space="preserve" transform="matrix(.75 0 0 .75 72 135.47461)" font-size="16" font-family="TimesNewRomanPSMT"><tspan y="14.9375" x="261.01564 273.46363 285.91163">mm,</tspan></text>
<text xml:space="preserve" transform="matrix(.75 0 0 .75 72 135.47461)" font-size="16" font-family="TimesNewRomanPSMT"><tspan y="14.9375" x="295.90626 303.01026 311.01026">and</tspan></text>
<text xml:space="preserve" transform="matrix(.75 0 0 .75 72 135.47461)" font-size="16" font-family="TimesNewRomanPSMT"><tspan y="14.9375" x="325.0078 329.4558 337.4558">the</tspan></text>
<text xml:space="preserve" transform="matrix(.75 0 0 .75 72 135.47461)" font-size="16" font-family="TimesNewRomanPSMT"><tspan y="14.9375" x="350.5547 356.7787 361.22669 366.5547 374.5547 382.5547">stroke</tspan></text>
<text xml:space="preserve" transform="matrix(.75 0 0 .75 72 135.47461)" font-size="16" font-family="TimesNewRomanPSMT"><tspan y="14.9375" x="395.65626 400.10426 407.20826 415.20826 423.20826 427.65626">length</tspan></text>
<text xml:space="preserve" transform="matrix(.75 0 0 .75 72 135.47461)" font-size="16" font-family="TimesNewRomanPSMT"><tspan y="14.9375" x="440.64845 445.09645">is</tspan></text>
<text xml:space="preserve" transform="matrix(.75 0 0 .75 72 135.47461)" font-size="16" font-family="TimesNewRomanPSMT"><tspan y="14.9375" x="456.3203 464.3203 472.3203 476.3203">63.5</tspan></text>
<text xml:space="preserve" transform="matrix(.75 0 0 .75 72 135.47461)" font-size="16" font-family="TimesNewRomanPSMT"><tspan y="14.9375" x="489.3203 501.7683">mm</tspan></text>
<text xml:space="preserve" transform="matrix(.75 0 0 .75 72 135.47461)" font-size="16" font-family="TimesNewRomanPSMT"><tspan y="14.9375" x="519.21096 524.53897 532.53897 536.53897">(2.5</tspan></text>
<text xml:space="preserve" transform="matrix(.75 0 0 .75 72 135.47461)" font-size="16" font-family="TimesNewRomanPSMT"><tspan y="14.9375" x="549.53909 553.98709 561.98709 567.31509">in).</tspan></text>
<text xml:space="preserve" transform="matrix(.75 0 0 .75 72 135.47461)" font-size="16" font-family="TimesNewRomanPSMT"><tspan y="14.9375" x="576.3125 586.0885 594.0885">The</tspan></text>
<text xml:space="preserve" transform="matrix(.75 0 0 .75 72 151.34326)" font-size="16" font-family="TimesNewRomanPSMT"><tspan y="14.9375" x="0 8 16 23.104 28.432 32.88 39.984">overlap</tspan></text>
<text xml:space="preserve" transform="matrix(.75 0 0 .75 72 151.34326)" font-size="16" font-family="TimesNewRomanPSMT"><tspan y="14.9375" x="51.976564 57.30456 61.752565 69.75256 74.20056 82.20056 86.64856 91.09656">rigidity</tspan></text>
<text xml:space="preserve" transform="matrix(.75 0 0 .75 72 151.34326)" font-size="16" font-family="TimesNewRomanPSMT"><tspan y="14.9375" x="103.08594 115.533939 119.98193 127.98193 135.98194">might</tspan></text>
<text xml:space="preserve" transform="matrix(.75 0 0 .75 72 151.34326)" font-size="16" font-family="TimesNewRomanPSMT"><tspan y="14.9375" x="144.42188 152.42188">be</tspan></text>
<text xml:space="preserve" transform="matrix(.75 0 0 .75 72 151.34326)" font-size="16" font-family="TimesNewRomanPSMT"><tspan y="14.9375" x="163.52344">a</tspan></text>
<text xml:space="preserve" transform="matrix(.75 0 0 .75 72 151.34326)" font-size="16" font-family="TimesNewRomanPSMT"><tspan y="14.9375" x="174.625 181.729 189.729 196.83301 201.281 205.729 212.83301 220.83301 228.83301">challenge</tspan></text>
<text xml:space="preserve" transform="matrix(.75 0 0 .75 72 151.34326)" font-size="16" font-family="TimesNewRomanPSMT"><tspan y="14.9375" x="239.92188 247.92188 255.92188">due</tspan></text>
<text xml:space="preserve" transform="matrix(.75 0 0 .75 72 151.34326)" font-size="16" font-family="TimesNewRomanPSMT"><tspan y="14.9375" x="267.02345 271.47145">to</tspan></text>
<text xml:space="preserve" transform="matrix(.75 0 0 .75 72 151.34326)" font-size="16" font-family="TimesNewRomanPSMT"><tspan y="14.9375" x="283.46876 287.91676 295.91676">the</tspan></text>
<text xml:space="preserve" transform="matrix(.75 0 0 .75 72 151.34326)" font-size="16" font-family="TimesNewRomanPSMT"><tspan y="14.9375" x="307.01564 311.46363 318.56764 326.56764 334.56764 339.01564">length</tspan></text>
<text xml:space="preserve" transform="matrix(.75 0 0 .75 72 151.34326)" font-size="16" font-family="TimesNewRomanPSMT"><tspan y="14.9375" x="351.0078 358.11183 366.11183 374.11183 380.33583 384.7838 390.11183 397.21583 401.66383 409.66383 414.11183">constraint.</tspan></text>
<text xml:space="preserve" transform="matrix(.75 0 0 .75 72 183.08057)" font-size="16" font-family="TimesNewRomanPSMT"><tspan y="14.9375" x="0 5.328">In</tspan></text>
<text xml:space="preserve" transform="matrix(.75 0 0 .75 72 183.08057)" font-size="16" font-family="TimesNewRomanPSMT"><tspan y="14.9375" x="20.328125 27.432126 33.656126 39.880125 46.984125 54.984125 62.088125 69.19212">essence,</tspan></text>
<text xml:space="preserve" transform="matrix(.75 0 0 .75 72 183.08057)" font-size="16" font-family="TimesNewRomanPSMT"><tspan y="14.9375" x="80.1875 84.6355 92.6355">the</tspan></text>
<text xml:space="preserve" transform="matrix(.75 0 0 .75 72 183.08057)" font-size="16" font-family="TimesNewRomanPSMT"><tspan y="14.9375" x="106.734378 114.734378 120.06238 124.510379 132.51038 139.61438 144.06238 152.06238 156.51038 163.61438">principles</tspan></text>
<text xml:space="preserve" transform="matrix(.75 0 0 .75 72 183.08057)" font-size="16" font-family="TimesNewRomanPSMT"><tspan y="14.9375" x="176.82813 181.27613 189.27613 196.38013">that</tspan></text>
<text xml:space="preserve" transform="matrix(.75 0 0 .75 72 183.08057)" font-size="16" font-family="TimesNewRomanPSMT"><tspan y="14.9375" x="207.82032 212.26831 220.26831 224.71631">this</tspan></text>
<text xml:space="preserve" transform="matrix(.75 0 0 .75 72 183.08057)" font-size="16" font-family="TimesNewRomanPSMT"><tspan y="14.9375" x="237.9375 245.9375 253.0415 265.4895 273.4895 280.5935">damper</tspan></text>
<text xml:space="preserve" transform="matrix(.75 0 0 .75 72 183.08057)" font-size="16" font-family="TimesNewRomanPSMT"><tspan y="14.9375" x="292.91407 297.36207">is</tspan></text>
<text xml:space="preserve" transform="matrix(.75 0 0 .75 72 183.08057)" font-size="16" font-family="TimesNewRomanPSMT"><tspan y="14.9375" x="310.58595 318.58595 325.68995 331.91395 339.01795">based</tspan></text>
<text xml:space="preserve" transform="matrix(.75 0 0 .75 72 183.08057)" font-size="16" font-family="TimesNewRomanPSMT"><tspan y="14.9375" x="354.01564 362.01564">on</tspan></text>
<text xml:space="preserve" transform="matrix(.75 0 0 .75 72 183.08057)" font-size="16" font-family="TimesNewRomanPSMT"><tspan y="14.9375" x="377.01564 384.11964 389.44764">are</tspan></text>
<text xml:space="preserve" transform="matrix(.75 0 0 .75 72 183.08057)" font-size="16" font-family="TimesNewRomanPSMT"><tspan y="14.9375" x="403.54689 407.99488 415.99488">the</tspan></text>
<text xml:space="preserve" transform="matrix(.75 0 0 .75 72 183.08057)" font-size="16" font-family="TimesNewRomanPSMT"><tspan y="14.9375" x="430.09376 436.31776 443.42176 455.86976">same</tspan></text>
<text xml:space="preserve" transform="matrix(.75 0 0 .75 72 183.08057)" font-size="16" font-family="TimesNewRomanPSMT"><tspan y="14.9375" x="469.96876 477.07276">as</tspan></text>
<text xml:space="preserve" transform="matrix(.75 0 0 .75 72 183.08057)" font-size="16" font-family="TimesNewRomanPSMT"><tspan y="14.9375" x="490.29689 495.62489 503.62489">for</tspan></text>
<text xml:space="preserve" transform="matrix(.75 0 0 .75 72 183.08057)" font-size="16" font-family="TimesNewRomanPSMT"><tspan y="14.9375" x="514.9531 527.4011 535.4011 541.6251">most</tspan></text>
<text xml:space="preserve" transform="matrix(.75 0 0 .75 72 183.08057)" font-size="16" font-family="TimesNewRomanPSMT"><tspan y="14.9375" x="552.0703 564.5183 572.5183 580.5183 587.6223 592.9503">modern</tspan></text>
<text xml:space="preserve" transform="matrix(.75 0 0 .75 72 198.94922)" font-size="16" font-family="TimesNewRomanPSMT"><tspan y="14.9375" x="0 8 16 24 29.328 36.432 44.432 48.88 53.328004">hydraulic</tspan></text>
<text xml:space="preserve" transform="matrix(.75 0 0 .75 72 198.94922)" font-size="16" font-family="TimesNewRomanPSMT"><tspan y="14.9375" x="65.421878 73.421878 80.52588 92.97388 100.97388 108.07788 113.40588 119.62988">dampers,</tspan></text>
<text xml:space="preserve" transform="matrix(.75 0 0 .75 72 198.94922)" font-size="16" font-family="TimesNewRomanPSMT"><tspan y="14.9375" x="128.625 135.729 143.729">and</tspan></text>
<text xml:space="preserve" transform="matrix(.75 0 0 .75 72 198.94922)" font-size="16" font-family="TimesNewRomanPSMT"><tspan y="14.9375" x="156.72657 161.17456 169.17456">the</tspan></text>
<text xml:space="preserve" transform="matrix(.75 0 0 .75 72 198.94922)" font-size="16" font-family="TimesNewRomanPSMT"><tspan y="14.9375" x="181.27344 188.37744 192.82544">air</tspan></text>
<text xml:space="preserve" transform="matrix(.75 0 0 .75 72 198.94922)" font-size="16" font-family="TimesNewRomanPSMT"><tspan y="14.9375" x="203.14844 209.37244 217.37244 222.70044 227.14844 235.14844">spring</tspan></text>
<text xml:space="preserve" transform="matrix(.75 0 0 .75 72 198.94922)" font-size="16" font-family="TimesNewRomanPSMT"><tspan y="14.9375" x="248.14844 252.59644">is</tspan></text>
<text xml:space="preserve" transform="matrix(.75 0 0 .75 72 198.94922)" font-size="16" font-family="TimesNewRomanPSMT"><tspan y="14.9375" x="263.8203 271.8203">no</tspan></text>
<text xml:space="preserve" transform="matrix(.75 0 0 .75 72 198.94922)" font-size="16" font-family="TimesNewRomanPSMT"><tspan y="14.9375" x="284.8203 292.8203 297.2683 302.3047 307.6327 314.7367 320.0647 327.1687 335.1687 339.6167">different.</tspan></text>
<text xml:space="preserve" transform="matrix(.75 0 0 .75 72 198.94922)" font-size="16" font-family="TimesNewRomanPSMT"><tspan y="14.9375" x="348.60939 358.38539 366.38539 370.83338">This</tspan></text>
<text xml:space="preserve" transform="matrix(.75 0 0 .75 72 198.94922)" font-size="16" font-family="TimesNewRomanPSMT"><tspan y="14.9375" x="382.0547 388.2787 396.2787 404.2787 411.3827">shock</tspan></text>
<text xml:space="preserve" transform="matrix(.75 0 0 .75 72 198.94922)" font-size="16" font-family="TimesNewRomanPSMT"><tspan y="14.9375" x="428.3828 432.8308">is</tspan></text>
<text xml:space="preserve" transform="matrix(.75 0 0 .75 72 198.94922)" font-size="16" font-family="TimesNewRomanPSMT"><tspan y="14.9375" x="443.0547 449.2787 453.72669 466.17469 470.62269 475.07069 482.17469">similar</tspan></text>
<text xml:space="preserve" transform="matrix(.75 0 0 .75 72 198.94922)" font-size="16" font-family="TimesNewRomanPSMT"><tspan y="14.9375" x="491.4922 495.9402">to</tspan></text>
<text xml:space="preserve" transform="matrix(.75 0 0 .75 72 198.94922)" font-size="16" font-family="TimesNewRomanPSMT"><tspan y="14.9375" x="507.9375 514.1615 522.1615 534.6095">some</tspan></text>
<text xml:space="preserve" transform="matrix(.75 0 0 .75 72 198.94922)" font-size="16" font-family="TimesNewRomanPSMT"><tspan y="14.9375" x="545.71096 553.71096 558.15896 566.15896 573.26296 578.59097">others</tspan></text>
<text xml:space="preserve" transform="matrix(.75 0 0 .75 72 198.94922)" font-size="16" font-family="TimesNewRomanPSMT"><tspan y="14.9375" x="588.8125 593.2605">in</tspan></text>
<text xml:space="preserve" transform="matrix(.75 0 0 .75 72 214.81787)" font-size="16" font-family="TimesNewRomanPSMT"><tspan y="14.9375" x="0 4.4480006 12.448 19.552">that</tspan></text>
<text xml:space="preserve" transform="matrix(.75 0 0 .75 72 214.81787)" font-size="16" font-family="TimesNewRomanPSMT"><tspan y="14.9375" x="28.992188 33.44019 41.44019">the</tspan></text>
<text xml:space="preserve" transform="matrix(.75 0 0 .75 72 214.81787)" font-size="16" font-family="TimesNewRomanPSMT"><tspan y="14.9375" x="53.539064 61.539064 65.98706 72.21106 76.65906 84.65906">piston</tspan></text>
<text xml:space="preserve" transform="matrix(.75 0 0 .75 72 214.81787)" font-size="16" font-family="TimesNewRomanPSMT"><tspan y="14.9375" x="97.65625 105.65625 113.65625 119.88025 127.88025 134.98426">pushes</tspan></text>
<text xml:space="preserve" transform="matrix(.75 0 0 .75 72 214.81787)" font-size="16" font-family="TimesNewRomanPSMT"><tspan y="14.9375" x="146.21094 150.65894 158.65894">the</tspan></text>
<text xml:space="preserve" transform="matrix(.75 0 0 .75 72 214.81787)" font-size="16" font-family="TimesNewRomanPSMT"><tspan y="14.9375" x="170.75782 176.08582 184.08582 188.53382">full</tspan></text>
<text xml:space="preserve" transform="matrix(.75 0 0 .75 72 214.81787)" font-size="16" font-family="TimesNewRomanPSMT"><tspan y="14.9375" x="197.97657 205.08057 213.08057 217.52857 225.52857 237.97657">column</tspan></text>
<text xml:space="preserve" transform="matrix(.75 0 0 .75 72 214.81787)" font-size="16" font-family="TimesNewRomanPSMT"><tspan y="14.9375" x="249.96875 257.96876">of</tspan></text>
<text xml:space="preserve" transform="matrix(.75 0 0 .75 72 214.81787)" font-size="16" font-family="TimesNewRomanPSMT"><tspan y="14.9375" x="267.29689 275.29689 279.74488">oil</tspan></text>
<text xml:space="preserve" transform="matrix(.75 0 0 .75 72 214.81787)" font-size="16" font-family="TimesNewRomanPSMT"><tspan y="14.9375" x="288.1875 295.2915 303.2915 311.2915 319.2915">above</tspan></text>
<text xml:space="preserve" transform="matrix(.75 0 0 .75 72 214.81787)" font-size="16" font-family="TimesNewRomanPSMT"><tspan y="14.9375" x="330.39064 334.83863">it</tspan></text>
<text xml:space="preserve" transform="matrix(.75 0 0 .75 72 214.81787)" font-size="16" font-family="TimesNewRomanPSMT"><tspan y="14.9375" x="343.28126 354.83326 362.83326 369.93727">when</tspan></text>
<text xml:space="preserve" transform="matrix(.75 0 0 .75 72 214.81787)" font-size="16" font-family="TimesNewRomanPSMT"><tspan y="14.9375" x="381.9375 389.9375 397.9375 405.9375 413.0415">under</tspan></text>
<text xml:space="preserve" transform="matrix(.75 0 0 .75 72 214.81787)" font-size="16" font-family="TimesNewRomanPSMT"><tspan y="14.9375" x="422.3672 429.4712 437.4712 449.9192 457.9192 463.2472 470.3512 476.5752 482.7992 487.2472 495.2472 503.2472">compression,</tspan></text>
<text xml:space="preserve" transform="matrix(.75 0 0 .75 72 214.81787)" font-size="16" font-family="TimesNewRomanPSMT"><tspan y="14.9375" x="511.2422 515.6902 523.6902 530.7942">that</tspan></text>
<text xml:space="preserve" transform="matrix(.75 0 0 .75 72 214.81787)" font-size="16" font-family="TimesNewRomanPSMT"><tspan y="14.9375" x="539.2344 547.2344 551.6824">oil</tspan></text>
<text xml:space="preserve" transform="matrix(.75 0 0 .75 72 214.81787)" font-size="16" font-family="TimesNewRomanPSMT"><tspan y="14.9375" x="560.125 568.125 575.229 581.453 587.677 594.781">passes</tspan></text>
<text xml:space="preserve" transform="matrix(.75 0 0 .75 72 230.68653)" font-size="16" font-family="TimesNewRomanPSMT"><tspan y="14.9375" x="0 4.4480006 12.448 17.776001 25.776001 33.776 41.776">through</tspan></text>
<text xml:space="preserve" transform="matrix(.75 0 0 .75 72 230.68653)" font-size="16" font-family="TimesNewRomanPSMT"><tspan y="14.9375" x="55.773439 60.22144 68.221439">the</tspan></text>
<text xml:space="preserve" transform="matrix(.75 0 0 .75 72 230.68653)" font-size="16" font-family="TimesNewRomanPSMT"><tspan y="14.9375" x="81.32031 88.42432 96.42432 108.872318 116.872318 122.20032 129.30432 135.52832 141.75232 146.20032 154.20032 162.20032 166.64832 171.97632 179.08032 187.08032 195.08032 203.08032 211.08032">compression/rebound</tspan></text>
<text xml:space="preserve" transform="matrix(.75 0 0 .75 72 230.68653)" font-size="16" font-family="TimesNewRomanPSMT"><tspan y="14.9375" x="225.07032 233.07032 240.17432 244.62232 252.62232 257.0703 265.0703">valving</tspan></text>
<text xml:space="preserve" transform="matrix(.75 0 0 .75 72 230.68653)" font-size="16" font-family="TimesNewRomanPSMT"><tspan y="14.9375" x="279.0625 290.6145 298.6145 305.7185 311.0465">where</tspan></text>
<text xml:space="preserve" transform="matrix(.75 0 0 .75 72 230.68653)" font-size="16" font-family="TimesNewRomanPSMT"><tspan y="14.9375" x="324.14845 329.47645 333.92445 341.92445">flow</tspan></text>
<text xml:space="preserve" transform="matrix(.75 0 0 .75 72 230.68653)" font-size="16" font-family="TimesNewRomanPSMT"><tspan y="14.9375" x="359.47657 363.92457">is</tspan></text>
<text xml:space="preserve" transform="matrix(.75 0 0 .75 72 230.68653)" font-size="16" font-family="TimesNewRomanPSMT"><tspan y="14.9375" x="376.14845 383.25245 391.25245 395.70045 403.70045 409.92445 414.37245 421.47645 429.47645 433.92445">adjustably</tspan></text>
<text xml:space="preserve" transform="matrix(.75 0 0 .75 72 230.68653)" font-size="16" font-family="TimesNewRomanPSMT"><tspan y="14.9375" x="447.91407 453.24208 460.34608 466.57008 471.01808 476.34608 480.79408 487.89808 492.34608 499.45008">restricted</tspan></text>
<text xml:space="preserve" transform="matrix(.75 0 0 .75 72 230.68653)" font-size="16" font-family="TimesNewRomanPSMT"><tspan y="14.9375" x="513.4375 521.4375 528.5415 536.5415 543.6455 551.6455 559.6455 564.0935 572.0935">depending</tspan></text>
<text xml:space="preserve" transform="matrix(.75 0 0 .75 72 230.68653)" font-size="16" font-family="TimesNewRomanPSMT"><tspan y="14.9375" x="585.08596 593.08596">on</tspan></text>
<text xml:space="preserve" transform="matrix(.75 0 0 .75 72 246.55518)" font-size="16" font-family="TimesNewRomanPSMT"><tspan y="14.9375" x="0 4.4480006 12.448">the</tspan></text>
<text xml:space="preserve" transform="matrix(.75 0 0 .75 72 246.55518)" font-size="16" font-family="TimesNewRomanPSMT"><tspan y="14.9375" x="25.546875 33.546876 37.994878 43.322877 50.426877 57.530878 61.978879 66.42688 74.42688">direction</tspan></text>
<text xml:space="preserve" transform="matrix(.75 0 0 .75 72 246.55518)" font-size="16" font-family="TimesNewRomanPSMT"><tspan y="14.9375" x="88.41406 93.742069 100.84607 108.84607 121.29407 129.29407 134.62207 141.72608 147.95008 154.17407 158.62207 166.62207">(compression</tspan></text>
<text xml:space="preserve" transform="matrix(.75 0 0 .75 72 246.55518)" font-size="16" font-family="TimesNewRomanPSMT"><tspan y="14.9375" x="180.61719 188.61719">or</tspan></text>
<text xml:space="preserve" transform="matrix(.75 0 0 .75 72 246.55518)" font-size="16" font-family="TimesNewRomanPSMT"><tspan y="14.9375" x="199.94532 205.27332 212.37732 220.37732 228.37732 236.37732 244.37732 252.37732 257.70533">rebound),</tspan></text>
<text xml:space="preserve" transform="matrix(.75 0 0 .75 72 246.55518)" font-size="16" font-family="TimesNewRomanPSMT"><tspan y="14.9375" x="267.70314 274.80714 282.80714">and</tspan></text>
<text xml:space="preserve" transform="matrix(.75 0 0 .75 72 246.55518)" font-size="16" font-family="TimesNewRomanPSMT"><tspan y="14.9375" x="296.8047 303.0287 311.0287 323.47669">some</tspan></text>
<text xml:space="preserve" transform="matrix(.75 0 0 .75 72 246.55518)" font-size="16" font-family="TimesNewRomanPSMT"><tspan y="14.9375" x="335.57814 343.57814">of</tspan></text>
<text xml:space="preserve" transform="matrix(.75 0 0 .75 72 246.55518)" font-size="16" font-family="TimesNewRomanPSMT"><tspan y="14.9375" x="353.90626 358.35426">it</tspan></text>
<text xml:space="preserve" transform="matrix(.75 0 0 .75 72 246.55518)" font-size="16" font-family="TimesNewRomanPSMT"><tspan y="14.9375" x="367.79689 374.90089 382.90089 387.34889 394.45289 399.78089">enters</tspan></text>
<text xml:space="preserve" transform="matrix(.75 0 0 .75 72 246.55518)" font-size="16" font-family="TimesNewRomanPSMT"><tspan y="14.9375" x="411 415.448 423.448">the</tspan></text>
<text xml:space="preserve" transform="matrix(.75 0 0 .75 72 246.55518)" font-size="16" font-family="TimesNewRomanPSMT"><tspan y="14.9375" x="435.54689 440.87489 447.97889 454.20289 461.3069 466.6349 474.6349 482.6349 487.0829">reservoir</tspan></text>
<text xml:space="preserve" transform="matrix(.75 0 0 .75 72 246.55518)" font-size="16" font-family="TimesNewRomanPSMT"><tspan y="14.9375" x="497.40626 508.95826 516.95828 521.40628 525.85427">while</tspan></text>
<text xml:space="preserve" transform="matrix(.75 0 0 .75 72 246.55518)" font-size="16" font-family="TimesNewRomanPSMT"><tspan y="14.9375" x="537.9531 542.4011 550.4011">the</tspan></text>
<text xml:space="preserve" transform="matrix(.75 0 0 .75 72 246.55518)" font-size="16" font-family="TimesNewRomanPSMT"><tspan y="14.9375" x="562.5 567.828 574.932 581.156">rest</tspan></text>
<text xml:space="preserve" transform="matrix(.75 0 0 .75 72 246.55518)" font-size="16" font-family="TimesNewRomanPSMT"><tspan y="14.9375" x="590.60159 595.04959">is</tspan></text>
<text xml:space="preserve" transform="matrix(.75 0 0 .75 72 262.42384)" font-size="16" font-family="TimesNewRomanPSMT"><tspan y="14.9375" x="0 8 12.448 18.672 26.672 31.12 38.224004 45.328004 52.432004">displaced</tspan></text>
<text xml:space="preserve" transform="matrix(.75 0 0 .75 72 262.42384)" font-size="16" font-family="TimesNewRomanPSMT"><tspan y="14.9375" x="68.421878 76.421878 83.52588 87.97388 95.97388">below</tspan></text>
<text xml:space="preserve" transform="matrix(.75 0 0 .75 72 262.42384)" font-size="16" font-family="TimesNewRomanPSMT"><tspan y="14.9375" x="115.52344 119.971439 127.971439">the</tspan></text>
<text xml:space="preserve" transform="matrix(.75 0 0 .75 72 262.42384)" font-size="16" font-family="TimesNewRomanPSMT"><tspan y="14.9375" x="142.07032 150.07032 154.51831 160.74231 165.1903 173.1903 181.1903">piston.</tspan></text>
<text xml:space="preserve" transform="matrix(.75 0 0 .75 72 262.42384)" font-size="16" font-family="TimesNewRomanPSMT"><tspan y="14.9375" x="192.1875 201.9635 209.9635">The</tspan></text>
<text xml:space="preserve" transform="matrix(.75 0 0 .75 72 262.42384)" font-size="16" font-family="TimesNewRomanPSMT"><tspan y="14.9375" x="224.0625 232.0625 240.0625 248.0625 256.0625 262.2865 266.7345 271.1825">opposite</tspan></text>
<text xml:space="preserve" transform="matrix(.75 0 0 .75 72 262.42384)" font-size="16" font-family="TimesNewRomanPSMT"><tspan y="14.9375" x="285.28126 293.28126 297.72926 303.05726 310.16127 317.26527 321.71327 326.16127 334.16127">direction</tspan></text>
<text xml:space="preserve" transform="matrix(.75 0 0 .75 72 262.42384)" font-size="16" font-family="TimesNewRomanPSMT"><tspan y="14.9375" x="349.14845 357.14845">of</tspan></text>
<text xml:space="preserve" transform="matrix(.75 0 0 .75 72 262.42384)" font-size="16" font-family="TimesNewRomanPSMT"><tspan y="14.9375" x="369.47657 373.92457 381.92457">the</tspan></text>
<text xml:space="preserve" transform="matrix(.75 0 0 .75 72 262.42384)" font-size="16" font-family="TimesNewRomanPSMT"><tspan y="14.9375" x="396.02345 403.12745 407.57545 412.90345 420.00746 428.00746 432.45545">circuit</tspan></text>
<text xml:space="preserve" transform="matrix(.75 0 0 .75 72 262.42384)" font-size="16" font-family="TimesNewRomanPSMT"><tspan y="14.9375" x="443.89064 450.99464 458.99464 466.99464 471.44264 475.89064 482.99464">applies</tspan></text>
<text xml:space="preserve" transform="matrix(.75 0 0 .75 72 262.42384)" font-size="16" font-family="TimesNewRomanPSMT"><tspan y="14.9375" x="496.21095 501.53895 509.53895">for</tspan></text>
<text xml:space="preserve" transform="matrix(.75 0 0 .75 72 262.42384)" font-size="16" font-family="TimesNewRomanPSMT"><tspan y="14.9375" x="521.8672 526.3152 534.3152">the</tspan></text>
<text xml:space="preserve" transform="matrix(.75 0 0 .75 72 262.42384)" font-size="16" font-family="TimesNewRomanPSMT"><tspan y="14.9375" x="548.41409 553.74209 560.84609 568.84609 576.84609 584.84609 592.84609">rebound</tspan></text>
<text xml:space="preserve" transform="matrix(.75 0 0 .75 72 278.29249)" font-size="16" font-family="TimesNewRomanPSMT"><tspan y="14.9375" x="0 6.2240006 10.672001 16 24 32 39.104">stroke,</tspan></text>
<text xml:space="preserve" transform="matrix(.75 0 0 .75 72 278.29249)" font-size="16" font-family="TimesNewRomanPSMT"><tspan y="14.9375" x="48.101564 56.101564 64.10156">but</tspan></text>
<text xml:space="preserve" transform="matrix(.75 0 0 .75 72 278.29249)" font-size="16" font-family="TimesNewRomanPSMT"><tspan y="14.9375" x="73.546878 77.99487 85.99487">the</tspan></text>
<text xml:space="preserve" transform="matrix(.75 0 0 .75 72 278.29249)" font-size="16" font-family="TimesNewRomanPSMT"><tspan y="14.9375" x="98.09375 106.09375 113.197757">new</tspan></text>
<text xml:space="preserve" transform="matrix(.75 0 0 .75 72 278.29249)" font-size="16" font-family="TimesNewRomanPSMT"><tspan y="14.9375" x="129.75 134.198 146.646 154.646 159.094 166.198 178.646 185.75 193.75 198.198 205.302 209.75 214.198 222.198">implementation</tspan></text>
<text xml:space="preserve" transform="matrix(.75 0 0 .75 72 278.29249)" font-size="16" font-family="TimesNewRomanPSMT"><tspan y="14.9375" x="235.17188 247.61988 254.72388">may</tspan></text>
<text xml:space="preserve" transform="matrix(.75 0 0 .75 72 278.29249)" font-size="16" font-family="TimesNewRomanPSMT"><tspan y="14.9375" x="267.71876 274.82276 279.27076 283.71876 291.71876">allow</tspan></text>
<text xml:space="preserve" transform="matrix(.75 0 0 .75 72 278.29249)" font-size="16" font-family="TimesNewRomanPSMT"><tspan y="14.9375" x="308.26564 315.36964 323.36964 331.36964 335.81764 340.26564 344.71363 352.71363 360.71363 367.81764">additional</tspan></text>
<text xml:space="preserve" transform="matrix(.75 0 0 .75 72 278.29249)" font-size="16" font-family="TimesNewRomanPSMT"><tspan y="14.9375" x="377.25 385.25 389.698">oil</tspan></text>
<text xml:space="preserve" transform="matrix(.75 0 0 .75 72 278.29249)" font-size="16" font-family="TimesNewRomanPSMT"><tspan y="14.9375" x="399.14064 404.46864 409.79664 417.79664">from</tspan></text>
<text xml:space="preserve" transform="matrix(.75 0 0 .75 72 278.29249)" font-size="16" font-family="TimesNewRomanPSMT"><tspan y="14.9375" x="435.2422 443.2422 450.3462 454.7942 462.7942">below</tspan></text>
<text xml:space="preserve" transform="matrix(.75 0 0 .75 72 278.29249)" font-size="16" font-family="TimesNewRomanPSMT"><tspan y="14.9375" x="479.34376 483.79176">to</tspan></text>
<text xml:space="preserve" transform="matrix(.75 0 0 .75 72 278.29249)" font-size="16" font-family="TimesNewRomanPSMT"><tspan y="14.9375" x="496.78907 503.89308 511.89308 519.89309 527.89309">above</tspan></text>
<text xml:space="preserve" transform="matrix(.75 0 0 .75 72 278.29249)" font-size="16" font-family="TimesNewRomanPSMT"><tspan y="14.9375" x="538.9922 543.4402 551.4402">the</tspan></text>
<text xml:space="preserve" transform="matrix(.75 0 0 .75 72 278.29249)" font-size="16" font-family="TimesNewRomanPSMT"><tspan y="14.9375" x="562.53909 570.53909 574.98709 581.21109 585.65908 593.65908">piston</tspan></text>
<text xml:space="preserve" transform="matrix(.75 0 0 .75 72 294.16114)" font-size="16" font-family="TimesNewRomanPSMT"><tspan y="14.9375" x="0 4.4480006 12.448 17.776001 25.776001 33.776 41.776">through</tspan></text>
<text xml:space="preserve" transform="matrix(.75 0 0 .75 72 294.16114)" font-size="16" font-family="TimesNewRomanPSMT"><tspan y="14.9375" x="55.773439 63.773439 71.77344 79.77344 86.87744 93.10144">bypass</tspan></text>
<text xml:space="preserve" transform="matrix(.75 0 0 .75 72 294.16114)" font-size="16" font-family="TimesNewRomanPSMT"><tspan y="14.9375" x="105.328128 112.43213 120.43213 127.53613 135.53614 143.53614 150.64014 155.08814 161.31214">channels.</tspan></text>
<text xml:space="preserve" transform="matrix(.75 0 0 .75 72 294.16114)" font-size="16" font-family="TimesNewRomanPSMT"><tspan y="14.9375" x="171.30469 181.08069 189.08069">The</tspan></text>
<text xml:space="preserve" transform="matrix(.75 0 0 .75 72 294.16114)" font-size="16" font-family="TimesNewRomanPSMT"><tspan y="14.9375" x="201.17969 208.28369 212.73169">air</tspan></text>
<text xml:space="preserve" transform="matrix(.75 0 0 .75 72 294.16114)" font-size="16" font-family="TimesNewRomanPSMT"><tspan y="14.9375" x="223.05469 229.27869 237.27869 242.60669 247.05469 255.05469">spring</tspan></text>
<text xml:space="preserve" transform="matrix(.75 0 0 .75 72 294.16114)" font-size="16" font-family="TimesNewRomanPSMT"><tspan y="14.9375" x="268.0547 279.6067 287.6067 292.9347 300.9347">works</tspan></text>
<text xml:space="preserve" transform="matrix(.75 0 0 .75 72 294.16114)" font-size="16" font-family="TimesNewRomanPSMT"><tspan y="14.9375" x="312.16407 318.38807 322.83607 335.28407 343.28407 347.73207">simply</tspan></text>
<text xml:space="preserve" transform="matrix(.75 0 0 .75 72 294.16114)" font-size="16" font-family="TimesNewRomanPSMT"><tspan y="14.9375" x="360.72657 368.72657">by</tspan></text>
<text xml:space="preserve" transform="matrix(.75 0 0 .75 72 294.16114)" font-size="16" font-family="TimesNewRomanPSMT"><tspan y="14.9375" x="381.72657 388.83058 396.83058 409.27857 417.27857 422.60658 429.71058 435.93458 442.15858 446.60658 454.60658">compressing</tspan></text>
<text xml:space="preserve" transform="matrix(.75 0 0 .75 72 294.16114)" font-size="16" font-family="TimesNewRomanPSMT"><tspan y="14.9375" x="467.60157 472.04957 480.04957">the</tspan></text>
<text xml:space="preserve" transform="matrix(.75 0 0 .75 72 294.16114)" font-size="16" font-family="TimesNewRomanPSMT"><tspan y="14.9375" x="492.14845 499.25245 503.70045">air</tspan></text>
<text xml:space="preserve" transform="matrix(.75 0 0 .75 72 294.16114)" font-size="16" font-family="TimesNewRomanPSMT"><tspan y="14.9375" x="514.02346 525.57546 530.02346 534.47146 542.47146 546.91946">within</tspan></text>
<text xml:space="preserve" transform="matrix(.75 0 0 .75 72 294.16114)" font-size="16" font-family="TimesNewRomanPSMT"><tspan y="14.9375" x="559.91409 564.36209 572.36209">the</tspan></text>
<text xml:space="preserve" transform="matrix(.75 0 0 .75 72 294.16114)" font-size="16" font-family="TimesNewRomanPSMT"><tspan y="14.9375" x="584.46096 591.56497 596.01296">air</tspan></text>
<text xml:space="preserve" transform="matrix(.75 0 0 .75 72 310.0298)" font-size="16" font-family="TimesNewRomanPSMT"><tspan y="14.9375" x="0 7.1040008 14.208001 22.208">can.</tspan></text>
<text xml:space="preserve" transform="matrix(.75 0 0 .75 72 310.0298)" font-size="16" font-family="TimesNewRomanPSMT"><tspan y="14.9375" x="31.203125 40.979127 48.979127 56.083127 61.411127">There</tspan></text>
<text xml:space="preserve" transform="matrix(.75 0 0 .75 72 310.0298)" font-size="16" font-family="TimesNewRomanPSMT"><tspan y="14.9375" x="73.50781 77.95581">is</tspan></text>
<text xml:space="preserve" transform="matrix(.75 0 0 .75 72 310.0298)" font-size="16" font-family="TimesNewRomanPSMT"><tspan y="14.9375" x="89.17969 95.40369 103.40369 115.851688">some</tspan></text>
<text xml:space="preserve" transform="matrix(.75 0 0 .75 72 310.0298)" font-size="16" font-family="TimesNewRomanPSMT"><tspan y="14.9375" x="127.953128 135.05713 143.05713 155.50513 163.50513 167.95313 175.05713 183.05713 187.50513 191.95313">complexity</tspan></text>
<text xml:space="preserve" transform="matrix(.75 0 0 .75 72 310.0298)" font-size="16" font-family="TimesNewRomanPSMT"><tspan y="14.9375" x="204.9375 209.3855">in</tspan></text>
<text xml:space="preserve" transform="matrix(.75 0 0 .75 72 310.0298)" font-size="16" font-family="TimesNewRomanPSMT"><tspan y="14.9375" x="222.38282 226.83081 234.83081">the</tspan></text>
<text xml:space="preserve" transform="matrix(.75 0 0 .75 72 310.0298)" font-size="16" font-family="TimesNewRomanPSMT"><tspan y="14.9375" x="246.92969 253.15369 261.1537 268.2577 275.3617 279.8097 285.1377 289.5857 296.6897">specifics</tspan></text>
<text xml:space="preserve" transform="matrix(.75 0 0 .75 72 310.0298)" font-size="16" font-family="TimesNewRomanPSMT"><tspan y="14.9375" x="307.90626 315.90626">of</tspan></text>
<text xml:space="preserve" transform="matrix(.75 0 0 .75 72 310.0298)" font-size="16" font-family="TimesNewRomanPSMT"><tspan y="14.9375" x="325.23439 337.68238 345.68238 353.68238 360.78639 366.11439">modern</tspan></text>
<text xml:space="preserve" transform="matrix(.75 0 0 .75 72 310.0298)" font-size="16" font-family="TimesNewRomanPSMT"><tspan y="14.9375" x="378.10939 385.21339 389.66139">air</tspan></text>
<text xml:space="preserve" transform="matrix(.75 0 0 .75 72 310.0298)" font-size="16" font-family="TimesNewRomanPSMT"><tspan y="14.9375" x="398.98439 406.08839 414.08839 421.19239 433.64039 441.64039 448.7444 454.0724 460.2964">chambers,</tspan></text>
<text xml:space="preserve" transform="matrix(.75 0 0 .75 72 310.0298)" font-size="16" font-family="TimesNewRomanPSMT"><tspan y="14.9375" x="468.28907 476.28907 484.28907">but</tspan></text>
<text xml:space="preserve" transform="matrix(.75 0 0 .75 72 310.0298)" font-size="16" font-family="TimesNewRomanPSMT"><tspan y="14.9375" x="492.73439 499.83839">an</tspan></text>
<text xml:space="preserve" transform="matrix(.75 0 0 .75 72 310.0298)" font-size="16" font-family="TimesNewRomanPSMT"><tspan y="14.9375" x="511.83595 518.93997 526.93997 534.93997 539.38796 546.49197 554.49197 561.59597 566.04397 570.49197 578.49197">explanation</tspan></text>
<text xml:space="preserve" transform="matrix(.75 0 0 .75 72 310.0298)" font-size="16" font-family="TimesNewRomanPSMT"><tspan y="14.9375" x="590.47659 594.92459">is</tspan></text>
<text xml:space="preserve" transform="matrix(.75 0 0 .75 72 325.89845)" font-size="16" font-family="TimesNewRomanPSMT"><tspan y="14.9375" x="0 8 15.104 23.104 31.104 39.104">beyond</tspan></text>
<text xml:space="preserve" transform="matrix(.75 0 0 .75 72 325.89845)" font-size="16" font-family="TimesNewRomanPSMT"><tspan y="14.9375" x="52.101564 56.549566 64.54956">the</tspan></text>
<text xml:space="preserve" transform="matrix(.75 0 0 .75 72 325.89845)" font-size="16" font-family="TimesNewRomanPSMT"><tspan y="14.9375" x="76.64844 82.87244 89.97644 97.97644 105.97644">scope</tspan></text>
<text xml:space="preserve" transform="matrix(.75 0 0 .75 72 325.89845)" font-size="16" font-family="TimesNewRomanPSMT"><tspan y="14.9375" x="118.078128 126.078128">of</tspan></text>
<text xml:space="preserve" transform="matrix(.75 0 0 .75 72 325.89845)" font-size="16" font-family="TimesNewRomanPSMT"><tspan y="14.9375" x="136.40625 140.85425 148.85425 153.30225">this</tspan></text>
<text xml:space="preserve" transform="matrix(.75 0 0 .75 72 325.89845)" font-size="16" font-family="TimesNewRomanPSMT"><tspan y="14.9375" x="164.52344 172.52344 179.62744 187.62744 194.73145 199.17188">paper.</tspan></text>
<text xml:space="preserve" transform="matrix(.75 0 0 .75 72 325.89845)" font-size="16" font-family="TimesNewRomanPSMT"><tspan y="14.9375" x="213.17188 222.94788 230.94788">The</tspan></text>
<text xml:space="preserve" transform="matrix(.75 0 0 .75 72 325.89845)" font-size="16" font-family="TimesNewRomanPSMT"><tspan y="14.9375" x="243.04688 250.15088 258.15089 270.59889 278.59889 283.92689 291.03089 297.25489 303.47889 307.92689 315.92689 323.92689 328.37489 333.70289 340.8069 348.8069 356.8069 364.8069 372.8069">compression/rebound</tspan></text>
<text xml:space="preserve" transform="matrix(.75 0 0 .75 72 325.89845)" font-size="16" font-family="TimesNewRomanPSMT"><tspan y="14.9375" x="384.79689 392.79689 399.90089 404.34889 412.34889 416.79689 424.79689">valving</tspan></text>
<text xml:space="preserve" transform="matrix(.75 0 0 .75 72 325.89845)" font-size="16" font-family="TimesNewRomanPSMT"><tspan y="14.9375" x="436.78907 444.78907 451.89308 458.11708 462.56507 470.56507 478.56507 485.66908">designed</tspan></text>
<text xml:space="preserve" transform="matrix(.75 0 0 .75 72 325.89845)" font-size="16" font-family="TimesNewRomanPSMT"><tspan y="14.9375" x="497.66407 502.99208 510.99208">for</tspan></text>
<text xml:space="preserve" transform="matrix(.75 0 0 .75 72 325.89845)" font-size="16" font-family="TimesNewRomanPSMT"><tspan y="14.9375" x="520.3203 524.7683 532.7683 537.2163">this</tspan></text>
<text xml:space="preserve" transform="matrix(.75 0 0 .75 72 325.89845)" font-size="16" font-family="TimesNewRomanPSMT"><tspan y="14.9375" x="547.4375 554.5415 562.5415 569.6455 582.0935 590.0935 594.5415">example</tspan></text>
<text xml:space="preserve" transform="matrix(.75 0 0 .75 72 341.7671)" font-size="16" font-family="TimesNewRomanPSMT"><tspan y="14.9375" x="0 4.4480006">is</tspan></text>
<text xml:space="preserve" transform="matrix(.75 0 0 .75 72 341.7671)" font-size="16" font-family="TimesNewRomanPSMT"><tspan y="14.9375" x="14.671875 21.775876 29.775876 37.775876 42.223878 49.327878 53.77588 61.77588 68.87988">explained</tspan></text>
<text xml:space="preserve" transform="matrix(.75 0 0 .75 72 341.7671)" font-size="16" font-family="TimesNewRomanPSMT"><tspan y="14.9375" x="80.86719 85.315189">in</tspan></text>
<text xml:space="preserve" transform="matrix(.75 0 0 .75 72 341.7671)" font-size="16" font-family="TimesNewRomanPSMT"><tspan y="14.9375" x="97.3125 105.3125 112.416507 120.416507 127.52051 132.84851 139.95252">general</tspan></text>
<text xml:space="preserve" transform="matrix(.75 0 0 .75 72 341.7671)" font-size="16" font-family="TimesNewRomanPSMT"><tspan y="14.9375" x="148.39063 152.83863 159.94263 165.27063 177.71863">terms</tspan></text>
<text xml:space="preserve" transform="matrix(.75 0 0 .75 72 341.7671)" font-size="16" font-family="TimesNewRomanPSMT"><tspan y="14.9375" x="187.9375 192.3855">in</tspan></text>
<text xml:space="preserve" transform="matrix(.75 0 0 .75 72 341.7671)" font-size="16" font-family="TimesNewRomanPSMT"><tspan y="14.9375" x="204.38282 208.83081 216.83081">the</tspan></text>
<text xml:space="preserve" transform="matrix(.75 0 0 .75 72 341.7671)" font-size="16" font-family="TimesNewRomanPSMT"><tspan y="14.9375" x="227.92969 235.03369 243.03369 251.03369 258.1377 266.1377 274.1377 278.5857 286.5857">appendix.</tspan></text>
<text xml:space="preserve" transform="matrix(.75 0 0 .75 72 373.5044)" font-size="16" font-family="TimesNewRomanPSMT"><tspan y="14.9375" x="0 10.672001 17.776001 22.224 30.224">Below</tspan></text>
<text xml:space="preserve" transform="matrix(.75 0 0 .75 72 373.5044)" font-size="16" font-family="TimesNewRomanPSMT"><tspan y="14.9375" x="45.773439 50.22144">is</tspan></text>
<text xml:space="preserve" transform="matrix(.75 0 0 .75 72 373.5044)" font-size="16" font-family="TimesNewRomanPSMT"><tspan y="14.9375" x="60.445314 67.54932">an</tspan></text>
<text xml:space="preserve" transform="matrix(.75 0 0 .75 72 373.5044)" font-size="16" font-family="TimesNewRomanPSMT"><tspan y="14.9375" x="79.546878 87.546878 94.65088 100.87488 107.97888 113.306888 117.75488 125.75488 130.20288 134.65088 142.65088">description</tspan></text>
<text xml:space="preserve" transform="matrix(.75 0 0 .75 72 373.5044)" font-size="16" font-family="TimesNewRomanPSMT"><tspan y="14.9375" x="154.64063 162.64063">of</tspan></text>
<text xml:space="preserve" transform="matrix(.75 0 0 .75 72 373.5044)" font-size="16" font-family="TimesNewRomanPSMT"><tspan y="14.9375" x="171.96875 176.41675 184.41675">the</tspan></text>
<text xml:space="preserve" transform="matrix(.75 0 0 .75 72 373.5044)" font-size="16" font-family="TimesNewRomanPSMT"><tspan y="14.9375" x="195.51563 203.51563 210.61963">key</tspan></text>
<text xml:space="preserve" transform="matrix(.75 0 0 .75 72 373.5044)" font-size="16" font-family="TimesNewRomanPSMT"><tspan y="14.9375" x="222.61719 229.72119 237.72119 250.16919 258.1692 266.1692 274.1692 281.2732 289.2732 293.7212">components</tspan></text>
<text xml:space="preserve" transform="matrix(.75 0 0 .75 72 373.5044)" font-size="16" font-family="TimesNewRomanPSMT"><tspan y="14.9375" x="303.9375 311.9375">of</tspan></text>
<text xml:space="preserve" transform="matrix(.75 0 0 .75 72 373.5044)" font-size="16" font-family="TimesNewRomanPSMT"><tspan y="14.9375" x="321.26564 325.71363 333.71363">the</tspan></text>
<text xml:space="preserve" transform="matrix(.75 0 0 .75 72 373.5044)" font-size="16" font-family="TimesNewRomanPSMT"><tspan y="14.9375" x="344.8125 349.2605 357.2605 365.2605 372.3645 380.3645 384.8125 389.2605 397.2605 405.2605">invention:</tspan></text>
<text xml:space="preserve" transform="matrix(.75 0 0 .75 72 405.2417)" font-size="16" font-family="TimesNewRomanPS" font-weight="bold"><tspan y="14.9375" x="0 6.2240006 15.120001 24.016003 31.120003 38.224004 42.672006 52.448007 56.896009 63.120008 68.448009 76.448009">Inner/Piston</tspan></text>
<text xml:space="preserve" transform="matrix(.75 0 0 .75 72 405.2417)" font-size="16" font-family="TimesNewRomanPS" font-weight="bold"><tspan y="14.9375" x="91.34375 102.89575 110.89575 115.34375 119.79175 128.68775 137.58374 144.68775 151.79175">Cylinder:</tspan></text>
<text xml:space="preserve" transform="matrix(.75 0 0 .75 72 405.2417)" font-size="16" font-family="TimesNewRomanPSMT"><tspan y="14.9375" x="163.11719 172.89319 180.89319 185.34119">This</tspan></text>
<text xml:space="preserve" transform="matrix(.75 0 0 .75 72 405.2417)" font-size="16" font-family="TimesNewRomanPSMT"><tspan y="14.9375" x="197.5625 204.6665 212.6665 220.6665 225.1145">could</tspan></text>
<text xml:space="preserve" transform="matrix(.75 0 0 .75 72 405.2417)" font-size="16" font-family="TimesNewRomanPSMT"><tspan y="14.9375" x="239.10938 247.10938">be</tspan></text>
<text xml:space="preserve" transform="matrix(.75 0 0 .75 72 405.2417)" font-size="16" font-family="TimesNewRomanPSMT"><tspan y="14.9375" x="260.21095 266.43495 270.88294 283.33094 287.77894 292.22694 299.33094">similar</tspan></text>
<text xml:space="preserve" transform="matrix(.75 0 0 .75 72 405.2417)" font-size="16" font-family="TimesNewRomanPSMT"><tspan y="14.9375" x="310.64845 315.09645">to</tspan></text>
<text xml:space="preserve" transform="matrix(.75 0 0 .75 72 405.2417)" font-size="16" font-family="TimesNewRomanPSMT"><tspan y="14.9375" x="328.09376">a</tspan></text>
<text xml:space="preserve" transform="matrix(.75 0 0 .75 72 405.2417)" font-size="16" font-family="TimesNewRomanPSMT"><tspan y="14.9375" x="340.1953 347.29933 355.29933 363.29933 371.29933 378.40333 386.40333 390.85133 395.29933 403.29933 411.29933 418.40333">conventional</tspan></text>
<text xml:space="preserve" transform="matrix(.75 0 0 .75 72 405.2417)" font-size="16" font-family="TimesNewRomanPSMT"><tspan y="14.9375" x="427.83595 434.93995 442.93995 447.38795 451.83595 459.83595 467.83595 474.93995">cylinder</tspan></text>
<text xml:space="preserve" transform="matrix(.75 0 0 .75 72 405.2417)" font-size="16" font-family="TimesNewRomanPSMT"><tspan y="14.9375" x="485.2578 496.8098 501.2578 505.7058">with</tspan></text>
<text xml:space="preserve" transform="matrix(.75 0 0 .75 72 405.2417)" font-size="16" font-family="TimesNewRomanPSMT"><tspan y="14.9375" x="518.7031 524.9271 532.9271 545.3751">some</tspan></text>
<text xml:space="preserve" transform="matrix(.75 0 0 .75 72 405.2417)" font-size="16" font-family="TimesNewRomanPSMT"><tspan y="14.9375" x="557.47659 565.47659 573.47659 581.47659 588.58059 594.80459">bypass</tspan></text>
<text xml:space="preserve" transform="matrix(.75 0 0 .75 72 421.11036)" font-size="16" font-family="TimesNewRomanPSMT"><tspan y="14.9375" x="0 8 16 21.328 25.776">ports</tspan></text>
<text xml:space="preserve" transform="matrix(.75 0 0 .75 72 421.11036)" font-size="16" font-family="TimesNewRomanPSMT"><tspan y="14.9375" x="37 44.104">at</tspan></text>
<text xml:space="preserve" transform="matrix(.75 0 0 .75 72 421.11036)" font-size="16" font-family="TimesNewRomanPSMT"><tspan y="14.9375" x="53.546876 59.770875 67.770877 74.87488 81.97888 86.42688 91.75488 96.20288">specific</tspan></text>
<text xml:space="preserve" transform="matrix(.75 0 0 .75 72 421.11036)" font-size="16" font-family="TimesNewRomanPSMT"><tspan y="14.9375" x="107.296878 111.74487 119.74487 126.84888 133.95288 138.40088 142.84888 150.84888 158.84888 165.07288">locations.</tspan></text>
<text xml:space="preserve" transform="matrix(.75 0 0 .75 72 421.11036)" font-size="16" font-family="TimesNewRomanPSMT"><tspan y="14.9375" x="173.0625 182.8385 190.8385">The</tspan></text>
<text xml:space="preserve" transform="matrix(.75 0 0 .75 72 421.11036)" font-size="16" font-family="TimesNewRomanPSMT"><tspan y="14.9375" x="201.9375 209.9375 215.2655 222.3695 228.5935 235.69751 243.69751 248.14551 255.24951">presented</tspan></text>
<text xml:space="preserve" transform="matrix(.75 0 0 .75 72 421.11036)" font-size="16" font-family="TimesNewRomanPSMT"><tspan y="14.9375" x="267.2422 275.2422 282.3462 288.5702 293.0182 301.0182">design</tspan></text>
<text xml:space="preserve" transform="matrix(.75 0 0 .75 72 421.11036)" font-size="16" font-family="TimesNewRomanPSMT"><tspan y="14.9375" x="313.01564 321.01564 329.01564 336.11964">does</tspan></text>
<text xml:space="preserve" transform="matrix(.75 0 0 .75 72 421.11036)" font-size="16" font-family="TimesNewRomanPSMT"><tspan y="14.9375" x="346.34376 352.56776 360.56776 368.56776">show</tspan></text>
<text xml:space="preserve" transform="matrix(.75 0 0 .75 72 421.11036)" font-size="16" font-family="TimesNewRomanPSMT"><tspan y="14.9375" x="384.125">a</tspan></text>
<text xml:space="preserve" transform="matrix(.75 0 0 .75 72 421.11036)" font-size="16" font-family="TimesNewRomanPSMT"><tspan y="14.9375" x="395.22657 400.55458 407.65858">few</tspan></text>
<text xml:space="preserve" transform="matrix(.75 0 0 .75 72 421.11036)" font-size="16" font-family="TimesNewRomanPSMT"><tspan y="14.9375" x="423.21095 435.65895 440.10694 448.10694 456.10694">minor</tspan></text>
<text xml:space="preserve" transform="matrix(.75 0 0 .75 72 421.11036)" font-size="16" font-family="TimesNewRomanPSMT"><tspan y="14.9375" x="465.4297 477.8777 485.8777 493.8777 498.32569 503.6537 508.10169 515.2057 522.3097 526.7577 531.2057 539.2057 547.2057">modifications</tspan></text>
<text xml:space="preserve" transform="matrix(.75 0 0 .75 72 421.11036)" font-size="16" font-family="TimesNewRomanPSMT"><tspan y="14.9375" x="557.41409 561.86209">to</tspan></text>
<text xml:space="preserve" transform="matrix(.75 0 0 .75 72 421.11036)" font-size="16" font-family="TimesNewRomanPSMT"><tspan y="14.9375" x="573.8594 579.1874 583.6354">fit</tspan></text>
<text xml:space="preserve" transform="matrix(.75 0 0 .75 72 421.11036)" font-size="16" font-family="TimesNewRomanPSMT"><tspan y="14.9375" x="592.0781 596.5261">it</tspan></text>
<text xml:space="preserve" transform="matrix(.75 0 0 .75 72 436.979)" font-size="16" font-family="TimesNewRomanPSMT"><tspan y="14.9375" x="0 4.4480006 12.448 16.896">into</tspan></text>
<text xml:space="preserve" transform="matrix(.75 0 0 .75 72 436.979)" font-size="16" font-family="TimesNewRomanPSMT"><tspan y="14.9375" x="28.890625 33.338628 41.338628">the</tspan></text>
<text xml:space="preserve" transform="matrix(.75 0 0 .75 72 436.979)" font-size="16" font-family="TimesNewRomanPSMT"><tspan y="14.9375" x="52.4375 63.989503 71.9895 79.9895 84.4375">whole</tspan></text>
<text xml:space="preserve" transform="matrix(.75 0 0 .75 72 436.979)" font-size="16" font-family="TimesNewRomanPSMT"><tspan y="14.9375" x="95.53906 102.64307 107.97107 113.29907 120.403079 128.40308 136.40308 143.50708 155.95508 163.05908 171.05908 175.50708">arrangement.</tspan></text>
<text xml:space="preserve" transform="matrix(.75 0 0 .75 72 468.7163)" font-size="16" font-family="TimesNewRomanPSMT"><tspan y="14.9375" x="0 11.552001">An</tspan></text>
<text xml:space="preserve" transform="matrix(.75 0 0 .75 72 468.7163)" font-size="16" font-family="TimesNewRomanPSMT"><tspan y="14.9375" x="24.554688 31.658688 36.10669 40.55469 47.65869 52.98669 60.98669 68.09069 72.53869 76.98669 84.98669">alternative</tspan></text>
<text xml:space="preserve" transform="matrix(.75 0 0 .75 72 468.7163)" font-size="16" font-family="TimesNewRomanPSMT"><tspan y="14.9375" x="97.07031 104.17432 112.17432 120.17432 124.622318">could</tspan></text>
<text xml:space="preserve" transform="matrix(.75 0 0 .75 72 468.7163)" font-size="16" font-family="TimesNewRomanPSMT"><tspan y="14.9375" x="137.61719 145.61719">be</tspan></text>
<text xml:space="preserve" transform="matrix(.75 0 0 .75 72 468.7163)" font-size="16" font-family="TimesNewRomanPSMT"><tspan y="14.9375" x="157.71875 162.16675">to</tspan></text>
<text xml:space="preserve" transform="matrix(.75 0 0 .75 72 468.7163)" font-size="16" font-family="TimesNewRomanPSMT"><tspan y="14.9375" x="175.16407 180.49207 187.59607 195.59607 200.92407 205.37207 212.47608 219.58008 224.02808">fabricate</tspan></text>
<text xml:space="preserve" transform="matrix(.75 0 0 .75 72 468.7163)" font-size="16" font-family="TimesNewRomanPSMT"><tspan y="14.9375" x="236.11719 240.56519 248.56519">the</tspan></text>
<text xml:space="preserve" transform="matrix(.75 0 0 .75 72 468.7163)" font-size="16" font-family="TimesNewRomanPSMT"><tspan y="14.9375" x="260.66407 265.11207 273.11207 281.11207">tube</tspan></text>
<text xml:space="preserve" transform="matrix(.75 0 0 .75 72 468.7163)" font-size="16" font-family="TimesNewRomanPSMT"><tspan y="14.9375" x="293.21095 299.43495">so</tspan></text>
<text xml:space="preserve" transform="matrix(.75 0 0 .75 72 468.7163)" font-size="16" font-family="TimesNewRomanPSMT"><tspan y="14.9375" x="312.4375 316.8855 324.8855 331.9895">that</tspan></text>
<text xml:space="preserve" transform="matrix(.75 0 0 .75 72 468.7163)" font-size="16" font-family="TimesNewRomanPSMT"><tspan y="14.9375" x="341.4297 345.8777">it</tspan></text>
<text xml:space="preserve" transform="matrix(.75 0 0 .75 72 468.7163)" font-size="16" font-family="TimesNewRomanPSMT"><tspan y="14.9375" x="355.3203 359.7683 367.7683 374.8723 379.3203 387.3203 395.3203 402.42433">includes</tspan></text>
<text xml:space="preserve" transform="matrix(.75 0 0 .75 72 468.7163)" font-size="16" font-family="TimesNewRomanPSMT"><tspan y="14.9375" x="413.64064 418.08863 426.08863">the</tspan></text>
<text xml:space="preserve" transform="matrix(.75 0 0 .75 72 468.7163)" font-size="16" font-family="TimesNewRomanPSMT"><tspan y="14.9375" x="438.1875 446.1875 454.1875 462.1875 469.2915 475.5155">bypass</tspan></text>
<text xml:space="preserve" transform="matrix(.75 0 0 .75 72 468.7163)" font-size="16" font-family="TimesNewRomanPSMT"><tspan y="14.9375" x="486.7422 493.8462 501.8462 508.9502 516.9502 524.9502 532.0542 536.5022">channels</tspan></text>
<text xml:space="preserve" transform="matrix(.75 0 0 .75 72 468.7163)" font-size="16" font-family="TimesNewRomanPSMT"><tspan y="14.9375" x="547.71878 553.04678 560.15078 564.15078 572.15078 576.15078">(e.g.,</tspan></text>
<text xml:space="preserve" transform="matrix(.75 0 0 .75 72 468.7163)" font-size="16" font-family="TimesNewRomanPSMT"><tspan y="14.9375" x="585.14846 593.14846">by</tspan></text>
<text xml:space="preserve" transform="matrix(.75 0 0 .75 72 484.58497)" font-size="16" font-family="TimesNewRomanPSMT"><tspan y="14.9375" x="0 11.552001 18.656002 23.104002 31.104002 35.552003 43.552003">welding</tspan></text>
<text xml:space="preserve" transform="matrix(.75 0 0 .75 72 484.58497)" font-size="16" font-family="TimesNewRomanPSMT"><tspan y="14.9375" x="55.546876 59.994878 67.99487 75.09888">them</tspan></text>
<text xml:space="preserve" transform="matrix(.75 0 0 .75 72 484.58497)" font-size="16" font-family="TimesNewRomanPSMT"><tspan y="14.9375" x="91.53906 95.98706 103.98706 111.98706 119.98706 124.43506 128.88306 136.88306 144.88306 149.33106 157.33106 164.43506 168.88306 173.33106 180.27344">longitudinally,</tspan></text>
<text xml:space="preserve" transform="matrix(.75 0 0 .75 72 484.58497)" font-size="16" font-family="TimesNewRomanPSMT"><tspan y="14.9375" x="188.27344 194.49744 201.60144">see</tspan></text>
<text xml:space="preserve" transform="matrix(.75 0 0 .75 72 484.58497)" font-size="16" font-family="TimesNewRomanPS" font-style="italic"><tspan y="14.9375" x="212.70313 222.47913 226.92713 234.92713 242.92713 248.55469">Figure</tspan></text>
<text xml:space="preserve" transform="matrix(.75 0 0 .75 72 484.58497)" font-size="16" font-family="TimesNewRomanPS" font-style="italic"><tspan y="14.9375" x="259.65626 269.43226">A3</tspan></text>
<text xml:space="preserve" transform="matrix(.75 0 0 .75 72 484.58497)" font-size="16" font-family="TimesNewRomanPSMT"><tspan y="14.9375" x="281.4297 285.8777">in</tspan></text>
<text xml:space="preserve" transform="matrix(.75 0 0 .75 72 484.58497)" font-size="16" font-family="TimesNewRomanPSMT"><tspan y="14.9375" x="297.875 302.323 310.323">the</tspan></text>
<text xml:space="preserve" transform="matrix(.75 0 0 .75 72 484.58497)" font-size="16" font-family="TimesNewRomanPSMT"><tspan y="14.9375" x="321.42189 328.52589 336.52589 344.52589 351.62989 359.62989 367.62989 372.07789 380.07789 385.40589">appendix).</tspan></text>
<text xml:space="preserve" transform="matrix(.75 0 0 .75 72 516.32229)" font-size="16" font-family="TimesNewRomanPS" font-weight="bold"><tspan y="14.9375" x="0 10.672001 18.672 27.568 35.568 41.792">Bypass</tspan></text>
<text xml:space="preserve" transform="matrix(.75 0 0 .75 72 516.32229)" font-size="16" font-family="TimesNewRomanPS" font-weight="bold"><tspan y="14.9375" x="54.023439 62.919439 67.36744 74.47144 81.57545 89.57545 96.67945">Sleeve:</tspan></text>
<text xml:space="preserve" transform="matrix(.75 0 0 .75 72 516.32229)" font-size="16" font-family="TimesNewRomanPSMT"><tspan y="14.9375" x="108">A</tspan></text>
<text xml:space="preserve" transform="matrix(.75 0 0 .75 72 516.32229)" font-size="16" font-family="TimesNewRomanPSMT"><tspan y="14.9375" x="125.55469 130.00269 138.00269 146.00269">tube</tspan></text>
<text xml:space="preserve" transform="matrix(.75 0 0 .75 72 516.32229)" font-size="16" font-family="TimesNewRomanPSMT"><tspan y="14.9375" x="159.10157 167.10157">or</tspan></text>
<text xml:space="preserve" transform="matrix(.75 0 0 .75 72 516.32229)" font-size="16" font-family="TimesNewRomanPSMT"><tspan y="14.9375" x="178.42969 184.65369 191.75769 198.8617 203.3097 207.75769 215.75769">section</tspan></text>
<text xml:space="preserve" transform="matrix(.75 0 0 .75 72 516.32229)" font-size="16" font-family="TimesNewRomanPSMT"><tspan y="14.9375" x="229.75 237.75">of</tspan></text>
<text xml:space="preserve" transform="matrix(.75 0 0 .75 72 516.32229)" font-size="16" font-family="TimesNewRomanPSMT"><tspan y="14.9375" x="249.07813">a</tspan></text>
<text xml:space="preserve" transform="matrix(.75 0 0 .75 72 516.32229)" font-size="16" font-family="TimesNewRomanPSMT"><tspan y="14.9375" x="262.1797 266.6277 274.6277 282.6277">tube</tspan></text>
<text xml:space="preserve" transform="matrix(.75 0 0 .75 72 516.32229)" font-size="16" font-family="TimesNewRomanPSMT"><tspan y="14.9375" x="295.72657 307.27857 311.72657 316.17457">with</tspan></text>
<text xml:space="preserve" transform="matrix(.75 0 0 .75 72 516.32229)" font-size="16" font-family="TimesNewRomanPSMT"><tspan y="14.9375" x="330.17189 335.49989 339.94789 347.94789">ribs</tspan></text>
<text xml:space="preserve" transform="matrix(.75 0 0 .75 72 516.32229)" font-size="16" font-family="TimesNewRomanPSMT"><tspan y="14.9375" x="360.17189 364.61988 372.61988 378.84388 383.29188 391.29188">inside</tspan></text>
<text xml:space="preserve" transform="matrix(.75 0 0 .75 72 516.32229)" font-size="16" font-family="TimesNewRomanPSMT"><tspan y="14.9375" x="404.39064 408.83863 416.83863 423.94264">that</tspan></text>
<text xml:space="preserve" transform="matrix(.75 0 0 .75 72 516.32229)" font-size="16" font-family="TimesNewRomanPSMT"><tspan y="14.9375" x="434.3828 445.9348 453.9348 461.03883">when</tspan></text>
<text xml:space="preserve" transform="matrix(.75 0 0 .75 72 516.32229)" font-size="16" font-family="TimesNewRomanPSMT"><tspan y="14.9375" x="475.03907 483.03907 488.36708 495.47108 501.69508 507.91908 515.0231">pressed</tspan></text>
<text xml:space="preserve" transform="matrix(.75 0 0 .75 72 516.32229)" font-size="16" font-family="TimesNewRomanPSMT"><tspan y="14.9375" x="529.02346 537.02346">or</tspan></text>
<text xml:space="preserve" transform="matrix(.75 0 0 .75 72 516.32229)" font-size="16" font-family="TimesNewRomanPSMT"><tspan y="14.9375" x="548.35159 555.45559 559.90359 564.35159 571.45559 578.5596 586.5596 593.6636">attached</tspan></text>
<text xml:space="preserve" transform="matrix(.75 0 0 .75 72 532.1909)" font-size="16" font-family="TimesNewRomanPSMT"><tspan y="14.9375" x="0 8 16 23.104">over</tspan></text>
<text xml:space="preserve" transform="matrix(.75 0 0 .75 72 532.1909)" font-size="16" font-family="TimesNewRomanPSMT"><tspan y="14.9375" x="36.429689 40.87769 48.87769">the</tspan></text>
<text xml:space="preserve" transform="matrix(.75 0 0 .75 72 532.1909)" font-size="16" font-family="TimesNewRomanPSMT"><tspan y="14.9375" x="63.976564 68.42456 76.42456 84.42456 91.528568">inner</tspan></text>
<text xml:space="preserve" transform="matrix(.75 0 0 .75 72 532.1909)" font-size="16" font-family="TimesNewRomanPSMT"><tspan y="14.9375" x="103.85156 108.29956 116.29956 124.29956">tube</tspan></text>
<text xml:space="preserve" transform="matrix(.75 0 0 .75 72 532.1909)" font-size="16" font-family="TimesNewRomanPSMT"><tspan y="14.9375" x="138.39844 150.84644 157.95044 165.95044 173.05445">makes</tspan></text>
<text xml:space="preserve" transform="matrix(.75 0 0 .75 72 532.1909)" font-size="16" font-family="TimesNewRomanPSMT"><tspan y="14.9375" x="186.27344">a</tspan></text>
<text xml:space="preserve" transform="matrix(.75 0 0 .75 72 532.1909)" font-size="16" font-family="TimesNewRomanPSMT"><tspan y="14.9375" x="200.375 206.599 213.703 219.031 223.479 230.58301">series</tspan></text>
<text xml:space="preserve" transform="matrix(.75 0 0 .75 72 532.1909)" font-size="16" font-family="TimesNewRomanPSMT"><tspan y="14.9375" x="243.80469 251.80469">of</tspan></text>
<text xml:space="preserve" transform="matrix(.75 0 0 .75 72 532.1909)" font-size="16" font-family="TimesNewRomanPSMT"><tspan y="14.9375" x="264.1328 268.5808 276.5808 284.5808 292.5808 297.0288 301.4768 309.4768 317.4768 321.9248 329.9248 337.0288">longitudinal</tspan></text>
<text xml:space="preserve" transform="matrix(.75 0 0 .75 72 532.1909)" font-size="16" font-family="TimesNewRomanPSMT"><tspan y="14.9375" x="348.46095 355.56495 363.56495 370.66896 378.66896 386.66896 393.77296 398.22096">channels</tspan></text>
<text xml:space="preserve" transform="matrix(.75 0 0 .75 72 532.1909)" font-size="16" font-family="TimesNewRomanPSMT"><tspan y="14.9375" x="411.4375 416.7655 424.7655 432.7655 440.7655 447.8695 454.0935">(bypass</tspan></text>
<text xml:space="preserve" transform="matrix(.75 0 0 .75 72 532.1909)" font-size="16" font-family="TimesNewRomanPSMT"><tspan y="14.9375" x="467.3203 474.42433 482.42433 489.52833 497.52833 505.52833 512.6323 517.0803 523.3043">channels)</tspan></text>
<text xml:space="preserve" transform="matrix(.75 0 0 .75 72 532.1909)" font-size="16" font-family="TimesNewRomanPSMT"><tspan y="14.9375" x="535.625 542.729 547.177 555.177 563.177">along</tspan></text>
<text xml:space="preserve" transform="matrix(.75 0 0 .75 72 532.1909)" font-size="16" font-family="TimesNewRomanPSMT"><tspan y="14.9375" x="578.1719 585.2759 593.2759">and</tspan></text>
<text xml:space="preserve" transform="matrix(.75 0 0 .75 72 548.0596)" font-size="16" font-family="TimesNewRomanPSMT"><tspan y="14.9375" x="0 7.1040008 12.432001 20.432002 28.432002 36.432">around</tspan></text>
<text xml:space="preserve" transform="matrix(.75 0 0 .75 72 548.0596)" font-size="16" font-family="TimesNewRomanPSMT"><tspan y="14.9375" x="48.429689 52.87769 60.87769">the</tspan></text>
<text xml:space="preserve" transform="matrix(.75 0 0 .75 72 548.0596)" font-size="16" font-family="TimesNewRomanPSMT"><tspan y="14.9375" x="71.97656 79.97656 87.97656 92.42456 98.64856 103.09656 111.09656">outside</tspan></text>
<text xml:space="preserve" transform="matrix(.75 0 0 .75 72 548.0596)" font-size="16" font-family="TimesNewRomanPSMT"><tspan y="14.9375" x="122.19531 130.19532">of</tspan></text>
<text xml:space="preserve" transform="matrix(.75 0 0 .75 72 548.0596)" font-size="16" font-family="TimesNewRomanPSMT"><tspan y="14.9375" x="139.52344 143.97144 151.97144">the</tspan></text>
<text xml:space="preserve" transform="matrix(.75 0 0 .75 72 548.0596)" font-size="16" font-family="TimesNewRomanPSMT"><tspan y="14.9375" x="163.07032 171.07032 175.51831 181.74231 186.1903 194.1903">piston</tspan></text>
<text xml:space="preserve" transform="matrix(.75 0 0 .75 72 548.0596)" font-size="16" font-family="TimesNewRomanPSMT"><tspan y="14.9375" x="206.1875 213.2915 221.2915 225.7395 230.1875 238.1875 246.1875 253.2915 257.72657">cylinder.</tspan></text>
<text xml:space="preserve" transform="matrix(.75 0 0 .75 72 579.7969)" font-size="16" font-family="TimesNewRomanPS" font-weight="bold"><tspan y="14.9375" x="0 10.672001 18.672 27.568 35.568 41.792">Bypass</tspan></text>
<text xml:space="preserve" transform="matrix(.75 0 0 .75 72 579.7969)" font-size="16" font-family="TimesNewRomanPS" font-weight="bold"><tspan y="14.9375" x="54.023439 65.57544 74.47144 79.799449 88.69545 94.91945 100.24745 107.351459 114.45546">Adjuster:</tspan></text>
<text xml:space="preserve" transform="matrix(.75 0 0 .75 72 579.7969)" font-size="16" font-family="TimesNewRomanPSMT"><tspan y="14.9375" x="125.78906">A</tspan></text>
<text xml:space="preserve" transform="matrix(.75 0 0 .75 72 579.7969)" font-size="16" font-family="TimesNewRomanPSMT"><tspan y="14.9375" x="143.34375 151.34375 158.44776 163.77576">part</tspan></text>
<text xml:space="preserve" transform="matrix(.75 0 0 .75 72 579.7969)" font-size="16" font-family="TimesNewRomanPSMT"><tspan y="14.9375" x="174.21875 178.66675 186.66675 193.77075">that</tspan></text>
<text xml:space="preserve" transform="matrix(.75 0 0 .75 72 579.7969)" font-size="16" font-family="TimesNewRomanPSMT"><tspan y="14.9375" x="204.21094 208.65894 213.10694 220.21094">lies</tspan></text>
<text xml:space="preserve" transform="matrix(.75 0 0 .75 72 579.7969)" font-size="16" font-family="TimesNewRomanPSMT"><tspan y="14.9375" x="231.42969 235.87769 243.87769 250.10169 254.54969 262.54969">inside</tspan></text>
<text xml:space="preserve" transform="matrix(.75 0 0 .75 72 579.7969)" font-size="16" font-family="TimesNewRomanPSMT"><tspan y="14.9375" x="274.64845 279.09645 287.09645">the</tspan></text>
<text xml:space="preserve" transform="matrix(.75 0 0 .75 72 579.7969)" font-size="16" font-family="TimesNewRomanPSMT"><tspan y="14.9375" x="299.1953 303.6433 311.6433 319.6433 326.7473">inner</tspan></text>
<text xml:space="preserve" transform="matrix(.75 0 0 .75 72 579.7969)" font-size="16" font-family="TimesNewRomanPSMT"><tspan y="14.9375" x="337.0703 341.5183 349.5183 357.5183">tube</tspan></text>
<text xml:space="preserve" transform="matrix(.75 0 0 .75 72 579.7969)" font-size="16" font-family="TimesNewRomanPSMT"><tspan y="14.9375" x="369.6172 376.7212 384.7212">and</tspan></text>
<text xml:space="preserve" transform="matrix(.75 0 0 .75 72 579.7969)" font-size="16" font-family="TimesNewRomanPSMT"><tspan y="14.9375" x="397.71876 404.82276 410.15077 417.25477 424.35877 428.80677 435.91078">creates</tspan></text>
<text xml:space="preserve" transform="matrix(.75 0 0 .75 72 579.7969)" font-size="16" font-family="TimesNewRomanPSMT"><tspan y="14.9375" x="447.125">a</tspan></text>
<text xml:space="preserve" transform="matrix(.75 0 0 .75 72 579.7969)" font-size="16" font-family="TimesNewRomanPSMT"><tspan y="14.9375" x="459.22657 466.33058 474.33058 481.43458 493.88258 501.88258 508.98658">chamber</tspan></text>
<text xml:space="preserve" transform="matrix(.75 0 0 .75 72 579.7969)" font-size="16" font-family="TimesNewRomanPSMT"><tspan y="14.9375" x="519.3047 527.3047 534.4087 538.8567 550.4087 557.5127 564.6167">between</tspan></text>
<text xml:space="preserve" transform="matrix(.75 0 0 .75 72 579.7969)" font-size="16" font-family="TimesNewRomanPSMT"><tspan y="14.9375" x="577.6094 582.0574 593.6094">two</tspan></text>
<text xml:space="preserve" transform="matrix(.75 0 0 .75 72 595.6655)" font-size="16" font-family="TimesNewRomanPSMT"><tspan y="14.9375" x="0 6.2240006 13.328001 20.432002 24.880002">seals</tspan></text>
<text xml:space="preserve" transform="matrix(.75 0 0 .75 72 595.6655)" font-size="16" font-family="TimesNewRomanPSMT"><tspan y="14.9375" x="36.101564 40.549566 48.549566 53.877565 61.877565 69.87756 77.87756">through</tspan></text>
<text xml:space="preserve" transform="matrix(.75 0 0 .75 72 595.6655)" font-size="16" font-family="TimesNewRomanPSMT"><tspan y="14.9375" x="90.875 102.427 110.427 114.875 121.979007">which</tspan></text>
<text xml:space="preserve" transform="matrix(.75 0 0 .75 72 595.6655)" font-size="16" font-family="TimesNewRomanPSMT"><tspan y="14.9375" x="134.97657 139.42456 147.42456">the</tspan></text>
<text xml:space="preserve" transform="matrix(.75 0 0 .75 72 595.6655)" font-size="16" font-family="TimesNewRomanPSMT"><tspan y="14.9375" x="159.52344 167.52344 171.97144">oil</tspan></text>
<text xml:space="preserve" transform="matrix(.75 0 0 .75 72 595.6655)" font-size="16" font-family="TimesNewRomanPSMT"><tspan y="14.9375" x="181.41407 185.86206 193.86206 200.96607">that</tspan></text>
<text xml:space="preserve" transform="matrix(.75 0 0 .75 72 595.6655)" font-size="16" font-family="TimesNewRomanPSMT"><tspan y="14.9375" x="210.40625 214.85425">is</tspan></text>
<text xml:space="preserve" transform="matrix(.75 0 0 .75 72 595.6655)" font-size="16" font-family="TimesNewRomanPSMT"><tspan y="14.9375" x="226.07813 234.07813 242.07813 250.07813 257.18214 263.40614 269.63014 276.73414">bypassed</tspan></text>
<text xml:space="preserve" transform="matrix(.75 0 0 .75 72 595.6655)" font-size="16" font-family="TimesNewRomanPSMT"><tspan y="14.9375" x="289.73439 296.83839 303.94239">can</tspan></text>
<text xml:space="preserve" transform="matrix(.75 0 0 .75 72 595.6655)" font-size="16" font-family="TimesNewRomanPSMT"><tspan y="14.9375" x="316.9375 322.2655 326.7135 334.7135 345.22657">flow,</tspan></text>
<text xml:space="preserve" transform="matrix(.75 0 0 .75 72 595.6655)" font-size="16" font-family="TimesNewRomanPSMT"><tspan y="14.9375" x="354.22657 365.77857 370.22657 374.67457">with</tspan></text>
<text xml:space="preserve" transform="matrix(.75 0 0 .75 72 595.6655)" font-size="16" font-family="TimesNewRomanPSMT"><tspan y="14.9375" x="387.67189">a</tspan></text>
<text xml:space="preserve" transform="matrix(.75 0 0 .75 72 595.6655)" font-size="16" font-family="TimesNewRomanPSMT"><tspan y="14.9375" x="399.77345 407.77345 414.87745 422.87745 435.32545 442.42945 446.87745 452.20545">geometry</tspan></text>
<text xml:space="preserve" transform="matrix(.75 0 0 .75 72 595.6655)" font-size="16" font-family="TimesNewRomanPSMT"><tspan y="14.9375" x="464.1953 470.4193">so</tspan></text>
<text xml:space="preserve" transform="matrix(.75 0 0 .75 72 595.6655)" font-size="16" font-family="TimesNewRomanPSMT"><tspan y="14.9375" x="482.42189 486.86988 494.86988 501.97389">that</tspan></text>
<text xml:space="preserve" transform="matrix(.75 0 0 .75 72 595.6655)" font-size="16" font-family="TimesNewRomanPSMT"><tspan y="14.9375" x="510.41407 514.86209 522.86209">the</tspan></text>
<text xml:space="preserve" transform="matrix(.75 0 0 .75 72 595.6655)" font-size="16" font-family="TimesNewRomanPSMT"><tspan y="14.9375" x="533.96096 541.06497 546.39297 553.49697">area</tspan></text>
<text xml:space="preserve" transform="matrix(.75 0 0 .75 72 595.6655)" font-size="16" font-family="TimesNewRomanPSMT"><tspan y="14.9375" x="564.59378 572.59378">of</tspan></text>
<text xml:space="preserve" transform="matrix(.75 0 0 .75 72 595.6655)" font-size="16" font-family="TimesNewRomanPSMT"><tspan y="14.9375" x="581.9219 586.3699 594.3699">the</tspan></text>
<text xml:space="preserve" transform="matrix(.75 0 0 .75 72 611.5342)" font-size="16" font-family="TimesNewRomanPSMT"><tspan y="14.9375" x="0 8 16 24 31.104">upper</tspan></text>
<text xml:space="preserve" transform="matrix(.75 0 0 .75 72 611.5342)" font-size="16" font-family="TimesNewRomanPSMT"><tspan y="14.9375" x="40.429689 48.429689 56.429689 64.42969 71.53369 77.75769">bypass</tspan></text>
<text xml:space="preserve" transform="matrix(.75 0 0 .75 72 611.5342)" font-size="16" font-family="TimesNewRomanPSMT"><tspan y="14.9375" x="87.984378 95.984378 103.984378 109.31238 113.760379">ports</tspan></text>
<text xml:space="preserve" transform="matrix(.75 0 0 .75 72 611.5342)" font-size="16" font-family="TimesNewRomanPSMT"><tspan y="14.9375" x="123.984378 131.08838 138.19239">can</tspan></text>
<text xml:space="preserve" transform="matrix(.75 0 0 .75 72 611.5342)" font-size="16" font-family="TimesNewRomanPSMT"><tspan y="14.9375" x="150.1875 158.1875">be</tspan></text>
<text xml:space="preserve" transform="matrix(.75 0 0 .75 72 611.5342)" font-size="16" font-family="TimesNewRomanPSMT"><tspan y="14.9375" x="169.28907 176.39307 180.84107 185.28907 192.39307 197.72107 204.82508">altered</tspan></text>
<text xml:space="preserve" transform="matrix(.75 0 0 .75 72 611.5342)" font-size="16" font-family="TimesNewRomanPSMT"><tspan y="14.9375" x="216.8125 224.8125">by</tspan></text>
<text xml:space="preserve" transform="matrix(.75 0 0 .75 72 611.5342)" font-size="16" font-family="TimesNewRomanPSMT"><tspan y="14.9375" x="236.8125 243.0365 247.4845 251.9325 259.9325 264.3805 272.3805">sliding</tspan></text>
<text xml:space="preserve" transform="matrix(.75 0 0 .75 72 611.5342)" font-size="16" font-family="TimesNewRomanPSMT"><tspan y="14.9375" x="284.375 288.823">it</tspan></text>
<text xml:space="preserve" transform="matrix(.75 0 0 .75 72 611.5342)" font-size="16" font-family="TimesNewRomanPSMT"><tspan y="14.9375" x="297.26564 305.26564 312.36964 317.69764 322.14564 326.59364 333.69764 340.80165 345.24964 349.69764 356.64064">vertically.</tspan></text>
<text xml:space="preserve" transform="matrix(.75 0 0 .75 72 643.2715)" font-size="16" font-family="TimesNewRomanPS" font-weight="bold"><tspan y="14.9375" x="0 10.672001 18.672 27.568 35.568 41.792">Bypass</tspan></text>
<text xml:space="preserve" transform="matrix(.75 0 0 .75 72 643.2715)" font-size="16" font-family="TimesNewRomanPS" font-weight="bold"><tspan y="14.9375" x="54.023439 65.57544 74.47144 79.799449 88.69545 94.91945 100.24745 107.351459">Adjuster</tspan></text>
<text xml:space="preserve" transform="matrix(.75 0 0 .75 72 643.2715)" font-size="16" font-family="TimesNewRomanPS" font-weight="bold"><tspan y="14.9375" x="120.46094 132.01294 136.46094 144.46094">Dial</tspan></text>
<text xml:space="preserve" transform="matrix(.75 0 0 .75 72 643.2715)" font-size="16" font-family="TimesNewRomanPS" font-weight="bold"><tspan y="14.9375" x="154.90625 162.90625 171.80225">and</tspan></text>
<text xml:space="preserve" transform="matrix(.75 0 0 .75 72 643.2715)" font-size="16" font-family="TimesNewRomanPS" font-weight="bold"><tspan y="14.9375" x="186.70313 191.15113 196.47913">its</tspan></text>
<text xml:space="preserve" transform="matrix(.75 0 0 .75 72 643.2715)" font-size="16" font-family="TimesNewRomanPS" font-weight="bold"><tspan y="14.9375" x="208.70313 213.15113 222.04712 227.37512 234.47913 241.58313 246.91114 254.91114 262.01515">interface</tspan></text>
<text xml:space="preserve" transform="matrix(.75 0 0 .75 72 643.2715)" font-size="16" font-family="TimesNewRomanPS" font-weight="bold"><tspan y="14.9375" x="275.10939 286.66139 291.10939 296.43739">with</tspan></text>
<text xml:space="preserve" transform="matrix(.75 0 0 .75 72 643.2715)" font-size="16" font-family="TimesNewRomanPS" font-weight="bold"><tspan y="14.9375" x="311.33595 316.66395 325.55995">the</tspan></text>
<text xml:space="preserve" transform="matrix(.75 0 0 .75 72 643.2715)" font-size="16" font-family="TimesNewRomanPS" font-weight="bold"><tspan y="14.9375" x="338.66407 349.33607 357.33607 366.23207 374.23207 380.45606">Bypass</tspan></text>
<text xml:space="preserve" transform="matrix(.75 0 0 .75 72 643.2715)" font-size="16" font-family="TimesNewRomanPS" font-weight="bold"><tspan y="14.9375" x="392.6875 404.2395 413.1355 418.4635 427.3595 433.5835 438.9115 446.0155 453.1195">Adjuster:</tspan></text>
<text xml:space="preserve" transform="matrix(.75 0 0 .75 72 643.2715)" font-size="16" font-family="TimesNewRomanPSMT"><tspan y="14.9375" x="464.45314 474.22914 482.22914">The</tspan></text>
<text xml:space="preserve" transform="matrix(.75 0 0 .75 72 643.2715)" font-size="16" font-family="TimesNewRomanPSMT"><tspan y="14.9375" x="495.32814 507.77613 514.8801 521.98416 529.98416 537.08816 545.08816 549.53616 555.76016">mechanism</tspan></text>
<text xml:space="preserve" transform="matrix(.75 0 0 .75 72 643.2715)" font-size="16" font-family="TimesNewRomanPSMT"><tspan y="14.9375" x="573.1953 584.7473 589.1953 593.6433">with</tspan></text>
<text xml:space="preserve" transform="matrix(.75 0 0 .75 72 659.14016)" font-size="16" font-family="TimesNewRomanPSMT"><tspan y="14.9375" x="0 11.552001 19.552002 24.000002 31.104002">which</tspan></text>
<text xml:space="preserve" transform="matrix(.75 0 0 .75 72 659.14016)" font-size="16" font-family="TimesNewRomanPSMT"><tspan y="14.9375" x="46.101564 50.549566 58.549566">the</tspan></text>
<text xml:space="preserve" transform="matrix(.75 0 0 .75 72 659.14016)" font-size="16" font-family="TimesNewRomanPSMT"><tspan y="14.9375" x="72.64844 80.64844 88.64844 96.64844 103.75244 109.97644">bypass</tspan></text>
<text xml:space="preserve" transform="matrix(.75 0 0 .75 72 659.14016)" font-size="16" font-family="TimesNewRomanPSMT"><tspan y="14.9375" x="123.203128 130.30713 138.30713 142.75513 150.75513 156.97913 161.42713 168.53113">adjuster</tspan></text>
<text xml:space="preserve" transform="matrix(.75 0 0 .75 72 659.14016)" font-size="16" font-family="TimesNewRomanPSMT"><tspan y="14.9375" x="180.85157 187.95557 195.05957">can</tspan></text>
<text xml:space="preserve" transform="matrix(.75 0 0 .75 72 659.14016)" font-size="16" font-family="TimesNewRomanPSMT"><tspan y="14.9375" x="210.05469 218.05469">be</tspan></text>
<text xml:space="preserve" transform="matrix(.75 0 0 .75 72 659.14016)" font-size="16" font-family="TimesNewRomanPSMT"><tspan y="14.9375" x="232.15625 239.26026 247.26026 251.70825 258.81227 264.14027 272.14027 279.24427 283.69227 288.14027">externally</tspan></text>
<text xml:space="preserve" transform="matrix(.75 0 0 .75 72 659.14016)" font-size="16" font-family="TimesNewRomanPSMT"><tspan y="14.9375" x="302.125 309.229 317.229 321.677 329.677 335.901 340.349 347.453 355.453">adjusted,</tspan></text>
<text xml:space="preserve" transform="matrix(.75 0 0 .75 72 659.14016)" font-size="16" font-family="TimesNewRomanPSMT"><tspan y="14.9375" x="365.4453 377.8933 384.9973 392.9973 397.4453 405.4453">making</tspan></text>
<text xml:space="preserve" transform="matrix(.75 0 0 .75 72 659.14016)" font-size="16" font-family="TimesNewRomanPSMT"><tspan y="14.9375" x="419.4375 423.8855">it</tspan></text>
<text xml:space="preserve" transform="matrix(.75 0 0 .75 72 659.14016)" font-size="16" font-family="TimesNewRomanPSMT"><tspan y="14.9375" x="434.32814 440.55213 445.00013 449.44813 457.44813">slide</tspan></text>
<text xml:space="preserve" transform="matrix(.75 0 0 .75 72 659.14016)" font-size="16" font-family="TimesNewRomanPSMT"><tspan y="14.9375" x="470.54689 478.54689 485.65089 490.97889 495.42689 499.87489 506.97889 514.0829 518.5309 522.9789">vertically</tspan></text>
<text xml:space="preserve" transform="matrix(.75 0 0 .75 72 659.14016)" font-size="16" font-family="TimesNewRomanPSMT"><tspan y="14.9375" x="536.96096 541.40896 549.40896 555.63296 560.08096 568.08096">inside</tspan></text>
<text xml:space="preserve" transform="matrix(.75 0 0 .75 72 659.14016)" font-size="16" font-family="TimesNewRomanPSMT"><tspan y="14.9375" x="581.1797 585.6277 593.6277">the</tspan></text>
<text xml:space="preserve" transform="matrix(.75 0 0 .75 72 675.0088)" font-size="16" font-family="TimesNewRomanPSMT"><tspan y="14.9375" x="0 4.4480006 12.448 20.448 27.552">inner</tspan></text>
<text xml:space="preserve" transform="matrix(.75 0 0 .75 72 675.0088)" font-size="16" font-family="TimesNewRomanPSMT"><tspan y="14.9375" x="36.875 41.323 49.323 57.323">tube</tspan></text>
<text xml:space="preserve" transform="matrix(.75 0 0 .75 72 675.0088)" font-size="16" font-family="TimesNewRomanPSMT"><tspan y="14.9375" x="68.421878 73.74988 79.97388 87.07788">(see</tspan></text>
<text xml:space="preserve" transform="matrix(.75 0 0 .75 72 675.0088)" font-size="16" font-family="TimesNewRomanPS" font-style="italic"><tspan y="14.9375" x="98.17969 107.95569 112.40369 120.40369 128.40369 134.03125">Figure</tspan></text>
<text xml:space="preserve" transform="matrix(.75 0 0 .75 72 675.0088)" font-size="16" font-family="TimesNewRomanPS" font-style="italic"><tspan y="14.9375" x="145.13282 154.90882">A2</tspan></text>
<text xml:space="preserve" transform="matrix(.75 0 0 .75 72 675.0088)" font-size="16" font-family="TimesNewRomanPSMT"><tspan y="14.9375" x="166.90625 171.35425">in</tspan></text>
<text xml:space="preserve" transform="matrix(.75 0 0 .75 72 675.0088)" font-size="16" font-family="TimesNewRomanPSMT"><tspan y="14.9375" x="183.35157 187.79956 195.79956">the</tspan></text>
<text xml:space="preserve" transform="matrix(.75 0 0 .75 72 675.0088)" font-size="16" font-family="TimesNewRomanPSMT"><tspan y="14.9375" x="206.89844 214.00244 222.00244 230.00244 237.10645 245.10645 253.10645 257.55445">appendix</tspan></text>
<text xml:space="preserve" transform="matrix(.75 0 0 .75 72 675.0088)" font-size="16" font-family="TimesNewRomanPSMT"><tspan y="14.9375" x="269.54689 274.87489 282.87489">for</tspan></text>
<text xml:space="preserve" transform="matrix(.75 0 0 .75 72 675.0088)" font-size="16" font-family="TimesNewRomanPSMT"><tspan y="14.9375" x="292.20314 299.30714">an</tspan></text>
<text xml:space="preserve" transform="matrix(.75 0 0 .75 72 675.0088)" font-size="16" font-family="TimesNewRomanPSMT"><tspan y="14.9375" x="311.3047 318.4087 326.4087 333.5127 345.9607 353.9607 358.4087">example</tspan></text>
<text xml:space="preserve" transform="matrix(.75 0 0 .75 72 675.0088)" font-size="16" font-family="TimesNewRomanPSMT"><tspan y="14.9375" x="369.5 377.5">of</tspan></text>
<text xml:space="preserve" transform="matrix(.75 0 0 .75 72 675.0088)" font-size="16" font-family="TimesNewRomanPSMT"><tspan y="14.9375" x="386.82814 391.27613 403.72413 411.72413 416.17213 423.27613 435.72413 442.82814 450.82814 455.27613 462.38014 466.82814 471.27613 479.27613 487.27613 492.60414">implementation).</tspan></text>
<g clip-path="url(#clip_13)">
<text xml:space="preserve" transform="matrix(.75 0 0 .75 72 791.7041)" font-size="14.666667" font-family="ArialMT"><tspan y="13.757161" x="296.77485">9</tspan></text>
</g>
</svg>
