<svg xmlns="http://www.w3.org/2000/svg" xmlns:xlink="http://www.w3.org/1999/xlink" version="1.1" width="596" height="842" viewBox="0 0 596 842">
<path transform="matrix(.75,0,0,.75,0,0)" d="M0 0H794V1123H0Z" fill="#ffffff"/>
<path transform="matrix(.75,0,0,.75,72,242.08713)" d="M293.48713 0H308.21369V18.757813H293.48713Z" fill="#ffffff"/>
<text xml:space="preserve" transform="matrix(.75 0 0 .75 72 101.09253)" font-size="29.333334" font-family="Cambria" font-weight="bold"><tspan y="27.872397" x="94.40801">A</tspan></text>
<text xml:space="preserve" transform="matrix(.75 0 0 .75 72 101.09253)" font-size="29.333334" font-family="Cambria" font-weight="bold"><tspan y="27.872397" x="119.984218 139.90387 155.97122 170.70674 186.273">Novel</tspan></text>
<text xml:space="preserve" transform="matrix(.75 0 0 .75 72 101.09253)" font-size="29.333334" font-family="Cambria" font-weight="bold"><tspan y="27.872397" x="201.76764 218.37924 235.0768 252.77678 266.33815 281.9044 299.4182">Concept</tspan></text>
<text xml:space="preserve" transform="matrix(.75 0 0 .75 72 101.09253)" font-size="29.333334" font-family="Cambria" font-weight="bold"><tspan y="27.872397" x="316.58836 326.15437 342.85194">for</tspan></text>
<text xml:space="preserve" transform="matrix(.75 0 0 .75 72 101.09253)" font-size="29.333334" font-family="Cambria" font-weight="bold"><tspan y="27.872397" x="362.84318 381.5885 399.10234 407.96665 425.48048 438.94163 449.65327 465.3484 482.69038 491.72654">Adjustable</tspan></text>
<text xml:space="preserve" transform="matrix(.75 0 0 .75 72 130.75331)" font-size="29.333334" font-family="Cambria" font-weight="bold"><tspan y="27.872397" x="121.251499 131.50489 149.20487 159.51546 175.08171 188.61447 206.31446 222.00959">Internal</tspan></text>
<text xml:space="preserve" transform="matrix(.75 0 0 .75 72 130.75331)" font-size="29.333334" font-family="Cambria" font-weight="bold"><tspan y="27.872397" x="237.50424 252.55496 263.2666 276.3697 293.06727 309.92225">Stroke</tspan></text>
<text xml:space="preserve" transform="matrix(.75 0 0 .75 72 130.75331)" font-size="29.333334" font-family="Cambria" font-weight="bold"><tspan y="27.872397" x="331.94697 352.61128 368.17753 385.69136 401.2576 418.95759 436.4714 452.03767 469.73765">Dependent</tspan></text>
<text xml:space="preserve" transform="matrix(.75 0 0 .75 72 160.41411)" font-size="29.333334" font-family="Cambria" font-weight="bold"><tspan y="27.872397" x="106.60167 127.265979 142.9611 169.06716 186.58098 195.8033 213.50328">Damping</tspan></text>
<text xml:space="preserve" transform="matrix(.75 0 0 .75 72 160.41411)" font-size="29.333334" font-family="Cambria" font-weight="bold"><tspan y="27.872397" x="235.21298 244.4353">in</tspan></text>
<text xml:space="preserve" transform="matrix(.75 0 0 .75 72 160.41411)" font-size="29.333334" font-family="Cambria" font-weight="bold"><tspan y="27.872397" x="268.59379 283.6445 301.14399 317.84156 331.5891">Shock</tspan></text>
<text xml:space="preserve" transform="matrix(.75 0 0 .75 72 160.41411)" font-size="29.333334" font-family="Cambria" font-weight="bold"><tspan y="27.872397" x="355.4039 374.30677 391.64875 405.1099 421.80744 435.19697 452.53895 468.1052 481.63795">Absorbers</tspan></text>
<text xml:space="preserve" transform="matrix(.75 0 0 .75 72 219.16742)" font-size="22.666666" font-family="Cambria"><tspan y="21.53776" x="235.19423 242.14156 254.16663 263.90174">Jos&#x00e9;</tspan></text>
<text xml:space="preserve" transform="matrix(.75 0 0 .75 72 219.16742)" font-size="22.666666" font-family="Cambria"><tspan y="21.53776" x="279.94255 294.05845">A.</tspan></text>
<text xml:space="preserve" transform="matrix(.75 0 0 .75 72 219.16742)" font-size="22.666666" font-family="Cambria"><tspan y="21.53776" x="303.69398 315.28675 327.31184 336.6819 345.7199 356.77149">Torres</tspan></text>
<text xml:space="preserve" transform="matrix(.75 0 0 .75 72 242.08713)" font-size="16" font-family="Cambria"><tspan y="15.203125" x="293.48713">[</tspan></text>
<text xml:space="preserve" transform="matrix(.75 0 0 .75 72 242.08713)" font-size="16" font-family="Cambria"><tspan y="15.203125" x="302.61213">]</tspan></text>
<text xml:space="preserve" transform="matrix(.75 0 0 .75 72 303.22694)" font-size="22.666666" font-family="Cambria"><tspan y="21.53776" x="0 14.115906 27.966309 38.929246 52.35927 66.43092 80.181598 92.925739">ABSTRACT</tspan></text>
<text xml:space="preserve" transform="matrix(.75 0 0 .75 72 349.06636)" font-size="16" font-family="TimesNewRomanPSMT"><tspan y="14.9375" x="0 11.552001 19.552002 27.552002 32.88 39.984 47.984 52.432004 56.880006">Hydraulic</tspan></text>
<text xml:space="preserve" transform="matrix(.75 0 0 .75 72 349.06636)" font-size="16" font-family="TimesNewRomanPSMT"><tspan y="14.9375" x="69.97656 77.97656 85.08057 97.528568 105.528568 112.63257 117.96057">dampers</tspan></text>
<text xml:space="preserve" transform="matrix(.75 0 0 .75 72 349.06636)" font-size="16" font-family="TimesNewRomanPSMT"><tspan y="14.9375" x="130.17969 135.50769 143.50769 151.50769 159.50769">found</tspan></text>
<text xml:space="preserve" transform="matrix(.75 0 0 .75 72 349.06636)" font-size="16" font-family="TimesNewRomanPSMT"><tspan y="14.9375" x="173.50782 177.95581">in</tspan></text>
<text xml:space="preserve" transform="matrix(.75 0 0 .75 72 349.06636)" font-size="16" font-family="TimesNewRomanPSMT"><tspan y="14.9375" x="191.95313 199.05713 203.05713 211.05713 215.05713">e.g.,</tspan></text>
<text xml:space="preserve" transform="matrix(.75 0 0 .75 72 349.06636)" font-size="16" font-family="TimesNewRomanPSMT"><tspan y="14.9375" x="225.05469 231.27869 239.27869 247.27869 254.38269">shock</tspan></text>
<text xml:space="preserve" transform="matrix(.75 0 0 .75 72 349.06636)" font-size="16" font-family="TimesNewRomanPSMT"><tspan y="14.9375" x="268.3828 275.48683 283.48683 289.71083 297.71083 303.03883 311.03883 318.14283 323.47084">absorbers</tspan></text>
<text xml:space="preserve" transform="matrix(.75 0 0 .75 72 349.06636)" font-size="16" font-family="TimesNewRomanPSMT"><tspan y="14.9375" x="335.6953 341.02333 349.02333">for</tspan></text>
<text xml:space="preserve" transform="matrix(.75 0 0 .75 72 349.06636)" font-size="16" font-family="TimesNewRomanPSMT"><tspan y="14.9375" x="360.35157 368.35157 373.39064 378.71864 384.04664 389.37464 397.37464 404.47865">off-road</tspan></text>
<text xml:space="preserve" transform="matrix(.75 0 0 .75 72 349.06636)" font-size="16" font-family="TimesNewRomanPSMT"><tspan y="14.9375" x="418.47657 426.47657 433.58058 441.58058 446.02857 453.13258 457.58058 464.68458">vehicles</tspan></text>
<text xml:space="preserve" transform="matrix(.75 0 0 .75 72 349.06636)" font-size="16" font-family="TimesNewRomanPSMT"><tspan y="14.9375" x="476.89845 482.22645 489.33045 493.77845">rely</tspan></text>
<text xml:space="preserve" transform="matrix(.75 0 0 .75 72 349.06636)" font-size="16" font-family="TimesNewRomanPSMT"><tspan y="14.9375" x="507.77345 515.77346">on</tspan></text>
<text xml:space="preserve" transform="matrix(.75 0 0 .75 72 349.06636)" font-size="16" font-family="TimesNewRomanPSMT"><tspan y="14.9375" x="528.77346 533.22146 541.22146">the</tspan></text>
<text xml:space="preserve" transform="matrix(.75 0 0 .75 72 349.06636)" font-size="16" font-family="TimesNewRomanPSMT"><tspan y="14.9375" x="553.3203 561.3203 565.7683 571.9923 579.0963 587.0963 595.0963">viscous</tspan></text>
<text xml:space="preserve" transform="matrix(.75 0 0 .75 72 364.935)" font-size="16" font-family="TimesNewRomanPSMT"><tspan y="14.9375" x="0 5.328 13.328 18.656 25.76 32.864004">forces</tspan></text>
<text xml:space="preserve" transform="matrix(.75 0 0 .75 72 364.935)" font-size="16" font-family="TimesNewRomanPSMT"><tspan y="14.9375" x="46.085939 50.53394 58.53394 65.63794">that</tspan></text>
<text xml:space="preserve" transform="matrix(.75 0 0 .75 72 364.935)" font-size="16" font-family="TimesNewRomanPSMT"><tspan y="14.9375" x="77.078128 84.18213 91.28613">act</tspan></text>
<text xml:space="preserve" transform="matrix(.75 0 0 .75 72 364.935)" font-size="16" font-family="TimesNewRomanPSMT"><tspan y="14.9375" x="102.72656 109.83057 117.83057 124.93457 129.38257 137.38257 143.60657">against</tspan></text>
<text xml:space="preserve" transform="matrix(.75 0 0 .75 72 364.935)" font-size="16" font-family="TimesNewRomanPSMT"><tspan y="14.9375" x="155.04688">a</tspan></text>
<text xml:space="preserve" transform="matrix(.75 0 0 .75 72 364.935)" font-size="16" font-family="TimesNewRomanPSMT"><tspan y="14.9375" x="169.14844 177.14844 181.59644 187.82044 192.26844 200.26844">piston</tspan></text>
<text xml:space="preserve" transform="matrix(.75 0 0 .75 72 364.935)" font-size="16" font-family="TimesNewRomanPSMT"><tspan y="14.9375" x="215.26563 219.71363 227.71363 234.81763">that</tspan></text>
<text xml:space="preserve" transform="matrix(.75 0 0 .75 72 364.935)" font-size="16" font-family="TimesNewRomanPSMT"><tspan y="14.9375" x="245.25782 250.58582 258.58583 263.91383 271.01783 278.12184">forces</tspan></text>
<text xml:space="preserve" transform="matrix(.75 0 0 .75 72 364.935)" font-size="16" font-family="TimesNewRomanPSMT"><tspan y="14.9375" x="290.34376">a</tspan></text>
<text xml:space="preserve" transform="matrix(.75 0 0 .75 72 364.935)" font-size="16" font-family="TimesNewRomanPSMT"><tspan y="14.9375" x="303.4453 308.77333 313.2213 321.2213 325.6693">fluid</tspan></text>
<text xml:space="preserve" transform="matrix(.75 0 0 .75 72 364.935)" font-size="16" font-family="TimesNewRomanPSMT"><tspan y="14.9375" x="339.66407 344.11207 352.11207 357.44007 365.44007 373.44007 381.44007">through</tspan></text>
<text xml:space="preserve" transform="matrix(.75 0 0 .75 72 364.935)" font-size="16" font-family="TimesNewRomanPSMT"><tspan y="14.9375" x="395.4375 401.6615 414.1095 421.2135 425.6615">small</tspan></text>
<text xml:space="preserve" transform="matrix(.75 0 0 .75 72 364.935)" font-size="16" font-family="TimesNewRomanPSMT"><tspan y="14.9375" x="436.10157 444.10157 449.42958 453.87757 459.20558 463.65357 470.75758 477.86158">orifices</tspan></text>
<text xml:space="preserve" transform="matrix(.75 0 0 .75 72 364.935)" font-size="16" font-family="TimesNewRomanPSMT"><tspan y="14.9375" x="490.07814 497.18214">as</tspan></text>
<text xml:space="preserve" transform="matrix(.75 0 0 .75 72 364.935)" font-size="16" font-family="TimesNewRomanPSMT"><tspan y="14.9375" x="509.40626 513.85427">it</tspan></text>
<text xml:space="preserve" transform="matrix(.75 0 0 .75 72 364.935)" font-size="16" font-family="TimesNewRomanPSMT"><tspan y="14.9375" x="524.2969 528.7449">is</tspan></text>
<text xml:space="preserve" transform="matrix(.75 0 0 .75 72 364.935)" font-size="16" font-family="TimesNewRomanPSMT"><tspan y="14.9375" x="540.96878 548.96878 553.41677 559.64077 567.64077 572.08877 579.19277 586.29678 593.40078">displaced</tspan></text>
<text xml:space="preserve" transform="matrix(.75 0 0 .75 72 380.80363)" font-size="16" font-family="TimesNewRomanPSMT"><tspan y="14.9375" x="0 7.1040008 11.552001 19.552002 27.552002">along</tspan></text>
<text xml:space="preserve" transform="matrix(.75 0 0 .75 72 380.80363)" font-size="16" font-family="TimesNewRomanPSMT"><tspan y="14.9375" x="42.546876">a</tspan></text>
<text xml:space="preserve" transform="matrix(.75 0 0 .75 72 380.80363)" font-size="16" font-family="TimesNewRomanPSMT"><tspan y="14.9375" x="56.648439 63.752439 71.75244 76.20044 80.64844 88.64844 96.64844 103.75244 108.1875">cylinder.</tspan></text>
<text xml:space="preserve" transform="matrix(.75 0 0 .75 72 380.80363)" font-size="16" font-family="TimesNewRomanPSMT"><tspan y="14.9375" x="119.1875 128.9635 136.9635">The</tspan></text>
<text xml:space="preserve" transform="matrix(.75 0 0 .75 72 380.80363)" font-size="16" font-family="TimesNewRomanPSMT"><tspan y="14.9375" x="151.0625 163.5105 170.6145 178.6145">many</tspan></text>
<text xml:space="preserve" transform="matrix(.75 0 0 .75 72 380.80363)" font-size="16" font-family="TimesNewRomanPSMT"><tspan y="14.9375" x="193.60938 200.71338 208.71338 215.81739 221.14539 228.24939 235.3534 239.80139 246.9054 252.2334 256.6814 262.9054 267.3534 271.8014 278.9054">characteristics</tspan></text>
<text xml:space="preserve" transform="matrix(.75 0 0 .75 72 380.80363)" font-size="16" font-family="TimesNewRomanPSMT"><tspan y="14.9375" x="292.10939 296.55738 304.55738 311.66139">that</tspan></text>
<text xml:space="preserve" transform="matrix(.75 0 0 .75 72 380.80363)" font-size="16" font-family="TimesNewRomanPSMT"><tspan y="14.9375" x="323.10157 331.10157 335.54957 342.65357 347.10157 354.20558 358.65357">dictate</tspan></text>
<text xml:space="preserve" transform="matrix(.75 0 0 .75 72 380.80363)" font-size="16" font-family="TimesNewRomanPSMT"><tspan y="14.9375" x="372.7422 380.7422 388.7422">how</tspan></text>
<text xml:space="preserve" transform="matrix(.75 0 0 .75 72 380.80363)" font-size="16" font-family="TimesNewRomanPSMT"><tspan y="14.9375" x="407.29689">a</tspan></text>
<text xml:space="preserve" transform="matrix(.75 0 0 .75 72 380.80363)" font-size="16" font-family="TimesNewRomanPSMT"><tspan y="14.9375" x="421.39845 427.62245 435.62245 443.62245 450.72645">shock</tspan></text>
<text xml:space="preserve" transform="matrix(.75 0 0 .75 72 380.80363)" font-size="16" font-family="TimesNewRomanPSMT"><tspan y="14.9375" x="464.72657 471.83058 479.83058 486.05458 494.05458 499.38258 507.38258 514.4866">absorber</tspan></text>
<text xml:space="preserve" transform="matrix(.75 0 0 .75 72 380.80363)" font-size="16" font-family="TimesNewRomanPSMT"><tspan y="14.9375" x="525.8125 531.1405 538.2445 544.4685 552.4685 560.4685 568.4685 576.4685">responds</tspan></text>
<text xml:space="preserve" transform="matrix(.75 0 0 .75 72 380.80363)" font-size="16" font-family="TimesNewRomanPSMT"><tspan y="14.9375" x="588.6953 593.1433">to</tspan></text>
<text xml:space="preserve" transform="matrix(.75 0 0 .75 72 396.67228)" font-size="16" font-family="TimesNewRomanPSMT"><tspan y="14.9375" x="0 4.4480006 16.896002 24.896002 32.000005 39.104005 43.552007">impacts</tspan></text>
<text xml:space="preserve" transform="matrix(.75 0 0 .75 72 396.67228)" font-size="16" font-family="TimesNewRomanPSMT"><tspan y="14.9375" x="60.765626 65.21362 73.21362 80.31763 84.765628 92.765628 100.765628">include</tspan></text>
<text xml:space="preserve" transform="matrix(.75 0 0 .75 72 396.67228)" font-size="16" font-family="TimesNewRomanPSMT"><tspan y="14.9375" x="118.859378 123.30737 131.30738">the</tspan></text>
<text xml:space="preserve" transform="matrix(.75 0 0 .75 72 396.67228)" font-size="16" font-family="TimesNewRomanPSMT"><tspan y="14.9375" x="149.40625 156.51026 168.95825 176.95825 184.95825 192.95825">amount</tspan></text>
<text xml:space="preserve" transform="matrix(.75 0 0 .75 72 396.67228)" font-size="16" font-family="TimesNewRomanPSMT"><tspan y="14.9375" x="208.39844 216.39844">of</tspan></text>
<text xml:space="preserve" transform="matrix(.75 0 0 .75 72 396.67228)" font-size="16" font-family="TimesNewRomanPSMT"><tspan y="14.9375" x="232.72657 240.72657 247.83057 260.27857 268.27857 272.72657 280.72657">damping</tspan></text>
<text xml:space="preserve" transform="matrix(.75 0 0 .75 72 396.67228)" font-size="16" font-family="TimesNewRomanPSMT"><tspan y="14.9375" x="299.71876 307.71876 315.71876 321.04676 325.49476 333.49476">during</tspan></text>
<text xml:space="preserve" transform="matrix(.75 0 0 .75 72 396.67228)" font-size="16" font-family="TimesNewRomanPSMT"><tspan y="14.9375" x="352.4922 359.5962 367.5962 380.0442 388.0442 393.3722 400.4762 406.7002 412.9242 417.3722 425.3722">compression</tspan></text>
<text xml:space="preserve" transform="matrix(.75 0 0 .75 72 396.67228)" font-size="16" font-family="TimesNewRomanPSMT"><tspan y="14.9375" x="443.3672 450.4712 458.4712">and</tspan></text>
<text xml:space="preserve" transform="matrix(.75 0 0 .75 72 396.67228)" font-size="16" font-family="TimesNewRomanPSMT"><tspan y="14.9375" x="476.46876 481.79676 488.90077 496.90077 504.90077 512.90078 520.90078">rebound</tspan></text>
<text xml:space="preserve" transform="matrix(.75 0 0 .75 72 396.67228)" font-size="16" font-family="TimesNewRomanPSMT"><tspan y="14.9375" x="538.89846 546.00247 554.00247">and</tspan></text>
<text xml:space="preserve" transform="matrix(.75 0 0 .75 72 396.67228)" font-size="16" font-family="TimesNewRomanPSMT"><tspan y="14.9375" x="572 576.448 584.448 591.552 596">their</tspan></text>
<text xml:space="preserve" transform="matrix(.75 0 0 .75 72 412.54093)" font-size="16" font-family="TimesNewRomanPSMT"><tspan y="14.9375" x="0 7.1040008 15.104 19.552 27.552 33.776 38.224004 45.328004 53.328004 57.776006 62.224008 66.672008 71.12">adjustability</tspan></text>
<text xml:space="preserve" transform="matrix(.75 0 0 .75 72 412.54093)" font-size="16" font-family="TimesNewRomanPSMT"><tspan y="14.9375" x="85.10156 89.54956">is</tspan></text>
<text xml:space="preserve" transform="matrix(.75 0 0 .75 72 412.54093)" font-size="16" font-family="TimesNewRomanPSMT"><tspan y="14.9375" x="101.77344 107.10144 114.205448 118.65344 126.65344 133.75745">rather</tspan></text>
<text xml:space="preserve" transform="matrix(.75 0 0 .75 72 412.54093)" font-size="16" font-family="TimesNewRomanPSMT"><tspan y="14.9375" x="145.07813 153.07813 158.40613 162.85413 169.95813">often</tspan></text>
<text xml:space="preserve" transform="matrix(.75 0 0 .75 72 412.54093)" font-size="16" font-family="TimesNewRomanPSMT"><tspan y="14.9375" x="183.95313 191.05713 196.38513 204.38513 211.48914 215.93714 223.04114">crucial</tspan></text>
<text xml:space="preserve" transform="matrix(.75 0 0 .75 72 412.54093)" font-size="16" font-family="TimesNewRomanPSMT"><tspan y="14.9375" x="233.47657 238.80457 246.80457">for</tspan></text>
<text xml:space="preserve" transform="matrix(.75 0 0 .75 72 412.54093)" font-size="16" font-family="TimesNewRomanPSMT"><tspan y="14.9375" x="258.1328 266.1328 270.5808 278.5808">high</tspan></text>
<text xml:space="preserve" transform="matrix(.75 0 0 .75 72 412.54093)" font-size="16" font-family="TimesNewRomanPSMT"><tspan y="14.9375" x="292.57814 300.57814 307.68214 313.01014 318.33815 326.33815 331.66615 344.11415 351.21815 359.21815 366.32215 373.42616">performance.</tspan></text>
<text xml:space="preserve" transform="matrix(.75 0 0 .75 72 412.54093)" font-size="16" font-family="TimesNewRomanPSMT"><tspan y="14.9375" x="383.41407 393.19007 401.19007 408.29408 413.62208">There</tspan></text>
<text xml:space="preserve" transform="matrix(.75 0 0 .75 72 412.54093)" font-size="16" font-family="TimesNewRomanPSMT"><tspan y="14.9375" x="426.71876 433.82276 439.15077">are</tspan></text>
<text xml:space="preserve" transform="matrix(.75 0 0 .75 72 412.54093)" font-size="16" font-family="TimesNewRomanPSMT"><tspan y="14.9375" x="452.25 460.25 468.25 480.698 487.802 493.13 501.13 509.13">numerous</tspan></text>
<text xml:space="preserve" transform="matrix(.75 0 0 .75 72 412.54093)" font-size="16" font-family="TimesNewRomanPSMT"><tspan y="14.9375" x="520.35159 524.79959 531.90359 539.00759 547.00759 555.00759 563.00759 567.45559 575.45559 583.45559 587.90359 595.00759">technologies</tspan></text>
<text xml:space="preserve" transform="matrix(.75 0 0 .75 72 428.40959)" font-size="16" font-family="TimesNewRomanPSMT"><tspan y="14.9375" x="0 4.4480006 12.448 19.552">that</tspan></text>
<text xml:space="preserve" transform="matrix(.75 0 0 .75 72 428.40959)" font-size="16" font-family="TimesNewRomanPSMT"><tspan y="14.9375" x="27.992188 34.216188 41.320188 46.648187 54.648187">serve</tspan></text>
<text xml:space="preserve" transform="matrix(.75 0 0 .75 72 428.40959)" font-size="16" font-family="TimesNewRomanPSMT"><tspan y="14.9375" x="65.75 70.198 78.198">the</tspan></text>
<text xml:space="preserve" transform="matrix(.75 0 0 .75 72 428.40959)" font-size="16" font-family="TimesNewRomanPSMT"><tspan y="14.9375" x="89.296878 97.296878 105.296878 110.62488 118.62488 126.62488 132.84888">purpose</tspan></text>
<text xml:space="preserve" transform="matrix(.75 0 0 .75 72 428.40959)" font-size="16" font-family="TimesNewRomanPSMT"><tspan y="14.9375" x="143.95313 151.95313">of</tspan></text>
<text xml:space="preserve" transform="matrix(.75 0 0 .75 72 428.40959)" font-size="16" font-family="TimesNewRomanPSMT"><tspan y="14.9375" x="161.28125 166.60926 173.71326 181.71326 189.71326 194.16126 201.26526 205.71326 210.16126 218.16126">regulating</tspan></text>
<text xml:space="preserve" transform="matrix(.75 0 0 .75 72 428.40959)" font-size="16" font-family="TimesNewRomanPSMT"><tspan y="14.9375" x="230.14844 234.59644 242.59644">the</tspan></text>
<text xml:space="preserve" transform="matrix(.75 0 0 .75 72 428.40959)" font-size="16" font-family="TimesNewRomanPSMT"><tspan y="14.9375" x="253.69532 261.6953 268.79933 281.2473 289.2473 293.6953 301.6953">damping</tspan></text>
<text xml:space="preserve" transform="matrix(.75 0 0 .75 72 428.40959)" font-size="16" font-family="TimesNewRomanPSMT"><tspan y="14.9375" x="313.6875 319.0155 327.0155 332.3435 339.4475 346.5515 352.7755">forces,</tspan></text>
<text xml:space="preserve" transform="matrix(.75 0 0 .75 72 428.40959)" font-size="16" font-family="TimesNewRomanPSMT"><tspan y="14.9375" x="360.77345 368.77345 375.87745 383.87745 390.98146 398.98146 406.98146 411.42945 419.42945">depending</tspan></text>
<text xml:space="preserve" transform="matrix(.75 0 0 .75 72 428.40959)" font-size="16" font-family="TimesNewRomanPSMT"><tspan y="14.9375" x="431.42189 439.42189">on</tspan></text>
<text xml:space="preserve" transform="matrix(.75 0 0 .75 72 428.40959)" font-size="16" font-family="TimesNewRomanPSMT"><tspan y="14.9375" x="451.42189 457.64588 465.64588 472.74989 479.85389">speed</tspan></text>
<text xml:space="preserve" transform="matrix(.75 0 0 .75 72 428.40959)" font-size="16" font-family="TimesNewRomanPSMT"><tspan y="14.9375" x="491.85157 499.85157">or</tspan></text>
<text xml:space="preserve" transform="matrix(.75 0 0 .75 72 428.40959)" font-size="16" font-family="TimesNewRomanPSMT"><tspan y="14.9375" x="509.1797 517.1797 525.1797 531.4037 535.8517 540.2997 544.7477 552.7477">position</tspan></text>
<text xml:space="preserve" transform="matrix(.75 0 0 .75 72 428.40959)" font-size="16" font-family="TimesNewRomanPSMT"><tspan y="14.9375" x="564.7422 572.7422">of</tspan></text>
<text xml:space="preserve" transform="matrix(.75 0 0 .75 72 428.40959)" font-size="16" font-family="TimesNewRomanPSMT"><tspan y="14.9375" x="582.0703 586.5183 594.5183">the</tspan></text>
<text xml:space="preserve" transform="matrix(.75 0 0 .75 72 444.27824)" font-size="16" font-family="TimesNewRomanPSMT"><tspan y="14.9375" x="0 8 12.448 18.672 23.12 31.12">piston</tspan></text>
<text xml:space="preserve" transform="matrix(.75 0 0 .75 72 444.27824)" font-size="16" font-family="TimesNewRomanPSMT"><tspan y="14.9375" x="44.117189 49.445188 56.549188 60.99719 68.10119 72.54919 76.997188 84.997188">relative</tspan></text>
<text xml:space="preserve" transform="matrix(.75 0 0 .75 72 444.27824)" font-size="16" font-family="TimesNewRomanPSMT"><tspan y="14.9375" x="97.08594 101.533939">to</tspan></text>
<text xml:space="preserve" transform="matrix(.75 0 0 .75 72 444.27824)" font-size="16" font-family="TimesNewRomanPSMT"><tspan y="14.9375" x="114.53125 118.97925 126.97925">the</tspan></text>
<text xml:space="preserve" transform="matrix(.75 0 0 .75 72 444.27824)" font-size="16" font-family="TimesNewRomanPSMT"><tspan y="14.9375" x="139.07813 146.18213 154.18213 158.63013 163.07813 171.07813 179.07813 186.18213">cylinder</tspan></text>
<text xml:space="preserve" transform="matrix(.75 0 0 .75 72 444.27824)" font-size="16" font-family="TimesNewRomanPSMT"><tspan y="14.9375" x="196.5 200.948 208.948 216.052">that</tspan></text>
<text xml:space="preserve" transform="matrix(.75 0 0 .75 72 444.27824)" font-size="16" font-family="TimesNewRomanPSMT"><tspan y="14.9375" x="225.49219 230.82019 237.9242 244.1482 252.1482 256.5962">result</tspan></text>
<text xml:space="preserve" transform="matrix(.75 0 0 .75 72 444.27824)" font-size="16" font-family="TimesNewRomanPSMT"><tspan y="14.9375" x="265.03907 270.36708 275.69508 283.69508">from</tspan></text>
<text xml:space="preserve" transform="matrix(.75 0 0 .75 72 444.27824)" font-size="16" font-family="TimesNewRomanPSMT"><tspan y="14.9375" x="300.14064 308.14064 312.58863 317.625 322.953 330.057 335.385 342.489 350.489">different</tspan></text>
<text xml:space="preserve" transform="matrix(.75 0 0 .75 72 444.27824)" font-size="16" font-family="TimesNewRomanPSMT"><tspan y="14.9375" x="358.9297 363.3777 371.3777 379.3777 386.4817">types</tspan></text>
<text xml:space="preserve" transform="matrix(.75 0 0 .75 72 444.27824)" font-size="16" font-family="TimesNewRomanPSMT"><tspan y="14.9375" x="396.70314 404.70314">of</tspan></text>
<text xml:space="preserve" transform="matrix(.75 0 0 .75 72 444.27824)" font-size="16" font-family="TimesNewRomanPSMT"><tspan y="14.9375" x="414.03126 418.47926 430.92726 438.92726 446.03126 453.13526 457.58326 463.80726">impacts.</tspan></text>
<text xml:space="preserve" transform="matrix(.75 0 0 .75 72 444.27824)" font-size="16" font-family="TimesNewRomanPSMT"><tspan y="14.9375" x="471.79689 481.57289 489.57289">The</tspan></text>
<text xml:space="preserve" transform="matrix(.75 0 0 .75 72 444.27824)" font-size="16" font-family="TimesNewRomanPSMT"><tspan y="14.9375" x="500.67189 508.67189 513.9999 521.1039 527.3279 534.4319 542.4319 546.8799 553.9839">presented</tspan></text>
<text xml:space="preserve" transform="matrix(.75 0 0 .75 72 444.27824)" font-size="16" font-family="TimesNewRomanPSMT"><tspan y="14.9375" x="565.97659 573.97659 581.08059 589.08059 596.1846">paper</tspan></text>
<text xml:space="preserve" transform="matrix(.75 0 0 .75 72 460.14689)" font-size="16" font-family="TimesNewRomanPSMT"><tspan y="14.9375" x="0 7.1040008 15.104 23.104 27.552 34.656003 39.104005 47.104005">explains</tspan></text>
<text xml:space="preserve" transform="matrix(.75 0 0 .75 72 460.14689)" font-size="16" font-family="TimesNewRomanPSMT"><tspan y="14.9375" x="59.320314">a</tspan></text>
<text xml:space="preserve" transform="matrix(.75 0 0 .75 72 460.14689)" font-size="16" font-family="TimesNewRomanPSMT"><tspan y="14.9375" x="72.421878 79.52588 87.52588 95.52588 102.62988 109.73389 117.73389">concept</tspan></text>
<text xml:space="preserve" transform="matrix(.75 0 0 .75 72 460.14689)" font-size="16" font-family="TimesNewRomanPSMT"><tspan y="14.9375" x="128.17188 132.61988 140.61988 147.72388">that</tspan></text>
<text xml:space="preserve" transform="matrix(.75 0 0 .75 72 460.14689)" font-size="16" font-family="TimesNewRomanPSMT"><tspan y="14.9375" x="158.16407 163.49207 171.49207 178.59607 186.59607 192.82007 199.92407">focuses</tspan></text>
<text xml:space="preserve" transform="matrix(.75 0 0 .75 72 460.14689)" font-size="16" font-family="TimesNewRomanPSMT"><tspan y="14.9375" x="212.14844 220.14844 228.14844">on,</tspan></text>
<text xml:space="preserve" transform="matrix(.75 0 0 .75 72 460.14689)" font-size="16" font-family="TimesNewRomanPSMT"><tspan y="14.9375" x="238.14844 246.14844 254.14844">but</tspan></text>
<text xml:space="preserve" transform="matrix(.75 0 0 .75 72 460.14689)" font-size="16" font-family="TimesNewRomanPSMT"><tspan y="14.9375" x="264.59376 269.04176">is</tspan></text>
<text xml:space="preserve" transform="matrix(.75 0 0 .75 72 460.14689)" font-size="16" font-family="TimesNewRomanPSMT"><tspan y="14.9375" x="281.26564 289.26564 297.26564">not</tspan></text>
<text xml:space="preserve" transform="matrix(.75 0 0 .75 72 460.14689)" font-size="16" font-family="TimesNewRomanPSMT"><tspan y="14.9375" x="307.71095 312.15895 316.60694 329.05494 333.50294 337.95094 345.05494">limited</tspan></text>
<text xml:space="preserve" transform="matrix(.75 0 0 .75 72 460.14689)" font-size="16" font-family="TimesNewRomanPSMT"><tspan y="14.9375" x="358.03907 362.48707">to</tspan></text>
<text xml:space="preserve" transform="matrix(.75 0 0 .75 72 460.14689)" font-size="16" font-family="TimesNewRomanPSMT"><tspan y="14.9375" x="375.48439 379.93238 387.93238">the</tspan></text>
<text xml:space="preserve" transform="matrix(.75 0 0 .75 72 460.14689)" font-size="16" font-family="TimesNewRomanPSMT"><tspan y="14.9375" x="400.03126 405.35926 412.46327 420.46327 428.46327 436.46327 444.46327 452.46327">rebound;</tspan></text>
<text xml:space="preserve" transform="matrix(.75 0 0 .75 72 460.14689)" font-size="16" font-family="TimesNewRomanPSMT"><tspan y="14.9375" x="461.90626 466.35426">it</tspan></text>
<text xml:space="preserve" transform="matrix(.75 0 0 .75 72 460.14689)" font-size="16" font-family="TimesNewRomanPSMT"><tspan y="14.9375" x="475.79689 482.02088 490.02088 498.02088 506.02088 510.46888">should</tspan></text>
<text xml:space="preserve" transform="matrix(.75 0 0 .75 72 460.14689)" font-size="16" font-family="TimesNewRomanPSMT"><tspan y="14.9375" x="523.46878 530.57278 535.02078 539.46878 547.46878">allow</tspan></text>
<text xml:space="preserve" transform="matrix(.75 0 0 .75 72 460.14689)" font-size="16" font-family="TimesNewRomanPSMT"><tspan y="14.9375" x="564.0156 570.2396 578.2396 586.2396 593.3436">shock</tspan></text>
<text xml:space="preserve" transform="matrix(.75 0 0 .75 72 476.01554)" font-size="16" font-family="TimesNewRomanPSMT"><tspan y="14.9375" x="0 7.1040008 15.104 21.328001 29.328001 34.656003 42.656003 49.760004 55.088">absorbers</tspan></text>
<text xml:space="preserve" transform="matrix(.75 0 0 .75 72 476.01554)" font-size="16" font-family="TimesNewRomanPSMT"><tspan y="14.9375" x="68.3125 72.7605">to</tspan></text>
<text xml:space="preserve" transform="matrix(.75 0 0 .75 72 476.01554)" font-size="16" font-family="TimesNewRomanPSMT"><tspan y="14.9375" x="87.75781 93.085819 100.18982 106.41382 114.41382 122.41382 130.41382">respond</tspan></text>
<text xml:space="preserve" transform="matrix(.75 0 0 .75 72 476.01554)" font-size="16" font-family="TimesNewRomanPSMT"><tspan y="14.9375" x="145.41407 153.41407 161.41407 165.86206 172.96607 180.96607 185.41407">quickly</tspan></text>
<text xml:space="preserve" transform="matrix(.75 0 0 .75 72 476.01554)" font-size="16" font-family="TimesNewRomanPSMT"><tspan y="14.9375" x="200.40625 205.73426 210.18225 217.28626 223.51026">(less</tspan></text>
<text xml:space="preserve" transform="matrix(.75 0 0 .75 72 476.01554)" font-size="16" font-family="TimesNewRomanPSMT"><tspan y="14.9375" x="236.73438 244.73438 251.83838 264.28639 272.28639 276.73439 284.73439 292.73439">damping)</tspan></text>
<text xml:space="preserve" transform="matrix(.75 0 0 .75 72 476.01554)" font-size="16" font-family="TimesNewRomanPSMT"><tspan y="14.9375" x="304.0547 311.1587 319.1587 326.2627 330.7107 338.7107 344.9347">against</tspan></text>
<text xml:space="preserve" transform="matrix(.75 0 0 .75 72 476.01554)" font-size="16" font-family="TimesNewRomanPSMT"><tspan y="14.9375" x="355.375 359.823 372.271 380.271 387.375 394.479 398.927">impacts</tspan></text>
<text xml:space="preserve" transform="matrix(.75 0 0 .75 72 476.01554)" font-size="16" font-family="TimesNewRomanPSMT"><tspan y="14.9375" x="411.14064 415.58863 423.58863 430.69264">that</tspan></text>
<text xml:space="preserve" transform="matrix(.75 0 0 .75 72 476.01554)" font-size="16" font-family="TimesNewRomanPSMT"><tspan y="14.9375" x="441.1328 445.5808 453.5808 461.5808 469.5808 476.6848">induce</tspan></text>
<text xml:space="preserve" transform="matrix(.75 0 0 .75 72 476.01554)" font-size="16" font-family="TimesNewRomanPSMT"><tspan y="14.9375" x="489.78126 496.00526 508.45326 515.55728 520.00527">small</tspan></text>
<text xml:space="preserve" transform="matrix(.75 0 0 .75 72 476.01554)" font-size="16" font-family="TimesNewRomanPSMT"><tspan y="14.9375" x="530.4453 536.6693 541.1173 546.4453 554.4453 562.4453 569.5493">strokes</tspan></text>
<text xml:space="preserve" transform="matrix(.75 0 0 .75 72 476.01554)" font-size="16" font-family="TimesNewRomanPSMT"><tspan y="14.9375" x="581.77346 589.77346 596.87747">yet</tspan></text>
<text xml:space="preserve" transform="matrix(.75 0 0 .75 72 491.8842)" font-size="16" font-family="TimesNewRomanPSMT"><tspan y="14.9375" x="0 6.2240006 14.224001 19.265625 24.593625 29.041625 36.145627 40.593629 47.697629 55.697629 60.14563 64.59363">sufficiently</tspan></text>
<text xml:space="preserve" transform="matrix(.75 0 0 .75 72 491.8842)" font-size="16" font-family="TimesNewRomanPSMT"><tspan y="14.9375" x="77.578128 83.802127 88.25012 96.25012 107.802127 112.25012">slowly</tspan></text>
<text xml:space="preserve" transform="matrix(.75 0 0 .75 72 491.8842)" font-size="16" font-family="TimesNewRomanPSMT"><tspan y="14.9375" x="124.25 129.578 142.026 150.026 155.354">(more</tspan></text>
<text xml:space="preserve" transform="matrix(.75 0 0 .75 72 491.8842)" font-size="16" font-family="TimesNewRomanPSMT"><tspan y="14.9375" x="166.45313 174.45313 181.55713 194.00513 202.00513 206.45313 214.45313 222.45313">damping)</tspan></text>
<text xml:space="preserve" transform="matrix(.75 0 0 .75 72 491.8842)" font-size="16" font-family="TimesNewRomanPSMT"><tspan y="14.9375" x="231.77344 243.32544 247.77344 252.22144">with</tspan></text>
<text xml:space="preserve" transform="matrix(.75 0 0 .75 72 491.8842)" font-size="16" font-family="TimesNewRomanPSMT"><tspan y="14.9375" x="264.21876 268.66676 275.77076 280.8047 288.8047 295.9087">larger</tspan></text>
<text xml:space="preserve" transform="matrix(.75 0 0 .75 72 491.8842)" font-size="16" font-family="TimesNewRomanPSMT"><tspan y="14.9375" x="305.23439 309.68238 322.13038 330.13038 337.23439 344.33839 348.78639 355.01039">impacts.</tspan></text>
<text xml:space="preserve" transform="matrix(.75 0 0 .75 72 491.8842)" font-size="16" font-family="TimesNewRomanPSMT"><tspan y="14.9375" x="363 368.328">It</tspan></text>
<text xml:space="preserve" transform="matrix(.75 0 0 .75 72 491.8842)" font-size="16" font-family="TimesNewRomanPSMT"><tspan y="14.9375" x="376.77345 383.87745 388.32545 392.77345 400.77345 412.32545">allows</tspan></text>
<text xml:space="preserve" transform="matrix(.75 0 0 .75 72 491.8842)" font-size="16" font-family="TimesNewRomanPSMT"><tspan y="14.9375" x="422.54689 427.87489 435.87489">for</tspan></text>
<text xml:space="preserve" transform="matrix(.75 0 0 .75 72 491.8842)" font-size="16" font-family="TimesNewRomanPSMT"><tspan y="14.9375" x="445.20314 451.42713 458.53114 466.53114 473.63514 478.96315 486.06715">several</tspan></text>
<text xml:space="preserve" transform="matrix(.75 0 0 .75 72 491.8842)" font-size="16" font-family="TimesNewRomanPS" font-style="italic"><tspan y="14.9375" x="494.5078 500.7318 505.1798 513.1798">ride</tspan></text>
<text xml:space="preserve" transform="matrix(.75 0 0 .75 72 491.8842)" font-size="16" font-family="TimesNewRomanPS" font-style="italic"><tspan y="14.9375" x="524.28128 530.50527 538.50527 546.50527 553.60928">zones</tspan></text>
<text xml:space="preserve" transform="matrix(.75 0 0 .75 72 491.8842)" font-size="16" font-family="TimesNewRomanPSMT"><tspan y="14.9375" x="559.83596">,</tspan></text>
<text xml:space="preserve" transform="matrix(.75 0 0 .75 72 491.8842)" font-size="16" font-family="TimesNewRomanPSMT"><tspan y="14.9375" x="571.83596 578.93997 586.04397 593.14797">each</tspan></text>
<text xml:space="preserve" transform="matrix(.75 0 0 .75 72 507.75285)" font-size="16" font-family="TimesNewRomanPSMT"><tspan y="14.9375" x="0 7.1040008 15.104 20.432 25.759999 32.864 39.087999 47.087999 55.087999 63.087999 71.088 75.535999 83.535999">corresponding</tspan></text>
<text xml:space="preserve" transform="matrix(.75 0 0 .75 72 507.75285)" font-size="16" font-family="TimesNewRomanPSMT"><tspan y="14.9375" x="96.53125 100.97925">to</tspan></text>
<text xml:space="preserve" transform="matrix(.75 0 0 .75 72 507.75285)" font-size="16" font-family="TimesNewRomanPSMT"><tspan y="14.9375" x="113.97656">a</tspan></text>
<text xml:space="preserve" transform="matrix(.75 0 0 .75 72 507.75285)" font-size="16" font-family="TimesNewRomanPSMT"><tspan y="14.9375" x="125.078128 130.40613 137.51013 145.51013 153.51013">range</tspan></text>
<text xml:space="preserve" transform="matrix(.75 0 0 .75 72 507.75285)" font-size="16" font-family="TimesNewRomanPSMT"><tspan y="14.9375" x="164.60938 172.60938">of</tspan></text>
<text xml:space="preserve" transform="matrix(.75 0 0 .75 72 507.75285)" font-size="16" font-family="TimesNewRomanPSMT"><tspan y="14.9375" x="181.9375 188.1615 192.6095 197.9375 205.9375 213.9375">stroke</tspan></text>
<text xml:space="preserve" transform="matrix(.75 0 0 .75 72 507.75285)" font-size="16" font-family="TimesNewRomanPSMT"><tspan y="14.9375" x="225.03907 229.48706 236.59107 244.59107 252.59107 257.03907 265.03907 271.26307">lengths.</tspan></text>
<text xml:space="preserve" transform="matrix(.75 0 0 .75 72 507.75285)" font-size="16" font-family="TimesNewRomanPSMT"><tspan y="14.9375" x="279.2578 288.1538 296.1538 301.4818 305.9298 313.9298 321.0338 326.36183 338.8098 346.8098 352.13783 359.24183">Furthermore,</tspan></text>
<text xml:space="preserve" transform="matrix(.75 0 0 .75 72 507.75285)" font-size="16" font-family="TimesNewRomanPSMT"><tspan y="14.9375" x="367.23439 371.68238 379.68238">the</tspan></text>
<text xml:space="preserve" transform="matrix(.75 0 0 .75 72 507.75285)" font-size="16" font-family="TimesNewRomanPSMT"><tspan y="14.9375" x="390.78126 395.22926 403.22926 411.22926 418.33326 426.33326 430.78126 435.22926 443.22926">invention</tspan></text>
<text xml:space="preserve" transform="matrix(.75 0 0 .75 72 507.75285)" font-size="16" font-family="TimesNewRomanPSMT"><tspan y="14.9375" x="455.21876 461.44276 469.44276 473.89076 481.89076 488.99476">solves</tspan></text>
<text xml:space="preserve" transform="matrix(.75 0 0 .75 72 507.75285)" font-size="16" font-family="TimesNewRomanPSMT"><tspan y="14.9375" x="499.21876 503.66676 511.66676">the</tspan></text>
<text xml:space="preserve" transform="matrix(.75 0 0 .75 72 507.75285)" font-size="16" font-family="TimesNewRomanPSMT"><tspan y="14.9375" x="522.7656 529.8696 537.8696 544.97366 549.42166 553.8696 560.97366 568.97366 576.97366">challenge</tspan></text>
<text xml:space="preserve" transform="matrix(.75 0 0 .75 72 507.75285)" font-size="16" font-family="TimesNewRomanPSMT"><tspan y="14.9375" x="588.0625 596.0625">of</tspan></text>
<text xml:space="preserve" transform="matrix(.75 0 0 .75 72 523.62149)" font-size="16" font-family="TimesNewRomanPSMT"><tspan y="14.9375" x="0 7.1040008 15.104 19.552 27.552 33.776 38.224004 42.672006 50.672006">adjusting</tspan></text>
<text xml:space="preserve" transform="matrix(.75 0 0 .75 72 523.62149)" font-size="16" font-family="TimesNewRomanPSMT"><tspan y="14.9375" x="63.664064 68.11206 76.11206">the</tspan></text>
<text xml:space="preserve" transform="matrix(.75 0 0 .75 72 523.62149)" font-size="16" font-family="TimesNewRomanPSMT"><tspan y="14.9375" x="88.21094 100.658939 107.76294 115.76294 123.76294 128.21094 132.65894 140.65894 148.65894">magnitude</tspan></text>
<text xml:space="preserve" transform="matrix(.75 0 0 .75 72 523.62149)" font-size="16" font-family="TimesNewRomanPSMT"><tspan y="14.9375" x="160.75 168.75">of</tspan></text>
<text xml:space="preserve" transform="matrix(.75 0 0 .75 72 523.62149)" font-size="16" font-family="TimesNewRomanPSMT"><tspan y="14.9375" x="179.07813 183.52613 191.52613 195.97412">this</tspan></text>
<text xml:space="preserve" transform="matrix(.75 0 0 .75 72 523.62149)" font-size="16" font-family="TimesNewRomanPSMT"><tspan y="14.9375" x="207.19532 215.19532 220.52332 228.52332 236.52332 243.62732 248.95532 253.40332">property</tspan></text>
<text xml:space="preserve" transform="matrix(.75 0 0 .75 72 523.62149)" font-size="16" font-family="TimesNewRomanPSMT"><tspan y="14.9375" x="266.39845 277.95045 282.39845 286.84645 294.84645 302.84645 310.84645">without</tspan></text>
<text xml:space="preserve" transform="matrix(.75 0 0 .75 72 523.62149)" font-size="16" font-family="TimesNewRomanPSMT"><tspan y="14.9375" x="320.28907 328.28907 332.73707 338.96107 346.06507 352.28907 358.51307 365.61708 378.06507 386.06507 390.51307">disassembly</tspan></text>
<text xml:space="preserve" transform="matrix(.75 0 0 .75 72 523.62149)" font-size="16" font-family="TimesNewRomanPSMT"><tspan y="14.9375" x="403.5078 415.0598 423.0598 427.5078 431.9558">while</tspan></text>
<text xml:space="preserve" transform="matrix(.75 0 0 .75 72 523.62149)" font-size="16" font-family="TimesNewRomanPSMT"><tspan y="14.9375" x="444.0547 452.0547 459.1587 466.2627 474.2627 478.7107 486.7107">keeping</tspan></text>
<text xml:space="preserve" transform="matrix(.75 0 0 .75 72 523.62149)" font-size="16" font-family="TimesNewRomanPSMT"><tspan y="14.9375" x="499.70314 504.15113 512.1511">the</tspan></text>
<text xml:space="preserve" transform="matrix(.75 0 0 .75 72 523.62149)" font-size="16" font-family="TimesNewRomanPSMT"><tspan y="14.9375" x="524.25 531.354 539.354 551.802 559.802 567.802 575.802 582.906 590.906 595.354">components</tspan></text>
<text xml:space="preserve" transform="matrix(.75 0 0 .75 72 539.4901)" font-size="16" font-family="TimesNewRomanPSMT"><tspan y="14.9375" x="0 4.4480006 12.448 16.896 24 29.328 37.328 44.432 48.88">internal.</tspan></text>
<text xml:space="preserve" transform="matrix(.75 0 0 .75 72 571.2274)" font-size="16" font-family="TimesNewRomanPSMT"><tspan y="14.9375" x="0 14.4609379 18.908938 23.356938">With</tspan></text>
<text xml:space="preserve" transform="matrix(.75 0 0 .75 72 571.2274)" font-size="16" font-family="TimesNewRomanPSMT"><tspan y="14.9375" x="37.351564 41.799566 49.799566">the</tspan></text>
<text xml:space="preserve" transform="matrix(.75 0 0 .75 72 571.2274)" font-size="16" font-family="TimesNewRomanPSMT"><tspan y="14.9375" x="62.898439 70.89844 76.22644 84.22644 92.22644 99.330448">proper</tspan></text>
<text xml:space="preserve" transform="matrix(.75 0 0 .75 72 571.2274)" font-size="16" font-family="TimesNewRomanPSMT"><tspan y="14.9375" x="110.65625 115.10425 127.552249 135.55225 140.00025 147.10425 159.55225 166.65625 174.65625 179.10425 186.20825 190.65625 195.10425 203.10425">implementation</tspan></text>
<text xml:space="preserve" transform="matrix(.75 0 0 .75 72 571.2274)" font-size="16" font-family="TimesNewRomanPSMT"><tspan y="14.9375" x="217.07813 225.07813">of</tspan></text>
<text xml:space="preserve" transform="matrix(.75 0 0 .75 72 571.2274)" font-size="16" font-family="TimesNewRomanPSMT"><tspan y="14.9375" x="236.40625 240.85425 248.85425">the</tspan></text>
<text xml:space="preserve" transform="matrix(.75 0 0 .75 72 571.2274)" font-size="16" font-family="TimesNewRomanPSMT"><tspan y="14.9375" x="260.95314 268.95314 274.28114 282.28114 290.28114 298.28114 304.50514 311.60914">proposed</tspan></text>
<text xml:space="preserve" transform="matrix(.75 0 0 .75 72 571.2274)" font-size="16" font-family="TimesNewRomanPSMT"><tspan y="14.9375" x="324.60939 337.05738 344.16139 351.26539 359.26539 366.3694 374.3694 378.81739 385.04139">mechanism</tspan></text>
<text xml:space="preserve" transform="matrix(.75 0 0 .75 72 571.2274)" font-size="16" font-family="TimesNewRomanPSMT"><tspan y="14.9375" x="402.47657 406.92457">it</tspan></text>
<text xml:space="preserve" transform="matrix(.75 0 0 .75 72 571.2274)" font-size="16" font-family="TimesNewRomanPSMT"><tspan y="14.9375" x="416.3672 422.5912 430.5912 438.5912 446.5912 451.03919">should</tspan></text>
<text xml:space="preserve" transform="matrix(.75 0 0 .75 72 571.2274)" font-size="16" font-family="TimesNewRomanPSMT"><tspan y="14.9375" x="464.03907 472.03907">be</tspan></text>
<text xml:space="preserve" transform="matrix(.75 0 0 .75 72 571.2274)" font-size="16" font-family="TimesNewRomanPSMT"><tspan y="14.9375" x="484.14064 492.14064 500.14064 506.36463 512.5886 517.0366 525.0366 529.4846">possible</tspan></text>
<text xml:space="preserve" transform="matrix(.75 0 0 .75 72 571.2274)" font-size="16" font-family="TimesNewRomanPSMT"><tspan y="14.9375" x="541.58596 546.03396">to</tspan></text>
<text xml:space="preserve" transform="matrix(.75 0 0 .75 72 571.2274)" font-size="16" font-family="TimesNewRomanPSMT"><tspan y="14.9375" x="559.03128 567.03128 574.13528 582.13528">have</tspan></text>
<text xml:space="preserve" transform="matrix(.75 0 0 .75 72 571.2274)" font-size="16" font-family="TimesNewRomanPSMT"><tspan y="14.9375" x="594.2344">a</tspan></text>
<text xml:space="preserve" transform="matrix(.75 0 0 .75 72 587.09609)" font-size="16" font-family="TimesNewRomanPSMT"><tspan y="14.9375" x="0 6.2240006 14.224001 22.224 29.328001">shock</tspan></text>
<text xml:space="preserve" transform="matrix(.75 0 0 .75 72 587.09609)" font-size="16" font-family="TimesNewRomanPSMT"><tspan y="14.9375" x="42.328126 49.432126 57.432126 63.656126 71.65613 76.98413 84.98413 92.088138">absorber</tspan></text>
<text xml:space="preserve" transform="matrix(.75 0 0 .75 72 587.09609)" font-size="16" font-family="TimesNewRomanPSMT"><tspan y="14.9375" x="102.41406 113.966068 121.966068 129.96607 136.19007">whose</tspan></text>
<text xml:space="preserve" transform="matrix(.75 0 0 .75 72 587.09609)" font-size="16" font-family="TimesNewRomanPSMT"><tspan y="14.9375" x="148.29688 156.29688 163.40088 175.84888 183.84888 188.29688 196.29688">damping</tspan></text>
<text xml:space="preserve" transform="matrix(.75 0 0 .75 72 587.09609)" font-size="16" font-family="TimesNewRomanPSMT"><tspan y="14.9375" x="209.28907 214.61707 222.61707 227.94507 235.04907 242.15308">forces</tspan></text>
<text xml:space="preserve" transform="matrix(.75 0 0 .75 72 587.09609)" font-size="16" font-family="TimesNewRomanPSMT"><tspan y="14.9375" x="252.375 260.375 265.703 272.807 280.807 288.807 295.911 300.359 304.807">gradually</tspan></text>
<text xml:space="preserve" transform="matrix(.75 0 0 .75 72 587.09609)" font-size="16" font-family="TimesNewRomanPSMT"><tspan y="14.9375" x="316.79689 324.79689 331.90089 339.00489 344.3329 351.4369 358.5409 364.7649">decrease</tspan></text>
<text xml:space="preserve" transform="matrix(.75 0 0 .75 72 587.09609)" font-size="16" font-family="TimesNewRomanPSMT"><tspan y="14.9375" x="375.85939 382.96339">as</tspan></text>
<text xml:space="preserve" transform="matrix(.75 0 0 .75 72 587.09609)" font-size="16" font-family="TimesNewRomanPSMT"><tspan y="14.9375" x="393.1875 397.6355 405.6355">the</tspan></text>
<text xml:space="preserve" transform="matrix(.75 0 0 .75 72 587.09609)" font-size="16" font-family="TimesNewRomanPSMT"><tspan y="14.9375" x="416.73439 424.73439 429.18238 435.40638 439.85438 447.85438">piston</tspan></text>
<text xml:space="preserve" transform="matrix(.75 0 0 .75 72 587.09609)" font-size="16" font-family="TimesNewRomanPSMT"><tspan y="14.9375" x="459.85157 465.17958 472.28358 476.73158 484.73158 490.05958 498.05958">returns</tspan></text>
<text xml:space="preserve" transform="matrix(.75 0 0 .75 72 587.09609)" font-size="16" font-family="TimesNewRomanPSMT"><tspan y="14.9375" x="508.28126 512.72927">to</tspan></text>
<text xml:space="preserve" transform="matrix(.75 0 0 .75 72 587.09609)" font-size="16" font-family="TimesNewRomanPSMT"><tspan y="14.9375" x="524.72659 529.17459 533.62258">its</tspan></text>
<text xml:space="preserve" transform="matrix(.75 0 0 .75 72 587.09609)" font-size="16" font-family="TimesNewRomanPSMT"><tspan y="14.9375" x="543.84378 550.94778 558.94778 563.39578 570.49978 578.49978 586.49978 593.60379">extended</tspan></text>
<text xml:space="preserve" transform="matrix(.75 0 0 .75 72 602.9647)" font-size="16" font-family="TimesNewRomanPSMT"><tspan y="14.9375" x="0 8 16 22.224 26.672 31.12 35.568 43.568">position</tspan></text>
<text xml:space="preserve" transform="matrix(.75 0 0 .75 72 602.9647)" font-size="16" font-family="TimesNewRomanPSMT"><tspan y="14.9375" x="60.5625 67.666507 75.666507">and</tspan></text>
<text xml:space="preserve" transform="matrix(.75 0 0 .75 72 602.9647)" font-size="16" font-family="TimesNewRomanPSMT"><tspan y="14.9375" x="92.66406 105.11206 109.56006 117.56006 125.56006">might</tspan></text>
<text xml:space="preserve" transform="matrix(.75 0 0 .75 72 602.9647)" font-size="16" font-family="TimesNewRomanPSMT"><tspan y="14.9375" x="138 142.448 150.448 157.552 162.88 169.98401 177.08802 183.31201">increase</tspan></text>
<text xml:space="preserve" transform="matrix(.75 0 0 .75 72 602.9647)" font-size="16" font-family="TimesNewRomanPSMT"><tspan y="14.9375" x="198.40625 203.73426 211.73426 218.83826 226.83826 233.94226 241.94226 249.94226 254.39026 262.39027">-depending</tspan></text>
<text xml:space="preserve" transform="matrix(.75 0 0 .75 72 602.9647)" font-size="16" font-family="TimesNewRomanPSMT"><tspan y="14.9375" x="278.3828 286.3828">on</tspan></text>
<text xml:space="preserve" transform="matrix(.75 0 0 .75 72 602.9647)" font-size="16" font-family="TimesNewRomanPSMT"><tspan y="14.9375" x="302.3828 306.8308 314.8308">the</tspan></text>
<text xml:space="preserve" transform="matrix(.75 0 0 .75 72 602.9647)" font-size="16" font-family="TimesNewRomanPSMT"><tspan y="14.9375" x="329.9297 337.9297 345.9297 353.9297 359.2577 366.3617 374.3617 378.8097 383.2577">hydraulic</tspan></text>
<text xml:space="preserve" transform="matrix(.75 0 0 .75 72 602.9647)" font-size="16" font-family="TimesNewRomanPSMT"><tspan y="14.9375" x="398.35157 405.45558 409.90357 415.23158 422.33558 430.33558 434.78358 439.23158 444.55958 452.55958">circuitry-</tspan></text>
<text xml:space="preserve" transform="matrix(.75 0 0 .75 72 602.9647)" font-size="16" font-family="TimesNewRomanPSMT"><tspan y="14.9375" x="465.875 472.979">as</tspan></text>
<text xml:space="preserve" transform="matrix(.75 0 0 .75 72 602.9647)" font-size="16" font-family="TimesNewRomanPSMT"><tspan y="14.9375" x="487.20314 491.65113">it</tspan></text>
<text xml:space="preserve" transform="matrix(.75 0 0 .75 72 602.9647)" font-size="16" font-family="TimesNewRomanPSMT"><tspan y="14.9375" x="504.09376 510.31776 514.76577 519.21377 527.21377 534.31777">slides</tspan></text>
<text xml:space="preserve" transform="matrix(.75 0 0 .75 72 602.9647)" font-size="16" font-family="TimesNewRomanPSMT"><tspan y="14.9375" x="548.53909 552.98709 560.98709 565.43508">into</tspan></text>
<text xml:space="preserve" transform="matrix(.75 0 0 .75 72 602.9647)" font-size="16" font-family="TimesNewRomanPSMT"><tspan y="14.9375" x="581.4297 585.8777 593.8777">the</tspan></text>
<text xml:space="preserve" transform="matrix(.75 0 0 .75 72 618.8334)" font-size="16" font-family="TimesNewRomanPSMT"><tspan y="14.9375" x="0 7.1040008 15.104 19.552 24 32 40 47.104">cylinder</tspan></text>
<text xml:space="preserve" transform="matrix(.75 0 0 .75 72 618.8334)" font-size="16" font-family="TimesNewRomanPSMT"><tspan y="14.9375" x="59.421876 63.869878">to</tspan></text>
<text xml:space="preserve" transform="matrix(.75 0 0 .75 72 618.8334)" font-size="16" font-family="TimesNewRomanPSMT"><tspan y="14.9375" x="78.86719 83.315189 87.76318">its</tspan></text>
<text xml:space="preserve" transform="matrix(.75 0 0 .75 72 618.8334)" font-size="16" font-family="TimesNewRomanPSMT"><tspan y="14.9375" x="99.984378 107.08838 115.08838 127.53638 135.53638 140.86438 147.96839 154.19239 160.41638 167.52039">compressed</tspan></text>
<text xml:space="preserve" transform="matrix(.75 0 0 .75 72 618.8334)" font-size="16" font-family="TimesNewRomanPSMT"><tspan y="14.9375" x="181.51563 189.51563 197.51563 203.73963 208.18762 212.63562 217.08362 225.08362 233.08362">position.</tspan></text>
<text xml:space="preserve" transform="matrix(.75 0 0 .75 72 618.8334)" font-size="16" font-family="TimesNewRomanPSMT"><tspan y="14.9375" x="243.07813 252.85413 260.85414">The</tspan></text>
<text xml:space="preserve" transform="matrix(.75 0 0 .75 72 618.8334)" font-size="16" font-family="TimesNewRomanPSMT"><tspan y="14.9375" x="273.95314 281.95314 289.95314 297.95314 305.05714 309.50514 313.95314">novelty</tspan></text>
<text xml:space="preserve" transform="matrix(.75 0 0 .75 72 618.8334)" font-size="16" font-family="TimesNewRomanPSMT"><tspan y="14.9375" x="327.9453 335.9453">of</tspan></text>
<text xml:space="preserve" transform="matrix(.75 0 0 .75 72 618.8334)" font-size="16" font-family="TimesNewRomanPSMT"><tspan y="14.9375" x="347.27345 351.72145 359.72145 364.16944">this</tspan></text>
<text xml:space="preserve" transform="matrix(.75 0 0 .75 72 618.8334)" font-size="16" font-family="TimesNewRomanPSMT"><tspan y="14.9375" x="376.39064 383.49464 391.49464 399.49464 406.59864 413.70265 421.70265">concept</tspan></text>
<text xml:space="preserve" transform="matrix(.75 0 0 .75 72 618.8334)" font-size="16" font-family="TimesNewRomanPSMT"><tspan y="14.9375" x="432.14064 436.58863 441.03663 448.14064">lies</tspan></text>
<text xml:space="preserve" transform="matrix(.75 0 0 .75 72 618.8334)" font-size="16" font-family="TimesNewRomanPSMT"><tspan y="14.9375" x="460.35939 464.80738">in</tspan></text>
<text xml:space="preserve" transform="matrix(.75 0 0 .75 72 618.8334)" font-size="16" font-family="TimesNewRomanPSMT"><tspan y="14.9375" x="478.8047 483.2527 491.2527 498.3567">that</tspan></text>
<text xml:space="preserve" transform="matrix(.75 0 0 .75 72 618.8334)" font-size="16" font-family="TimesNewRomanPSMT"><tspan y="14.9375" x="508.79689 513.2449 521.2449">the</tspan></text>
<text xml:space="preserve" transform="matrix(.75 0 0 .75 72 618.8334)" font-size="16" font-family="TimesNewRomanPSMT"><tspan y="14.9375" x="534.34378 541.44778 553.89578 561.89578 569.89578 577.89578">amount</tspan></text>
<text xml:space="preserve" transform="matrix(.75 0 0 .75 72 618.8334)" font-size="16" font-family="TimesNewRomanPSMT"><tspan y="14.9375" x="588.33596 596.33596">of</tspan></text>
<text xml:space="preserve" transform="matrix(.75 0 0 .75 72 634.702)" font-size="16" font-family="TimesNewRomanPSMT"><tspan y="14.9375" x="0 8 15.104 27.552002 35.552003 40.000005 48.000005">damping</tspan></text>
<text xml:space="preserve" transform="matrix(.75 0 0 .75 72 634.702)" font-size="16" font-family="TimesNewRomanPSMT"><tspan y="14.9375" x="60.992189 65.440189 73.440189 80.54419">that</tspan></text>
<text xml:space="preserve" transform="matrix(.75 0 0 .75 72 634.702)" font-size="16" font-family="TimesNewRomanPSMT"><tspan y="14.9375" x="89.984378 94.43237">is</tspan></text>
<text xml:space="preserve" transform="matrix(.75 0 0 .75 72 634.702)" font-size="16" font-family="TimesNewRomanPSMT"><tspan y="14.9375" x="105.65625 113.65625 120.760257 128.76026 135.86426 143.86426 151.86426 158.96826 166.96826">dependent</tspan></text>
<text xml:space="preserve" transform="matrix(.75 0 0 .75 72 634.702)" font-size="16" font-family="TimesNewRomanPSMT"><tspan y="14.9375" x="176.40625 184.40625">on</tspan></text>
<text xml:space="preserve" transform="matrix(.75 0 0 .75 72 634.702)" font-size="16" font-family="TimesNewRomanPSMT"><tspan y="14.9375" x="197.40625 201.85425 209.85425">the</tspan></text>
<text xml:space="preserve" transform="matrix(.75 0 0 .75 72 634.702)" font-size="16" font-family="TimesNewRomanPSMT"><tspan y="14.9375" x="221.95313 229.95313 237.95313 244.17713 248.62512 253.07312 257.52113 265.52113">position</tspan></text>
<text xml:space="preserve" transform="matrix(.75 0 0 .75 72 634.702)" font-size="16" font-family="TimesNewRomanPSMT"><tspan y="14.9375" x="277.51564 285.51564">of</tspan></text>
<text xml:space="preserve" transform="matrix(.75 0 0 .75 72 634.702)" font-size="16" font-family="TimesNewRomanPSMT"><tspan y="14.9375" x="294.84376 299.29176 307.29176">the</tspan></text>
<text xml:space="preserve" transform="matrix(.75 0 0 .75 72 634.702)" font-size="16" font-family="TimesNewRomanPSMT"><tspan y="14.9375" x="318.39064 326.39064 330.83863 337.06263 341.51063 349.51063">piston</tspan></text>
<text xml:space="preserve" transform="matrix(.75 0 0 .75 72 634.702)" font-size="16" font-family="TimesNewRomanPSMT"><tspan y="14.9375" x="361.5078 368.61183 375.71583">can</tspan></text>
<text xml:space="preserve" transform="matrix(.75 0 0 .75 72 634.702)" font-size="16" font-family="TimesNewRomanPSMT"><tspan y="14.9375" x="387.71095 395.71095">be</tspan></text>
<text xml:space="preserve" transform="matrix(.75 0 0 .75 72 634.702)" font-size="16" font-family="TimesNewRomanPSMT"><tspan y="14.9375" x="406.8125 413.9165 421.9165 426.3645 434.3645 440.5885 445.0365 452.1405">adjusted</tspan></text>
<text xml:space="preserve" transform="matrix(.75 0 0 .75 72 634.702)" font-size="16" font-family="TimesNewRomanPSMT"><tspan y="14.9375" x="464.1328 475.6848 480.1328 484.5808">with</tspan></text>
<text xml:space="preserve" transform="matrix(.75 0 0 .75 72 634.702)" font-size="16" font-family="TimesNewRomanPSMT"><tspan y="14.9375" x="496.57814">a</tspan></text>
<text xml:space="preserve" transform="matrix(.75 0 0 .75 72 634.702)" font-size="16" font-family="TimesNewRomanPSMT"><tspan y="14.9375" x="507.6797 513.9037 518.3517 526.3517 534.3517 538.7997">single</tspan></text>
<text xml:space="preserve" transform="matrix(.75 0 0 .75 72 634.702)" font-size="16" font-family="TimesNewRomanPSMT"><tspan y="14.9375" x="549.89846 557.00247 565.00247 569.45046 576.55447 581.88247 589.88247 596.98648">external</tspan></text>
<text xml:space="preserve" transform="matrix(.75 0 0 .75 72 650.5707)" font-size="16" font-family="TimesNewRomanPSMT"><tspan y="14.9375" x="0 8 12.448 19.552 24">dial,</tspan></text>
<text xml:space="preserve" transform="matrix(.75 0 0 .75 72 650.5707)" font-size="16" font-family="TimesNewRomanPSMT"><tspan y="14.9375" x="33.992189 41.096189 49.096189">and</tspan></text>
<text xml:space="preserve" transform="matrix(.75 0 0 .75 72 650.5707)" font-size="16" font-family="TimesNewRomanPSMT"><tspan y="14.9375" x="63.09375 67.54175 75.54175">the</tspan></text>
<text xml:space="preserve" transform="matrix(.75 0 0 .75 72 650.5707)" font-size="16" font-family="TimesNewRomanPSMT"><tspan y="14.9375" x="88.640628 95.74463 103.74463 116.19263 124.19263 132.19263 140.19263 147.29663 155.29663 159.74463">components</tspan></text>
<text xml:space="preserve" transform="matrix(.75 0 0 .75 72 650.5707)" font-size="16" font-family="TimesNewRomanPSMT"><tspan y="14.9375" x="171.96094 183.51294 187.96094 192.40894">with</tspan></text>
<text xml:space="preserve" transform="matrix(.75 0 0 .75 72 650.5707)" font-size="16" font-family="TimesNewRomanPSMT"><tspan y="14.9375" x="206.40625 217.95825 225.95825 230.40625 237.51026">which</tspan></text>
<text xml:space="preserve" transform="matrix(.75 0 0 .75 72 650.5707)" font-size="16" font-family="TimesNewRomanPSMT"><tspan y="14.9375" x="251.50782 255.95581 263.9558">the</tspan></text>
<text xml:space="preserve" transform="matrix(.75 0 0 .75 72 650.5707)" font-size="16" font-family="TimesNewRomanPSMT"><tspan y="14.9375" x="276.0547 282.2787 286.72669 292.0547 300.0547 308.0547">stroke</tspan></text>
<text xml:space="preserve" transform="matrix(.75 0 0 .75 72 650.5707)" font-size="16" font-family="TimesNewRomanPSMT"><tspan y="14.9375" x="320.15626 328.15626 335.26026 343.26026 350.36427 358.36427 366.36427 373.46827 381.46827">dependent</tspan></text>
<text xml:space="preserve" transform="matrix(.75 0 0 .75 72 650.5707)" font-size="16" font-family="TimesNewRomanPSMT"><tspan y="14.9375" x="390.90626 398.90626 406.01026 418.45826 426.45826 430.90626 438.90626">damping</tspan></text>
<text xml:space="preserve" transform="matrix(.75 0 0 .75 72 650.5707)" font-size="16" font-family="TimesNewRomanPSMT"><tspan y="14.9375" x="451.89845 456.34645">is</tspan></text>
<text xml:space="preserve" transform="matrix(.75 0 0 .75 72 650.5707)" font-size="16" font-family="TimesNewRomanPSMT"><tspan y="14.9375" x="467.5703 474.67433 481.77833 489.77833 494.22633 501.33033 509.33033 516.4343">achieved</tspan></text>
<text xml:space="preserve" transform="matrix(.75 0 0 .75 72 650.5707)" font-size="16" font-family="TimesNewRomanPSMT"><tspan y="14.9375" x="529.4219 536.5259 543.6299">can</tspan></text>
<text xml:space="preserve" transform="matrix(.75 0 0 .75 72 650.5707)" font-size="16" font-family="TimesNewRomanPSMT"><tspan y="14.9375" x="556.625 561.953 569.057 581.505 588.609 593.057">remain</tspan></text>
<text xml:space="preserve" transform="matrix(.75 0 0 .75 72 666.43936)" font-size="16" font-family="TimesNewRomanPSMT"><tspan y="14.9375" x="0 5.328 13.328 17.776001 22.224">fully</tspan></text>
<text xml:space="preserve" transform="matrix(.75 0 0 .75 72 666.43936)" font-size="16" font-family="TimesNewRomanPSMT"><tspan y="14.9375" x="34.21875 38.66675 46.66675 51.114755 58.218755 63.546754 71.54675 78.65076 83.098758">internal.</tspan></text>
</svg>
