<svg xmlns="http://www.w3.org/2000/svg" xmlns:xlink="http://www.w3.org/1999/xlink" version="1.1" width="596" height="842" viewBox="0 0 596 842">
<defs>
<clipPath id="clip_0">
<path d="M0 770.25H595.5V842.25H0Z" fill-rule="evenodd"/>
</clipPath>
</defs>
<path transform="matrix(.75,0,0,.75,0,0)" d="M0 0H794V1123H0Z" fill="#ffffff"/>
<text xml:space="preserve" transform="matrix(.75 0 0 .75 72 88.17865)" font-size="22.666666" font-family="Cambria" font-weight="bold"><tspan y="21.53776" x="0 7.9208376 21.594239 35.123826 46.706193">Index</tspan></text>
<text xml:space="preserve" transform="matrix(.75 0 0 .75 72 143.45557)" font-size="16" font-family="TimesNewRomanPSMT"><tspan y="14.9375" x="0 11.552001 21.328001 30.224003 35.552003 47.104005 52.432004 62.208005 67.536 79.088008 90.64001">DEFINITIONS</tspan></text>
<text xml:space="preserve" transform="matrix(.75 0 0 .75 72 143.45557)" font-size="16" font-family="TimesNewRomanPSMT"><tspan y="14.9375" x="144">.</tspan></text>
<text xml:space="preserve" transform="matrix(.75 0 0 .75 72 143.45557)" font-size="16" font-family="TimesNewRomanPSMT"><tspan y="14.9375" x="156">.</tspan></text>
<text xml:space="preserve" transform="matrix(.75 0 0 .75 72 143.45557)" font-size="16" font-family="TimesNewRomanPSMT"><tspan y="14.9375" x="168">.</tspan></text>
<text xml:space="preserve" transform="matrix(.75 0 0 .75 72 143.45557)" font-size="16" font-family="TimesNewRomanPSMT"><tspan y="14.9375" x="180">.</tspan></text>
<text xml:space="preserve" transform="matrix(.75 0 0 .75 72 143.45557)" font-size="16" font-family="TimesNewRomanPSMT"><tspan y="14.9375" x="192">.</tspan></text>
<text xml:space="preserve" transform="matrix(.75 0 0 .75 72 143.45557)" font-size="16" font-family="TimesNewRomanPSMT"><tspan y="14.9375" x="204">.</tspan></text>
<text xml:space="preserve" transform="matrix(.75 0 0 .75 72 143.45557)" font-size="16" font-family="TimesNewRomanPSMT"><tspan y="14.9375" x="216">.</tspan></text>
<text xml:space="preserve" transform="matrix(.75 0 0 .75 72 143.45557)" font-size="16" font-family="TimesNewRomanPSMT"><tspan y="14.9375" x="228">.</tspan></text>
<text xml:space="preserve" transform="matrix(.75 0 0 .75 72 143.45557)" font-size="16" font-family="TimesNewRomanPSMT"><tspan y="14.9375" x="240">.</tspan></text>
<text xml:space="preserve" transform="matrix(.75 0 0 .75 72 143.45557)" font-size="16" font-family="TimesNewRomanPSMT"><tspan y="14.9375" x="252">.</tspan></text>
<text xml:space="preserve" transform="matrix(.75 0 0 .75 72 143.45557)" font-size="16" font-family="TimesNewRomanPSMT"><tspan y="14.9375" x="264">.</tspan></text>
<text xml:space="preserve" transform="matrix(.75 0 0 .75 72 143.45557)" font-size="16" font-family="TimesNewRomanPSMT"><tspan y="14.9375" x="276">.</tspan></text>
<text xml:space="preserve" transform="matrix(.75 0 0 .75 72 143.45557)" font-size="16" font-family="TimesNewRomanPSMT"><tspan y="14.9375" x="288">.</tspan></text>
<text xml:space="preserve" transform="matrix(.75 0 0 .75 72 143.45557)" font-size="16" font-family="TimesNewRomanPSMT"><tspan y="14.9375" x="300">.</tspan></text>
<text xml:space="preserve" transform="matrix(.75 0 0 .75 72 143.45557)" font-size="16" font-family="TimesNewRomanPSMT"><tspan y="14.9375" x="312">.</tspan></text>
<text xml:space="preserve" transform="matrix(.75 0 0 .75 72 143.45557)" font-size="16" font-family="TimesNewRomanPSMT"><tspan y="14.9375" x="324">.</tspan></text>
<text xml:space="preserve" transform="matrix(.75 0 0 .75 72 143.45557)" font-size="16" font-family="TimesNewRomanPSMT"><tspan y="14.9375" x="336">.</tspan></text>
<text xml:space="preserve" transform="matrix(.75 0 0 .75 72 143.45557)" font-size="16" font-family="TimesNewRomanPSMT"><tspan y="14.9375" x="348">.</tspan></text>
<text xml:space="preserve" transform="matrix(.75 0 0 .75 72 143.45557)" font-size="16" font-family="TimesNewRomanPSMT"><tspan y="14.9375" x="360">.</tspan></text>
<text xml:space="preserve" transform="matrix(.75 0 0 .75 72 143.45557)" font-size="16" font-family="TimesNewRomanPSMT"><tspan y="14.9375" x="372">.</tspan></text>
<text xml:space="preserve" transform="matrix(.75 0 0 .75 72 143.45557)" font-size="16" font-family="TimesNewRomanPSMT"><tspan y="14.9375" x="384">.</tspan></text>
<text xml:space="preserve" transform="matrix(.75 0 0 .75 72 143.45557)" font-size="16" font-family="TimesNewRomanPSMT"><tspan y="14.9375" x="396">.</tspan></text>
<text xml:space="preserve" transform="matrix(.75 0 0 .75 72 143.45557)" font-size="16" font-family="TimesNewRomanPSMT"><tspan y="14.9375" x="408">.</tspan></text>
<text xml:space="preserve" transform="matrix(.75 0 0 .75 72 143.45557)" font-size="16" font-family="TimesNewRomanPSMT"><tspan y="14.9375" x="420">.</tspan></text>
<text xml:space="preserve" transform="matrix(.75 0 0 .75 72 143.45557)" font-size="16" font-family="TimesNewRomanPSMT"><tspan y="14.9375" x="432">.</tspan></text>
<text xml:space="preserve" transform="matrix(.75 0 0 .75 72 143.45557)" font-size="16" font-family="TimesNewRomanPSMT"><tspan y="14.9375" x="444">.</tspan></text>
<text xml:space="preserve" transform="matrix(.75 0 0 .75 72 143.45557)" font-size="16" font-family="TimesNewRomanPSMT"><tspan y="14.9375" x="456">.</tspan></text>
<text xml:space="preserve" transform="matrix(.75 0 0 .75 72 143.45557)" font-size="16" font-family="TimesNewRomanPSMT"><tspan y="14.9375" x="468">.</tspan></text>
<text xml:space="preserve" transform="matrix(.75 0 0 .75 72 143.45557)" font-size="16" font-family="TimesNewRomanPSMT"><tspan y="14.9375" x="480">.</tspan></text>
<text xml:space="preserve" transform="matrix(.75 0 0 .75 72 143.45557)" font-size="16" font-family="TimesNewRomanPSMT"><tspan y="14.9375" x="492">.</tspan></text>
<text xml:space="preserve" transform="matrix(.75 0 0 .75 72 143.45557)" font-size="16" font-family="TimesNewRomanPSMT"><tspan y="14.9375" x="504">.</tspan></text>
<text xml:space="preserve" transform="matrix(.75 0 0 .75 72 143.45557)" font-size="16" font-family="TimesNewRomanPSMT"><tspan y="14.9375" x="516">.</tspan></text>
<text xml:space="preserve" transform="matrix(.75 0 0 .75 72 143.45557)" font-size="16" font-family="TimesNewRomanPSMT"><tspan y="14.9375" x="528">.</tspan></text>
<text xml:space="preserve" transform="matrix(.75 0 0 .75 72 143.45557)" font-size="16" font-family="TimesNewRomanPSMT"><tspan y="14.9375" x="540">.</tspan></text>
<text xml:space="preserve" transform="matrix(.75 0 0 .75 72 143.45557)" font-size="16" font-family="TimesNewRomanPSMT"><tspan y="14.9375" x="552">.</tspan></text>
<text xml:space="preserve" transform="matrix(.75 0 0 .75 72 143.45557)" font-size="16" font-family="TimesNewRomanPSMT"><tspan y="14.9375" x="564">.</tspan></text>
<text xml:space="preserve" transform="matrix(.75 0 0 .75 72 143.45557)" font-size="16" font-family="TimesNewRomanPSMT"><tspan y="14.9375" x="576">3</tspan></text>
<text xml:space="preserve" transform="matrix(.75 0 0 .75 72 175.19287)" font-size="16" font-family="TimesNewRomanPSMT"><tspan y="14.9375" x="0 5.328 16.880002 26.656002 37.328004 48.880006 60.432008 71.98401 82.656009 92.43201 97.76001 109.31201">INTRODUCTION</tspan></text>
<text xml:space="preserve" transform="matrix(.75 0 0 .75 72 175.19287)" font-size="16" font-family="TimesNewRomanPSMT"><tspan y="14.9375" x="144">.</tspan></text>
<text xml:space="preserve" transform="matrix(.75 0 0 .75 72 175.19287)" font-size="16" font-family="TimesNewRomanPSMT"><tspan y="14.9375" x="156">.</tspan></text>
<text xml:space="preserve" transform="matrix(.75 0 0 .75 72 175.19287)" font-size="16" font-family="TimesNewRomanPSMT"><tspan y="14.9375" x="168">.</tspan></text>
<text xml:space="preserve" transform="matrix(.75 0 0 .75 72 175.19287)" font-size="16" font-family="TimesNewRomanPSMT"><tspan y="14.9375" x="180">.</tspan></text>
<text xml:space="preserve" transform="matrix(.75 0 0 .75 72 175.19287)" font-size="16" font-family="TimesNewRomanPSMT"><tspan y="14.9375" x="192">.</tspan></text>
<text xml:space="preserve" transform="matrix(.75 0 0 .75 72 175.19287)" font-size="16" font-family="TimesNewRomanPSMT"><tspan y="14.9375" x="204">.</tspan></text>
<text xml:space="preserve" transform="matrix(.75 0 0 .75 72 175.19287)" font-size="16" font-family="TimesNewRomanPSMT"><tspan y="14.9375" x="216">.</tspan></text>
<text xml:space="preserve" transform="matrix(.75 0 0 .75 72 175.19287)" font-size="16" font-family="TimesNewRomanPSMT"><tspan y="14.9375" x="228">.</tspan></text>
<text xml:space="preserve" transform="matrix(.75 0 0 .75 72 175.19287)" font-size="16" font-family="TimesNewRomanPSMT"><tspan y="14.9375" x="240">.</tspan></text>
<text xml:space="preserve" transform="matrix(.75 0 0 .75 72 175.19287)" font-size="16" font-family="TimesNewRomanPSMT"><tspan y="14.9375" x="252">.</tspan></text>
<text xml:space="preserve" transform="matrix(.75 0 0 .75 72 175.19287)" font-size="16" font-family="TimesNewRomanPSMT"><tspan y="14.9375" x="264">.</tspan></text>
<text xml:space="preserve" transform="matrix(.75 0 0 .75 72 175.19287)" font-size="16" font-family="TimesNewRomanPSMT"><tspan y="14.9375" x="276">.</tspan></text>
<text xml:space="preserve" transform="matrix(.75 0 0 .75 72 175.19287)" font-size="16" font-family="TimesNewRomanPSMT"><tspan y="14.9375" x="288">.</tspan></text>
<text xml:space="preserve" transform="matrix(.75 0 0 .75 72 175.19287)" font-size="16" font-family="TimesNewRomanPSMT"><tspan y="14.9375" x="300">.</tspan></text>
<text xml:space="preserve" transform="matrix(.75 0 0 .75 72 175.19287)" font-size="16" font-family="TimesNewRomanPSMT"><tspan y="14.9375" x="312">.</tspan></text>
<text xml:space="preserve" transform="matrix(.75 0 0 .75 72 175.19287)" font-size="16" font-family="TimesNewRomanPSMT"><tspan y="14.9375" x="324">.</tspan></text>
<text xml:space="preserve" transform="matrix(.75 0 0 .75 72 175.19287)" font-size="16" font-family="TimesNewRomanPSMT"><tspan y="14.9375" x="336">.</tspan></text>
<text xml:space="preserve" transform="matrix(.75 0 0 .75 72 175.19287)" font-size="16" font-family="TimesNewRomanPSMT"><tspan y="14.9375" x="348">.</tspan></text>
<text xml:space="preserve" transform="matrix(.75 0 0 .75 72 175.19287)" font-size="16" font-family="TimesNewRomanPSMT"><tspan y="14.9375" x="360">.</tspan></text>
<text xml:space="preserve" transform="matrix(.75 0 0 .75 72 175.19287)" font-size="16" font-family="TimesNewRomanPSMT"><tspan y="14.9375" x="372">.</tspan></text>
<text xml:space="preserve" transform="matrix(.75 0 0 .75 72 175.19287)" font-size="16" font-family="TimesNewRomanPSMT"><tspan y="14.9375" x="384">.</tspan></text>
<text xml:space="preserve" transform="matrix(.75 0 0 .75 72 175.19287)" font-size="16" font-family="TimesNewRomanPSMT"><tspan y="14.9375" x="396">.</tspan></text>
<text xml:space="preserve" transform="matrix(.75 0 0 .75 72 175.19287)" font-size="16" font-family="TimesNewRomanPSMT"><tspan y="14.9375" x="408">.</tspan></text>
<text xml:space="preserve" transform="matrix(.75 0 0 .75 72 175.19287)" font-size="16" font-family="TimesNewRomanPSMT"><tspan y="14.9375" x="420">.</tspan></text>
<text xml:space="preserve" transform="matrix(.75 0 0 .75 72 175.19287)" font-size="16" font-family="TimesNewRomanPSMT"><tspan y="14.9375" x="432">.</tspan></text>
<text xml:space="preserve" transform="matrix(.75 0 0 .75 72 175.19287)" font-size="16" font-family="TimesNewRomanPSMT"><tspan y="14.9375" x="444">.</tspan></text>
<text xml:space="preserve" transform="matrix(.75 0 0 .75 72 175.19287)" font-size="16" font-family="TimesNewRomanPSMT"><tspan y="14.9375" x="456">.</tspan></text>
<text xml:space="preserve" transform="matrix(.75 0 0 .75 72 175.19287)" font-size="16" font-family="TimesNewRomanPSMT"><tspan y="14.9375" x="468">.</tspan></text>
<text xml:space="preserve" transform="matrix(.75 0 0 .75 72 175.19287)" font-size="16" font-family="TimesNewRomanPSMT"><tspan y="14.9375" x="480">.</tspan></text>
<text xml:space="preserve" transform="matrix(.75 0 0 .75 72 175.19287)" font-size="16" font-family="TimesNewRomanPSMT"><tspan y="14.9375" x="492">.</tspan></text>
<text xml:space="preserve" transform="matrix(.75 0 0 .75 72 175.19287)" font-size="16" font-family="TimesNewRomanPSMT"><tspan y="14.9375" x="504">.</tspan></text>
<text xml:space="preserve" transform="matrix(.75 0 0 .75 72 175.19287)" font-size="16" font-family="TimesNewRomanPSMT"><tspan y="14.9375" x="516">.</tspan></text>
<text xml:space="preserve" transform="matrix(.75 0 0 .75 72 175.19287)" font-size="16" font-family="TimesNewRomanPSMT"><tspan y="14.9375" x="528">.</tspan></text>
<text xml:space="preserve" transform="matrix(.75 0 0 .75 72 175.19287)" font-size="16" font-family="TimesNewRomanPSMT"><tspan y="14.9375" x="540">.</tspan></text>
<text xml:space="preserve" transform="matrix(.75 0 0 .75 72 175.19287)" font-size="16" font-family="TimesNewRomanPSMT"><tspan y="14.9375" x="552">.</tspan></text>
<text xml:space="preserve" transform="matrix(.75 0 0 .75 72 175.19287)" font-size="16" font-family="TimesNewRomanPSMT"><tspan y="14.9375" x="564">.</tspan></text>
<text xml:space="preserve" transform="matrix(.75 0 0 .75 72 175.19287)" font-size="16" font-family="TimesNewRomanPSMT"><tspan y="14.9375" x="576">4</tspan></text>
<text xml:space="preserve" transform="matrix(.75 0 0 .75 72 206.93018)" font-size="16" font-family="TimesNewRomanPSMT"><tspan y="14.9375" x="0 9.776 21.328001 31.104 42.656003 52.445314">THEORY</tspan></text>
<text xml:space="preserve" transform="matrix(.75 0 0 .75 72 206.93018)" font-size="16" font-family="TimesNewRomanPSMT"><tspan y="14.9375" x="68 79.552 91.104007">AND</tspan></text>
<text xml:space="preserve" transform="matrix(.75 0 0 .75 72 206.93018)" font-size="16" font-family="TimesNewRomanPSMT"><tspan y="14.9375" x="106.66406 118.216068 127.11207 136.00807 147.56008 161.78408 170.68007 180.45607 185.78408 197.33608 208.88808">ASSUMPTIONS</tspan></text>
<text xml:space="preserve" transform="matrix(.75 0 0 .75 72 206.93018)" font-size="16" font-family="TimesNewRomanPSMT"><tspan y="14.9375" x="240">.</tspan></text>
<text xml:space="preserve" transform="matrix(.75 0 0 .75 72 206.93018)" font-size="16" font-family="TimesNewRomanPSMT"><tspan y="14.9375" x="252">.</tspan></text>
<text xml:space="preserve" transform="matrix(.75 0 0 .75 72 206.93018)" font-size="16" font-family="TimesNewRomanPSMT"><tspan y="14.9375" x="264">.</tspan></text>
<text xml:space="preserve" transform="matrix(.75 0 0 .75 72 206.93018)" font-size="16" font-family="TimesNewRomanPSMT"><tspan y="14.9375" x="276">.</tspan></text>
<text xml:space="preserve" transform="matrix(.75 0 0 .75 72 206.93018)" font-size="16" font-family="TimesNewRomanPSMT"><tspan y="14.9375" x="288">.</tspan></text>
<text xml:space="preserve" transform="matrix(.75 0 0 .75 72 206.93018)" font-size="16" font-family="TimesNewRomanPSMT"><tspan y="14.9375" x="300">.</tspan></text>
<text xml:space="preserve" transform="matrix(.75 0 0 .75 72 206.93018)" font-size="16" font-family="TimesNewRomanPSMT"><tspan y="14.9375" x="312">.</tspan></text>
<text xml:space="preserve" transform="matrix(.75 0 0 .75 72 206.93018)" font-size="16" font-family="TimesNewRomanPSMT"><tspan y="14.9375" x="324">.</tspan></text>
<text xml:space="preserve" transform="matrix(.75 0 0 .75 72 206.93018)" font-size="16" font-family="TimesNewRomanPSMT"><tspan y="14.9375" x="336">.</tspan></text>
<text xml:space="preserve" transform="matrix(.75 0 0 .75 72 206.93018)" font-size="16" font-family="TimesNewRomanPSMT"><tspan y="14.9375" x="348">.</tspan></text>
<text xml:space="preserve" transform="matrix(.75 0 0 .75 72 206.93018)" font-size="16" font-family="TimesNewRomanPSMT"><tspan y="14.9375" x="360">.</tspan></text>
<text xml:space="preserve" transform="matrix(.75 0 0 .75 72 206.93018)" font-size="16" font-family="TimesNewRomanPSMT"><tspan y="14.9375" x="372">.</tspan></text>
<text xml:space="preserve" transform="matrix(.75 0 0 .75 72 206.93018)" font-size="16" font-family="TimesNewRomanPSMT"><tspan y="14.9375" x="384">.</tspan></text>
<text xml:space="preserve" transform="matrix(.75 0 0 .75 72 206.93018)" font-size="16" font-family="TimesNewRomanPSMT"><tspan y="14.9375" x="396">.</tspan></text>
<text xml:space="preserve" transform="matrix(.75 0 0 .75 72 206.93018)" font-size="16" font-family="TimesNewRomanPSMT"><tspan y="14.9375" x="408">.</tspan></text>
<text xml:space="preserve" transform="matrix(.75 0 0 .75 72 206.93018)" font-size="16" font-family="TimesNewRomanPSMT"><tspan y="14.9375" x="420">.</tspan></text>
<text xml:space="preserve" transform="matrix(.75 0 0 .75 72 206.93018)" font-size="16" font-family="TimesNewRomanPSMT"><tspan y="14.9375" x="432">.</tspan></text>
<text xml:space="preserve" transform="matrix(.75 0 0 .75 72 206.93018)" font-size="16" font-family="TimesNewRomanPSMT"><tspan y="14.9375" x="444">.</tspan></text>
<text xml:space="preserve" transform="matrix(.75 0 0 .75 72 206.93018)" font-size="16" font-family="TimesNewRomanPSMT"><tspan y="14.9375" x="456">.</tspan></text>
<text xml:space="preserve" transform="matrix(.75 0 0 .75 72 206.93018)" font-size="16" font-family="TimesNewRomanPSMT"><tspan y="14.9375" x="468">.</tspan></text>
<text xml:space="preserve" transform="matrix(.75 0 0 .75 72 206.93018)" font-size="16" font-family="TimesNewRomanPSMT"><tspan y="14.9375" x="480">.</tspan></text>
<text xml:space="preserve" transform="matrix(.75 0 0 .75 72 206.93018)" font-size="16" font-family="TimesNewRomanPSMT"><tspan y="14.9375" x="492">.</tspan></text>
<text xml:space="preserve" transform="matrix(.75 0 0 .75 72 206.93018)" font-size="16" font-family="TimesNewRomanPSMT"><tspan y="14.9375" x="504">.</tspan></text>
<text xml:space="preserve" transform="matrix(.75 0 0 .75 72 206.93018)" font-size="16" font-family="TimesNewRomanPSMT"><tspan y="14.9375" x="516">.</tspan></text>
<text xml:space="preserve" transform="matrix(.75 0 0 .75 72 206.93018)" font-size="16" font-family="TimesNewRomanPSMT"><tspan y="14.9375" x="528">.</tspan></text>
<text xml:space="preserve" transform="matrix(.75 0 0 .75 72 206.93018)" font-size="16" font-family="TimesNewRomanPSMT"><tspan y="14.9375" x="540">.</tspan></text>
<text xml:space="preserve" transform="matrix(.75 0 0 .75 72 206.93018)" font-size="16" font-family="TimesNewRomanPSMT"><tspan y="14.9375" x="552">.</tspan></text>
<text xml:space="preserve" transform="matrix(.75 0 0 .75 72 206.93018)" font-size="16" font-family="TimesNewRomanPSMT"><tspan y="14.9375" x="564">.</tspan></text>
<text xml:space="preserve" transform="matrix(.75 0 0 .75 72 206.93018)" font-size="16" font-family="TimesNewRomanPSMT"><tspan y="14.9375" x="576">5</tspan></text>
<text xml:space="preserve" transform="matrix(.75 0 0 .75 72 238.66748)" font-size="16" font-family="TimesNewRomanPSMT"><tspan y="14.9375" x="0 11.552001 21.328001">KEY</tspan></text>
<text xml:space="preserve" transform="matrix(.75 0 0 .75 72 238.66748)" font-size="16" font-family="TimesNewRomanPSMT"><tspan y="14.9375" x="36.882814 47.554815 59.106817 70.65881 81.33081 91.10681 100.002819 109.77882">CONCEPTS</tspan></text>
<text xml:space="preserve" transform="matrix(.75 0 0 .75 72 238.66748)" font-size="16" font-family="TimesNewRomanPSMT"><tspan y="14.9375" x="122.67969 134.23169 145.78369">AND</tspan></text>
<text xml:space="preserve" transform="matrix(.75 0 0 .75 72 238.66748)" font-size="16" font-family="TimesNewRomanPSMT"><tspan y="14.9375" x="161.34375 170.23975 180.01575 189.79688 199.57288 211.12488 221.79688 231.57288">FEATURES</tspan></text>
<text xml:space="preserve" transform="matrix(.75 0 0 .75 72 238.66748)" font-size="16" font-family="TimesNewRomanPSMT"><tspan y="14.9375" x="252.46875">.</tspan></text>
<text xml:space="preserve" transform="matrix(.75 0 0 .75 72 238.66748)" font-size="16" font-family="TimesNewRomanPSMT"><tspan y="14.9375" x="264.46876">.</tspan></text>
<text xml:space="preserve" transform="matrix(.75 0 0 .75 72 238.66748)" font-size="16" font-family="TimesNewRomanPSMT"><tspan y="14.9375" x="276.46876">.</tspan></text>
<text xml:space="preserve" transform="matrix(.75 0 0 .75 72 238.66748)" font-size="16" font-family="TimesNewRomanPSMT"><tspan y="14.9375" x="288.46876">.</tspan></text>
<text xml:space="preserve" transform="matrix(.75 0 0 .75 72 238.66748)" font-size="16" font-family="TimesNewRomanPSMT"><tspan y="14.9375" x="300.46876">.</tspan></text>
<text xml:space="preserve" transform="matrix(.75 0 0 .75 72 238.66748)" font-size="16" font-family="TimesNewRomanPSMT"><tspan y="14.9375" x="312.46876">.</tspan></text>
<text xml:space="preserve" transform="matrix(.75 0 0 .75 72 238.66748)" font-size="16" font-family="TimesNewRomanPSMT"><tspan y="14.9375" x="324.46876">.</tspan></text>
<text xml:space="preserve" transform="matrix(.75 0 0 .75 72 238.66748)" font-size="16" font-family="TimesNewRomanPSMT"><tspan y="14.9375" x="336.46876">.</tspan></text>
<text xml:space="preserve" transform="matrix(.75 0 0 .75 72 238.66748)" font-size="16" font-family="TimesNewRomanPSMT"><tspan y="14.9375" x="348.46876">.</tspan></text>
<text xml:space="preserve" transform="matrix(.75 0 0 .75 72 238.66748)" font-size="16" font-family="TimesNewRomanPSMT"><tspan y="14.9375" x="360.46876">.</tspan></text>
<text xml:space="preserve" transform="matrix(.75 0 0 .75 72 238.66748)" font-size="16" font-family="TimesNewRomanPSMT"><tspan y="14.9375" x="372.46876">.</tspan></text>
<text xml:space="preserve" transform="matrix(.75 0 0 .75 72 238.66748)" font-size="16" font-family="TimesNewRomanPSMT"><tspan y="14.9375" x="384.46876">.</tspan></text>
<text xml:space="preserve" transform="matrix(.75 0 0 .75 72 238.66748)" font-size="16" font-family="TimesNewRomanPSMT"><tspan y="14.9375" x="396.46876">.</tspan></text>
<text xml:space="preserve" transform="matrix(.75 0 0 .75 72 238.66748)" font-size="16" font-family="TimesNewRomanPSMT"><tspan y="14.9375" x="408.46876">.</tspan></text>
<text xml:space="preserve" transform="matrix(.75 0 0 .75 72 238.66748)" font-size="16" font-family="TimesNewRomanPSMT"><tspan y="14.9375" x="420.46876">.</tspan></text>
<text xml:space="preserve" transform="matrix(.75 0 0 .75 72 238.66748)" font-size="16" font-family="TimesNewRomanPSMT"><tspan y="14.9375" x="432.46876">.</tspan></text>
<text xml:space="preserve" transform="matrix(.75 0 0 .75 72 238.66748)" font-size="16" font-family="TimesNewRomanPSMT"><tspan y="14.9375" x="444.46876">.</tspan></text>
<text xml:space="preserve" transform="matrix(.75 0 0 .75 72 238.66748)" font-size="16" font-family="TimesNewRomanPSMT"><tspan y="14.9375" x="456.46876">.</tspan></text>
<text xml:space="preserve" transform="matrix(.75 0 0 .75 72 238.66748)" font-size="16" font-family="TimesNewRomanPSMT"><tspan y="14.9375" x="468.46876">.</tspan></text>
<text xml:space="preserve" transform="matrix(.75 0 0 .75 72 238.66748)" font-size="16" font-family="TimesNewRomanPSMT"><tspan y="14.9375" x="480.46876">.</tspan></text>
<text xml:space="preserve" transform="matrix(.75 0 0 .75 72 238.66748)" font-size="16" font-family="TimesNewRomanPSMT"><tspan y="14.9375" x="492.46876">.</tspan></text>
<text xml:space="preserve" transform="matrix(.75 0 0 .75 72 238.66748)" font-size="16" font-family="TimesNewRomanPSMT"><tspan y="14.9375" x="504.46876">.</tspan></text>
<text xml:space="preserve" transform="matrix(.75 0 0 .75 72 238.66748)" font-size="16" font-family="TimesNewRomanPSMT"><tspan y="14.9375" x="516.46878">.</tspan></text>
<text xml:space="preserve" transform="matrix(.75 0 0 .75 72 238.66748)" font-size="16" font-family="TimesNewRomanPSMT"><tspan y="14.9375" x="528.46878">.</tspan></text>
<text xml:space="preserve" transform="matrix(.75 0 0 .75 72 238.66748)" font-size="16" font-family="TimesNewRomanPSMT"><tspan y="14.9375" x="540.46878">.</tspan></text>
<text xml:space="preserve" transform="matrix(.75 0 0 .75 72 238.66748)" font-size="16" font-family="TimesNewRomanPSMT"><tspan y="14.9375" x="552.46878">.</tspan></text>
<text xml:space="preserve" transform="matrix(.75 0 0 .75 72 238.66748)" font-size="16" font-family="TimesNewRomanPSMT"><tspan y="14.9375" x="564.46878">.</tspan></text>
<text xml:space="preserve" transform="matrix(.75 0 0 .75 72 238.66748)" font-size="16" font-family="TimesNewRomanPSMT"><tspan y="14.9375" x="576.46878">8</tspan></text>
<text xml:space="preserve" transform="matrix(.75 0 0 .75 72 270.4048)" font-size="16" font-family="TimesNewRomanPSMT"><tspan y="14.9375" x="0 14.224001 24 34.672 46.224004 57.776006 69.328 74.656009 83.55201">MECHANISM</tspan></text>
<text xml:space="preserve" transform="matrix(.75 0 0 .75 72 270.4048)" font-size="16" font-family="TimesNewRomanPSMT"><tspan y="14.9375" x="144">.</tspan></text>
<text xml:space="preserve" transform="matrix(.75 0 0 .75 72 270.4048)" font-size="16" font-family="TimesNewRomanPSMT"><tspan y="14.9375" x="156">.</tspan></text>
<text xml:space="preserve" transform="matrix(.75 0 0 .75 72 270.4048)" font-size="16" font-family="TimesNewRomanPSMT"><tspan y="14.9375" x="168">.</tspan></text>
<text xml:space="preserve" transform="matrix(.75 0 0 .75 72 270.4048)" font-size="16" font-family="TimesNewRomanPSMT"><tspan y="14.9375" x="180">.</tspan></text>
<text xml:space="preserve" transform="matrix(.75 0 0 .75 72 270.4048)" font-size="16" font-family="TimesNewRomanPSMT"><tspan y="14.9375" x="192">.</tspan></text>
<text xml:space="preserve" transform="matrix(.75 0 0 .75 72 270.4048)" font-size="16" font-family="TimesNewRomanPSMT"><tspan y="14.9375" x="204">.</tspan></text>
<text xml:space="preserve" transform="matrix(.75 0 0 .75 72 270.4048)" font-size="16" font-family="TimesNewRomanPSMT"><tspan y="14.9375" x="216">.</tspan></text>
<text xml:space="preserve" transform="matrix(.75 0 0 .75 72 270.4048)" font-size="16" font-family="TimesNewRomanPSMT"><tspan y="14.9375" x="228">.</tspan></text>
<text xml:space="preserve" transform="matrix(.75 0 0 .75 72 270.4048)" font-size="16" font-family="TimesNewRomanPSMT"><tspan y="14.9375" x="240">.</tspan></text>
<text xml:space="preserve" transform="matrix(.75 0 0 .75 72 270.4048)" font-size="16" font-family="TimesNewRomanPSMT"><tspan y="14.9375" x="252">.</tspan></text>
<text xml:space="preserve" transform="matrix(.75 0 0 .75 72 270.4048)" font-size="16" font-family="TimesNewRomanPSMT"><tspan y="14.9375" x="264">.</tspan></text>
<text xml:space="preserve" transform="matrix(.75 0 0 .75 72 270.4048)" font-size="16" font-family="TimesNewRomanPSMT"><tspan y="14.9375" x="276">.</tspan></text>
<text xml:space="preserve" transform="matrix(.75 0 0 .75 72 270.4048)" font-size="16" font-family="TimesNewRomanPSMT"><tspan y="14.9375" x="288">.</tspan></text>
<text xml:space="preserve" transform="matrix(.75 0 0 .75 72 270.4048)" font-size="16" font-family="TimesNewRomanPSMT"><tspan y="14.9375" x="300">.</tspan></text>
<text xml:space="preserve" transform="matrix(.75 0 0 .75 72 270.4048)" font-size="16" font-family="TimesNewRomanPSMT"><tspan y="14.9375" x="312">.</tspan></text>
<text xml:space="preserve" transform="matrix(.75 0 0 .75 72 270.4048)" font-size="16" font-family="TimesNewRomanPSMT"><tspan y="14.9375" x="324">.</tspan></text>
<text xml:space="preserve" transform="matrix(.75 0 0 .75 72 270.4048)" font-size="16" font-family="TimesNewRomanPSMT"><tspan y="14.9375" x="336">.</tspan></text>
<text xml:space="preserve" transform="matrix(.75 0 0 .75 72 270.4048)" font-size="16" font-family="TimesNewRomanPSMT"><tspan y="14.9375" x="348">.</tspan></text>
<text xml:space="preserve" transform="matrix(.75 0 0 .75 72 270.4048)" font-size="16" font-family="TimesNewRomanPSMT"><tspan y="14.9375" x="360">.</tspan></text>
<text xml:space="preserve" transform="matrix(.75 0 0 .75 72 270.4048)" font-size="16" font-family="TimesNewRomanPSMT"><tspan y="14.9375" x="372">.</tspan></text>
<text xml:space="preserve" transform="matrix(.75 0 0 .75 72 270.4048)" font-size="16" font-family="TimesNewRomanPSMT"><tspan y="14.9375" x="384">.</tspan></text>
<text xml:space="preserve" transform="matrix(.75 0 0 .75 72 270.4048)" font-size="16" font-family="TimesNewRomanPSMT"><tspan y="14.9375" x="396">.</tspan></text>
<text xml:space="preserve" transform="matrix(.75 0 0 .75 72 270.4048)" font-size="16" font-family="TimesNewRomanPSMT"><tspan y="14.9375" x="408">.</tspan></text>
<text xml:space="preserve" transform="matrix(.75 0 0 .75 72 270.4048)" font-size="16" font-family="TimesNewRomanPSMT"><tspan y="14.9375" x="420">.</tspan></text>
<text xml:space="preserve" transform="matrix(.75 0 0 .75 72 270.4048)" font-size="16" font-family="TimesNewRomanPSMT"><tspan y="14.9375" x="432">.</tspan></text>
<text xml:space="preserve" transform="matrix(.75 0 0 .75 72 270.4048)" font-size="16" font-family="TimesNewRomanPSMT"><tspan y="14.9375" x="444">.</tspan></text>
<text xml:space="preserve" transform="matrix(.75 0 0 .75 72 270.4048)" font-size="16" font-family="TimesNewRomanPSMT"><tspan y="14.9375" x="456">.</tspan></text>
<text xml:space="preserve" transform="matrix(.75 0 0 .75 72 270.4048)" font-size="16" font-family="TimesNewRomanPSMT"><tspan y="14.9375" x="468">.</tspan></text>
<text xml:space="preserve" transform="matrix(.75 0 0 .75 72 270.4048)" font-size="16" font-family="TimesNewRomanPSMT"><tspan y="14.9375" x="480">.</tspan></text>
<text xml:space="preserve" transform="matrix(.75 0 0 .75 72 270.4048)" font-size="16" font-family="TimesNewRomanPSMT"><tspan y="14.9375" x="492">.</tspan></text>
<text xml:space="preserve" transform="matrix(.75 0 0 .75 72 270.4048)" font-size="16" font-family="TimesNewRomanPSMT"><tspan y="14.9375" x="504">.</tspan></text>
<text xml:space="preserve" transform="matrix(.75 0 0 .75 72 270.4048)" font-size="16" font-family="TimesNewRomanPSMT"><tspan y="14.9375" x="516">.</tspan></text>
<text xml:space="preserve" transform="matrix(.75 0 0 .75 72 270.4048)" font-size="16" font-family="TimesNewRomanPSMT"><tspan y="14.9375" x="528">.</tspan></text>
<text xml:space="preserve" transform="matrix(.75 0 0 .75 72 270.4048)" font-size="16" font-family="TimesNewRomanPSMT"><tspan y="14.9375" x="540">.</tspan></text>
<text xml:space="preserve" transform="matrix(.75 0 0 .75 72 270.4048)" font-size="16" font-family="TimesNewRomanPSMT"><tspan y="14.9375" x="552">.</tspan></text>
<text xml:space="preserve" transform="matrix(.75 0 0 .75 72 270.4048)" font-size="16" font-family="TimesNewRomanPSMT"><tspan y="14.9375" x="564">.</tspan></text>
<text xml:space="preserve" transform="matrix(.75 0 0 .75 72 270.4048)" font-size="16" font-family="TimesNewRomanPSMT"><tspan y="14.9375" x="576 584">12</tspan></text>
<text xml:space="preserve" transform="matrix(.75 0 0 .75 72 302.1421)" font-size="16" font-family="TimesNewRomanPSMT"><tspan y="14.9375" x="0 10.672001 22.224003 33.776006 44.448007 54.224008 65.77601 74.67201 80.000019 91.55202">CONCLUSION</tspan></text>
<text xml:space="preserve" transform="matrix(.75 0 0 .75 72 302.1421)" font-size="16" font-family="TimesNewRomanPSMT"><tspan y="14.9375" x="144">.</tspan></text>
<text xml:space="preserve" transform="matrix(.75 0 0 .75 72 302.1421)" font-size="16" font-family="TimesNewRomanPSMT"><tspan y="14.9375" x="156">.</tspan></text>
<text xml:space="preserve" transform="matrix(.75 0 0 .75 72 302.1421)" font-size="16" font-family="TimesNewRomanPSMT"><tspan y="14.9375" x="168">.</tspan></text>
<text xml:space="preserve" transform="matrix(.75 0 0 .75 72 302.1421)" font-size="16" font-family="TimesNewRomanPSMT"><tspan y="14.9375" x="180">.</tspan></text>
<text xml:space="preserve" transform="matrix(.75 0 0 .75 72 302.1421)" font-size="16" font-family="TimesNewRomanPSMT"><tspan y="14.9375" x="192">.</tspan></text>
<text xml:space="preserve" transform="matrix(.75 0 0 .75 72 302.1421)" font-size="16" font-family="TimesNewRomanPSMT"><tspan y="14.9375" x="204">.</tspan></text>
<text xml:space="preserve" transform="matrix(.75 0 0 .75 72 302.1421)" font-size="16" font-family="TimesNewRomanPSMT"><tspan y="14.9375" x="216">.</tspan></text>
<text xml:space="preserve" transform="matrix(.75 0 0 .75 72 302.1421)" font-size="16" font-family="TimesNewRomanPSMT"><tspan y="14.9375" x="228">.</tspan></text>
<text xml:space="preserve" transform="matrix(.75 0 0 .75 72 302.1421)" font-size="16" font-family="TimesNewRomanPSMT"><tspan y="14.9375" x="240">.</tspan></text>
<text xml:space="preserve" transform="matrix(.75 0 0 .75 72 302.1421)" font-size="16" font-family="TimesNewRomanPSMT"><tspan y="14.9375" x="252">.</tspan></text>
<text xml:space="preserve" transform="matrix(.75 0 0 .75 72 302.1421)" font-size="16" font-family="TimesNewRomanPSMT"><tspan y="14.9375" x="264">.</tspan></text>
<text xml:space="preserve" transform="matrix(.75 0 0 .75 72 302.1421)" font-size="16" font-family="TimesNewRomanPSMT"><tspan y="14.9375" x="276">.</tspan></text>
<text xml:space="preserve" transform="matrix(.75 0 0 .75 72 302.1421)" font-size="16" font-family="TimesNewRomanPSMT"><tspan y="14.9375" x="288">.</tspan></text>
<text xml:space="preserve" transform="matrix(.75 0 0 .75 72 302.1421)" font-size="16" font-family="TimesNewRomanPSMT"><tspan y="14.9375" x="300">.</tspan></text>
<text xml:space="preserve" transform="matrix(.75 0 0 .75 72 302.1421)" font-size="16" font-family="TimesNewRomanPSMT"><tspan y="14.9375" x="312">.</tspan></text>
<text xml:space="preserve" transform="matrix(.75 0 0 .75 72 302.1421)" font-size="16" font-family="TimesNewRomanPSMT"><tspan y="14.9375" x="324">.</tspan></text>
<text xml:space="preserve" transform="matrix(.75 0 0 .75 72 302.1421)" font-size="16" font-family="TimesNewRomanPSMT"><tspan y="14.9375" x="336">.</tspan></text>
<text xml:space="preserve" transform="matrix(.75 0 0 .75 72 302.1421)" font-size="16" font-family="TimesNewRomanPSMT"><tspan y="14.9375" x="348">.</tspan></text>
<text xml:space="preserve" transform="matrix(.75 0 0 .75 72 302.1421)" font-size="16" font-family="TimesNewRomanPSMT"><tspan y="14.9375" x="360">.</tspan></text>
<text xml:space="preserve" transform="matrix(.75 0 0 .75 72 302.1421)" font-size="16" font-family="TimesNewRomanPSMT"><tspan y="14.9375" x="372">.</tspan></text>
<text xml:space="preserve" transform="matrix(.75 0 0 .75 72 302.1421)" font-size="16" font-family="TimesNewRomanPSMT"><tspan y="14.9375" x="384">.</tspan></text>
<text xml:space="preserve" transform="matrix(.75 0 0 .75 72 302.1421)" font-size="16" font-family="TimesNewRomanPSMT"><tspan y="14.9375" x="396">.</tspan></text>
<text xml:space="preserve" transform="matrix(.75 0 0 .75 72 302.1421)" font-size="16" font-family="TimesNewRomanPSMT"><tspan y="14.9375" x="408">.</tspan></text>
<text xml:space="preserve" transform="matrix(.75 0 0 .75 72 302.1421)" font-size="16" font-family="TimesNewRomanPSMT"><tspan y="14.9375" x="420">.</tspan></text>
<text xml:space="preserve" transform="matrix(.75 0 0 .75 72 302.1421)" font-size="16" font-family="TimesNewRomanPSMT"><tspan y="14.9375" x="432">.</tspan></text>
<text xml:space="preserve" transform="matrix(.75 0 0 .75 72 302.1421)" font-size="16" font-family="TimesNewRomanPSMT"><tspan y="14.9375" x="444">.</tspan></text>
<text xml:space="preserve" transform="matrix(.75 0 0 .75 72 302.1421)" font-size="16" font-family="TimesNewRomanPSMT"><tspan y="14.9375" x="456">.</tspan></text>
<text xml:space="preserve" transform="matrix(.75 0 0 .75 72 302.1421)" font-size="16" font-family="TimesNewRomanPSMT"><tspan y="14.9375" x="468">.</tspan></text>
<text xml:space="preserve" transform="matrix(.75 0 0 .75 72 302.1421)" font-size="16" font-family="TimesNewRomanPSMT"><tspan y="14.9375" x="480">.</tspan></text>
<text xml:space="preserve" transform="matrix(.75 0 0 .75 72 302.1421)" font-size="16" font-family="TimesNewRomanPSMT"><tspan y="14.9375" x="492">.</tspan></text>
<text xml:space="preserve" transform="matrix(.75 0 0 .75 72 302.1421)" font-size="16" font-family="TimesNewRomanPSMT"><tspan y="14.9375" x="504">.</tspan></text>
<text xml:space="preserve" transform="matrix(.75 0 0 .75 72 302.1421)" font-size="16" font-family="TimesNewRomanPSMT"><tspan y="14.9375" x="516">.</tspan></text>
<text xml:space="preserve" transform="matrix(.75 0 0 .75 72 302.1421)" font-size="16" font-family="TimesNewRomanPSMT"><tspan y="14.9375" x="528">.</tspan></text>
<text xml:space="preserve" transform="matrix(.75 0 0 .75 72 302.1421)" font-size="16" font-family="TimesNewRomanPSMT"><tspan y="14.9375" x="540">.</tspan></text>
<text xml:space="preserve" transform="matrix(.75 0 0 .75 72 302.1421)" font-size="16" font-family="TimesNewRomanPSMT"><tspan y="14.9375" x="552">.</tspan></text>
<text xml:space="preserve" transform="matrix(.75 0 0 .75 72 302.1421)" font-size="16" font-family="TimesNewRomanPSMT"><tspan y="14.9375" x="564">.</tspan></text>
<text xml:space="preserve" transform="matrix(.75 0 0 .75 72 302.1421)" font-size="16" font-family="TimesNewRomanPSMT"><tspan y="14.9375" x="576 584">16</tspan></text>
<text xml:space="preserve" transform="matrix(.75 0 0 .75 72 333.8794)" font-size="16" font-family="TimesNewRomanPSMT"><tspan y="14.9375" x="0 10.672001 20.448002 29.344002 39.120004 49.792005 59.568006 71.12 81.79201 91.56801">REFERENCES</tspan></text>
<text xml:space="preserve" transform="matrix(.75 0 0 .75 72 333.8794)" font-size="16" font-family="TimesNewRomanPSMT"><tspan y="14.9375" x="144">.</tspan></text>
<text xml:space="preserve" transform="matrix(.75 0 0 .75 72 333.8794)" font-size="16" font-family="TimesNewRomanPSMT"><tspan y="14.9375" x="156">.</tspan></text>
<text xml:space="preserve" transform="matrix(.75 0 0 .75 72 333.8794)" font-size="16" font-family="TimesNewRomanPSMT"><tspan y="14.9375" x="168">.</tspan></text>
<text xml:space="preserve" transform="matrix(.75 0 0 .75 72 333.8794)" font-size="16" font-family="TimesNewRomanPSMT"><tspan y="14.9375" x="180">.</tspan></text>
<text xml:space="preserve" transform="matrix(.75 0 0 .75 72 333.8794)" font-size="16" font-family="TimesNewRomanPSMT"><tspan y="14.9375" x="192">.</tspan></text>
<text xml:space="preserve" transform="matrix(.75 0 0 .75 72 333.8794)" font-size="16" font-family="TimesNewRomanPSMT"><tspan y="14.9375" x="204">.</tspan></text>
<text xml:space="preserve" transform="matrix(.75 0 0 .75 72 333.8794)" font-size="16" font-family="TimesNewRomanPSMT"><tspan y="14.9375" x="216">.</tspan></text>
<text xml:space="preserve" transform="matrix(.75 0 0 .75 72 333.8794)" font-size="16" font-family="TimesNewRomanPSMT"><tspan y="14.9375" x="228">.</tspan></text>
<text xml:space="preserve" transform="matrix(.75 0 0 .75 72 333.8794)" font-size="16" font-family="TimesNewRomanPSMT"><tspan y="14.9375" x="240">.</tspan></text>
<text xml:space="preserve" transform="matrix(.75 0 0 .75 72 333.8794)" font-size="16" font-family="TimesNewRomanPSMT"><tspan y="14.9375" x="252">.</tspan></text>
<text xml:space="preserve" transform="matrix(.75 0 0 .75 72 333.8794)" font-size="16" font-family="TimesNewRomanPSMT"><tspan y="14.9375" x="264">.</tspan></text>
<text xml:space="preserve" transform="matrix(.75 0 0 .75 72 333.8794)" font-size="16" font-family="TimesNewRomanPSMT"><tspan y="14.9375" x="276">.</tspan></text>
<text xml:space="preserve" transform="matrix(.75 0 0 .75 72 333.8794)" font-size="16" font-family="TimesNewRomanPSMT"><tspan y="14.9375" x="288">.</tspan></text>
<text xml:space="preserve" transform="matrix(.75 0 0 .75 72 333.8794)" font-size="16" font-family="TimesNewRomanPSMT"><tspan y="14.9375" x="300">.</tspan></text>
<text xml:space="preserve" transform="matrix(.75 0 0 .75 72 333.8794)" font-size="16" font-family="TimesNewRomanPSMT"><tspan y="14.9375" x="312">.</tspan></text>
<text xml:space="preserve" transform="matrix(.75 0 0 .75 72 333.8794)" font-size="16" font-family="TimesNewRomanPSMT"><tspan y="14.9375" x="324">.</tspan></text>
<text xml:space="preserve" transform="matrix(.75 0 0 .75 72 333.8794)" font-size="16" font-family="TimesNewRomanPSMT"><tspan y="14.9375" x="336">.</tspan></text>
<text xml:space="preserve" transform="matrix(.75 0 0 .75 72 333.8794)" font-size="16" font-family="TimesNewRomanPSMT"><tspan y="14.9375" x="348">.</tspan></text>
<text xml:space="preserve" transform="matrix(.75 0 0 .75 72 333.8794)" font-size="16" font-family="TimesNewRomanPSMT"><tspan y="14.9375" x="360">.</tspan></text>
<text xml:space="preserve" transform="matrix(.75 0 0 .75 72 333.8794)" font-size="16" font-family="TimesNewRomanPSMT"><tspan y="14.9375" x="372">.</tspan></text>
<text xml:space="preserve" transform="matrix(.75 0 0 .75 72 333.8794)" font-size="16" font-family="TimesNewRomanPSMT"><tspan y="14.9375" x="384">.</tspan></text>
<text xml:space="preserve" transform="matrix(.75 0 0 .75 72 333.8794)" font-size="16" font-family="TimesNewRomanPSMT"><tspan y="14.9375" x="396">.</tspan></text>
<text xml:space="preserve" transform="matrix(.75 0 0 .75 72 333.8794)" font-size="16" font-family="TimesNewRomanPSMT"><tspan y="14.9375" x="408">.</tspan></text>
<text xml:space="preserve" transform="matrix(.75 0 0 .75 72 333.8794)" font-size="16" font-family="TimesNewRomanPSMT"><tspan y="14.9375" x="420">.</tspan></text>
<text xml:space="preserve" transform="matrix(.75 0 0 .75 72 333.8794)" font-size="16" font-family="TimesNewRomanPSMT"><tspan y="14.9375" x="432">.</tspan></text>
<text xml:space="preserve" transform="matrix(.75 0 0 .75 72 333.8794)" font-size="16" font-family="TimesNewRomanPSMT"><tspan y="14.9375" x="444">.</tspan></text>
<text xml:space="preserve" transform="matrix(.75 0 0 .75 72 333.8794)" font-size="16" font-family="TimesNewRomanPSMT"><tspan y="14.9375" x="456">.</tspan></text>
<text xml:space="preserve" transform="matrix(.75 0 0 .75 72 333.8794)" font-size="16" font-family="TimesNewRomanPSMT"><tspan y="14.9375" x="468">.</tspan></text>
<text xml:space="preserve" transform="matrix(.75 0 0 .75 72 333.8794)" font-size="16" font-family="TimesNewRomanPSMT"><tspan y="14.9375" x="480">.</tspan></text>
<text xml:space="preserve" transform="matrix(.75 0 0 .75 72 333.8794)" font-size="16" font-family="TimesNewRomanPSMT"><tspan y="14.9375" x="492">.</tspan></text>
<text xml:space="preserve" transform="matrix(.75 0 0 .75 72 333.8794)" font-size="16" font-family="TimesNewRomanPSMT"><tspan y="14.9375" x="504">.</tspan></text>
<text xml:space="preserve" transform="matrix(.75 0 0 .75 72 333.8794)" font-size="16" font-family="TimesNewRomanPSMT"><tspan y="14.9375" x="516">.</tspan></text>
<text xml:space="preserve" transform="matrix(.75 0 0 .75 72 333.8794)" font-size="16" font-family="TimesNewRomanPSMT"><tspan y="14.9375" x="528">.</tspan></text>
<text xml:space="preserve" transform="matrix(.75 0 0 .75 72 333.8794)" font-size="16" font-family="TimesNewRomanPSMT"><tspan y="14.9375" x="540">.</tspan></text>
<text xml:space="preserve" transform="matrix(.75 0 0 .75 72 333.8794)" font-size="16" font-family="TimesNewRomanPSMT"><tspan y="14.9375" x="552">.</tspan></text>
<text xml:space="preserve" transform="matrix(.75 0 0 .75 72 333.8794)" font-size="16" font-family="TimesNewRomanPSMT"><tspan y="14.9375" x="564">.</tspan></text>
<text xml:space="preserve" transform="matrix(.75 0 0 .75 72 333.8794)" font-size="16" font-family="TimesNewRomanPSMT"><tspan y="14.9375" x="576 584">17</tspan></text>
<text xml:space="preserve" transform="matrix(.75 0 0 .75 72 365.6167)" font-size="16" font-family="TimesNewRomanPSMT"><tspan y="14.9375" x="0 11.552001 20.448002 29.344002 39.120004 50.672006 62.224008 67.55201">APPENDIX</tspan></text>
<text xml:space="preserve" transform="matrix(.75 0 0 .75 72 365.6167)" font-size="16" font-family="TimesNewRomanPSMT"><tspan y="14.9375" x="96">.</tspan></text>
<text xml:space="preserve" transform="matrix(.75 0 0 .75 72 365.6167)" font-size="16" font-family="TimesNewRomanPSMT"><tspan y="14.9375" x="108">.</tspan></text>
<text xml:space="preserve" transform="matrix(.75 0 0 .75 72 365.6167)" font-size="16" font-family="TimesNewRomanPSMT"><tspan y="14.9375" x="120">.</tspan></text>
<text xml:space="preserve" transform="matrix(.75 0 0 .75 72 365.6167)" font-size="16" font-family="TimesNewRomanPSMT"><tspan y="14.9375" x="132">.</tspan></text>
<text xml:space="preserve" transform="matrix(.75 0 0 .75 72 365.6167)" font-size="16" font-family="TimesNewRomanPSMT"><tspan y="14.9375" x="144">.</tspan></text>
<text xml:space="preserve" transform="matrix(.75 0 0 .75 72 365.6167)" font-size="16" font-family="TimesNewRomanPSMT"><tspan y="14.9375" x="156">.</tspan></text>
<text xml:space="preserve" transform="matrix(.75 0 0 .75 72 365.6167)" font-size="16" font-family="TimesNewRomanPSMT"><tspan y="14.9375" x="168">.</tspan></text>
<text xml:space="preserve" transform="matrix(.75 0 0 .75 72 365.6167)" font-size="16" font-family="TimesNewRomanPSMT"><tspan y="14.9375" x="180">.</tspan></text>
<text xml:space="preserve" transform="matrix(.75 0 0 .75 72 365.6167)" font-size="16" font-family="TimesNewRomanPSMT"><tspan y="14.9375" x="192">.</tspan></text>
<text xml:space="preserve" transform="matrix(.75 0 0 .75 72 365.6167)" font-size="16" font-family="TimesNewRomanPSMT"><tspan y="14.9375" x="204">.</tspan></text>
<text xml:space="preserve" transform="matrix(.75 0 0 .75 72 365.6167)" font-size="16" font-family="TimesNewRomanPSMT"><tspan y="14.9375" x="216">.</tspan></text>
<text xml:space="preserve" transform="matrix(.75 0 0 .75 72 365.6167)" font-size="16" font-family="TimesNewRomanPSMT"><tspan y="14.9375" x="228">.</tspan></text>
<text xml:space="preserve" transform="matrix(.75 0 0 .75 72 365.6167)" font-size="16" font-family="TimesNewRomanPSMT"><tspan y="14.9375" x="240">.</tspan></text>
<text xml:space="preserve" transform="matrix(.75 0 0 .75 72 365.6167)" font-size="16" font-family="TimesNewRomanPSMT"><tspan y="14.9375" x="252">.</tspan></text>
<text xml:space="preserve" transform="matrix(.75 0 0 .75 72 365.6167)" font-size="16" font-family="TimesNewRomanPSMT"><tspan y="14.9375" x="264">.</tspan></text>
<text xml:space="preserve" transform="matrix(.75 0 0 .75 72 365.6167)" font-size="16" font-family="TimesNewRomanPSMT"><tspan y="14.9375" x="276">.</tspan></text>
<text xml:space="preserve" transform="matrix(.75 0 0 .75 72 365.6167)" font-size="16" font-family="TimesNewRomanPSMT"><tspan y="14.9375" x="288">.</tspan></text>
<text xml:space="preserve" transform="matrix(.75 0 0 .75 72 365.6167)" font-size="16" font-family="TimesNewRomanPSMT"><tspan y="14.9375" x="300">.</tspan></text>
<text xml:space="preserve" transform="matrix(.75 0 0 .75 72 365.6167)" font-size="16" font-family="TimesNewRomanPSMT"><tspan y="14.9375" x="312">.</tspan></text>
<text xml:space="preserve" transform="matrix(.75 0 0 .75 72 365.6167)" font-size="16" font-family="TimesNewRomanPSMT"><tspan y="14.9375" x="324">.</tspan></text>
<text xml:space="preserve" transform="matrix(.75 0 0 .75 72 365.6167)" font-size="16" font-family="TimesNewRomanPSMT"><tspan y="14.9375" x="336">.</tspan></text>
<text xml:space="preserve" transform="matrix(.75 0 0 .75 72 365.6167)" font-size="16" font-family="TimesNewRomanPSMT"><tspan y="14.9375" x="348">.</tspan></text>
<text xml:space="preserve" transform="matrix(.75 0 0 .75 72 365.6167)" font-size="16" font-family="TimesNewRomanPSMT"><tspan y="14.9375" x="360">.</tspan></text>
<text xml:space="preserve" transform="matrix(.75 0 0 .75 72 365.6167)" font-size="16" font-family="TimesNewRomanPSMT"><tspan y="14.9375" x="372">.</tspan></text>
<text xml:space="preserve" transform="matrix(.75 0 0 .75 72 365.6167)" font-size="16" font-family="TimesNewRomanPSMT"><tspan y="14.9375" x="384">.</tspan></text>
<text xml:space="preserve" transform="matrix(.75 0 0 .75 72 365.6167)" font-size="16" font-family="TimesNewRomanPSMT"><tspan y="14.9375" x="396">.</tspan></text>
<text xml:space="preserve" transform="matrix(.75 0 0 .75 72 365.6167)" font-size="16" font-family="TimesNewRomanPSMT"><tspan y="14.9375" x="408">.</tspan></text>
<text xml:space="preserve" transform="matrix(.75 0 0 .75 72 365.6167)" font-size="16" font-family="TimesNewRomanPSMT"><tspan y="14.9375" x="420">.</tspan></text>
<text xml:space="preserve" transform="matrix(.75 0 0 .75 72 365.6167)" font-size="16" font-family="TimesNewRomanPSMT"><tspan y="14.9375" x="432">.</tspan></text>
<text xml:space="preserve" transform="matrix(.75 0 0 .75 72 365.6167)" font-size="16" font-family="TimesNewRomanPSMT"><tspan y="14.9375" x="444">.</tspan></text>
<text xml:space="preserve" transform="matrix(.75 0 0 .75 72 365.6167)" font-size="16" font-family="TimesNewRomanPSMT"><tspan y="14.9375" x="456">.</tspan></text>
<text xml:space="preserve" transform="matrix(.75 0 0 .75 72 365.6167)" font-size="16" font-family="TimesNewRomanPSMT"><tspan y="14.9375" x="468">.</tspan></text>
<text xml:space="preserve" transform="matrix(.75 0 0 .75 72 365.6167)" font-size="16" font-family="TimesNewRomanPSMT"><tspan y="14.9375" x="480">.</tspan></text>
<text xml:space="preserve" transform="matrix(.75 0 0 .75 72 365.6167)" font-size="16" font-family="TimesNewRomanPSMT"><tspan y="14.9375" x="492">.</tspan></text>
<text xml:space="preserve" transform="matrix(.75 0 0 .75 72 365.6167)" font-size="16" font-family="TimesNewRomanPSMT"><tspan y="14.9375" x="504">.</tspan></text>
<text xml:space="preserve" transform="matrix(.75 0 0 .75 72 365.6167)" font-size="16" font-family="TimesNewRomanPSMT"><tspan y="14.9375" x="516">.</tspan></text>
<text xml:space="preserve" transform="matrix(.75 0 0 .75 72 365.6167)" font-size="16" font-family="TimesNewRomanPSMT"><tspan y="14.9375" x="528">.</tspan></text>
<text xml:space="preserve" transform="matrix(.75 0 0 .75 72 365.6167)" font-size="16" font-family="TimesNewRomanPSMT"><tspan y="14.9375" x="540">.</tspan></text>
<text xml:space="preserve" transform="matrix(.75 0 0 .75 72 365.6167)" font-size="16" font-family="TimesNewRomanPSMT"><tspan y="14.9375" x="552">.</tspan></text>
<text xml:space="preserve" transform="matrix(.75 0 0 .75 72 365.6167)" font-size="16" font-family="TimesNewRomanPSMT"><tspan y="14.9375" x="564">.</tspan></text>
<text xml:space="preserve" transform="matrix(.75 0 0 .75 72 365.6167)" font-size="16" font-family="TimesNewRomanPSMT"><tspan y="14.9375" x="576 584">18</tspan></text>
<g clip-path="url(#clip_0)">
<text xml:space="preserve" transform="matrix(.75 0 0 .75 72 791.70376)" font-size="14.666667" font-family="ArialMT"><tspan y="13.757161" x="296.77485">2</tspan></text>
</g>
</svg>
