<svg xmlns="http://www.w3.org/2000/svg" xmlns:xlink="http://www.w3.org/1999/xlink" xmlns:inkscape="http://www.inkscape.org/namespaces/inkscape" version="1.1" width="596" height="842" viewBox="0 0 596 842">
<defs>
<clipPath id="clip_50">
<path d="M0 0H595.5V72H0Z" clip-rule="evenodd"/>
</clipPath>
<clipPath id="clip_51">
<path d="M0 770.25H595.5V842.25H0Z" clip-rule="evenodd"/>
</clipPath>
</defs>
<path transform="matrix(.75,0,0,.75,0,0)" d="M0 0H794V1123H0Z" fill="#ffffff"/>
<g clip-path="url(#clip_50)">
<text xml:space="preserve" transform="matrix(.75 0 0 .75 72 36)" font-size="14.666667" font-family="ArialMT"><tspan y="13.757161" x="0"> </tspan></text>
</g>
<text xml:space="preserve" transform="matrix(.75 0 0 .75 72 72)" font-size="29.333334" font-family="Cambria"><tspan y="27.872397" x="0"> </tspan></text>
<text xml:space="preserve" transform="matrix(.75 0 0 .75 72 101.66016)" font-size="29.333334" font-family="Cambria"><tspan y="27.872397" x="0 18.272797 34.9274 51.582 68.4514 88.414 107.818119 117.32684">APPENDIX</tspan></text>
<text fill="#ff0000" xml:space="preserve" transform="matrix(.75 0 0 .75 72 101.66016)" font-size="29.333334" font-family="Cambria"><tspan y="27.872397" x="134.08168"> </tspan></text>
<text xml:space="preserve" transform="matrix(.75 0 0 .75 72 131.32227)" font-size="16" font-family="Cambria"><tspan y="15.203125" x="0"> </tspan></text>
<g clip-path="url(#clip_51)">
<text xml:space="preserve" transform="matrix(.75 0 0 .75 72 791.7041)" font-size="14.666667" font-family="ArialMT"><tspan y="13.757161" x="292.69929 300.8504">18</tspan></text>
<text xml:space="preserve" transform="matrix(.75 0 0 .75 72 791.7041)" font-size="14.666667" font-family="ArialMT"><tspan y="13.757161" x="309.0015"> </tspan></text>
</g>
</svg>
