<svg xmlns="http://www.w3.org/2000/svg" xmlns:xlink="http://www.w3.org/1999/xlink" xmlns:inkscape="http://www.inkscape.org/namespaces/inkscape" version="1.1" width="596" height="842" viewBox="0 0 596 842">
<defs>
<clipPath id="clip_34">
<path d="M0 791.7041H595.5V842.25H0Z" clip-rule="evenodd"/>
</clipPath>
</defs>
<path transform="matrix(.75,0,0,.75,0,0)" d="M0 0H794V1123H0Z" fill="#ffffff"/>
<text xml:space="preserve" transform="matrix(.75 0 0 .75 36 36)" font-size="16" font-family="TimesNewRomanPSMT"><tspan y="14.9375" x="0"> </tspan></text>
<text xml:space="preserve" transform="matrix(.75 0 0 .75 36 51.86914)" font-size="29.333334" font-family="Cambria"><tspan y="27.872397" x="0"> </tspan></text>
<text xml:space="preserve" transform="matrix(.75 0 0 .75 36 81.5293)" font-size="29.333334" font-family="Cambria"><tspan y="27.872397" x="0"> </tspan></text>
<text xml:space="preserve" transform="matrix(.75 0 0 .75 36 111.19043)" font-size="29.333334" font-family="Cambria"><tspan y="27.872397" x="0"> </tspan></text>
<text xml:space="preserve" transform="matrix(.75 0 0 .75 36 140.85059)" font-size="29.333334" font-family="Cambria"><tspan y="27.872397" x="0"> </tspan></text>
<text xml:space="preserve" transform="matrix(.75 0 0 .75 36 170.51172)" font-size="29.333334" font-family="Cambria"><tspan y="27.872397" x="0 18.272797 34.9274 51.582 68.4514 88.414 107.818119 117.32684">APPENDIX</tspan></text>
<text fill="#ff0000" xml:space="preserve" transform="matrix(.75 0 0 .75 36 170.51172)" font-size="29.333334" font-family="Cambria"><tspan y="27.872397" x="134.08168"> </tspan></text>
<text xml:space="preserve" transform="matrix(.75 0 0 .75 36 200.17188)" font-size="16" font-family="Cambria"><tspan y="15.203125" x="0"> </tspan></text>
<text xml:space="preserve" transform="matrix(.75 0 0 .75 36 216.35157)" font-size="16" font-family="Cambria"><tspan y="15.203125" x="0"> </tspan></text>
<text xml:space="preserve" transform="matrix(.75 0 0 .75 36 232.5293)" font-size="16" font-family="Cambria"><tspan y="15.203125" x="0"> </tspan></text>
<text xml:space="preserve" transform="matrix(.75 0 0 .75 36 248.70899)" font-size="16" font-family="Cambria"><tspan y="15.203125" x="0"> </tspan></text>
<text xml:space="preserve" transform="matrix(.75 0 0 .75 36 264.8877)" font-size="16" font-family="Cambria"><tspan y="15.203125" x="0"> </tspan></text>
<text xml:space="preserve" transform="matrix(.75 0 0 .75 36 281.06544)" font-size="16" font-family="Cambria"><tspan y="15.203125" x="0"> </tspan></text>
<text xml:space="preserve" transform="matrix(.75 0 0 .75 36 297.24415)" font-size="16" font-family="Cambria"><tspan y="15.203125" x="0"> </tspan></text>
<text xml:space="preserve" transform="matrix(.75 0 0 .75 36 313.42189)" font-size="16" font-family="Cambria"><tspan y="15.203125" x="0"> </tspan></text>
<text xml:space="preserve" transform="matrix(.75 0 0 .75 36 329.60157)" font-size="16" font-family="Cambria"><tspan y="15.203125" x="0"> </tspan></text>
<text xml:space="preserve" transform="matrix(.75 0 0 .75 36 345.78126)" font-size="16" font-family="Cambria"><tspan y="15.203125" x="0"> </tspan></text>
<text xml:space="preserve" transform="matrix(.75 0 0 .75 36 361.95899)" font-size="16" font-family="Cambria"><tspan y="15.203125" x="0"> </tspan></text>
<text xml:space="preserve" transform="matrix(.75 0 0 .75 36 378.1377)" font-size="16" font-family="Cambria"><tspan y="15.203125" x="0"> </tspan></text>
<text xml:space="preserve" transform="matrix(.75 0 0 .75 36 394.31544)" font-size="16" font-family="Cambria"><tspan y="15.203125" x="0"> </tspan></text>
<text xml:space="preserve" transform="matrix(.75 0 0 .75 36 410.49415)" font-size="16" font-family="Cambria"><tspan y="15.203125" x="0"> </tspan></text>
<text xml:space="preserve" transform="matrix(.75 0 0 .75 36 426.67384)" font-size="16" font-family="Cambria"><tspan y="15.203125" x="0"> </tspan></text>
<text xml:space="preserve" transform="matrix(.75 0 0 .75 36 442.85157)" font-size="16" font-family="Cambria"><tspan y="15.203125" x="0"> </tspan></text>
<text xml:space="preserve" transform="matrix(.75 0 0 .75 36 459.03126)" font-size="16" font-family="Cambria"><tspan y="15.203125" x="0"> </tspan></text>
<text xml:space="preserve" transform="matrix(.75 0 0 .75 36 475.20899)" font-size="16" font-family="Cambria"><tspan y="15.203125" x="0"> </tspan></text>
<text xml:space="preserve" transform="matrix(.75 0 0 .75 36 491.3877)" font-size="16" font-family="Cambria"><tspan y="15.203125" x="0"> </tspan></text>
<text xml:space="preserve" transform="matrix(.75 0 0 .75 36 507.5664)" font-size="16" font-family="Cambria"><tspan y="15.203125" x="0"> </tspan></text>
<text xml:space="preserve" transform="matrix(.75 0 0 .75 36 523.74417)" font-size="16" font-family="Cambria"><tspan y="15.203125" x="0"> </tspan></text>
<text xml:space="preserve" transform="matrix(.75 0 0 .75 36 539.9238)" font-size="16" font-family="Cambria"><tspan y="15.203125" x="0"> </tspan></text>
<text xml:space="preserve" transform="matrix(.75 0 0 .75 36 556.10159)" font-size="16" font-family="Cambria"><tspan y="15.203125" x="0"> </tspan></text>
<text xml:space="preserve" transform="matrix(.75 0 0 .75 36 572.28128)" font-size="16" font-family="Cambria"><tspan y="15.203125" x="0"> </tspan></text>
<text xml:space="preserve" transform="matrix(.75 0 0 .75 36 588.45999)" font-size="16" font-family="Cambria"><tspan y="15.203125" x="0"> </tspan></text>
<text xml:space="preserve" transform="matrix(.75 0 0 .75 36 604.6377)" font-size="16" font-family="Cambria"><tspan y="15.203125" x="0"> </tspan></text>
<text xml:space="preserve" transform="matrix(.75 0 0 .75 36 620.8164)" font-size="16" font-family="Cambria"><tspan y="15.203125" x="0"> </tspan></text>
<text xml:space="preserve" transform="matrix(.75 0 0 .75 36 636.99417)" font-size="16" font-family="Cambria"><tspan y="15.203125" x="0"> </tspan></text>
<text xml:space="preserve" transform="matrix(.75 0 0 .75 36 653.1738)" font-size="16" font-family="Cambria"><tspan y="15.203125" x="0"> </tspan></text>
<g clip-path="url(#clip_34)">
<text xml:space="preserve" transform="matrix(.75 0 0 .75 36 791.7041)" font-size="14.666667" font-family="ArialMT"><tspan y="13.757161" x="340.69929 348.8504">18</tspan></text>
<text xml:space="preserve" transform="matrix(.75 0 0 .75 36 791.7041)" font-size="14.666667" font-family="ArialMT"><tspan y="13.757161" x="357.0015"> </tspan></text>
</g>
</svg>
