<svg xmlns="http://www.w3.org/2000/svg" xmlns:xlink="http://www.w3.org/1999/xlink" version="1.1" width="612" height="1008" viewBox="0 0 612 1008">
<defs>
<path id="font_4_12" d="M.25048829 .122558597C.25048829 .11116537 .2508138 .10058594 .25146485 .09082031 .25211589 .08105469 .25341798 .07307943 .2553711 .06689453 .25732423 .060709638 .26017253 .0555013 .26391603 .05126953 .26765953 .04703776 .27278648 .043375654 .27929688 .040283204 .28580729 .037190755 .29378257 .034505208 .30322267 .032226564V0H.046875V.032226564C.05891927 .03548177 .06844076 .03898112 .07543945 .04272461 .08243815 .046468099 .087646488 .051676435 .09106445 .05834961 .09448242 .06502279 .09667969 .07348633 .09765625 .083740238 .09863281 .09399414 .099121097 .106933597 .099121097 .122558597V.5439453C.099121097 .5595703 .098714198 .5724284 .09790039 .58251956 .097086589 .59261068 .0949707 .60099288 .091552738 .607666 .088134769 .6143392 .08292643 .6196289 .075927738 .62353518 .06892904 .6274414 .059244794 .63102218 .046875 .63427737V.6665039H.30322267V.63427737C.2898763 .6306966 .2800293 .62687179 .27368165 .62280276 .26733399 .6187337 .26253257 .61376956 .25927735 .60791018 .25602214 .6020508 .2537435 .59440109 .2524414 .58496096 .2511393 .5755208 .25048829 .5616862 .25048829 .54345706V.122558597Z"/>
<path id="font_4_74" d="M.5727539 0H.3359375V.032226564C.35091148 .035807294 .36132813 .041097005 .3671875 .048095704 .37304688 .055094404 .37703453 .06453451 .3791504 .076416019 .38126628 .08829752 .38232423 .10970052 .38232423 .140625V.2709961C.38232423 .29410807 .38183595 .31306968 .38085938 .32788087 .3798828 .34269206 .37833659 .35481773 .3762207 .3642578 .37410484 .3736979 .37117515 .3815918 .36743165 .38793946 .36368815 .3942871 .35953776 .39949546 .35498048 .40356446 .3504232 .40763346 .34521485 .41064454 .33935548 .41259767 .3334961 .41455079 .32600913 .41552735 .31689454 .41552735 .30452476 .41552735 .29166667 .41170249 .2783203 .40405274 .26497398 .39640299 .2537435 .38582359 .2446289 .37231446 .23551433 .35880534 .23095703 .34440104 .23095703 .32910157V.14111328C.23095703 .110188808 .2319336 .08870443 .23388672 .076660159 .23583985 .06461588 .23982747 .055094404 .24584961 .048095704 .25187174 .041097005 .26253257 .035807294 .27783204 .032226564V0H.041992189V.032226564C.057617189 .036458333 .06844076 .041992189 .07446289 .048828126 .08048502 .055664064 .08455404 .064941409 .08666992 .076660159 .088785808 .088378909 .08984375 .10970052 .08984375 .140625V.3413086C.08984375 .36539714 .08943685 .3832194 .08862305 .3947754 .08780924 .4063314 .08585612 .41560874 .08276367 .42260743 .07967123 .4296061 .07495117 .43530274 .068603519 .43969728 .06225586 .4440918 .05126953 .44791667 .03564453 .45117188V.484375L.1694336 .48828126H.23095703L.22363281 .41796876 .22949219 .4165039C.24967449 .43440757 .26741538 .44848634 .28271485 .45874024 .2980143 .46899415 .31404624 .47713218 .33081056 .4831543 .34757487 .48917643 .36523438 .4921875 .38378907 .4921875 .41048179 .4921875 .4326172 .48836265 .4501953 .4807129 .46777345 .47306315 .48201499 .46191407 .49291993 .44726563 .5038249 .4326172 .5116374 .41471354 .5163574 .3935547 .52107748 .37239585 .5234375 .347819 .5234375 .31982423V.14111328C.5234375 .12679036 .52368167 .11336263 .5241699 .10083008 .5246582 .08829752 .5258789 .07828776 .52783206 .07080078 .52978518 .063313808 .5324707 .057210287 .5358887 .052490236 .53930667 .047770185 .5441081 .04378255 .55029299 .040527345 .55647787 .037272138 .56396487 .034505208 .5727539 .032226564V0Z"/>
<path id="font_4_64" d="M.5136719 .14257813C.5136719 .11783854 .5140788 .09977213 .5148926 .088378909 .51570639 .07698568 .5175781 .067871097 .5205078 .061035158 .5234375 .05419922 .52815756 .048583986 .53466799 .044189454 .5411784 .039794923 .5520833 .03597005 .5673828 .032714845V0L.4345703-.0043945314H.37548829L.3798828 .06591797 .3725586 .06640625C.3491211 .04264323 .3244629 .024332682 .29858399 .011474609 .27270509-.0013834635 .24788411-.0078125 .2241211-.0078125 .1648763-.0078125 .120524089 .012532552 .09106445 .053222658 .061604818 .09391276 .046875 .15511067 .046875 .2368164 .046875 .29215495 .055826826 .3387858 .07373047 .37670899 .09163412 .41463218 .118245448 .44335938 .15356446 .46289063 .18888347 .48242188 .23144531 .4921875 .28125 .4921875 .2955729 .4921875 .3096517 .49129234 .32348634 .48950196 .33732096 .48771159 .35367839 .48421226 .3725586 .4790039V.5234375C.3725586 .55826827 .3720703 .58292648 .37109376 .5974121 .3701172 .61189779 .36808268 .6229655 .36499024 .63061526 .3618978 .63826498 .35725913 .64420577 .35107423 .6484375 .3448893 .65266928 .33365885 .6564128 .3173828 .65966799V.6923828L.45263673 .69921877H.5136719V.14257813M.3725586 .32421876C.3725586 .36393229 .3658854 .39339195 .35253907 .41259767 .33919273 .43180339 .3186849 .44140626 .29101563 .44140626 .27083335 .44140626 .25349937 .43416343 .23901367 .41967774 .224528 .40519206 .21362305 .38427735 .20629883 .3569336 .19897461 .32958985 .1953125 .29720054 .1953125 .25976563 .1953125 .19563802 .2023112 .14778646 .2163086 .11621094 .23030599 .084635417 .25211589 .068847659 .28173829 .068847659 .2957357 .068847659 .3096517 .07234701 .32348634 .0793457 .33732096 .0863444 .34895835 .097086589 .35839845 .111572269 .36783854 .12605794 .3725586 .14274089 .3725586 .1616211V.32421876Z"/>
<path id="font_4_65" d="M.48388673 .08886719C.4506836 .053710939 .417806 .028808594 .3852539 .014160156 .3527018-.00048828127 .31526695-.0078125 .27294923-.0078125 .19710286-.0078125 .14005535 .012939453 .10180664 .05444336 .063557948 .095947269 .044433595 .15755208 .044433595 .23925781 .044433595 .2919922 .054280599 .33748374 .07397461 .37573243 .09366862 .4139811 .12158203 .44295249 .15771485 .46264649 .19384766 .48234049 .23583985 .4921875 .2836914 .4921875 .3133138 .4921875 .33927409 .48876954 .36157228 .4819336 .38387046 .47509767 .40299479 .46557618 .4189453 .45336915 .43489585 .4411621 .44807945 .42643229 .4584961 .4091797 .47086589 .38867188 .48014323 .36523438 .48632813 .3388672 .49283854 .31184898 .4962565 .27913413 .49658204 .24072266H.18701172C.18733724 .18180339 .19783528 .13842774 .21850586 .1105957 .23917644 .08276367 .27067057 .068847659 .31298829 .068847659 .33772788 .068847659 .36002604 .07348633 .3798828 .08276367 .3997396 .092041019 .42122398 .10839844 .44433595 .13183594L.48388673 .08886719M.35205079 .29345704C.3507487 .34326173 .34423829 .3803711 .33251954 .40478517 .32080079 .42919923 .30192057 .44140626 .2758789 .44140626 .2508138 .44140626 .23087566 .42871095 .21606446 .4033203 .20125325 .3779297 .19238281 .3413086 .18945313 .29345704H.35205079Z"/>
<path id="font_4_84" d="M.32226563 .26757813 .43652345 .10546875C.44726563 .09016927 .4567871 .077555339 .4650879 .06762695 .47338868 .057698568 .4815267 .04996745 .48950196 .044433595 .4974772 .03889974 .5061849 .03483073 .515625 .032226564V0H.27783204V.032226564C.2980143 .034505208 .30810548 .04296875 .30810548 .057617189 .30810548 .061523439 .3076172 .06518555 .30664063 .068603519 .30566407 .072021488 .30419923 .07543945 .3022461 .07885742 .30029298 .08227539 .29638673 .08821615 .29052735 .09667969L.23535156 .17578125 .18408203 .11279297C.17301433 .09944662 .166097 .08968099 .16333008 .083496097 .16056316 .077311199 .15917969 .0703125 .15917969 .0625 .15917969 .0546875 .16210938 .048014326 .16796875 .04248047 .17382813 .036946615 .18310547 .033528646 .19580078 .032226564V0H.0078125V.032226564C.021809897 .03515625 .035888673 .042317708 .050048829 .053710939 .064208988 .065104167 .08138021 .08235677 .1015625 .10546875L.20361328 .2211914 .08886719 .38330079C.08170573 .39371745 .075520839 .40226237 .0703125 .40893556 .065104167 .41560874 .059733076 .4219564 .05419922 .42797853 .048665365 .43400065 .043701173 .4387207 .03930664 .44213868 .03491211 .44555665 .0308431 .44799806 .02709961 .4494629 .02335612 .45092774 .01969401 .4518229 .016113282 .45214845V.484375H.2524414V.45214845C.2319336 .44791667 .22167969 .4388021 .22167969 .4248047 .22167969 .41927085 .22314453 .41349284 .22607422 .4074707 .2290039 .40144859 .23372396 .39388023 .24023438 .38476563L.29052735 .31298829 .34033204 .375C.34814454 .38476563 .35359703 .39298503 .35668946 .3996582 .3597819 .4063314 .36132813 .4132487 .36132813 .42041017 .36132813 .42952476 .35799156 .43693034 .35131837 .44262696 .34464518 .44832359 .33561198 .4514974 .32421876 .45214845V.484375H.5102539V.45214845C.49560548 .44856773 .48209635 .4416504 .46972657 .43139649 .45735679 .42114259 .43945313 .40185548 .41601563 .37353517L.32226563 .26757813Z"/>
<path id="font_5_39" d="M.017089844 0V.018554688H.041992189C.06998698 .018554688 .08984375 .027460734 .1015625 .045272829 .10872396 .055964155 .11230469 .07993571 .11230469 .1171875V.5449219C.11230469 .5860596 .1077474 .61181136 .09863281 .6221771 .0859375 .63642886 .06705729 .6435547 .041992189 .6435547H.017089844V.6621094H.2866211C.38557945 .6621094 .4608561 .6508789 .5124512 .62841799 .5640462 .60595706 .6055501 .56852218 .6369629 .5161133 .6683757 .46370445 .68408206 .40315757 .68408206 .33447267 .68408206 .24235027 .6560872 .16536458 .60009768 .103515628 .53727218 .034505208 .441569 0 .31298829 0H.017089844M.20605469 .048812868C.24739583 .039708456 .2820638 .03515625 .3100586 .03515625 .38557945 .03515625 .4482422 .061640424 .49804688 .114608768 .54785159 .16758728 .5727539 .2394104 .5727539 .33007813 .5727539 .42139689 .54785159 .4933777 .49804688 .5460205 .4482422 .5986735 .38427735 .625 .30615235 .625 .27685548 .625 .24348958 .6202901 .20605469 .61087039V.048812868Z"/>
<path id="font_5_40" d="M.20898438 .62597659V.36523438H.3544922C.3922526 .36523438 .41748048 .37096153 .43017579 .38241578 .44710288 .39746095 .45654298 .42396037 .4584961 .46191407H.4765625V.23046875H.4584961C.4539388 .2626953 .4493815 .28336589 .44482423 .29248048 .43896485 .3038737 .42936198 .31282554 .41601563 .31933595 .40266929 .32584635 .38216148 .32910157 .3544922 .32910157H.20898438V.11047363C.20898438 .08112589 .21028646 .06327311 .21289063 .056915285 .2154948 .050557455 .22005208 .04550171 .2265625 .041748048 .23307292 .03800456 .2454427 .036132814 .26367188 .036132814H.37597657C.41341148 .036132814 .44059245 .03873698 .45751954 .043945314 .47444663 .049153646 .49072267 .05940755 .50634768 .07470703 .52652999 .09488932 .5472005 .12532552 .5683594 .16601563H.5878906L.5307617 0H.020507813V.018554688H.043945314C.059570314 .018554688 .07438151 .022298178 .088378909 .029785157 .09879557 .03499349 .10587565 .04280599 .10961914 .053222658 .11336263 .06363932 .115234378 .08496094 .115234378 .1171875V.546875C.115234378 .58865359 .1110026 .6144002 .10253906 .624115 .09082031 .63707479 .07128906 .6435547 .043945314 .6435547H.020507813V.6621094H.5307617L.53808596 .51660159H.51904299C.51220706 .5515849 .5046387 .5756175 .4963379 .58869937 .4880371 .6017812 .4757487 .6117554 .45947267 .6186218 .4464518 .62352499 .4235026 .62597659 .390625 .62597659H.20898438Z"/>
<path id="font_5_41" d="M.20458985 .62597659V.36621095H.3251953C.3528646 .36621095 .37312828 .37227885 .38598634 .38441468 .3988444 .39656068 .4073893 .4207662 .4116211 .45703126H.4296875V.23242188H.4116211C.41129557 .25813804 .40795899 .27701823 .40161134 .2890625 .39526368 .30110679 .3864746 .31013999 .37524415 .3161621 .36401368 .32218424 .34733073 .3251953 .3251953 .3251953H.20458985V.1171875C.20458985 .08382162 .20670574 .06179301 .2109375 .051101686 .2141927 .043004354 .22102864 .03604126 .23144531 .030212403 .24576824 .022440592 .2607422 .018554688 .2763672 .018554688H.30029298V0H.016113282V.018554688H.03955078C.06689453 .018554688 .086751308 .026489258 .099121097 .0423584 .106933597 .0527242 .110839847 .07766724 .110839847 .1171875V.5449219C.110839847 .5782878 .10872396 .60031637 .10449219 .6110077 .10123698 .61910507 .094563808 .6260681 .084472659 .631897 .07047526 .63966879 .0555013 .6435547 .03955078 .6435547H.016113282V.6621094H.50878909L.5151367 .51660159H.49804688C.48958335 .54752609 .47973634 .57023116 .46850587 .5847168 .4572754 .59920248 .44344078 .6097005 .42700196 .61621096 .41056315 .6227214 .38509117 .62597659 .35058595 .62597659H.20458985Z"/>
<path id="font_5_44" d="M.30859376 .018554688V0H.024902344V.018554688H.048339845C.075683597 .018554688 .09554037 .026489258 .107910159 .0423584 .115722659 .0527242 .119628909 .07766724 .119628909 .1171875V.5449219C.119628909 .5782878 .11751302 .60031637 .11328125 .6110077 .11002604 .61910507 .10335287 .6260681 .09326172 .631897 .078938808 .63966879 .063964847 .6435547 .048339845 .6435547H.024902344V.6621094H.30859376V.6435547H.28466798C.25764976 .6435547 .23795574 .6356201 .22558594 .619751 .21744792 .6093852 .2133789 .58444216 .2133789 .5449219V.1171875C.2133789 .08382162 .2154948 .06179301 .21972656 .051101686 .22298177 .043004354 .2298177 .03604126 .24023438 .030212403 .25423179 .022440592 .26904298 .018554688 .28466798 .018554688H.30859376Z"/>
<path id="font_5_49" d="M-.013183594 .6621094H.1665039L.57128909 .16552735V.546875C.57128909 .5875651 .56673178 .61295577 .5576172 .6230469 .54557296 .63671877 .52652999 .6435547 .5004883 .6435547H.47753907V.6621094H.7080078V.6435547H.6845703C.6565755 .6435547 .63671877 .6350911 .625 .61816409 .61783859 .6077474 .6142578 .5839844 .6142578 .546875V-.0107421879H.5966797L.16015625 .52267459V.115234378C.16015625 .07454427 .16455078 .049153646 .17333985 .0390625 .18570964 .025390625 .20475261 .018554688 .23046875 .018554688H.25390626V0H.0234375V.018554688H.04638672C.07470703 .018554688 .09472656 .027018229 .10644531 .043945314 .11360677 .05436198 .1171875 .078125 .1171875 .115234378V.5751953C.09798177 .59749349 .08341471 .6121979 .07348633 .6193085 .063557948 .62641909 .048990888 .63304647 .029785157 .6391907 .020345053 .64210006 .0060221354 .6435547-.013183594 .6435547V.6621094Z"/>
<path id="font_5_55" d="M.5786133 .6621094 .5859375 .50634768H.5673828C.56380209 .5336914 .55891928 .55322268 .5527344 .5649414 .54264327 .5838216 .5292155 .5977376 .5124512 .60668948 .49568687 .6156413 .4736328 .6201172 .44628907 .6201172H.35302735V.115234378C.35302735 .07454427 .35742188 .049153646 .36621095 .0390625 .37858073 .025390625 .3976237 .018554688 .42333985 .018554688H.44628907V0H.16552735V.018554688H.18896485C.21695964 .018554688 .2368164 .027018229 .24853516 .043945314 .25569663 .05436198 .25927735 .078125 .25927735 .115234378V.6201172H.1796875C.14876302 .6201172 .12679036 .61783859 .11376953 .61328127 .096842449 .6070964 .08235677 .59521487 .0703125 .5776367 .05826823 .5600586 .05110677 .5362956 .048828126 .50634768H.030273438L.038085939 .6621094H.5786133Z"/>
<path id="font_5_50" d="M.36572267 .6767578C.45166017 .6767578 .52612307 .6441701 .5891113 .57899478 .6520996 .5138194 .68359377 .43247477 .68359377 .33496095 .68359377 .23451741 .65185549 .1511383 .5883789 .08482361 .52490237 .018508912 .44807945-.0146484379 .35791017-.0146484379 .2667643-.0146484379 .19018555 .017695109 .12817383 .0823822 .06616211 .14706929 .03515625 .23077393 .03515625 .3334961 .03515625 .43848673 .07096354 .5241394 .14257813 .5904541 .20475261 .6479899 .27913413 .6767578 .36572267 .6767578M.3564453 .64160159C.29720054 .64160159 .24967449 .6196645 .21386719 .5757904 .16927083 .52118429 .14697266 .44122825 .14697266 .33592225 .14697266 .22802226 .17008464 .14498393 .2163086 .08680725 .25179038 .042607625 .29866538 .020507813 .3569336 .020507813 .41910807 .020507813 .47045899 .044718427 .5109863 .09313965 .5515137 .14157105 .57177737 .21795146 .57177737 .32228089 .57177737 .43537904 .5494792 .5197194 .5048828 .5753021 .46907554 .61950179 .41959635 .64160159 .3564453 .64160159Z"/>
<path id="font_5_54" d="M.4584961 .6767578V.44726563H.4404297C.4345703 .49132286 .42407228 .5264028 .40893556 .5525055 .39379884 .57861837 .37223307 .5993449 .34423829 .61468508 .3162435 .6300252 .28727214 .6376953 .25732423 .6376953 .22347005 .6376953 .19547527 .6273753 .17333985 .6067352 .15120442 .58609518 .14013672 .562617 .14013672 .53630068 .14013672 .51614889 .14713542 .49778239 .16113281 .48120118 .18131511 .4568278 .22932942 .42433167 .30517579 .38371278 .36702476 .35056053 .40926109 .3251241 .43188478 .30740357 .45450846 .2896932 .47192384 .268809 .48413087 .24475098 .4963379 .22070313 .5024414 .19551087 .5024414 .1691742 .5024414 .119115199 .48299156 .07596334 .4440918 .039718629 .40519206 .0034739178 .35514323-.0146484379 .2939453-.0146484379 .2747396-.0146484379 .2566732-.013163249 .2397461-.010192871 .22965496-.008544922 .20874024-.0025278729 .17700196 .007858276 .14526367 .018244425 .12516277 .0234375 .11669922 .0234375 .108561199 .0234375 .102132167 .020965577 .09741211 .016021729 .092692058 .011077881 .08919271 .0008544922 .08691406-.0146484379H.068847659V.21289063H.08691406C.0953776 .16524251 .106770839 .12958782 .12109375 .10592651 .13541667 .08226522 .15730794 .06260172 .18676758 .046936037 .21622722 .031270345 .24853516 .0234375 .2836914 .0234375 .3243815 .0234375 .3565267 .034184774 .38012696 .05567932 .4037272 .07717387 .41552735 .10257467 .41552735 .13188172 .41552735 .14816793 .41105143 .16461182 .4020996 .18121338 .3931478 .19782512 .37923179 .21329753 .36035157 .22763062 .34765626 .23739624 .31298829 .25802613 .25634767 .28952027 .19970703 .32102458 .15942383 .34620667 .13549805 .36506654 .111572269 .3839264 .09342448 .40473939 .08105469 .4275055 .0686849 .4502716 .0625 .47531129 .0625 .5026245 .0625 .5500997 .080729167 .59098818 .1171875 .6252899 .15364583 .65960189 .20003255 .6767578 .25634767 .6767578 .2915039 .6767578 .32877604 .66813156 .36816407 .6508789 .38639323 .6427409 .3992513 .6386719 .40673829 .6386719 .4152018 .6386719 .42211915 .64119467 .42749024 .64624026 .43286134 .6512858 .43717448 .6614583 .4404297 .6767578H.4584961Z"/>
<path id="font_5_17" d="M.125 .09472656C.14029949 .09472656 .15315755 .08943685 .16357422 .07885742 .17399089 .06827799 .17919922 .0555013 .17919922 .040527345 .17919922 .025553385 .1739095 .012776692 .16333008 .0021972657 .15275066-.008382161 .13997396-.013671875 .125-.013671875 .11002604-.013671875 .09724935-.008382161 .08666992 .0021972657 .07609049 .012776692 .07080078 .025553385 .07080078 .040527345 .07080078 .055826826 .07609049 .0686849 .08666992 .07910156 .09724935 .08951823 .11002604 .09472656 .125 .09472656Z"/>
<path id="font_5_22" d="M.05078125 .5361328C.06966146 .5807292 .09350586 .615153 .12231445 .6394043 .15112305 .6636556 .18701172 .67578127 .22998047 .67578127 .28304038 .67578127 .32373048 .6585286 .35205079 .62402346 .37353517 .5983073 .38427735 .5708008 .38427735 .5415039 .38427735 .4933268 .3540039 .44352214 .29345704 .39208985 .33414714 .3761393 .36490885 .35335288 .3857422 .32373048 .40657554 .29410807 .4169922 .25927735 .4169922 .21923828 .4169922 .16194661 .39876304 .11230469 .3623047 .0703125 .31477867 .015625 .24593099-.01171875 .15576172-.01171875 .11116537-.01171875 .08081055-.006184896 .064697269 .0048828127 .048583986 .015950522 .040527345 .027832032 .040527345 .040527345 .040527345 .04996745 .044352216 .05826823 .052001954 .06542969 .05965169 .07259115 .068847659 .076171878 .079589847 .076171878 .08772787 .076171878 .09602865 .07488505 .10449219 .0723114 .11002604 .07069397 .122558597 .06481425 .14208985 .05467224 .1616211 .04453023 .1751302 .03849284 .18261719 .03656006 .19466146 .03302002 .20751953 .03125 .2211914 .03125 .25439454 .03125 .28328453 .044108076 .30786134 .06982422 .33243815 .09554037 .34472657 .12597656 .34472657 .16113281 .34472657 .18684896 .33902995 .21191406 .32763673 .23632813 .3191732 .25455729 .30989585 .26839195 .2998047 .27783204 .28580729 .29085288 .26660157 .30265299 .2421875 .31323243 .21777344 .32381187 .1928711 .32910157 .16748047 .32910157H.15185547V.34375C.17757161 .34699504 .20336914 .35625205 .22924805 .371521 .25512696 .38680015 .27392579 .40516154 .28564454 .42660523 .29736329 .44804893 .30322267 .4716085 .30322267 .49728395 .30322267 .5307414 .2927246 .55778506 .27172853 .5784149 .25073243 .599055 .22460938 .609375 .19335938 .609375 .14290364 .609375 .100748699 .58235678 .06689453 .5283203L.05078125 .5361328Z"/>
<path id="font_5_53" d="M.67578127 0H.49902345L.27490235 .3095703C.25830079 .30891929 .24479167 .30859376 .234375 .30859376 .23014324 .30859376 .22558594 .30867515 .22070313 .3088379 .21582031 .30900065 .21077474 .30924479 .2055664 .3095703V.1171875C.2055664 .07572428 .2101237 .049972536 .21923828 .03993225 .23160808 .025680542 .25016276 .018554688 .27490235 .018554688H.30078126V0H.017089844V.018554688H.041992189C.06998698 .018554688 .09000651 .027623496 .10205078 .04576111 .10888672 .05580139 .11230469 .07961019 .11230469 .1171875V.5449219C.11230469 .5863851 .1077474 .61213687 .09863281 .6221771 .0859375 .63642886 .06705729 .6435547 .041992189 .6435547H.017089844V.6621094H.25830079C.32861329 .6621094 .38045249 .6569875 .41381837 .6467438 .44718424 .63650009 .47550456 .6176351 .4987793 .5901489 .522054 .5626729 .5336914 .5299123 .5336914 .49186708 .5336914 .4512075 .52042648 .41591899 .49389649 .3860016 .46736656 .3560842 .42626954 .33494569 .37060548 .32258607L.5073242 .1328125C.5385742 .08919271 .5654297 .060221357 .5878906 .045898439 .61035159 .03157552 .63964846 .022460938 .67578127 .018554688V0M.2055664 .3408203C.2117513 .3408203 .21712239 .34073893 .22167969 .34057618 .22623699 .34041343 .22998047 .34033204 .23291016 .34033204 .2960612 .34033204 .3436686 .35397849 .37573243 .38127137 .40779624 .40857444 .42382813 .4433492 .42382813 .4855957 .42382813 .52686569 .41088868 .5604146 .38500978 .5862427 .35913087 .6120809 .32486979 .625 .28222657 .625 .26334635 .625 .23779297 .6217448 .2055664 .6152344V.3408203Z"/>
<path id="font_5_56" d="M.47705079 .6435547V.6621094H.7114258V.6435547H.68652346C.66048178 .6435547 .6404622 .6327006 .62646487 .61099246 .6196289 .60095217 .61621096 .5776265 .61621096 .5410156V.27293397C.61621096 .2066396 .60961917 .1552124 .59643557 .118652347 .58325198 .082102458 .55737307 .050745649 .5187988 .02458191 .4802246-.0015716553 .42773438-.0146484379 .36132813-.0146484379 .2890625-.0146484379 .23421224-.0021413167 .19677735 .022872925 .15934246 .04789734 .1328125 .0815328 .1171875 .1237793 .106770839 .15269979 .1015625 .20697022 .1015625 .28659059V.5449219C.1015625 .5854085 .095947269 .611969 .0847168 .6246033 .07348633 .63723757 .055338544 .6435547 .030273438 .6435547H.0053710939V.6621094H.2915039V.6435547H.26611329C.23876953 .6435547 .21923828 .63496908 .20751953 .61779788 .19938152 .60614016 .1953125 .58184817 .1953125 .5449219V.25689698C.1953125 .23122151 .19767253 .20181275 .20239258 .16867066 .20711263 .13553874 .21565755 .10971069 .22802735 .09118652 .24039714 .07267252 .2582194 .057403566 .28149415 .04537964 .3047689 .033355714 .33333335 .02734375 .3671875 .02734375 .41048179 .02734375 .44921876 .036763509 .48339845 .055603029 .5175781 .07445272 .54093429 .098576869 .5534668 .12797547 .5659993 .15738423 .5722656 .20717876 .5722656 .277359V.5449219C.5722656 .5860596 .5677083 .61181136 .55859377 .6221771 .54589846 .63642886 .52701827 .6435547 .5019531 .6435547H.47705079Z"/>
<path id="font_5_38" d="M.6020508 .6767578 .6171875 .45117188H.6020508C.58186849 .5187276 .5530599 .5673523 .515625 .5970459 .4781901 .6267497 .43326823 .64160159 .38085938 .64160159 .33691407 .64160159 .29720054 .6304677 .26171876 .6082001 .22623699 .58594259 .19832357 .55043539 .17797852 .50167849 .15763347 .45293174 .14746094 .39232383 .14746094 .31985475 .14746094 .26005046 .1570638 .20821126 .17626953 .16433716 .19547527 .12046305 .22436524 .08682251 .26293946 .06341553 .30151368 .04001872 .34554038 .028320313 .39501954 .028320313 .43798829 .028320313 .47591148 .037546796 .50878909 .055999757 .5416667 .07446289 .5777995 .11113485 .6171875 .16601563L.6323242 .15625C.5991211 .0971578 .5603841 .053899129 .5161133 .026473999 .47184245-.0009409587 .41927085-.0146484379 .35839845-.0146484379 .24869792-.0146484379 .16373699 .025985718 .103515628 .10725403 .05859375 .16770935 .036132814 .23889669 .036132814 .32081605 .036132814 .3868052 .05094401 .44742839 .080566409 .50268557 .110188808 .5579427 .15096028 .60076907 .20288086 .63116458 .25480143 .66156008 .31152345 .6767578 .37304688 .6767578 .42089845 .6767578 .46809898 .66503909 .51464846 .64160159 .5283203 .6344401 .53808596 .6308594 .5439453 .6308594 .5527344 .6308594 .5603841 .63395187 .56689456 .6401367 .5753581 .6489258 .5813802 .6611328 .58496096 .6767578H.6020508Z"/>
<path id="font_5_23" d="M.46533204 .24414063V.17480469H.37646485V0H.29589845V.17480469H.015625V.23730469L.3227539 .67578127H.37646485V.24414063H.46533204M.29589845 .24414063V.5725708L.06347656 .24414063H.29589845Z"/>
<path id="font_5_43" d="M.2055664 .35546876H.5131836V.5449219C.5131836 .57844039 .5110677 .60051986 .50683596 .6111603 .50358077 .6192169 .49674479 .6261495 .48632813 .631958 .47233073 .63968917 .45751954 .6435547 .44189454 .6435547H.41845704V.6621094H.70166018V.6435547H.67822268C.66259768 .6435547 .64778646 .6398468 .63378909 .63243106 .6233724 .62727358 .6162923 .619456 .6125488 .6089783 .60880538 .59851077 .6069336 .57715865 .6069336 .5449219V.1171875C.6069336 .08382162 .6090495 .06179301 .61328127 .051101686 .61653646 .043004354 .62320968 .03604126 .6333008 .030212403 .6476237 .022440592 .66259768 .018554688 .67822268 .018554688H.70166018V0H.41845704V.018554688H.44189454C.46891276 .018554688 .48860679 .026489258 .50097659 .0423584 .50911459 .0527242 .5131836 .07766724 .5131836 .1171875V.31933595H.2055664V.1171875C.2055664 .08382162 .2076823 .06179301 .21191406 .051101686 .21516927 .043004354 .2220052 .03604126 .23242188 .030212403 .24641927 .022440592 .26123048 .018554688 .27685548 .018554688H.30078126V0H.017089844V.018554688H.040527345C.067871097 .018554688 .08772787 .026489258 .100097659 .0423584 .107910159 .0527242 .111816409 .07766724 .111816409 .1171875V.5449219C.111816409 .57844039 .10970052 .60051986 .10546875 .6111603 .10221354 .6192169 .09554037 .6261495 .08544922 .631958 .071126308 .63968917 .056152345 .6435547 .040527345 .6435547H.017089844V.6621094H.30078126V.6435547H.27685548C.26123048 .6435547 .24641927 .6398468 .23242188 .63243106 .22233074 .62727358 .21533203 .619456 .21142578 .6089783 .20751953 .59851077 .2055664 .57715865 .2055664 .5449219V.35546876Z"/>
<path id="font_5_60" d="M.4765625 .6621094H.70751956V.6435547H.6948242C.68636068 .6435547 .6739909 .63982138 .65771487 .63235476 .6414388 .6248881 .6266276 .61417648 .61328127 .6002197 .5999349 .586263 .5834961 .56354269 .56396487 .5320587L.40429688 .28076173V.115234378C.40429688 .07454427 .40885417 .049153646 .41796876 .0390625 .43033854 .025390625 .44986979 .018554688 .4765625 .018554688H.49804688V0H.21679688V.018554688H.24023438C.26822917 .018554688 .28808595 .027018229 .2998047 .043945314 .30696617 .05436198 .31054688 .078125 .31054688 .115234378V.27148438L.12890625 .54870608C.107421878 .58113607 .09285482 .60140487 .08520508 .6095123 .077555339 .6176198 .0616862 .6273448 .037597658 .63868716 .03108724 .6419322 .021647135 .6435547 .009277344 .6435547V.6621094H.29248048V.6435547H.27783204C.26253257 .6435547 .24845378 .6399892 .2355957 .6328583 .22273763 .62572738 .2163086 .615036 .2163086 .6007843 .2163086 .5891164 .22623699 .5680542 .24609375 .53759768L.38427735 .32421876 .51416018 .5283203C.5336914 .55878707 .54345706 .58147689 .54345706 .5963898 .54345706 .6054637 .541097 .6135661 .53637698 .620697 .5316569 .62782797 .52490237 .6334178 .5161133 .63746646 .5073242 .64152529 .49414063 .6435547 .4765625 .6435547V.6621094Z"/>
<path id="font_5_36" d="M.45751954 .22167969H.20117188L.15625 .1171875C.1451823 .09159342 .13964844 .07248434 .13964844 .05986023 .13964844 .049809774 .14444988 .040980024 .15405274 .03337097 .1636556 .025761923 .18440755 .02082316 .2163086 .018554688V0H.0078125V.018554688C.03548177 .023427329 .053385419 .029759726 .061523439 .03755188 .078125 .053146364 .09651693 .08481344 .11669922 .1325531L.34960938 .6767578H.36669923L.59716799 .12646485C.61572268 .08239746 .63256838 .053797407 .6477051 .040664674 .6628418 .027542115 .68391928 .02017212 .7109375 .018554688V0H.44970704V.018554688C.47607423 .019846598 .49389649 .024220786 .5031738 .031677247 .5124512 .03913371 .51708987 .0482076 .51708987 .058898927 .51708987 .073160808 .5105794 .09568278 .4975586 .12646485L.45751954 .22167969M.44384767 .2578125 .33154298 .5253906 .2163086 .2578125H.44384767Z"/>
<path id="font_5_48" d="M.4091797 0 .15332031 .5571289V.115234378C.15332031 .07454427 .15771485 .049153646 .1665039 .0390625 .17854817 .025390625 .19759114 .018554688 .22363281 .018554688H.24707031V0H.016601563V.018554688H.040039064C.06803385 .018554688 .087890628 .027018229 .099609378 .043945314 .106770839 .05436198 .11035156 .078125 .11035156 .115234378V.546875C.11035156 .5761719 .10709635 .59733077 .10058594 .61035159 .09602865 .6197917 .087646488 .62768557 .07543945 .6340332 .06323242 .64038088 .043619794 .6435547 .016601563 .6435547V.6621094H.20410156L.44433595 .14414978 .68066409 .6621094H.86816409V.6435547H.84521487C.81689456 .6435547 .796875 .6350911 .78515627 .61816409 .7779948 .6077474 .77441409 .5839844 .77441409 .546875V.115234378C.77441409 .07454427 .7789714 .049153646 .78808596 .0390625 .8001302 .025390625 .81917318 .018554688 .84521487 .018554688H.86816409V0H.58691409V.018554688H.61035159C.6386719 .018554688 .6585286 .027018229 .6699219 .043945314 .6770833 .05436198 .68066409 .078125 .68066409 .115234378V.5571289L.42529298 0H.4091797Z"/>
<path id="font_5_51" d="M.20507813 .30978395V.1171875C.20507813 .07572428 .20963542 .049972536 .21875 .03993225 .2311198 .025680542 .24983724 .018554688 .27490235 .018554688H.30029298V0H.016601563V.018554688H.041503908C.069498699 .018554688 .08951823 .027623496 .1015625 .04576111 .108072917 .05580139 .111328128 .07961019 .111328128 .1171875V.5449219C.111328128 .5863851 .106933597 .61213687 .09814453 .6221771 .08544922 .63642886 .06656901 .6435547 .041503908 .6435547H.016601563V.6621094H.25927735C.31852214 .6621094 .36523438 .65599569 .39941407 .6437683 .43359376 .6315511 .46240235 .61093649 .48583985 .58192446 .50927737 .5529124 .5209961 .51852419 .5209961 .47875978 .5209961 .4246521 .5031738 .38064576 .4675293 .34674073 .43188478 .31284587 .3815104 .29589845 .31640626 .29589845 .30045573 .29589845 .28320313 .297053 .26464845 .29936219 .24609375 .30168153 .22623699 .30515544 .20507813 .30978395M.20507813 .33787538C.22233074 .33462016 .2376302 .33217875 .25097657 .33055116 .2643229 .32893373 .27571617 .328125 .28515626 .328125 .3190104 .328125 .34822593 .34120179 .37280274 .36735536 .39737956 .39351908 .40966798 .42740379 .40966798 .4690094 .40966798 .49760438 .4038086 .5241699 .39208985 .54870608 .3803711 .5732422 .36376954 .5916036 .34228517 .6037903 .32080079 .615977 .29638673 .6220703 .26904298 .6220703 .2524414 .6220703 .2311198 .618983 .20507813 .6128082V.33787538Z"/>
<path id="font_5_24" d="M.43408204 .6621094 .3959961 .57910159H.19677735L.15332031 .491333C.23958333 .47860719 .30794273 .44647218 .35839845 .39492799 .40169273 .35056559 .42333985 .29837037 .42333985 .23834229 .42333985 .20343018 .41625978 .1711324 .4020996 .14144898 .38793946 .11176554 .3701172 .08648173 .3486328 .065597537 .32714845 .04472351 .30322267 .027923584 .27685548 .015197754 .23942058-.002746582 .20100911-.01171875 .1616211-.01171875 .121907558-.01171875 .09301758-.004964193 .07495117 .008544922 .056884767 .022054038 .047851564 .036946615 .047851564 .053222658 .047851564 .06233724 .05159505 .07039388 .05908203 .07739258 .06656901 .08439127 .07600912 .087890628 .087402347 .087890628 .09586588 .087890628 .103271488 .08658854 .10961914 .083984378 .1159668 .08138021 .12679036 .07470703 .14208985 .063964847 .1665039 .04703776 .19124349 .038411458 .2163086 .038085939 .25439454 .038085939 .2878418 .052525838 .3166504 .08140564 .34545899 .110295619 .35986329 .14546712 .35986329 .18692017 .35986329 .22706096 .34700523 .2645111 .32128907 .29927064 .2955729 .3340403 .26009117 .36089073 .21484375 .37982179 .17936199 .39450074 .13102214 .40298463 .06982422 .40527345L.19677735 .6621094H.43408204Z"/>
<path id="font_5_46" d="M.29882813 .3675995 .54296877 .12484741C.5830078 .08491007 .6171875 .057698568 .6455078 .04321289 .6738281 .028727213 .70214846 .020507813 .73046877 .018554688V0H.41552735V.018554688C.43440757 .018554688 .44799806 .021728516 .45629884 .028076172 .4645996 .034423829 .46875 .041503908 .46875 .049316408 .46875 .057128908 .46720378 .0641276 .46411134 .0703125 .4610189 .0764974 .45084635 .08805338 .43359376 .10498047L.20507813 .3310547V.1171875C.20507813 .08382162 .20719402 .06179301 .21142578 .051101686 .21468099 .043004354 .22151692 .03604126 .2319336 .030212403 .24593099 .022440592 .2607422 .018554688 .2763672 .018554688H.29882813V0H.016601563V.018554688H.040039064C.06738281 .018554688 .087239589 .026489258 .099609378 .0423584 .107421878 .0527242 .111328128 .07766724 .111328128 .1171875V.5449219C.111328128 .5782878 .10921224 .60047408 .10498047 .6114807 .10172526 .6192627 .095052089 .6260681 .08496094 .631897 .07063802 .63966879 .055664064 .6435547 .040039064 .6435547H.016601563V.6621094H.29882813V.6435547H.2763672C.26106773 .6435547 .24625652 .63983157 .2319336 .63238528 .22184246 .62719729 .21484375 .61942037 .2109375 .60905459 .20703125 .5986888 .20507813 .5773112 .20507813 .5449219V.34274293C.21158855 .34890748 .23388672 .36951194 .27197267 .40455628 .36865235 .49282328 .42708335 .5517222 .44726563 .58125308 .4560547 .5942332 .46044923 .6055908 .46044923 .6153259 .46044923 .62279257 .45703126 .629364 .4501953 .6350403 .44335938 .64071658 .43180339 .6435547 .41552735 .6435547H.40039063V.6621094H.6435547V.6435547C.62923178 .6432292 .61621096 .64127609 .6044922 .6376953 .59277346 .63412478 .5784505 .6272227 .56152346 .61698916 .5445964 .60675558 .523763 .5902659 .49902345 .56752017 .49186198 .5610301 .45882163 .5277913 .39990235 .46780396L.29882813 .3675995Z"/>
<path id="font_5_27" d="M.19189453 .3334961C.13948567 .37646485 .10571289 .41097007 .09057617 .43701173 .07543945 .46305339 .067871097 .49007163 .067871097 .5180664 .067871097 .56103518 .084472659 .5980632 .11767578 .6291504 .1508789 .6602376 .19498699 .67578127 .25 .67578127 .3033854 .67578127 .34635417 .6612956 .37890626 .6323242 .41145835 .60335287 .42773438 .5703125 .42773438 .5332031 .42773438 .50846359 .4189453 .4832357 .4013672 .45751954 .38378907 .43180339 .34716798 .40152995 .2915039 .36669923 .34879557 .32242839 .38671876 .28759767 .40527345 .26220704 .43001304 .2290039 .4423828 .19401042 .4423828 .15722656 .4423828 .110677089 .42464195 .070882167 .38916017 .037841798 .35367839 .004801432 .3071289-.01171875 .24951172-.01171875 .1866862-.01171875 .13769531 .007975261 .10253906 .04736328 .07454427 .078938808 .060546876 .11344401 .060546876 .1508789 .060546876 .18017578 .07039388 .20922852 .09008789 .23803711 .1097819 .2668457 .14371746 .29866538 .19189453 .3334961M.2685547 .3857422C.3076172 .42103068 .33235679 .44888307 .34277345 .46929933 .3531901 .48972575 .35839845 .51284286 .35839845 .5386505 .35839845 .57296249 .34879557 .59983828 .32958985 .61927798 .31038413 .63871768 .2841797 .6484375 .25097657 .6484375 .21777344 .6484375 .1907552 .638799 .16992188 .6195221 .14908855 .6002452 .13867188 .57769778 .13867188 .5518799 .13867188 .5348918 .14298503 .5179036 .15161133 .5009155 .16023763 .4839274 .17252605 .46775309 .18847656 .45239259L.2685547 .3857422M.21484375 .3149414C.18782552 .29222618 .16780599 .26748149 .15478516 .2407074 .14176433 .21394348 .1352539 .18498738 .1352539 .15383911 .1352539 .11198934 .14672852 .07849121 .16967774 .053344728 .19262696 .028198243 .22184246 .015625 .25732423 .015625 .29248048 .015625 .32063804 .025517783 .34179688 .045303346 .36295573 .06509908 .37353517 .08911133 .37353517 .11734009 .37353517 .14070638 .36735026 .16163635 .35498048 .18013 .3318685 .21452332 .28515626 .25946046 .21484375 .3149414Z"/>
<path id="font_5_20" d="M.1171875 .59765627 .2783203 .67578127H.2944336V.1171875C.2944336 .080078128 .29597984 .056966146 .29907228 .047851564 .3021647 .03873698 .30859376 .03173828 .31835938 .026855469 .328125 .021972657 .34798179 .019205729 .3779297 .018554688V0H.12890625V.018554688C.16015625 .019205729 .18033855 .021891276 .18945313 .026611329 .1985677 .03133138 .20491536 .037679037 .2084961 .045654298 .21207683 .05362956 .21386719 .07747396 .21386719 .1171875V.47460938C.21386719 .5225728 .21223958 .5533549 .20898438 .56695559 .20670574 .57733157 .20255535 .58496096 .1965332 .58984377 .19051107 .59472659 .18326824 .59716799 .17480469 .59716799 .16276042 .59716799 .1459961 .5921224 .12451172 .58203127L.1171875 .59765627Z"/>
<path id="font_5_21" d="M.4584961 .12890625 .41210938 0H.021484375V.018432618C.13639324 .12313843 .21728516 .20865886 .26416017 .2749939 .31103517 .3413391 .33447267 .40201823 .33447267 .45703126 .33447267 .498881 .3216146 .5332692 .29589845 .5601959 .27018229 .5871226 .23942058 .60058596 .20361328 .60058596 .1710612 .60058596 .1418457 .5911458 .1159668 .5722656 .09008789 .55339559 .07096354 .5257263 .05859375 .4892578H.040527345C.048665365 .5493266 .06958008 .59542849 .103271488 .6275635 .13696289 .6597087 .17903646 .67578127 .22949219 .67578127 .28320313 .67578127 .3280436 .6585286 .36401368 .62402346 .39998374 .58951827 .41796876 .5488281 .41796876 .5019531 .41796876 .46842448 .41015626 .43489585 .39453126 .4013672 .37044273 .3486328 .33138023 .292806 .27734376 .23388672 .19628906 .14552816 .14567058 .09263102 .12548828 .07519531H.29833985C.3334961 .07519531 .3581543 .0764974 .37231446 .07910156 .3864746 .08170573 .3992513 .086995448 .41064454 .0949707 .42203776 .10294596 .43196617 .11425781 .4404297 .12890625H.4584961Z"/>
<path id="font_5_47" d="M.5732422 .18359375 .58935549 .18016052 .53271487 0H.020019532V.018554688H.044921876C.072916667 .018554688 .092936199 .027577719 .10498047 .04562378 .111816409 .05593872 .115234378 .0797933 .115234378 .1171875V.5449219C.115234378 .5860596 .110677089 .61181136 .1015625 .6221771 .08886719 .63642886 .06998698 .6435547 .044921876 .6435547H.020019532V.6621094H.31982423V.6435547C.28466798 .6438802 .26000978 .6406555 .24584961 .6338806 .23168946 .6271057 .2220052 .6185557 .21679688 .6082306 .21158855 .59790548 .20898438 .57322189 .20898438 .5341797V.117752078C.20898438 .09070333 .21158855 .072128299 .21679688 .062026979 .22070313 .05519104 .22672527 .05014038 .23486328 .046875 .2430013 .043619794 .26839195 .041992189 .31103517 .041992189H.359375C.41015626 .041992189 .44580079 .04574585 .4663086 .053253175 .4868164 .06077067 .5055339 .07408142 .52246096 .093185428 .539388 .1122996 .5563151 .14243572 .5732422 .18359375Z"/>
<path id="font_5_25" d="M.4482422 .67578127V.65625C.40527345 .65204879 .37019859 .64355978 .34301759 .6307831 .31583659 .61801657 .2889811 .5985362 .26245118 .5723419 .23592122 .54615786 .21394857 .51697799 .1965332 .48480226 .17911785 .45263673 .16455078 .4144033 .15283203 .37010194 .19970703 .40266419 .2467448 .4189453 .2939453 .4189453 .33919273 .4189453 .37841798 .40067546 .4116211 .36413575 .44482423 .32759605 .46142579 .28061424 .46142579 .22319031 .46142579 .16772969 .44466148 .11715698 .4111328 .07147217 .37076823 .016011557 .3173828-.01171875 .25097657-.01171875 .20572917-.01171875 .1673177 .0032552083 .13574219 .033203126 .07389323 .09147135 .04296875 .16699219 .04296875 .25976563 .04296875 .3190104 .05485026 .37532554 .07861328 .42871095 .102376308 .48209635 .13631185 .52945968 .18041992 .5708008 .224528 .6121419 .2667643 .63997396 .3071289 .6542969 .3474935 .6686198 .38509117 .67578127 .41992188 .67578127H.4482422M.14453125 .33441163C.13867188 .29040528 .13574219 .25487773 .13574219 .22782898 .13574219 .19653829 .14152019 .16255696 .15307617 .12588501 .16463216 .08921305 .18180339 .06011963 .20458985 .038604738 .2211914 .023284913 .2413737 .015625 .26513673 .015625 .29345704 .015625 .31876628 .028986613 .34106446 .05570984 .36336265 .08244324 .37451173 .12058512 .37451173 .1701355 .37451173 .22587078 .363444 .2741089 .3413086 .31484986 .3191732 .35560099 .2877604 .37597657 .24707031 .37597657 .23470052 .37597657 .22143555 .3733673 .20727539 .3681488 .19311524 .36294047 .17220052 .35169474 .14453125 .33441163Z"/>
<path id="font_5_26" d="M.10058594 .6621094H.4555664V.6437073L.23486328-.013671875H.18017578L.3779297 .58203127H.19580078C.15901692 .58203127 .1328125 .5776367 .1171875 .56884768 .08984375 .5538737 .067871097 .5307617 .05126953 .49951173L.037109376 .5048828 .10058594 .6621094Z"/>
<path id="font_5_59" d="M.4079895 .36669923 .55029299 .15478516C.58968099 .09640503 .6188965 .059509279 .63793948 .0440979 .6569824 .028686524 .68115237 .02017212 .7104492 .018554688V0H.42626954V.018554688C.44514976 .018880209 .45914714 .02082316 .46826173 .024383545 .47509767 .027292887 .4807129 .03173828 .48510743 .037719728 .48950196 .043711347 .49169923 .049779256 .49169923 .055923463 .49169923 .06336975 .49023438 .07081604 .4873047 .07826233 .48502604 .08375549 .47607423 .09799194 .46044923 .12097168L.34773255 .28977967 .20947266 .11328125C.19482422 .09450277 .18603516 .081954959 .18310547 .07563782 .18017578 .06932068 .17871094 .0627594 .17871094 .05595398 .17871094 .045598348 .18310547 .037017824 .19189453 .030212403 .2006836 .023417155 .21744792 .01953125 .2421875 .018554688V0H.0073242189V.018554688C.023925782 .02017212 .0382487 .02357483 .05029297 .028762818 .07047526 .03718567 .08968099 .048528036 .107910159 .06278992 .12613933 .077051799 .14697266 .09892782 .17041016 .12841797L.32432557 .32484437 .19628906 .51597598C.1608073 .5677846 .13069661 .6017558 .10595703 .6178894 .081217449 .634023 .052734376 .6425781 .020507813 .6435547V.6621094H.32666017V.6435547C.3006185 .6425883 .28279624 .63839218 .27319337 .6309662 .26359049 .6235402 .25878907 .6153056 .25878907 .6062622 .25878907 .59431967 .26660157 .57688906 .28222657 .55397036L.38452149 .40164186 .50146487 .55088809C.5151367 .5683543 .52351889 .58032229 .5266113 .586792 .5297038 .5932617 .53125 .5998942 .53125 .60668948 .53125 .61347457 .5292969 .619456 .5253906 .6246338 .5205078 .631429 .51432296 .63619998 .50683596 .63894656 .49934898 .6416931 .48388673 .6432292 .46044923 .6435547V.6621094H.6953125V.6435547C.6767578 .6425781 .6616211 .6396535 .64990237 .6347809 .6323242 .6273041 .61621096 .6172282 .6015625 .6045532 .58691409 .5918884 .56624349 .5684967 .5395508 .53437808L.4079895 .36669923Z"/>
<clipPath id="clip_6">
<path d="M0 957.45376H612V1008H0Z" fill-rule="evenodd"/>
</clipPath>
<path id="font_7_21" d="M.50341799 .08496094V0H.030273438C.029622397 .0211792 .033040365 .041549684 .040527345 .06111145 .052571615 .09336853 .07185873 .12513733 .09838867 .15641785 .12491862 .18770854 .1632487 .22387696 .2133789 .2649231 .29117839 .32877604 .34375 .37928263 .37109376 .41644288 .3984375 .45360313 .41210938 .488739 .41210938 .5218506 .41210938 .5565796 .3996582 .5858714 .37475587 .60972598 .34985353 .6335805 .3173828 .6455078 .27734376 .6455078 .23502605 .6455078 .20117188 .6328125 .17578125 .6074219 .15039063 .58203127 .13753255 .546875 .13720703 .5019531L.046875 .51171877C.053059896 .57910159 .07633463 .63045248 .11669922 .6657715 .1570638 .7010905 .21126302 .71875 .27929688 .71875 .34798179 .71875 .40234376 .6997121 .4423828 .66163638 .48242188 .6235606 .5024414 .57637026 .5024414 .5200653 .5024414 .49142967 .49658204 .4632772 .48486329 .4356079 .47314454 .40794883 .45369468 .37882487 .42651368 .34823609 .39933268 .3176473 .35416667 .27570597 .29101563 .22241211 .23828125 .17822266 .20442708 .14824422 .18945313 .1324768 .17447917 .11671957 .16210938 .10088094 .15234375 .08496094H.50341799Z"/>
</defs>
<path transform="matrix(.75,0,0,.75,0,0)" d="M0 0H816V1344H0Z" fill="#ffffff"/>
<use data-text="I" xlink:href="#font_4_12" transform="matrix(22,0,0,-22,36,101.86548)"/>
<use data-text="n" xlink:href="#font_4_74" transform="matrix(22,0,0,-22,43.69004,101.86548)"/>
<use data-text="d" xlink:href="#font_4_64" transform="matrix(22,0,0,-22,56.965028,101.86548)"/>
<use data-text="e" xlink:href="#font_4_65" transform="matrix(22,0,0,-22,70.100399,101.86548)"/>
<use data-text="x" xlink:href="#font_4_84" transform="matrix(22,0,0,-22,81.3454,101.86548)"/>
<use data-text="D" xlink:href="#font_5_39" transform="matrix(16,0,0,-16,36,174.09534)"/>
<use data-text="E" xlink:href="#font_5_40" transform="matrix(16,0,0,-16,47.551874,174.09534)"/>
<use data-text="F" xlink:href="#font_5_41" transform="matrix(16,0,0,-16,57.32293,174.09534)"/>
<use data-text="I" xlink:href="#font_5_44" transform="matrix(16,0,0,-16,66.2192,174.09534)"/>
<use data-text="N" xlink:href="#font_5_49" transform="matrix(16,0,0,-16,71.54602,174.09534)"/>
<use data-text="I" xlink:href="#font_5_44" transform="matrix(16,0,0,-16,83.0979,174.09534)"/>
<use data-text="T" xlink:href="#font_5_55" transform="matrix(16,0,0,-16,88.42472,174.09534)"/>
<use data-text="I" xlink:href="#font_5_44" transform="matrix(16,0,0,-16,98.19578,174.09534)"/>
<use data-text="O" xlink:href="#font_5_50" transform="matrix(16,0,0,-16,103.5226,174.09534)"/>
<use data-text="N" xlink:href="#font_5_49" transform="matrix(16,0,0,-16,115.07448,174.09534)"/>
<use data-text="S" xlink:href="#font_5_54" transform="matrix(16,0,0,-16,126.62634,174.09534)"/>
<use data-text="." xlink:href="#font_5_17" transform="matrix(16,0,0,-16,144,174.09534)"/>
<use data-text="." xlink:href="#font_5_17" transform="matrix(16,0,0,-16,155.99707,174.09534)"/>
<use data-text="." xlink:href="#font_5_17" transform="matrix(16,0,0,-16,167.99414,174.09534)"/>
<use data-text="." xlink:href="#font_5_17" transform="matrix(16,0,0,-16,179.99121,174.09534)"/>
<use data-text="." xlink:href="#font_5_17" transform="matrix(16,0,0,-16,191.98828,174.09534)"/>
<use data-text="." xlink:href="#font_5_17" transform="matrix(16,0,0,-16,203.98535,174.09534)"/>
<use data-text="." xlink:href="#font_5_17" transform="matrix(16,0,0,-16,215.98242,174.09534)"/>
<use data-text="." xlink:href="#font_5_17" transform="matrix(16,0,0,-16,227.97949,174.09534)"/>
<use data-text="." xlink:href="#font_5_17" transform="matrix(16,0,0,-16,239.97657,174.09534)"/>
<use data-text="." xlink:href="#font_5_17" transform="matrix(16,0,0,-16,251.97364,174.09534)"/>
<use data-text="." xlink:href="#font_5_17" transform="matrix(16,0,0,-16,263.9707,174.09534)"/>
<use data-text="." xlink:href="#font_5_17" transform="matrix(16,0,0,-16,275.96778,174.09534)"/>
<use data-text="." xlink:href="#font_5_17" transform="matrix(16,0,0,-16,287.96485,174.09534)"/>
<use data-text="." xlink:href="#font_5_17" transform="matrix(16,0,0,-16,299.9619,174.09534)"/>
<use data-text="." xlink:href="#font_5_17" transform="matrix(16,0,0,-16,311.95899,174.09534)"/>
<use data-text="." xlink:href="#font_5_17" transform="matrix(16,0,0,-16,323.95606,174.09534)"/>
<use data-text="." xlink:href="#font_5_17" transform="matrix(16,0,0,-16,335.95314,174.09534)"/>
<use data-text="." xlink:href="#font_5_17" transform="matrix(16,0,0,-16,347.9502,174.09534)"/>
<use data-text="." xlink:href="#font_5_17" transform="matrix(16,0,0,-16,359.94728,174.09534)"/>
<use data-text="." xlink:href="#font_5_17" transform="matrix(16,0,0,-16,371.94435,174.09534)"/>
<use data-text="." xlink:href="#font_5_17" transform="matrix(16,0,0,-16,383.9414,174.09534)"/>
<use data-text="." xlink:href="#font_5_17" transform="matrix(16,0,0,-16,395.93849,174.09534)"/>
<use data-text="." xlink:href="#font_5_17" transform="matrix(16,0,0,-16,407.93556,174.09534)"/>
<use data-text="." xlink:href="#font_5_17" transform="matrix(16,0,0,-16,419.93263,174.09534)"/>
<use data-text="." xlink:href="#font_5_17" transform="matrix(16,0,0,-16,431.9297,174.09534)"/>
<use data-text="." xlink:href="#font_5_17" transform="matrix(16,0,0,-16,443.92677,174.09534)"/>
<use data-text="." xlink:href="#font_5_17" transform="matrix(16,0,0,-16,455.92384,174.09534)"/>
<use data-text="." xlink:href="#font_5_17" transform="matrix(16,0,0,-16,467.9209,174.09534)"/>
<use data-text="." xlink:href="#font_5_17" transform="matrix(16,0,0,-16,479.91798,174.09534)"/>
<use data-text="." xlink:href="#font_5_17" transform="matrix(16,0,0,-16,491.91505,174.09534)"/>
<use data-text="." xlink:href="#font_5_17" transform="matrix(16,0,0,-16,503.9121,174.09534)"/>
<use data-text="." xlink:href="#font_5_17" transform="matrix(16,0,0,-16,515.9092,174.09534)"/>
<use data-text="." xlink:href="#font_5_17" transform="matrix(16,0,0,-16,527.90628,174.09534)"/>
<use data-text="." xlink:href="#font_5_17" transform="matrix(16,0,0,-16,539.9033,174.09534)"/>
<use data-text="3" xlink:href="#font_5_22" transform="matrix(16,0,0,-16,555.8994,174.09534)"/>
<use data-text="I" xlink:href="#font_5_44" transform="matrix(16,0,0,-16,36,216.41175)"/>
<use data-text="N" xlink:href="#font_5_49" transform="matrix(16,0,0,-16,41.326826,216.41175)"/>
<use data-text="T" xlink:href="#font_5_55" transform="matrix(16,0,0,-16,52.878698,216.41175)"/>
<use data-text="R" xlink:href="#font_5_53" transform="matrix(16,0,0,-16,62.649755,216.41175)"/>
<use data-text="O" xlink:href="#font_5_50" transform="matrix(16,0,0,-16,73.31902,216.41175)"/>
<use data-text="D" xlink:href="#font_5_39" transform="matrix(16,0,0,-16,84.870899,216.41175)"/>
<use data-text="U" xlink:href="#font_5_56" transform="matrix(16,0,0,-16,96.42277,216.41175)"/>
<use data-text="C" xlink:href="#font_5_38" transform="matrix(16,0,0,-16,107.97464,216.41175)"/>
<use data-text="T" xlink:href="#font_5_55" transform="matrix(16,0,0,-16,118.643909,216.41175)"/>
<use data-text="I" xlink:href="#font_5_44" transform="matrix(16,0,0,-16,128.41497,216.41175)"/>
<use data-text="O" xlink:href="#font_5_50" transform="matrix(16,0,0,-16,133.74179,216.41175)"/>
<use data-text="N" xlink:href="#font_5_49" transform="matrix(16,0,0,-16,145.29367,216.41175)"/>
<use data-text="." xlink:href="#font_5_17" transform="matrix(16,0,0,-16,180,216.41175)"/>
<use data-text="." xlink:href="#font_5_17" transform="matrix(16,0,0,-16,191.99707,216.41175)"/>
<use data-text="." xlink:href="#font_5_17" transform="matrix(16,0,0,-16,203.99414,216.41175)"/>
<use data-text="." xlink:href="#font_5_17" transform="matrix(16,0,0,-16,215.99121,216.41175)"/>
<use data-text="." xlink:href="#font_5_17" transform="matrix(16,0,0,-16,227.98828,216.41175)"/>
<use data-text="." xlink:href="#font_5_17" transform="matrix(16,0,0,-16,239.98535,216.41175)"/>
<use data-text="." xlink:href="#font_5_17" transform="matrix(16,0,0,-16,251.98242,216.41175)"/>
<use data-text="." xlink:href="#font_5_17" transform="matrix(16,0,0,-16,263.9795,216.41175)"/>
<use data-text="." xlink:href="#font_5_17" transform="matrix(16,0,0,-16,275.97657,216.41175)"/>
<use data-text="." xlink:href="#font_5_17" transform="matrix(16,0,0,-16,287.97364,216.41175)"/>
<use data-text="." xlink:href="#font_5_17" transform="matrix(16,0,0,-16,299.9707,216.41175)"/>
<use data-text="." xlink:href="#font_5_17" transform="matrix(16,0,0,-16,311.96778,216.41175)"/>
<use data-text="." xlink:href="#font_5_17" transform="matrix(16,0,0,-16,323.96485,216.41175)"/>
<use data-text="." xlink:href="#font_5_17" transform="matrix(16,0,0,-16,335.9619,216.41175)"/>
<use data-text="." xlink:href="#font_5_17" transform="matrix(16,0,0,-16,347.95899,216.41175)"/>
<use data-text="." xlink:href="#font_5_17" transform="matrix(16,0,0,-16,359.95606,216.41175)"/>
<use data-text="." xlink:href="#font_5_17" transform="matrix(16,0,0,-16,371.95314,216.41175)"/>
<use data-text="." xlink:href="#font_5_17" transform="matrix(16,0,0,-16,383.9502,216.41175)"/>
<use data-text="." xlink:href="#font_5_17" transform="matrix(16,0,0,-16,395.94728,216.41175)"/>
<use data-text="." xlink:href="#font_5_17" transform="matrix(16,0,0,-16,407.94435,216.41175)"/>
<use data-text="." xlink:href="#font_5_17" transform="matrix(16,0,0,-16,419.9414,216.41175)"/>
<use data-text="." xlink:href="#font_5_17" transform="matrix(16,0,0,-16,431.93849,216.41175)"/>
<use data-text="." xlink:href="#font_5_17" transform="matrix(16,0,0,-16,443.93556,216.41175)"/>
<use data-text="." xlink:href="#font_5_17" transform="matrix(16,0,0,-16,455.93263,216.41175)"/>
<use data-text="." xlink:href="#font_5_17" transform="matrix(16,0,0,-16,467.9297,216.41175)"/>
<use data-text="." xlink:href="#font_5_17" transform="matrix(16,0,0,-16,479.92677,216.41175)"/>
<use data-text="." xlink:href="#font_5_17" transform="matrix(16,0,0,-16,491.92384,216.41175)"/>
<use data-text="." xlink:href="#font_5_17" transform="matrix(16,0,0,-16,503.9209,216.41175)"/>
<use data-text="." xlink:href="#font_5_17" transform="matrix(16,0,0,-16,515.91799,216.41175)"/>
<use data-text="." xlink:href="#font_5_17" transform="matrix(16,0,0,-16,527.91506,216.41175)"/>
<use data-text="." xlink:href="#font_5_17" transform="matrix(16,0,0,-16,539.9121,216.41175)"/>
<use data-text="4" xlink:href="#font_5_23" transform="matrix(16,0,0,-16,555.9082,216.41175)"/>
<use data-text="T" xlink:href="#font_5_55" transform="matrix(16,0,0,-16,36,258.72816)"/>
<use data-text="H" xlink:href="#font_5_43" transform="matrix(16,0,0,-16,45.771059,258.72816)"/>
<use data-text="E" xlink:href="#font_5_40" transform="matrix(16,0,0,-16,57.32293,258.72816)"/>
<use data-text="O" xlink:href="#font_5_50" transform="matrix(16,0,0,-16,67.09399,258.72816)"/>
<use data-text="R" xlink:href="#font_5_53" transform="matrix(16,0,0,-16,78.64586,258.72816)"/>
<use data-text="Y" xlink:href="#font_5_60" transform="matrix(16,0,0,-16,88.43232,258.72816)"/>
<use data-text="A" xlink:href="#font_5_36" transform="matrix(16,0,0,-16,103.983219,258.72816)"/>
<use data-text="N" xlink:href="#font_5_49" transform="matrix(16,0,0,-16,115.53509,258.72816)"/>
<use data-text="D" xlink:href="#font_5_39" transform="matrix(16,0,0,-16,127.08696,258.72816)"/>
<use data-text="A" xlink:href="#font_5_36" transform="matrix(16,0,0,-16,142.63785,258.72816)"/>
<use data-text="S" xlink:href="#font_5_54" transform="matrix(16,0,0,-16,154.18973,258.72816)"/>
<use data-text="S" xlink:href="#font_5_54" transform="matrix(16,0,0,-16,163.086,258.72816)"/>
<use data-text="U" xlink:href="#font_5_56" transform="matrix(16,0,0,-16,171.98227,258.72816)"/>
<use data-text="M" xlink:href="#font_5_48" transform="matrix(16,0,0,-16,183.53415,258.72816)"/>
<use data-text="P" xlink:href="#font_5_51" transform="matrix(16,0,0,-16,197.75724,258.72816)"/>
<use data-text="T" xlink:href="#font_5_55" transform="matrix(16,0,0,-16,206.6535,258.72816)"/>
<use data-text="I" xlink:href="#font_5_44" transform="matrix(16,0,0,-16,216.42456,258.72816)"/>
<use data-text="O" xlink:href="#font_5_50" transform="matrix(16,0,0,-16,221.75139,258.72816)"/>
<use data-text="N" xlink:href="#font_5_49" transform="matrix(16,0,0,-16,233.30326,258.72816)"/>
<use data-text="S" xlink:href="#font_5_54" transform="matrix(16,0,0,-16,244.85514,258.72816)"/>
<use data-text="." xlink:href="#font_5_17" transform="matrix(16,0,0,-16,288,258.72816)"/>
<use data-text="." xlink:href="#font_5_17" transform="matrix(16,0,0,-16,299.99708,258.72816)"/>
<use data-text="." xlink:href="#font_5_17" transform="matrix(16,0,0,-16,311.99415,258.72816)"/>
<use data-text="." xlink:href="#font_5_17" transform="matrix(16,0,0,-16,323.9912,258.72816)"/>
<use data-text="." xlink:href="#font_5_17" transform="matrix(16,0,0,-16,335.98829,258.72816)"/>
<use data-text="." xlink:href="#font_5_17" transform="matrix(16,0,0,-16,347.98536,258.72816)"/>
<use data-text="." xlink:href="#font_5_17" transform="matrix(16,0,0,-16,359.98243,258.72816)"/>
<use data-text="." xlink:href="#font_5_17" transform="matrix(16,0,0,-16,371.9795,258.72816)"/>
<use data-text="." xlink:href="#font_5_17" transform="matrix(16,0,0,-16,383.97657,258.72816)"/>
<use data-text="." xlink:href="#font_5_17" transform="matrix(16,0,0,-16,395.97364,258.72816)"/>
<use data-text="." xlink:href="#font_5_17" transform="matrix(16,0,0,-16,407.9707,258.72816)"/>
<use data-text="." xlink:href="#font_5_17" transform="matrix(16,0,0,-16,419.96778,258.72816)"/>
<use data-text="." xlink:href="#font_5_17" transform="matrix(16,0,0,-16,431.96485,258.72816)"/>
<use data-text="." xlink:href="#font_5_17" transform="matrix(16,0,0,-16,443.9619,258.72816)"/>
<use data-text="." xlink:href="#font_5_17" transform="matrix(16,0,0,-16,455.95899,258.72816)"/>
<use data-text="." xlink:href="#font_5_17" transform="matrix(16,0,0,-16,467.95606,258.72816)"/>
<use data-text="." xlink:href="#font_5_17" transform="matrix(16,0,0,-16,479.95314,258.72816)"/>
<use data-text="." xlink:href="#font_5_17" transform="matrix(16,0,0,-16,491.9502,258.72816)"/>
<use data-text="." xlink:href="#font_5_17" transform="matrix(16,0,0,-16,503.94728,258.72816)"/>
<use data-text="." xlink:href="#font_5_17" transform="matrix(16,0,0,-16,515.94436,258.72816)"/>
<use data-text="." xlink:href="#font_5_17" transform="matrix(16,0,0,-16,527.9414,258.72816)"/>
<use data-text="." xlink:href="#font_5_17" transform="matrix(16,0,0,-16,539.9385,258.72816)"/>
<use data-text="5" xlink:href="#font_5_24" transform="matrix(16,0,0,-16,555.9346,258.72816)"/>
<use data-text="K" xlink:href="#font_5_46" transform="matrix(16,0,0,-16,36,301.04457)"/>
<use data-text="E" xlink:href="#font_5_40" transform="matrix(16,0,0,-16,47.551874,301.04457)"/>
<use data-text="Y" xlink:href="#font_5_60" transform="matrix(16,0,0,-16,57.32293,301.04457)"/>
<use data-text="C" xlink:href="#font_5_38" transform="matrix(16,0,0,-16,72.873828,301.04457)"/>
<use data-text="O" xlink:href="#font_5_50" transform="matrix(16,0,0,-16,83.54309,301.04457)"/>
<use data-text="N" xlink:href="#font_5_49" transform="matrix(16,0,0,-16,95.09497,301.04457)"/>
<use data-text="C" xlink:href="#font_5_38" transform="matrix(16,0,0,-16,106.646839,301.04457)"/>
<use data-text="E" xlink:href="#font_5_40" transform="matrix(16,0,0,-16,117.31611,301.04457)"/>
<use data-text="P" xlink:href="#font_5_51" transform="matrix(16,0,0,-16,127.087169,301.04457)"/>
<use data-text="T" xlink:href="#font_5_55" transform="matrix(16,0,0,-16,135.98343,301.04457)"/>
<use data-text="S" xlink:href="#font_5_54" transform="matrix(16,0,0,-16,145.75449,301.04457)"/>
<use data-text="A" xlink:href="#font_5_36" transform="matrix(16,0,0,-16,158.64978,301.04457)"/>
<use data-text="N" xlink:href="#font_5_49" transform="matrix(16,0,0,-16,170.20166,301.04457)"/>
<use data-text="D" xlink:href="#font_5_39" transform="matrix(16,0,0,-16,181.75354,301.04457)"/>
<use data-text="F" xlink:href="#font_5_41" transform="matrix(16,0,0,-16,197.30443,301.04457)"/>
<use data-text="E" xlink:href="#font_5_40" transform="matrix(16,0,0,-16,206.2007,301.04457)"/>
<use data-text="A" xlink:href="#font_5_36" transform="matrix(16,0,0,-16,215.97176,301.04457)"/>
<use data-text="T" xlink:href="#font_5_55" transform="matrix(16,0,0,-16,225.7502,301.04457)"/>
<use data-text="U" xlink:href="#font_5_56" transform="matrix(16,0,0,-16,235.52124,301.04457)"/>
<use data-text="R" xlink:href="#font_5_53" transform="matrix(16,0,0,-16,247.07312,301.04457)"/>
<use data-text="E" xlink:href="#font_5_40" transform="matrix(16,0,0,-16,257.74238,301.04457)"/>
<use data-text="S" xlink:href="#font_5_54" transform="matrix(16,0,0,-16,267.51344,301.04457)"/>
<use data-text="." xlink:href="#font_5_17" transform="matrix(16,0,0,-16,288,301.04457)"/>
<use data-text="." xlink:href="#font_5_17" transform="matrix(16,0,0,-16,299.99708,301.04457)"/>
<use data-text="." xlink:href="#font_5_17" transform="matrix(16,0,0,-16,311.99415,301.04457)"/>
<use data-text="." xlink:href="#font_5_17" transform="matrix(16,0,0,-16,323.9912,301.04457)"/>
<use data-text="." xlink:href="#font_5_17" transform="matrix(16,0,0,-16,335.98829,301.04457)"/>
<use data-text="." xlink:href="#font_5_17" transform="matrix(16,0,0,-16,347.98536,301.04457)"/>
<use data-text="." xlink:href="#font_5_17" transform="matrix(16,0,0,-16,359.98243,301.04457)"/>
<use data-text="." xlink:href="#font_5_17" transform="matrix(16,0,0,-16,371.9795,301.04457)"/>
<use data-text="." xlink:href="#font_5_17" transform="matrix(16,0,0,-16,383.97657,301.04457)"/>
<use data-text="." xlink:href="#font_5_17" transform="matrix(16,0,0,-16,395.97364,301.04457)"/>
<use data-text="." xlink:href="#font_5_17" transform="matrix(16,0,0,-16,407.9707,301.04457)"/>
<use data-text="." xlink:href="#font_5_17" transform="matrix(16,0,0,-16,419.96778,301.04457)"/>
<use data-text="." xlink:href="#font_5_17" transform="matrix(16,0,0,-16,431.96485,301.04457)"/>
<use data-text="." xlink:href="#font_5_17" transform="matrix(16,0,0,-16,443.9619,301.04457)"/>
<use data-text="." xlink:href="#font_5_17" transform="matrix(16,0,0,-16,455.95899,301.04457)"/>
<use data-text="." xlink:href="#font_5_17" transform="matrix(16,0,0,-16,467.95606,301.04457)"/>
<use data-text="." xlink:href="#font_5_17" transform="matrix(16,0,0,-16,479.95314,301.04457)"/>
<use data-text="." xlink:href="#font_5_17" transform="matrix(16,0,0,-16,491.9502,301.04457)"/>
<use data-text="." xlink:href="#font_5_17" transform="matrix(16,0,0,-16,503.94728,301.04457)"/>
<use data-text="." xlink:href="#font_5_17" transform="matrix(16,0,0,-16,515.94436,301.04457)"/>
<use data-text="." xlink:href="#font_5_17" transform="matrix(16,0,0,-16,527.9414,301.04457)"/>
<use data-text="." xlink:href="#font_5_17" transform="matrix(16,0,0,-16,539.9385,301.04457)"/>
<use data-text="8" xlink:href="#font_5_27" transform="matrix(16,0,0,-16,555.9346,301.04457)"/>
<use data-text="M" xlink:href="#font_5_48" transform="matrix(16,0,0,-16,36,343.36097)"/>
<use data-text="E" xlink:href="#font_5_40" transform="matrix(16,0,0,-16,50.223096,343.36097)"/>
<use data-text="C" xlink:href="#font_5_38" transform="matrix(16,0,0,-16,59.994153,343.36097)"/>
<use data-text="H" xlink:href="#font_5_43" transform="matrix(16,0,0,-16,70.66342,343.36097)"/>
<use data-text="A" xlink:href="#font_5_36" transform="matrix(16,0,0,-16,82.215297,343.36097)"/>
<use data-text="N" xlink:href="#font_5_49" transform="matrix(16,0,0,-16,93.767169,343.36097)"/>
<use data-text="I" xlink:href="#font_5_44" transform="matrix(16,0,0,-16,105.31904,343.36097)"/>
<use data-text="S" xlink:href="#font_5_54" transform="matrix(16,0,0,-16,110.64586,343.36097)"/>
<use data-text="M" xlink:href="#font_5_48" transform="matrix(16,0,0,-16,119.54213,343.36097)"/>
<use data-text="." xlink:href="#font_5_17" transform="matrix(16,0,0,-16,144,343.36097)"/>
<use data-text="." xlink:href="#font_5_17" transform="matrix(16,0,0,-16,155.99707,343.36097)"/>
<use data-text="." xlink:href="#font_5_17" transform="matrix(16,0,0,-16,167.99414,343.36097)"/>
<use data-text="." xlink:href="#font_5_17" transform="matrix(16,0,0,-16,179.99121,343.36097)"/>
<use data-text="." xlink:href="#font_5_17" transform="matrix(16,0,0,-16,191.98828,343.36097)"/>
<use data-text="." xlink:href="#font_5_17" transform="matrix(16,0,0,-16,203.98535,343.36097)"/>
<use data-text="." xlink:href="#font_5_17" transform="matrix(16,0,0,-16,215.98242,343.36097)"/>
<use data-text="." xlink:href="#font_5_17" transform="matrix(16,0,0,-16,227.97949,343.36097)"/>
<use data-text="." xlink:href="#font_5_17" transform="matrix(16,0,0,-16,239.97657,343.36097)"/>
<use data-text="." xlink:href="#font_5_17" transform="matrix(16,0,0,-16,251.97364,343.36097)"/>
<use data-text="." xlink:href="#font_5_17" transform="matrix(16,0,0,-16,263.9707,343.36097)"/>
<use data-text="." xlink:href="#font_5_17" transform="matrix(16,0,0,-16,275.96778,343.36097)"/>
<use data-text="." xlink:href="#font_5_17" transform="matrix(16,0,0,-16,287.96485,343.36097)"/>
<use data-text="." xlink:href="#font_5_17" transform="matrix(16,0,0,-16,299.9619,343.36097)"/>
<use data-text="." xlink:href="#font_5_17" transform="matrix(16,0,0,-16,311.95899,343.36097)"/>
<use data-text="." xlink:href="#font_5_17" transform="matrix(16,0,0,-16,323.95606,343.36097)"/>
<use data-text="." xlink:href="#font_5_17" transform="matrix(16,0,0,-16,335.95314,343.36097)"/>
<use data-text="." xlink:href="#font_5_17" transform="matrix(16,0,0,-16,347.9502,343.36097)"/>
<use data-text="." xlink:href="#font_5_17" transform="matrix(16,0,0,-16,359.94728,343.36097)"/>
<use data-text="." xlink:href="#font_5_17" transform="matrix(16,0,0,-16,371.94435,343.36097)"/>
<use data-text="." xlink:href="#font_5_17" transform="matrix(16,0,0,-16,383.9414,343.36097)"/>
<use data-text="." xlink:href="#font_5_17" transform="matrix(16,0,0,-16,395.93849,343.36097)"/>
<use data-text="." xlink:href="#font_5_17" transform="matrix(16,0,0,-16,407.93556,343.36097)"/>
<use data-text="." xlink:href="#font_5_17" transform="matrix(16,0,0,-16,419.93263,343.36097)"/>
<use data-text="." xlink:href="#font_5_17" transform="matrix(16,0,0,-16,431.9297,343.36097)"/>
<use data-text="." xlink:href="#font_5_17" transform="matrix(16,0,0,-16,443.92677,343.36097)"/>
<use data-text="." xlink:href="#font_5_17" transform="matrix(16,0,0,-16,455.92384,343.36097)"/>
<use data-text="." xlink:href="#font_5_17" transform="matrix(16,0,0,-16,467.9209,343.36097)"/>
<use data-text="." xlink:href="#font_5_17" transform="matrix(16,0,0,-16,479.91798,343.36097)"/>
<use data-text="." xlink:href="#font_5_17" transform="matrix(16,0,0,-16,491.91505,343.36097)"/>
<use data-text="." xlink:href="#font_5_17" transform="matrix(16,0,0,-16,503.9121,343.36097)"/>
<use data-text="." xlink:href="#font_5_17" transform="matrix(16,0,0,-16,515.9092,343.36097)"/>
<use data-text="." xlink:href="#font_5_17" transform="matrix(16,0,0,-16,527.90628,343.36097)"/>
<use data-text="." xlink:href="#font_5_17" transform="matrix(16,0,0,-16,539.9033,343.36097)"/>
<use data-text="1" xlink:href="#font_5_20" transform="matrix(16,0,0,-16,551.9004,343.36097)"/>
<use data-text="2" xlink:href="#font_5_21" transform="matrix(16,0,0,-16,559.89846,343.36097)"/>
<use data-text="C" xlink:href="#font_5_38" transform="matrix(16,0,0,-16,36,385.67738)"/>
<use data-text="O" xlink:href="#font_5_50" transform="matrix(16,0,0,-16,46.66927,385.67738)"/>
<use data-text="N" xlink:href="#font_5_49" transform="matrix(16,0,0,-16,58.22114,385.67738)"/>
<use data-text="C" xlink:href="#font_5_38" transform="matrix(16,0,0,-16,69.77301,385.67738)"/>
<use data-text="L" xlink:href="#font_5_47" transform="matrix(16,0,0,-16,80.44228,385.67738)"/>
<use data-text="U" xlink:href="#font_5_56" transform="matrix(16,0,0,-16,90.21334,385.67738)"/>
<use data-text="S" xlink:href="#font_5_54" transform="matrix(16,0,0,-16,101.76521,385.67738)"/>
<use data-text="I" xlink:href="#font_5_44" transform="matrix(16,0,0,-16,110.66148,385.67738)"/>
<use data-text="O" xlink:href="#font_5_50" transform="matrix(16,0,0,-16,115.98831,385.67738)"/>
<use data-text="N" xlink:href="#font_5_49" transform="matrix(16,0,0,-16,127.54018,385.67738)"/>
<use data-text="." xlink:href="#font_5_17" transform="matrix(16,0,0,-16,144,385.67738)"/>
<use data-text="." xlink:href="#font_5_17" transform="matrix(16,0,0,-16,155.99707,385.67738)"/>
<use data-text="." xlink:href="#font_5_17" transform="matrix(16,0,0,-16,167.99414,385.67738)"/>
<use data-text="." xlink:href="#font_5_17" transform="matrix(16,0,0,-16,179.99121,385.67738)"/>
<use data-text="." xlink:href="#font_5_17" transform="matrix(16,0,0,-16,191.98828,385.67738)"/>
<use data-text="." xlink:href="#font_5_17" transform="matrix(16,0,0,-16,203.98535,385.67738)"/>
<use data-text="." xlink:href="#font_5_17" transform="matrix(16,0,0,-16,215.98242,385.67738)"/>
<use data-text="." xlink:href="#font_5_17" transform="matrix(16,0,0,-16,227.97949,385.67738)"/>
<use data-text="." xlink:href="#font_5_17" transform="matrix(16,0,0,-16,239.97657,385.67738)"/>
<use data-text="." xlink:href="#font_5_17" transform="matrix(16,0,0,-16,251.97364,385.67738)"/>
<use data-text="." xlink:href="#font_5_17" transform="matrix(16,0,0,-16,263.9707,385.67738)"/>
<use data-text="." xlink:href="#font_5_17" transform="matrix(16,0,0,-16,275.96778,385.67738)"/>
<use data-text="." xlink:href="#font_5_17" transform="matrix(16,0,0,-16,287.96485,385.67738)"/>
<use data-text="." xlink:href="#font_5_17" transform="matrix(16,0,0,-16,299.9619,385.67738)"/>
<use data-text="." xlink:href="#font_5_17" transform="matrix(16,0,0,-16,311.95899,385.67738)"/>
<use data-text="." xlink:href="#font_5_17" transform="matrix(16,0,0,-16,323.95606,385.67738)"/>
<use data-text="." xlink:href="#font_5_17" transform="matrix(16,0,0,-16,335.95314,385.67738)"/>
<use data-text="." xlink:href="#font_5_17" transform="matrix(16,0,0,-16,347.9502,385.67738)"/>
<use data-text="." xlink:href="#font_5_17" transform="matrix(16,0,0,-16,359.94728,385.67738)"/>
<use data-text="." xlink:href="#font_5_17" transform="matrix(16,0,0,-16,371.94435,385.67738)"/>
<use data-text="." xlink:href="#font_5_17" transform="matrix(16,0,0,-16,383.9414,385.67738)"/>
<use data-text="." xlink:href="#font_5_17" transform="matrix(16,0,0,-16,395.93849,385.67738)"/>
<use data-text="." xlink:href="#font_5_17" transform="matrix(16,0,0,-16,407.93556,385.67738)"/>
<use data-text="." xlink:href="#font_5_17" transform="matrix(16,0,0,-16,419.93263,385.67738)"/>
<use data-text="." xlink:href="#font_5_17" transform="matrix(16,0,0,-16,431.9297,385.67738)"/>
<use data-text="." xlink:href="#font_5_17" transform="matrix(16,0,0,-16,443.92677,385.67738)"/>
<use data-text="." xlink:href="#font_5_17" transform="matrix(16,0,0,-16,455.92384,385.67738)"/>
<use data-text="." xlink:href="#font_5_17" transform="matrix(16,0,0,-16,467.9209,385.67738)"/>
<use data-text="." xlink:href="#font_5_17" transform="matrix(16,0,0,-16,479.91798,385.67738)"/>
<use data-text="." xlink:href="#font_5_17" transform="matrix(16,0,0,-16,491.91505,385.67738)"/>
<use data-text="." xlink:href="#font_5_17" transform="matrix(16,0,0,-16,503.9121,385.67738)"/>
<use data-text="." xlink:href="#font_5_17" transform="matrix(16,0,0,-16,515.9092,385.67738)"/>
<use data-text="." xlink:href="#font_5_17" transform="matrix(16,0,0,-16,527.90628,385.67738)"/>
<use data-text="." xlink:href="#font_5_17" transform="matrix(16,0,0,-16,539.9033,385.67738)"/>
<use data-text="1" xlink:href="#font_5_20" transform="matrix(16,0,0,-16,551.9004,385.67738)"/>
<use data-text="6" xlink:href="#font_5_25" transform="matrix(16,0,0,-16,559.89846,385.67738)"/>
<use data-text="R" xlink:href="#font_5_53" transform="matrix(16,0,0,-16,36,427.99378)"/>
<use data-text="E" xlink:href="#font_5_40" transform="matrix(16,0,0,-16,46.66927,427.99378)"/>
<use data-text="F" xlink:href="#font_5_41" transform="matrix(16,0,0,-16,56.440328,427.99378)"/>
<use data-text="E" xlink:href="#font_5_40" transform="matrix(16,0,0,-16,65.33659,427.99378)"/>
<use data-text="R" xlink:href="#font_5_53" transform="matrix(16,0,0,-16,75.10765,427.99378)"/>
<use data-text="E" xlink:href="#font_5_40" transform="matrix(16,0,0,-16,85.776927,427.99378)"/>
<use data-text="N" xlink:href="#font_5_49" transform="matrix(16,0,0,-16,95.54798,427.99378)"/>
<use data-text="C" xlink:href="#font_5_38" transform="matrix(16,0,0,-16,107.09985,427.99378)"/>
<use data-text="E" xlink:href="#font_5_40" transform="matrix(16,0,0,-16,117.76912,427.99378)"/>
<use data-text="S" xlink:href="#font_5_54" transform="matrix(16,0,0,-16,127.54018,427.99378)"/>
<use data-text="." xlink:href="#font_5_17" transform="matrix(16,0,0,-16,144,427.99378)"/>
<use data-text="." xlink:href="#font_5_17" transform="matrix(16,0,0,-16,155.99707,427.99378)"/>
<use data-text="." xlink:href="#font_5_17" transform="matrix(16,0,0,-16,167.99414,427.99378)"/>
<use data-text="." xlink:href="#font_5_17" transform="matrix(16,0,0,-16,179.99121,427.99378)"/>
<use data-text="." xlink:href="#font_5_17" transform="matrix(16,0,0,-16,191.98828,427.99378)"/>
<use data-text="." xlink:href="#font_5_17" transform="matrix(16,0,0,-16,203.98535,427.99378)"/>
<use data-text="." xlink:href="#font_5_17" transform="matrix(16,0,0,-16,215.98242,427.99378)"/>
<use data-text="." xlink:href="#font_5_17" transform="matrix(16,0,0,-16,227.97949,427.99378)"/>
<use data-text="." xlink:href="#font_5_17" transform="matrix(16,0,0,-16,239.97657,427.99378)"/>
<use data-text="." xlink:href="#font_5_17" transform="matrix(16,0,0,-16,251.97364,427.99378)"/>
<use data-text="." xlink:href="#font_5_17" transform="matrix(16,0,0,-16,263.9707,427.99378)"/>
<use data-text="." xlink:href="#font_5_17" transform="matrix(16,0,0,-16,275.96778,427.99378)"/>
<use data-text="." xlink:href="#font_5_17" transform="matrix(16,0,0,-16,287.96485,427.99378)"/>
<use data-text="." xlink:href="#font_5_17" transform="matrix(16,0,0,-16,299.9619,427.99378)"/>
<use data-text="." xlink:href="#font_5_17" transform="matrix(16,0,0,-16,311.95899,427.99378)"/>
<use data-text="." xlink:href="#font_5_17" transform="matrix(16,0,0,-16,323.95606,427.99378)"/>
<use data-text="." xlink:href="#font_5_17" transform="matrix(16,0,0,-16,335.95314,427.99378)"/>
<use data-text="." xlink:href="#font_5_17" transform="matrix(16,0,0,-16,347.9502,427.99378)"/>
<use data-text="." xlink:href="#font_5_17" transform="matrix(16,0,0,-16,359.94728,427.99378)"/>
<use data-text="." xlink:href="#font_5_17" transform="matrix(16,0,0,-16,371.94435,427.99378)"/>
<use data-text="." xlink:href="#font_5_17" transform="matrix(16,0,0,-16,383.9414,427.99378)"/>
<use data-text="." xlink:href="#font_5_17" transform="matrix(16,0,0,-16,395.93849,427.99378)"/>
<use data-text="." xlink:href="#font_5_17" transform="matrix(16,0,0,-16,407.93556,427.99378)"/>
<use data-text="." xlink:href="#font_5_17" transform="matrix(16,0,0,-16,419.93263,427.99378)"/>
<use data-text="." xlink:href="#font_5_17" transform="matrix(16,0,0,-16,431.9297,427.99378)"/>
<use data-text="." xlink:href="#font_5_17" transform="matrix(16,0,0,-16,443.92677,427.99378)"/>
<use data-text="." xlink:href="#font_5_17" transform="matrix(16,0,0,-16,455.92384,427.99378)"/>
<use data-text="." xlink:href="#font_5_17" transform="matrix(16,0,0,-16,467.9209,427.99378)"/>
<use data-text="." xlink:href="#font_5_17" transform="matrix(16,0,0,-16,479.91798,427.99378)"/>
<use data-text="." xlink:href="#font_5_17" transform="matrix(16,0,0,-16,491.91505,427.99378)"/>
<use data-text="." xlink:href="#font_5_17" transform="matrix(16,0,0,-16,503.9121,427.99378)"/>
<use data-text="." xlink:href="#font_5_17" transform="matrix(16,0,0,-16,515.9092,427.99378)"/>
<use data-text="." xlink:href="#font_5_17" transform="matrix(16,0,0,-16,527.90628,427.99378)"/>
<use data-text="." xlink:href="#font_5_17" transform="matrix(16,0,0,-16,539.9033,427.99378)"/>
<use data-text="1" xlink:href="#font_5_20" transform="matrix(16,0,0,-16,551.9004,427.99378)"/>
<use data-text="7" xlink:href="#font_5_26" transform="matrix(16,0,0,-16,559.89846,427.99378)"/>
<use data-text="A" xlink:href="#font_5_36" transform="matrix(16,0,0,-16,36,470.31019)"/>
<use data-text="P" xlink:href="#font_5_51" transform="matrix(16,0,0,-16,47.551874,470.31019)"/>
<use data-text="P" xlink:href="#font_5_51" transform="matrix(16,0,0,-16,56.448144,470.31019)"/>
<use data-text="E" xlink:href="#font_5_40" transform="matrix(16,0,0,-16,65.34441,470.31019)"/>
<use data-text="N" xlink:href="#font_5_49" transform="matrix(16,0,0,-16,75.11547,470.31019)"/>
<use data-text="D" xlink:href="#font_5_39" transform="matrix(16,0,0,-16,86.66734,470.31019)"/>
<use data-text="I" xlink:href="#font_5_44" transform="matrix(16,0,0,-16,98.219219,470.31019)"/>
<use data-text="X" xlink:href="#font_5_59" transform="matrix(16,0,0,-16,103.546039,470.31019)"/>
<use data-text="." xlink:href="#font_5_17" transform="matrix(16,0,0,-16,144,470.31019)"/>
<use data-text="." xlink:href="#font_5_17" transform="matrix(16,0,0,-16,155.99707,470.31019)"/>
<use data-text="." xlink:href="#font_5_17" transform="matrix(16,0,0,-16,167.99414,470.31019)"/>
<use data-text="." xlink:href="#font_5_17" transform="matrix(16,0,0,-16,179.99121,470.31019)"/>
<use data-text="." xlink:href="#font_5_17" transform="matrix(16,0,0,-16,191.98828,470.31019)"/>
<use data-text="." xlink:href="#font_5_17" transform="matrix(16,0,0,-16,203.98535,470.31019)"/>
<use data-text="." xlink:href="#font_5_17" transform="matrix(16,0,0,-16,215.98242,470.31019)"/>
<use data-text="." xlink:href="#font_5_17" transform="matrix(16,0,0,-16,227.97949,470.31019)"/>
<use data-text="." xlink:href="#font_5_17" transform="matrix(16,0,0,-16,239.97657,470.31019)"/>
<use data-text="." xlink:href="#font_5_17" transform="matrix(16,0,0,-16,251.97364,470.31019)"/>
<use data-text="." xlink:href="#font_5_17" transform="matrix(16,0,0,-16,263.9707,470.31019)"/>
<use data-text="." xlink:href="#font_5_17" transform="matrix(16,0,0,-16,275.96778,470.31019)"/>
<use data-text="." xlink:href="#font_5_17" transform="matrix(16,0,0,-16,287.96485,470.31019)"/>
<use data-text="." xlink:href="#font_5_17" transform="matrix(16,0,0,-16,299.9619,470.31019)"/>
<use data-text="." xlink:href="#font_5_17" transform="matrix(16,0,0,-16,311.95899,470.31019)"/>
<use data-text="." xlink:href="#font_5_17" transform="matrix(16,0,0,-16,323.95606,470.31019)"/>
<use data-text="." xlink:href="#font_5_17" transform="matrix(16,0,0,-16,335.95314,470.31019)"/>
<use data-text="." xlink:href="#font_5_17" transform="matrix(16,0,0,-16,347.9502,470.31019)"/>
<use data-text="." xlink:href="#font_5_17" transform="matrix(16,0,0,-16,359.94728,470.31019)"/>
<use data-text="." xlink:href="#font_5_17" transform="matrix(16,0,0,-16,371.94435,470.31019)"/>
<use data-text="." xlink:href="#font_5_17" transform="matrix(16,0,0,-16,383.9414,470.31019)"/>
<use data-text="." xlink:href="#font_5_17" transform="matrix(16,0,0,-16,395.93849,470.31019)"/>
<use data-text="." xlink:href="#font_5_17" transform="matrix(16,0,0,-16,407.93556,470.31019)"/>
<use data-text="." xlink:href="#font_5_17" transform="matrix(16,0,0,-16,419.93263,470.31019)"/>
<use data-text="." xlink:href="#font_5_17" transform="matrix(16,0,0,-16,431.9297,470.31019)"/>
<use data-text="." xlink:href="#font_5_17" transform="matrix(16,0,0,-16,443.92677,470.31019)"/>
<use data-text="." xlink:href="#font_5_17" transform="matrix(16,0,0,-16,455.92384,470.31019)"/>
<use data-text="." xlink:href="#font_5_17" transform="matrix(16,0,0,-16,467.9209,470.31019)"/>
<use data-text="." xlink:href="#font_5_17" transform="matrix(16,0,0,-16,479.91798,470.31019)"/>
<use data-text="." xlink:href="#font_5_17" transform="matrix(16,0,0,-16,491.91505,470.31019)"/>
<use data-text="." xlink:href="#font_5_17" transform="matrix(16,0,0,-16,503.9121,470.31019)"/>
<use data-text="." xlink:href="#font_5_17" transform="matrix(16,0,0,-16,515.9092,470.31019)"/>
<use data-text="." xlink:href="#font_5_17" transform="matrix(16,0,0,-16,527.90628,470.31019)"/>
<use data-text="." xlink:href="#font_5_17" transform="matrix(16,0,0,-16,539.9033,470.31019)"/>
<use data-text="1" xlink:href="#font_5_20" transform="matrix(16,0,0,-16,551.9004,470.31019)"/>
<use data-text="8" xlink:href="#font_5_27" transform="matrix(16,0,0,-16,559.89846,470.31019)"/>
<g clip-path="url(#clip_6)">
<use data-text="2" xlink:href="#font_7_21" transform="matrix(11,0,0,-11,302.94334,967.7716)"/>
</g>
</svg>
