<svg xmlns="http://www.w3.org/2000/svg" xmlns:xlink="http://www.w3.org/1999/xlink" version="1.1" width="612" height="1008" viewBox="0 0 612 1008">
<defs>
<path id="font_95_4" d="M.38867188 0V.023925782C.4049479 .02718099 .41707359 .030761719 .42504884 .03466797 .43302409 .03857422 .43896485 .04402669 .4428711 .05102539 .44677735 .05802409 .44873048 .06738281 .44873048 .07910156 .44873048 .09016927 .44742839 .102132167 .44482423 .114990238 .44222007 .12784831 .43847657 .14225261 .43359376 .15820313L.41552735 .2211914H.18798828L.17138672 .17333985C.16292317 .1492513 .15738933 .13102214 .15478516 .118652347 .15218099 .106282558 .1508789 .095052089 .1508789 .08496094 .1508789 .06542969 .1558431 .05110677 .16577149 .041992189 .17569988 .032877607 .19091797 .026855469 .21142578 .023925782V0H.0029296876V.023925782C.021158854 .026855469 .037027997 .037434896 .05053711 .055664064 .06404623 .07389323 .07714844 .0999349 .08984375 .13378906L.29345704 .6743164H.37060548L.5366211 .12988281C.5444336 .10449219 .5513509 .085123699 .55737307 .071777347 .5633952 .05843099 .570638 .048014326 .57910159 .040527345 .5875651 .033040365 .5991211 .02750651 .61376956 .023925782V0H.38867188M.20117188 .26367188H.40527345L.3125 .5786133 .20117188 .26367188Z"/>
<path id="font_95_19" d="M.20751953 .123535159C.20751953 .10432943 .20857747 .089029949 .21069336 .07763672 .21280925 .06624349 .21606446 .057210287 .22045899 .05053711 .22485352 .043863935 .23079427 .038655599 .23828125 .03491211 .24576824 .03116862 .25748698 .02750651 .2734375 .023925782V0H.05908203V.023925782C.07926432 .029134116 .09277344 .03491211 .099609378 .041259767 .10644531 .047607423 .11092123 .056640626 .11303711 .068359378 .11515299 .080078128 .11621094 .09798177 .11621094 .12207031V.5444336C.11621094 .56689456 .11539713 .58325198 .11376953 .59350588 .11214193 .60375979 .10945638 .61173507 .10571289 .61743167 .1019694 .62312826 .09700521 .62768557 .09082031 .6311035 .084635417 .6345215 .07405599 .6383464 .05908203 .6425781V.6665039H.30126954C.3774414 .6665039 .43416343 .6519368 .47143556 .62280276 .5087077 .59366866 .52734377 .5493164 .52734377 .4897461 .52734377 .45589195 .5214844 .42545573 .5097656 .3984375 .49804688 .37141929 .4814453 .34928385 .45996095 .33203126 .43847657 .31477867 .41308595 .30240885 .38378907 .29492188 .3544922 .2874349 .32373048 .2836914 .2915039 .2836914 .2553711 .2836914 .2273763 .28434245 .20751953 .28564454V.123535159M.20751953 .32617188H.26416017C.300944 .32617188 .33129884 .3309733 .3552246 .34057618 .3791504 .35017906 .39746095 .36612956 .41015626 .38842774 .42285157 .41072593 .42919923 .44026695 .42919923 .47705079 .42919923 .5050456 .42545573 .5284017 .41796876 .54711917 .41048179 .5658366 .40014649 .5808919 .3869629 .59228518 .3737793 .6036784 .3580729 .61173507 .33984376 .6164551 .3216146 .6211751 .3017578 .62353518 .28027345 .62353518 .24804688 .62353518 .22379558 .6228841 .20751953 .62158206V.32617188Z"/>
<path id="font_95_8" d="M.515625 .6665039V.51904299H.46777345C.46289063 .53499349 .45784507 .5489909 .45263673 .56103518 .44742839 .5730794 .44205729 .5831706 .43652345 .5913086 .4309896 .5994466 .42488609 .60595706 .4182129 .61083987 .4115397 .61572268 .40364585 .61905929 .39453126 .6208496 .38541667 .62263998 .37451173 .62353518 .3618164 .62353518H.20751953V.36767579H.31201173C.32633464 .36767579 .3375651 .3697103 .34570313 .3737793 .35384117 .3778483 .3605957 .38476563 .3659668 .39453126 .3713379 .40429688 .37646485 .41959635 .38134767 .4404297H.4272461V.2529297H.38134767C.37679038 .27246095 .37174479 .28719078 .36621095 .29711915 .3606771 .30704753 .3540853 .3141276 .34643556 .31835938 .3387858 .32259117 .3273112 .32470704 .31201173 .32470704H.20751953V.04296875H.359375C.37532554 .04296875 .38826499 .044352216 .39819337 .04711914 .40812174 .049886068 .41666667 .05460612 .42382813 .061279298 .4309896 .06795248 .43733726 .076660159 .4428711 .087402347 .44840495 .09814453 .4530436 .10929362 .4567871 .12084961 .4605306 .1324056 .46565757 .1492513 .47216798 .17138672H.5205078L.51123049 0H.05908203V.023925782C.07926432 .029134116 .09277344 .03491211 .099609378 .041259767 .10644531 .047607423 .11092123 .056640626 .11303711 .068359378 .11515299 .080078128 .11621094 .09798177 .11621094 .12207031V.5444336C.11621094 .56689456 .11539713 .58325198 .11376953 .59350588 .11214193 .60375979 .10945638 .61173507 .10571289 .61743167 .1019694 .62312826 .09700521 .62768557 .09082031 .6311035 .084635417 .6345215 .07405599 .6383464 .05908203 .6425781V.6665039H.515625Z"/>
<path id="font_95_17" d="M.45117188 .26416017C.46289063 .2446289 .47273765 .22753906 .4807129 .21289063 .48868815 .19824219 .49690757 .18180339 .5053711 .16357422H.51171877C.5100911 .18343099 .5086263 .22290039 .5073242 .28198243 .50602218 .34106446 .5053711 .3943685 .5053711 .44189454V.5444336C.5053711 .56689456 .50472006 .5833333 .50341799 .59375 .5021159 .6041667 .49975587 .6121419 .4963379 .6176758 .49291993 .62320968 .48819987 .62768557 .48217774 .6311035 .4761556 .6345215 .46565757 .6383464 .4506836 .6425781V.6665039H.62646487V.6425781C.6118164 .6386719 .60148116 .6350911 .595459 .63183596 .5894368 .62858077 .584554 .62434896 .58081057 .6191406 .5770671 .6139323 .57421877 .6061198 .5722656 .5957031 .5703125 .58528646 .56933596 .5681966 .56933596 .5444336V-.0029296876H.5083008L.23632813 .453125C.21940105 .4814453 .20735677 .5021159 .20019531 .5151367 .19303386 .52815756 .18636067 .5410156 .18017578 .55371096H.171875C.17415364 .5286458 .17578125 .48331706 .17675781 .4177246 .17773438 .35213218 .17822266 .28678385 .17822266 .22167969V.12207031C.17822266 .100260417 .17895508 .0843099 .18041992 .07421875 .18188477 .0641276 .18432617 .056152345 .18774414 .05029297 .19116211 .044433595 .19620769 .03955078 .20288086 .03564453 .20955403 .03173828 .22037761 .027832032 .23535156 .023925782V0H.057128908V.023925782C.077311199 .029134116 .09082031 .03491211 .09765625 .041259767 .10449219 .047607423 .1089681 .056640626 .111083988 .068359378 .11319987 .080078128 .11425781 .09798177 .11425781 .12207031V.5444336C.11425781 .56689456 .11344401 .58325198 .111816409 .59350588 .110188808 .60375979 .10750326 .61173507 .103759769 .61743167 .10001627 .62312826 .095052089 .62768557 .08886719 .6311035 .08268229 .6345215 .07210287 .6383464 .057128908 .6425781V.6665039H.20996094L.45117188 .26416017Z"/>
<path id="font_95_7" d="M.05859375 0V.023925782C.07356771 .027832032 .0843099 .03157552 .09082031 .03515625 .09733073 .03873698 .102376308 .04329427 .10595703 .048828126 .10953776 .05436198 .11214193 .06233724 .11376953 .072753909 .11539713 .08317057 .11621094 .099609378 .11621094 .12207031V.5444336C.11621094 .56722006 .11539713 .58374026 .11376953 .59399417 .11214193 .60424807 .10945638 .6121419 .10571289 .6176758 .1019694 .62320968 .09700521 .62768557 .09082031 .6311035 .084635417 .6345215 .07389323 .6383464 .05859375 .6425781V.6665039H.27246095C.33398438 .6665039 .38435874 .6597493 .42358399 .64624026 .46280924 .63273116 .495931 .61279299 .5229492 .5864258 .54996749 .5600586 .5701497 .5272624 .5834961 .4880371 .59684249 .44881187 .6035156 .40201823 .6035156 .34765626 .6035156 .29264323 .5972493 .244222 .5847168 .20239258 .57218429 .16056316 .5538737 .12548828 .52978518 .09716797 .50895187 .07242838 .48339845 .052083333 .453125 .036132814 .4280599 .023111979 .39908854 .013834636 .36621095 .008300781 .33333335 .002766927 .28971354 0 .23535156 0H.05859375M.20751953 .045410158C.22054036 .044108076 .2397461 .04345703 .26513673 .04345703 .29248048 .04345703 .31689454 .045735677 .3383789 .05029297 .35986329 .05485026 .37939454 .06201172 .39697267 .071777347 .41455079 .08154297 .43033854 .09513346 .44433595 .11254883 .45833335 .12996419 .46972657 .14998372 .47851563 .17260742 .4873047 .19523113 .49373374 .22037761 .49780274 .24804688 .50187179 .27571617 .50390627 .3059896 .50390627 .3388672 .50390627 .4049479 .49438478 .45922853 .4753418 .501709 .45629884 .54418948 .42944337 .5751953 .3947754 .59472659 .36010743 .6142578 .3186849 .62402346 .2705078 .62402346 .24837239 .62402346 .2273763 .6233724 .20751953 .6220703V.045410158Z"/>
<path id="font_95_12" d="M.20800781 .12207031C.20800781 .100260417 .20874024 .0843099 .21020508 .07421875 .21166992 .0641276 .21411133 .056152345 .2175293 .05029297 .22094727 .044433595 .22599285 .03955078 .23266602 .03564453 .23933919 .03173828 .25016276 .027832032 .26513673 .023925782V0H.05908203V.023925782C.07926432 .029134116 .09277344 .03491211 .099609378 .041259767 .10644531 .047607423 .11092123 .056640626 .11303711 .068359378 .11515299 .080078128 .11621094 .09798177 .11621094 .12207031V.5444336C.11621094 .56689456 .11539713 .58325198 .11376953 .59350588 .11214193 .60375979 .10945638 .61173507 .10571289 .61743167 .1019694 .62312826 .09700521 .62768557 .09082031 .6311035 .084635417 .6345215 .07405599 .6383464 .05908203 .6425781V.6665039H.26513673V.6425781C.2508138 .6389974 .24047852 .6354167 .23413086 .63183596 .2277832 .6282552 .22273763 .6237793 .21899414 .6184082 .21525066 .6130371 .21248372 .60498049 .21069336 .5942383 .208903 .5834961 .20800781 .56689456 .20800781 .5444336V.12207031Z"/>
<path id="font_95_27" d="M.23486328 .6665039V.6425781C.21923828 .6402995 .20800781 .6360677 .20117188 .6298828 .19433594 .62369796 .19091797 .6152344 .19091797 .6044922 .19091797 .5953776 .19401042 .5839844 .20019531 .5703125 .2063802 .5566406 .21516927 .54036459 .2265625 .5214844L.29736329 .40283204 .3671875 .515625C.37760417 .53255209 .38541667 .5460612 .390625 .55615237 .39583335 .56624349 .39949546 .57470706 .40161134 .58154299 .4037272 .5883789 .40478517 .5953776 .40478517 .60253909 .40478517 .6126302 .40185548 .6211751 .3959961 .6281738 .39013673 .63517257 .3803711 .63997396 .36669923 .6425781V.6665039H.54785159V.6425781C.5358073 .6386719 .5249837 .6329753 .51538088 .6254883 .505778 .6180013 .49552409 .6070964 .48461915 .59277346 .4737142 .5784505 .45817057 .55582687 .43798829 .52490237L.32763673 .3540039 .45166017 .14990235C.46923829 .12093099 .4818522 .10066732 .48950196 .08911133 .4971517 .077555339 .5043132 .06778971 .5109863 .059814454 .5176595 .05183919 .524821 .044921876 .5324707 .0390625 .5401204 .033203126 .5496419 .028157553 .56103518 .023925782V0H.3466797V.023925782C.36165367 .026529948 .37272135 .030680338 .3798828 .036376954 .38704429 .042073568 .390625 .05061849 .390625 .06201172 .390625 .071126308 .38826499 .081217449 .38354493 .092285159 .37882487 .10335287 .37158204 .11702474 .3618164 .13330078L.2734375 .28076173 .18017578 .12792969C.16455078 .10221354 .15673828 .08105469 .15673828 .064453128 .15673828 .053710939 .15966797 .044921876 .16552735 .038085939 .17138672 .03125 .18115235 .026529948 .19482422 .023925782V0H.010253906V.023925782C.022298178 .02750651 .032226564 .03181966 .040039064 .036865236 .047851564 .04191081 .055338544 .048339845 .0625 .056152345 .06966146 .063964847 .07763672 .07389323 .08642578 .0859375 .095214847 .09798177 .10921224 .11897787 .12841797 .14892578L.24365235 .32861329 .10595703 .5551758C.092936199 .5760091 .083089198 .5911458 .076416019 .60058596 .069742839 .61002609 .063557948 .6176758 .057861329 .62353518 .052164716 .62939456 .04703776 .6335449 .04248047 .6359863 .037923177 .63842776 .032714845 .640625 .026855469 .6425781V.6665039H.23486328Z"/>
<clipPath id="clip_96">
<path d="M0 957.4531H612V1008H0Z" fill-rule="evenodd"/>
</clipPath>
<path id="font_97_20" d="M.3725586 0H.28466798V.5600586C.26350913 .5398763 .23575847 .51969406 .20141602 .49951173 .16707357 .47932945 .13623047 .46419273 .10888672 .45410157V.5390625C.15804036 .5621745 .20100911 .59016928 .23779297 .6230469 .2745768 .6559245 .3006185 .6878255 .31591798 .71875H.3725586V0Z"/>
<path id="font_97_27" d="M.17675781 .38893128C.14029949 .4022471 .11328125 .4212443 .095703128 .44592286 .078125 .47061158 .06933594 .50016787 .06933594 .5345917 .06933594 .5865631 .08805338 .630249 .12548828 .6656494 .16292317 .7010498 .21272786 .71875 .27490235 .71875 .33740235 .71875 .3876953 .7006429 .42578126 .6644287 .4638672 .62821456 .48291017 .5841268 .48291017 .5321655 .48291017 .4990336 .47420249 .47020469 .4567871 .4456787 .43937174 .42116294 .4129232 .4022471 .3774414 .38893128 .42138673 .37459819 .45483399 .35147096 .4777832 .31954957 .5007324 .28762818 .51220706 .2495168 .51220706 .20521546 .51220706 .14397685 .4905599 .09250895 .44726563 .050811769 .40397135 .009124756 .34700523-.01171875 .2763672-.01171875 .20572917-.01171875 .14876302 .009206136 .10546875 .05105591 .06217448 .092915859 .040527345 .14511617 .040527345 .20765686 .040527345 .25423686 .052327474 .2932434 .075927738 .3246765 .09952799 .35610963 .13313802 .37752787 .17675781 .38893128M.15917969 .5375824C.15917969 .5038808 .17008464 .47633363 .19189453 .4549408 .21370442 .43354798 .24202474 .42285157 .27685548 .42285157 .31070964 .42285157 .3384603 .43346659 .36010743 .45469667 .38175456 .47592674 .39257813 .50193789 .39257813 .5327301 .39257813 .56481429 .38142906 .5917918 .35913087 .6136627 .33683268 .6355438 .30908204 .6464844 .2758789 .6464844 .24235027 .6464844 .21451824 .63578799 .19238281 .61439517 .17024739 .5930023 .15917969 .5673981 .15917969 .5375824M.13085938 .20703125C.13085938 .18196614 .13680013 .15771485 .14868164 .13427735 .16056316 .110839847 .17822266 .092692058 .20166016 .079833988 .22509766 .066975917 .25032554 .060546876 .27734376 .060546876 .31933595 .060546876 .3540039 .07405599 .38134767 .10107422 .4086914 .12809246 .42236329 .16243489 .42236329 .20410156 .42236329 .24641927 .40828453 .28141276 .38012696 .30908204 .3519694 .3367513 .31673179 .35058595 .27441407 .35058595 .23307292 .35058595 .19881185 .33691407 .17163086 .3095703 .14444988 .28222657 .13085938 .24804688 .13085938 .20703125Z"/>
</defs>
<path transform="matrix(.75,0,0,.75,0,0)" d="M0 0H816V1344H0Z" fill="#ffffff"/>
<use data-text="A" xlink:href="#font_95_4" transform="matrix(26,0,0,-26,36,258.6914)"/>
<use data-text="P" xlink:href="#font_95_19" transform="matrix(26,0,0,-26,52.19435,258.6914)"/>
<use data-text="P" xlink:href="#font_95_19" transform="matrix(26,0,0,-26,66.95456,258.6914)"/>
<use data-text="E" xlink:href="#font_95_8" transform="matrix(26,0,0,-26,81.714778,258.6914)"/>
<use data-text="N" xlink:href="#font_95_17" transform="matrix(26,0,0,-26,96.66536,258.6914)"/>
<use data-text="D" xlink:href="#font_95_7" transform="matrix(26,0,0,-26,114.35731,258.6914)"/>
<use data-text="I" xlink:href="#font_95_12" transform="matrix(26,0,0,-26,131.55429,258.6914)"/>
<use data-text="X" xlink:href="#font_95_27" transform="matrix(26,0,0,-26,139.98145,258.6914)"/>
<g clip-path="url(#clip_96)">
<use data-text="1" xlink:href="#font_97_20" transform="matrix(11,0,0,-11,299.88667,967.771)"/>
<use data-text="8" xlink:href="#font_97_27" transform="matrix(11,0,0,-11,306,967.771)"/>
</g>
</svg>
